<?xml version="1.0" encoding="UTF-8" standalone="no"?>
<svg
   xmlns:dc="http://purl.org/dc/elements/1.1/"
   xmlns:cc="http://creativecommons.org/ns#"
   xmlns:rdf="http://www.w3.org/1999/02/22-rdf-syntax-ns#"
   xmlns:svg="http://www.w3.org/2000/svg"
   xmlns="http://www.w3.org/2000/svg"
   xmlns:sodipodi="http://sodipodi.sourceforge.net/DTD/sodipodi-0.dtd"
   xmlns:inkscape="http://www.inkscape.org/namespaces/inkscape"
   version="1.1"
   id="Layer_1"
   x="0px"
   y="0px"
   width="512"
   height="106"
   viewBox="0 0 511.99999 106"
   enable-background="new 0 0 568.929 116.145"
   xml:space="preserve"
   sodipodi:docname="system.svg"
   inkscape:version="1.0.2 (e86c8708, 2021-01-15)"><metadata
   id="metadata872"><rdf:RDF><cc:Work
       rdf:about=""><dc:format>image/svg+xml</dc:format><dc:type
         rdf:resource="http://purl.org/dc/dcmitype/StillImage" /><dc:title></dc:title></cc:Work></rdf:RDF></metadata><defs
   id="defs870" /><sodipodi:namedview
   pagecolor="#ffffff"
   bordercolor="#666666"
   borderopacity="1"
   objecttolerance="10"
   gridtolerance="10"
   guidetolerance="10"
   inkscape:pageopacity="0"
   inkscape:pageshadow="2"
   inkscape:window-width="1142"
   inkscape:window-height="711"
   id="namedview868"
   showgrid="false"
   inkscape:zoom="1"
   inkscape:cx="284.46451"
   inkscape:cy="58.072498"
   inkscape:window-x="0"
   inkscape:window-y="23"
   inkscape:window-maximized="0"
   inkscape:current-layer="Layer_1"><inkscape:grid
     type="xygrid"
     id="grid903" /></sodipodi:namedview>








<g
   id="g901"
   transform="matrix(0.87880936,0,0,0.87841729,5.8495521,2.3886702)"><g
     id="g817">
	<polygon
   fill="#ffffff"
   points="359.367,50.715 359.367,55.566 354.53,55.566 354.53,76.674 358.71,76.674 358.71,81.131 363.302,81.131 363.302,85.851 375.765,85.851 375.765,108.095 358.71,108.095 358.71,105.358 353.462,105.358 353.462,102.793 349.265,102.793 349.265,99.203 345.46,99.203 345.46,94.442 341,94.442 341,89.753 336.804,89.753 336.804,84.113 332.734,84.113 332.734,48.142 336.804,48.142 336.804,42.718 340.869,42.718 340.869,37.813 345.593,37.813 345.593,33.124 349.265,33.124 349.265,29.74 353.07,29.74 353.07,26.897 358.58,26.897 358.58,24.416 375.765,24.416 375.765,46.389 363.564,46.389 363.564,50.715 "
   id="polygon813" />
	<path
   d="M 376.515,108.845 H 357.96 v -2.737 h -5.248 v -2.564 h -4.197 v -3.59 h -3.805 v -4.762 h -4.461 v -4.688 h -4.195 v -5.641 h -4.07 V 47.392 h 4.07 v -5.424 h 4.064 v -4.905 h 4.725 v -4.688 h 3.672 V 28.99 h 3.805 v -2.844 h 5.51 v -2.48 h 18.686 v 23.473 h -12.201 v 4.326 h -4.197 v 4.851 h -4.837 v 19.608 h 4.181 v 4.457 h 4.592 v 4.72 h 12.463 v 23.744 z m -17.055,-1.5 h 15.555 V 86.601 h -12.463 v -4.72 h -4.592 v -4.457 h -4.181 V 54.816 h 4.837 v -4.851 h 4.197 v -4.326 h 12.201 V 25.166 H 359.33 v 2.48 h -5.51 v 2.844 h -3.805 v 3.384 h -3.672 v 4.688 h -4.725 v 4.905 h -4.064 v 5.424 h -4.07 v 34.471 h 4.07 v 5.641 h 4.195 v 4.688 h 4.461 v 4.762 h 3.805 v 3.59 h 4.197 v 2.564 h 5.248 z"
   id="path815" />
</g><g
     id="g823">
	<polygon
   fill="#ffffff"
   points="432.75,29.242 432.75,33.179 436.947,33.179 436.947,37.378 441.277,37.378 441.277,42.23 445.738,42.23 445.738,108.041 425.468,108.041 425.468,51.019 421.074,51.019 421.074,46.955 410.449,46.955 410.449,50.757 405.726,50.757 405.726,55.35 400.869,55.35 400.869,76.603 405.46,76.603 405.46,81.324 409.66,81.324 409.66,85.128 420.941,85.128 420.941,108.041 405.199,108.041 405.199,106.251 399.689,106.251 399.689,103.496 396.146,103.496 396.146,99.692 391.949,99.692 391.949,95.232 387.88,95.232 387.88,90.115 383.814,90.115 383.814,84.474 379.353,84.474 379.353,48.265 383.158,48.265 383.158,42.718 387.751,42.718 387.751,37.901 391.949,37.901 391.949,33.047 395.884,33.047 395.884,29.504 399.951,29.504 399.951,26.481 405.199,26.488 405.199,24.311 423.564,24.311 423.564,26.488 428.812,26.488 428.812,29.242 "
   id="polygon819" />
	<path
   d="m 446.488,108.791 h -21.77 V 51.769 h -4.395 v -4.063 h -9.125 v 3.802 h -4.723 V 56.1 h -4.857 v 19.753 h 4.592 v 4.722 h 4.199 v 3.804 h 11.281 v 24.413 h -17.242 v -1.79 h -5.51 v -2.755 h -3.543 v -3.805 h -4.197 v -4.46 h -4.068 v -5.116 h -4.066 v -5.642 h -4.461 V 47.515 h 3.805 v -5.547 h 4.594 v -4.817 h 4.197 v -4.854 h 3.936 v -3.543 h 4.066 V 25.73 l 5.248,0.007 v -2.176 h 19.865 v 2.177 h 5.248 v 2.755 h 3.938 v 3.937 h 4.197 v 4.199 h 4.33 v 4.852 h 4.461 z m -20.27,-1.5 h 18.77 V 42.98 h -4.461 v -4.852 h -4.33 V 33.929 H 432 v -3.937 h -3.938 v -2.755 h -5.248 V 25.06 h -16.865 v 2.178 l -5.248,-0.007 v 3.022 h -4.066 v 3.543 h -3.936 v 4.854 h -4.197 v 4.817 h -4.594 v 5.547 h -3.805 v 34.709 h 4.461 v 5.642 h 4.066 v 5.116 h 4.068 v 4.46 h 4.197 v 3.805 h 3.543 v 2.755 h 5.51 v 1.79 H 420.19 V 85.878 h -11.28 v -3.804 h -4.199 v -4.722 h -4.592 V 54.6 h 4.857 v -4.593 h 4.723 v -3.802 h 12.125 v 4.063 h 4.395 v 57.023 z"
   id="path821" />
</g><g
     id="g829">
	<polygon
   fill="#f2b101"
   points="56.593,29.242 56.593,33.179 60.791,33.179 60.791,37.378 65.121,37.378 65.121,42.231 69.582,42.231 69.582,108.041 49.312,108.041 49.312,51.02 44.917,51.02 44.917,46.955 34.292,46.955 34.292,50.757 29.57,50.757 29.57,55.351 24.712,55.351 24.712,76.602 29.304,76.602 29.304,81.324 33.503,81.324 33.503,85.129 44.785,85.129 44.785,108.041 29.042,108.041 29.042,106.252 23.533,106.252 23.533,103.496 19.99,103.496 19.99,99.692 15.792,99.692 15.792,95.233 11.725,95.233 11.725,90.115 7.658,90.115 7.658,84.475 3.197,84.475 3.197,48.265 7.001,48.265 7.001,42.718 11.596,42.718 11.596,37.901 15.792,37.901 15.792,33.047 19.728,33.047 19.728,29.504 23.794,29.504 23.794,26.481 29.042,26.488 29.042,24.311 47.408,24.311 47.408,26.488 52.656,26.488 52.656,29.242 "
   id="polygon825" />
	<path
   d="M 70.332,108.791 H 48.562 V 51.77 h -4.395 v -4.064 h -9.125 v 3.802 H 30.32 v 4.594 h -4.858 v 19.751 h 4.592 v 4.723 h 4.199 v 3.805 h 11.282 v 24.412 H 28.292 v -1.789 h -5.509 v -2.756 H 19.24 v -3.805 H 15.042 V 95.984 H 10.975 V 90.867 H 6.908 V 85.226 H 2.447 v -37.71 h 3.804 v -5.547 h 4.595 v -4.817 h 4.196 v -4.854 h 3.936 v -3.543 h 4.066 V 25.73 l 5.248,0.007 v -2.176 h 19.866 v 2.177 h 5.248 v 2.755 h 3.937 v 3.937 h 4.198 v 4.199 h 4.33 v 4.853 h 4.461 z m -20.27,-1.5 h 18.77 v -64.31 h -4.461 v -4.853 h -4.33 V 33.929 H 55.843 V 29.992 H 51.906 V 27.237 H 46.658 V 25.06 H 29.792 v 2.178 l -5.248,-0.007 v 3.022 h -4.066 v 3.543 h -3.936 v 4.854 h -4.196 v 4.817 H 7.751 v 5.547 H 3.947 v 34.71 h 4.461 v 5.641 h 4.067 v 5.117 h 4.067 v 4.459 h 4.198 v 3.805 h 3.543 v 2.756 h 5.509 v 1.789 H 44.035 V 85.879 H 32.753 v -3.805 h -4.199 v -4.723 h -4.592 v -22.75 h 4.858 v -4.594 h 4.722 v -3.802 h 12.125 v 4.064 h 4.395 z"
   id="path827" />
</g><g
     id="g835">
	<polygon
   fill="#ffffff"
   points="466.027,29.293 466.027,32.986 461.662,32.986 461.662,37.685 457.802,37.685 457.802,42.385 453.605,42.385 453.605,48.259 449.242,48.259 449.242,84.177 453.773,84.177 453.773,89.884 457.802,89.884 457.802,95.086 462,95.086 462,99.954 466.195,99.954 466.195,103.647 470.388,103.647 470.388,106.163 476.097,106.163 476.097,108.042 495.228,108.042 495.228,106.332 500.433,106.332 500.433,103.31 503.958,103.31 503.958,99.115 507.82,99.115 507.82,94.247 512.517,94.247 512.517,89.547 516.714,89.547 516.714,7.138 495.06,7.138 495.06,81.323 491.369,81.323 491.369,85.185 479.955,85.185 479.955,81.323 476.097,81.323 476.097,76.288 471.564,76.288 471.564,55.31 476.431,55.31 476.431,50.945 480.628,50.945 480.628,46.077 491.369,46.077 491.369,24.31 475.423,24.31 475.423,26.595 470.388,26.608 470.388,29.293 "
   id="polygon831" />
	<path
   d="m 495.978,108.792 h -20.631 v -1.879 h -5.709 v -2.517 h -4.193 v -3.692 h -4.195 v -4.868 h -4.197 v -5.202 h -4.029 v -5.707 h -4.531 V 47.509 h 4.363 v -5.874 h 4.197 v -4.7 h 3.859 v -4.699 h 4.365 v -3.692 h 4.361 V 25.86 l 5.035,-0.013 V 23.56 h 17.445 v 23.268 h -10.74 v 4.867 h -4.197 v 4.365 h -4.867 v 19.479 h 4.533 v 5.035 h 3.857 v 3.861 h 9.914 v -3.861 h 3.691 V 6.388 h 23.154 v 83.909 h -4.197 v 4.7 h -4.697 v 4.868 h -3.861 v 4.194 h -3.525 v 3.022 h -5.205 z m -19.131,-1.5 h 17.631 v -1.71 h 5.205 v -3.022 h 3.525 v -4.194 h 3.861 v -4.868 h 4.697 v -4.7 h 4.197 V 7.888 H 495.81 v 74.186 h -3.691 v 3.861 h -12.914 v -3.861 h -3.857 v -5.035 h -4.533 V 54.56 h 4.867 v -4.365 h 4.197 v -4.867 h 10.74 V 25.06 h -14.445 v 2.283 l -5.035,0.013 v 2.688 h -4.361 v 3.692 h -4.365 v 4.699 h -3.859 v 4.7 h -4.197 v 5.874 h -4.363 v 34.418 h 4.531 v 5.707 h 4.029 v 5.202 h 4.197 v 4.868 h 4.195 v 3.692 h 4.193 v 2.517 h 5.709 v 1.879 z"
   id="path833" />
</g><g
     id="g841">
	<polygon
   fill="#ffffff"
   points="537.113,33.077 537.113,29.284 541.447,29.284 541.447,26.17 546.322,26.17 546.322,24.31 566.095,24.31 566.095,46.486 552.281,46.486 552.281,49.872 547.812,49.872 547.812,52.446 543.746,52.446 543.746,55.426 566.095,55.426 566.095,76.148 543.882,76.148 543.882,79.399 548.083,79.399 548.083,81.971 552.009,81.971 552.009,85.223 566.095,85.223 566.095,108.042 546.322,108.042 546.322,106.214 541.714,106.214 541.714,103.372 537.515,103.372 537.515,99.579 533.591,99.579 533.591,95.379 528.984,95.379 528.984,89.963 525.328,89.963 525.328,84.003 520.451,84.003 520.451,47.69 525.328,47.705 525.328,42.423 528.984,42.423 528.984,37.819 533.318,37.819 533.318,33.077 "
   id="polygon837" />
	<path
   d="m 566.845,108.792 h -21.273 v -1.828 h -4.607 v -2.842 h -4.199 v -3.793 h -3.924 v -4.2 h -4.607 v -5.416 h -3.656 v -5.96 h -4.877 V 46.937 l 4.877,0.016 v -5.28 h 3.656 v -4.604 h 4.334 v -4.741 h 3.795 v -3.793 h 4.334 V 25.42 h 4.875 v -1.86 h 21.273 v 23.676 h -13.814 v 3.387 h -4.469 v 2.573 h -4.066 v 1.48 h 22.35 v 22.222 h -22.213 v 1.751 h 4.201 v 2.572 h 3.926 v 3.252 h 14.086 v 24.319 z m -19.773,-1.5 h 18.273 V 85.973 h -14.086 v -3.252 h -3.926 v -2.572 h -4.201 v -4.751 h 22.213 V 56.176 h -22.35 v -4.48 h 4.066 v -2.573 h 4.469 v -3.387 h 13.814 V 25.06 h -18.273 v 1.86 h -4.875 v 3.114 h -4.334 v 3.793 h -3.795 v 4.741 h -4.334 v 4.604 h -3.656 v 5.285 L 521.2,48.441 v 34.811 h 4.877 v 5.96 h 3.656 v 5.416 h 4.607 v 4.2 h 3.924 v 3.793 h 4.199 v 2.842 h 4.607 v 1.829 z"
   id="path839" />
</g><g
     id="g847">
	<polygon
   fill="#f2b101"
   points="124.547,32.929 124.547,29.381 120.48,29.381 120.48,26.584 115.46,26.584 115.46,24.311 94.691,24.311 94.691,26.584 89.152,26.584 89.152,29.381 85.431,29.381 85.431,32.929 81.537,32.929 81.537,37.509 77.037,37.509 77.037,42.229 73.314,42.229 73.314,64.166 77.468,64.166 77.468,68.449 81.709,68.449 81.709,72.382 110.874,72.382 110.874,76.752 115.201,76.752 115.201,81.035 110.7,81.035 110.7,85.492 99.537,85.492 99.537,80.861 95.556,80.861 95.556,76.49 73.314,76.49 73.314,89.862 77.468,89.862 77.468,94.407 81.795,94.407 81.795,98.953 86.124,98.953 86.124,102.536 89.93,102.536 89.93,105.332 95.123,105.332 95.123,108.042 115.72,108.042 115.72,105.332 120.394,105.332 120.394,102.536 124.547,102.536 124.547,98.953 128.701,98.953 128.701,94.495 132.769,94.495 132.769,89.95 136.836,89.95 136.836,68.974 131.817,68.974 131.817,64.865 127.576,64.865 127.576,59.971 99.45,59.971 99.45,55.601 95.21,55.601 95.21,51.318 99.45,51.318 99.45,46.686 110.614,46.686 110.614,51.668 114.768,51.668 114.768,55.95 136.836,55.95 136.836,42.491 132.682,42.491 132.682,37.509 128.407,37.509 128.407,32.929 "
   id="polygon843" />
	<path
   d="M 116.47,108.792 H 94.373 v -2.71 H 89.18 v -2.796 H 85.374 V 99.703 H 81.045 V 95.157 H 76.718 V 90.611 H 72.564 V 75.74 h 23.742 v 4.37 h 3.981 v 4.632 h 9.663 v -4.457 h 4.501 v -2.783 h -4.327 v -4.37 H 80.959 V 69.199 H 76.718 V 64.916 H 72.564 V 41.479 h 3.723 v -4.72 h 4.5 v -4.58 h 3.894 v -3.548 h 3.721 v -2.797 h 5.539 v -2.273 h 22.269 v 2.273 h 5.02 v 2.797 h 4.067 v 3.548 h 3.86 v 4.58 h 4.275 v 4.982 h 4.154 V 56.7 h -23.568 v -4.282 h -4.154 V 47.436 H 100.2 v 4.632 h -4.24 v 2.783 h 4.24 v 4.37 h 28.126 v 4.895 h 4.241 v 4.108 h 5.019 V 90.7 h -4.067 v 4.545 h -4.068 v 4.458 h -4.154 v 3.583 h -4.153 v 2.796 h -4.674 z m -20.597,-1.5 h 19.097 v -2.71 h 4.674 v -2.796 h 4.153 v -3.583 h 4.154 v -4.458 h 4.068 V 89.2 h 4.067 V 69.724 h -5.019 v -4.108 h -4.241 V 60.721 H 98.7 v -4.37 h -4.24 v -5.783 h 4.24 v -4.632 h 12.664 v 4.982 h 4.154 V 55.2 h 20.568 V 43.241 h -4.154 v -4.982 h -4.275 v -4.58 h -3.86 v -3.548 h -4.067 v -2.797 h -5.02 V 25.061 H 95.441 v 2.273 h -5.539 v 2.797 h -3.721 v 3.548 h -3.894 v 4.58 h -4.5 v 4.72 h -3.723 v 20.438 h 4.154 V 67.7 h 4.241 v 3.933 h 29.165 v 4.37 h 4.327 v 5.783 h -4.501 v 4.457 H 98.787 v -4.632 h -3.981 v -4.37 H 74.064 v 11.871 h 4.154 v 4.546 h 4.327 v 4.546 h 4.329 v 3.583 h 3.806 v 2.796 h 5.193 z"
   id="path845" />
</g><g
     id="g853">
	<polygon
   fill="#f2b101"
   points="188.221,46.836 188.221,39.071 183.212,39.071 183.212,34.272 178.547,34.272 178.547,30.608 175.353,30.608 175.353,16.909 153.241,16.909 153.241,30.608 150.39,30.608 150.39,34.272 146.072,34.272 146.072,39.071 140.631,39.071 140.631,46.836 153.241,46.836 153.241,84.093 157.56,84.093 157.56,89.327 161.187,89.327 161.187,94.389 165.419,94.389 165.419,99.536 169.134,99.536 169.134,103.375 172.847,103.375 172.847,106.168 178.461,106.168 178.461,108 194.095,108 194.095,86.1 183.471,86.1 183.471,81.475 179.239,81.475 179.239,77.115 175.353,77.115 175.353,46.836 "
   id="polygon849" />
	<path
   d="m 194.845,108.75 h -17.134 v -1.832 h -5.614 v -2.793 h -3.713 v -3.839 h -3.715 v -5.147 h -4.232 v -5.062 h -3.627 v -5.234 h -4.319 V 47.586 h -12.61 V 38.32 h 5.441 v -4.799 h 4.318 v -3.664 h 2.851 V 16.159 h 23.612 v 13.698 h 3.194 v 3.664 h 4.665 v 4.799 h 5.009 v 9.266 h -12.868 v 28.779 h 3.886 v 4.359 h 4.232 v 4.625 h 10.624 z m -15.634,-1.5 h 14.134 v -20.4 h -10.624 v -4.625 h -4.232 v -4.359 h -3.886 v -31.78 h 12.868 V 39.82 h -5.009 v -4.799 h -4.665 v -3.664 h -3.194 V 17.659 h -20.612 v 13.698 h -2.851 v 3.664 h -4.318 v 4.799 h -5.441 v 6.266 h 12.61 v 37.257 h 4.319 v 5.234 h 3.627 v 5.062 h 4.232 v 5.147 h 3.715 v 3.839 h 3.713 v 2.793 h 5.614 z"
   id="path851" />
</g><g
     id="g859">
	<polygon
   fill="#f2b101"
   points="254.019,42.309 251.134,42.309 251.134,37.94 247.464,37.94 247.464,33.309 243.181,33.309 243.181,29.639 238.461,29.639 238.461,26.844 233.917,26.844 233.917,24.31 219.846,24.31 219.846,26.844 215.914,26.844 215.914,29.639 211.544,29.639 211.544,33.309 206.825,33.309 206.825,37.94 202.63,37.94 202.63,42.221 197.911,42.221 197.911,108.015 219.41,108.015 219.41,46.677 233.917,46.677 233.917,58.386 229.46,58.386 229.46,61.531 222.73,61.531 222.73,77.171 235.839,108.015 258.038,108.015 243.015,72.016 247.726,72.016 247.726,67.298 251.659,67.298 251.659,61.968 254.019,61.968 "
   id="polygon855" />
	<path
   d="M 259.164,108.765 H 235.343 L 221.98,77.323 V 60.781 h 6.73 v -3.146 h 4.457 V 47.427 H 220.16 v 61.338 H 197.161 V 41.471 h 4.719 V 37.19 h 4.195 v -4.631 h 4.719 v -3.67 h 4.37 v -2.795 h 3.932 V 23.56 h 15.571 v 2.534 h 4.544 v 2.795 h 4.72 v 3.67 h 4.283 v 4.631 h 3.67 v 4.369 h 2.885 v 21.159 h -2.36 v 5.33 h -3.933 v 4.718 h -4.335 z m -22.829,-1.5 h 20.578 L 241.89,71.266 h 5.086 v -4.718 h 3.933 v -5.33 h 2.36 V 43.059 h -2.885 V 38.69 h -3.67 v -4.631 h -4.283 v -3.67 h -4.72 v -2.795 h -4.544 V 25.06 h -12.571 v 2.534 h -3.932 v 2.795 h -4.37 v 3.67 h -4.719 v 4.631 h -4.195 v 4.281 h -4.719 v 64.294 H 218.66 V 45.927 h 16.007 v 13.209 h -4.457 v 3.146 h -6.73 v 14.737 z"
   id="path857" />
</g><g
     id="g865">
	<path
   fill="#f2b101"
   d="m 325.389,48.171 v -5.594 h -4.326 v -4.724 h -4.409 v -4.719 h -3.893 V 29.74 h -3.977 v -2.81 h -5.02 v -2.62 h -20.84 v 2.622 H 278 v 2.622 h -4.324 v 3.583 h -3.544 v 4.719 h -4.584 v 4.724 h -3.977 v 5.594 h -4.238 v 0.088 35.83 0.091 h 4.238 v 5.592 h 3.977 v 4.726 h 4.584 v 4.719 h 3.544 v 3.583 H 278 v 2.623 h 4.929 v 2.621 h 0.086 20.406 0.348 v -2.621 h 5.016 v -2.623 h 3.977 V 99.22 h 3.896 v -4.719 h 4.409 v -4.726 h 4.326 v -5.658 h 3.89 V 84.024 48.259 48.171 Z m -22.223,28.231 v 4.724 h -4.324 v 4.37 h -11.063 v -4.37 H 283.8 v -4.724 h -4.669 V 55.949 h 4.669 v -4.726 h 3.979 V 46.86 h 11.063 v 4.369 h 4.324 v 4.726 h 4.324 v 20.447 z"
   id="path861" />
	<path
   d="m 304.519,108.795 h -22.254 l -0.086,-0.75 v -1.871 h -4.929 v -2.623 h -4.324 v -3.583 h -3.544 v -4.719 h -4.584 v -4.726 h -3.977 v -5.592 h -4.238 v -37.42 l 0.75,-0.088 h 3.488 v -5.594 h 3.977 v -4.724 h 4.584 v -4.719 h 3.544 v -3.583 h 4.324 v -2.622 h 4.925 V 23.56 h 22.34 v 2.62 h 5.02 v 2.811 h 3.977 v 3.395 h 3.893 v 4.719 h 4.409 v 4.724 h 4.326 v 5.594 h 3.894 v 37.352 l -0.75,0.093 h -3.14 v 5.658 h -4.326 v 4.726 h -4.409 v 4.719 h -3.896 v 3.583 h -3.977 v 2.623 h -5.016 v 2.618 z m -20.84,-1.5 h 19.34 v -2.621 h 5.016 v -2.623 h 3.977 v -3.583 h 3.896 v -4.719 h 4.409 v -4.726 h 4.326 v -5.658 h 3.89 V 48.921 h -3.894 v -5.594 h -4.326 v -4.724 h -4.409 v -4.719 h -3.893 V 30.49 h -3.977 v -2.81 h -5.02 v -2.62 h -19.34 v 2.622 h -4.925 v 2.622 h -4.324 v 3.583 h -3.544 v 4.719 h -4.584 v 4.724 h -3.977 v 5.594 h -4.238 v 34.509 h 4.238 v 5.592 h 3.977 v 4.726 h 4.584 v 4.719 h 3.544 v 3.583 h 4.324 v 2.623 h 4.929 v 2.619 z m 15.912,-21.05 h -12.563 v -4.37 h -3.979 V 77.151 H 278.38 V 55.199 h 4.669 v -4.726 h 3.979 V 46.11 h 12.563 v 4.369 h 4.324 v 4.726 h 4.324 v 21.947 h -4.324 v 4.724 h -4.324 z m -11.063,-1.5 h 9.563 v -4.37 h 4.324 v -4.724 h 4.324 V 56.704 h -4.324 v -4.726 h -4.324 V 47.61 h -9.563 v 4.364 h -3.979 V 56.7 h -4.669 v 18.952 h 4.669 v 4.724 h 3.979 z"
   id="path863" />
</g></g>
</svg>
