<svg enable-background="new 0 0 566.929 458.929" height="155" viewBox="0 0 504.99999 155" width="505" xmlns="http://www.w3.org/2000/svg"><g stroke-linecap="round" stroke-linejoin="round" stroke-width="7"><g stroke="#000"><path d="m95.598526 147.08104h-27.37774v-8.59728q-3.92303 4.92466-7.929529 7.17831-7.011372 3.92303-15.942525 3.92303-14.440089 0-25.708366-9.93278-13.4384643-11.85255-13.4384643-31.38424 0-19.865551 13.7723393-31.718109 10.934402-9.431966 25.124084-9.431966 8.263404 0 15.525182 3.505687 4.173436 2.003249 8.597279 6.594029v-7.595654h27.37774zm-26.543053-38.72949q0-7.34524-5.175061-12.436836-5.175061-5.175061-12.520308-5.175061-8.179935 0-13.438464 6.176686-4.256905 5.008121-4.256905 11.435211 0 6.42709 4.256905 11.43522 5.175061 6.17668 13.438464 6.17668 7.428716 0 12.520308-5.09159 5.175061-5.09159 5.175061-12.52031z"/><path d="m161.59669 94.913089q-5.75935-2.754468-11.68563-2.754468-13.52193 0-17.52843 11.017869-1.50243 4.0065-1.50243 10.76747v33.13708h-27.37774v-77.458973h27.37774v12.687245q4.34037-6.760966 9.34849-9.76584 6.76097-4.006498 16.026-4.006498 2.17018 0 5.342.250406z"/><path d="m221.41816 145.41167q-8.51381 4.2569-17.8623 4.2569-21.20106 0-33.6379-14.35662-10.01624-11.60215-10.01624-26.87693 0-15.358243 10.01624-26.876926 12.43684-14.35662 33.6379-14.35662 9.51543 0 17.8623 4.340374v23.287773q-7.26178-5.091592-14.18968-5.091592-8.17993 0-13.52193 5.258529-5.342 5.258532-5.342 13.438462 0 8.17994 5.342 13.43847 5.342 5.25853 13.52193 5.25853 6.84444 0 14.18968-5.00813z"/><path d="m313.45856 147.08104h-27.37774v-8.59728q-3.92303 4.92466-7.92953 7.17831-7.01137 3.92303-15.94253 3.92303-14.44009 0-25.70836-9.93278-13.43847-11.85255-13.43847-31.38424 0-19.865551 13.77234-31.718109 10.9344-9.431966 25.12409-9.431966 8.2634 0 15.52518 3.505687 4.17343 2.003249 8.59728 6.594029v-7.595654h27.37774zm-26.54306-38.72949q0-7.34524-5.17506-12.436836-5.17506-5.175061-12.5203-5.175061-8.17994 0-13.43847 6.176686-4.2569 5.008121-4.2569 11.435211 0 6.42709 4.2569 11.43522 5.17506 6.17668 13.43847 6.17668 7.42871 0 12.5203-5.09159 5.17506-5.09159 5.17506-12.52031z"/><path d="m408.67076 147.08104h-27.37774v-8.59728q-3.92303 4.92466-7.92953 7.17831-7.01137 3.92303-15.94252 3.92303-14.44009 0-25.70837-9.93278-13.43846-11.85255-13.43846-31.38424 0-19.865551 13.77234-31.718109 10.9344-9.431966 25.12408-9.431966 8.2634 0 15.52518 3.505687 4.17344 2.003249 8.59728 6.594029v-55.506699h27.37774zm-26.54305-38.72949q0-7.34524-5.17506-12.436836-5.17506-5.175061-12.52031-5.175061-8.17994 0-13.43846 6.176686-4.25691 5.008121-4.25691 11.435211 0 6.42709 4.25691 11.43522 5.17506 6.17668 13.43846 6.17668 7.42872 0 12.52031-5.09159 5.17506-5.09159 5.17506-12.52031z"/><path d="m498.79139 113.35968h-57.59342q0 17.44496 16.86068 17.44496 8.59728 0 13.18806-7.34525h26.45958q-3.17181 10.51706-9.34849 16.2764-11.18481 10.43359-29.96527 10.43359-23.87206 0-35.89155-14.52356-9.01462-10.85093-9.01462-26.45958 0-18.530056 11.26827-30.132208 11.26828-11.602152 31.80159-11.602152 25.29102 0 36.14195 18.363119 6.09322 10.350121 6.09322 24.038991zm-25.54143-15.692123q-2.92141-12.854183-15.60865-12.854183-7.01137 0-11.35175 4.089967-3.42221 3.25528-4.34037 8.764216z"/></g><g enable-background="accumulate" fill="#f80" stroke="#000"><path d="m95.598526 131.08104h-27.37774v-8.59728q-3.92303 4.92466-7.929529 7.17831-7.011372 3.92303-15.942525 3.92303-14.440089 0-25.708366-9.93278-13.4384643-11.85255-13.4384643-31.384236 0-19.865555 13.7723393-31.718113 10.934402-9.431966 25.124084-9.431966 8.263404 0 15.525182 3.505687 4.173436 2.003249 8.597279 6.594029v-7.595654h27.37774zm-26.543053-38.729487q0-7.345247-5.175061-12.436839-5.175061-5.175061-12.520308-5.175061-8.179935 0-13.438464 6.176686-4.256905 5.008123-4.256905 11.435214 0 6.427092 4.256905 11.435217 5.175061 6.17668 13.438464 6.17668 7.428716 0 12.520308-5.09159 5.175061-5.091591 5.175061-12.520307z"/><path d="m161.59669 78.913089q-5.75935-2.754468-11.68563-2.754468-13.52193 0-17.52843 11.017872-1.50243 4.006498-1.50243 10.767464v33.137083h-27.37774v-77.458973h27.37774v12.687245q4.34037-6.760966 9.34849-9.76584 6.76097-4.006498 16.026-4.006498 2.17018 0 5.342.250406z"/><path d="m221.41816 129.41167q-8.51381 4.2569-17.8623 4.2569-21.20106 0-33.6379-14.35662-10.01624-11.60215-10.01624-26.876928 0-15.358245 10.01624-26.876928 12.43684-14.35662 33.6379-14.35662 9.51543 0 17.8623 4.340374v23.287773q-7.26178-5.091592-14.18968-5.091592-8.17993 0-13.52193 5.258529-5.342 5.258529-5.342 13.438464 0 8.179938 5.342 13.438468 5.342 5.25853 13.52193 5.25853 6.84444 0 14.18968-5.00813z"/><path d="m313.45856 131.08104h-27.37774v-8.59728q-3.92303 4.92466-7.92953 7.17831-7.01137 3.92303-15.94253 3.92303-14.44009 0-25.70836-9.93278-13.43847-11.85255-13.43847-31.384236 0-19.865555 13.77234-31.718113 10.9344-9.431966 25.12409-9.431966 8.2634 0 15.52518 3.505687 4.17343 2.003249 8.59728 6.594029v-7.595654h27.37774zm-26.54306-38.729487q0-7.345247-5.17506-12.436839-5.17506-5.175061-12.5203-5.175061-8.17994 0-13.43847 6.176686-4.2569 5.008123-4.2569 11.435214 0 6.427092 4.2569 11.435217 5.17506 6.17668 13.43847 6.17668 7.42871 0 12.5203-5.09159 5.17506-5.091591 5.17506-12.520307z"/><path d="m408.67076 131.08104h-27.37774v-8.59728q-3.92303 4.92466-7.92953 7.17831-7.01137 3.92303-15.94252 3.92303-14.44009 0-25.70837-9.93278-13.43846-11.85255-13.43846-31.384236 0-19.865555 13.77234-31.718113 10.9344-9.431966 25.12408-9.431966 8.2634 0 15.52518 3.505687 4.17344 2.003249 8.59728 6.594029v-55.5066995h27.37774zm-26.54305-38.729487q0-7.345247-5.17506-12.436839-5.17506-5.175061-12.52031-5.175061-8.17994 0-13.43846 6.176686-4.25691 5.008123-4.25691 11.435214 0 6.427092 4.25691 11.435217 5.17506 6.17668 13.43846 6.17668 7.42872 0 12.52031-5.09159 5.17506-5.091591 5.17506-12.520307z"/><path d="m498.79139 97.359676h-57.59342q0 17.444964 16.86068 17.444964 8.59728 0 13.18806-7.34525h26.45958q-3.17181 10.51706-9.34849 16.2764-11.18481 10.43359-29.96527 10.43359-23.87206 0-35.89155-14.52356-9.01462-10.85093-9.01462-26.45958 0-18.530056 11.26827-30.132208 11.26828-11.602152 31.80159-11.602152 25.29102 0 36.14195 18.363119 6.09322 10.350121 6.09322 24.038991zm-25.54143-15.692119q-2.92141-12.854183-15.60865-12.854183-7.01137 0-11.35175 4.089967-3.42221 3.25528-4.34037 8.764216z"/></g><g fill="#000" stroke="none" transform="translate(.31782 .460243)"><path d="m44.097656 47.617188c-10.235278 0-19.553552 3.506131-27.410156 10.283203-9.9115471 8.532053-14.9863281 20.316665-14.9863281 34.367187 0 13.823832 4.9507447 25.477202 14.6250001 34.009762 8.068521 7.11226 17.594206 10.8086 28.023437 10.8086 6.466563 0 12.423506-1.44458 17.650391-4.36914a3.50035 3.50035 0 0 0 .0078-.004c.938726-.52803 1.814756-1.29819 2.712891-1.98242v.34961a3.50035 3.50035 0 0 0 3.5 3.5h27.376953a3.50035 3.50035 0 0 0 3.5-3.5v-77.458986a3.50035 3.50035 0 0 0 -3.5-3.5h-27.376953a3.50035 3.50035 0 0 0 -3.5 3.5v.08008c-1.183229-.819658-2.364537-1.646417-3.57616-2.228428-5.309264-2.563093-11.042989-3.855468-17.046875-3.855468zm0 7c5.013987 0 9.6308 1.047047 14.003906 3.158203a3.50035 3.50035 0 0 0 .0078.0039c2.276918 1.09292 4.84766 3.019498 7.591797 5.867187a3.50035 3.50035 0 0 0 6.019531-2.429687v-4.095703h20.376953v70.458986h-20.376953v-5.0957a3.50035 3.50035 0 0 0 -6.238281-2.18165c-2.413632 3.02989-4.754882 5.09658-6.900391 6.30469-.000526.0003-.0014-.00029-.002 0-4.121225 2.30556-8.789523 3.47852-14.230469 3.47852-8.824221 0-16.438683-2.92714-23.394531-9.0586-8.243637-7.270824-12.2538461-16.541334-12.2538461-28.759756 0-12.43488 4.1078641-21.793385 12.5566401-29.064453a3.50035 3.50035 0 0 0 .002-.002c6.722598-5.798883 14.153593-8.583985 22.83789-8.583984zm7.261719 16.623046c-6.334242 0-12.017143 2.608336-16.103516 7.408204a3.50035 3.50035 0 0 0 -.002.002c-3.31644 3.901694-5.089843 8.643717-5.089844 13.701171.000001 5.054187 1.771681 9.793098 5.083985 13.693358 4.038458 4.81381 9.735117 7.41797 16.111328 7.41797 5.747785 0 10.991244-2.11703 14.986328-6.10742 4.049511-3.98989 6.208984-9.243944 6.208985-15.003908 0-5.713584-2.166274-10.936778-6.208985-14.919921-4.034283-4.029708-9.271784-6.191407-14.986328-6.191407zm0 7c4.074862 0 7.182288 1.283851 10.046875 4.148438a3.50035 3.50035 0 0 0 .01953.02148c2.850251 2.804279 4.128907 5.866545 4.128907 9.941406 0 4.139744-1.285472 7.227819-4.128907 10.025388a3.50035 3.50035 0 0 0 -.01953.0195c-2.792581 2.79258-5.894023 4.06641-10.046875 4.06641-4.636882 0-7.894773-1.50899-10.755859-4.92383a3.50035 3.50035 0 0 0 -.01563-.0195c-2.359434-2.775803-3.423829-5.655967-3.423829-9.167968 0-3.511064 1.063761-6.390896 3.421876-9.166015l.002-.002c2.924516-3.434132 6.200139-4.94336 10.771484-4.94336z"/><path d="m156.25391 49.037109c-6.68119 0-12.69806 1.46763-17.8086 4.496094a3.50035 3.50035 0 0 0 -.0176.0098c-1.43574.861444-2.7366 2.084867-4.04687 3.285156v-3.207031a3.50035 3.50035 0 0 0 -3.5-3.5h-27.37891a3.50035 3.50035 0 0 0 -3.5 3.5v77.458986a3.50035 3.50035 0 0 0 3.5 3.5h27.37891a3.50035 3.50035 0 0 0 3.5-3.5v-33.136721c0-4.248052.50494-7.472157 1.2793-9.537109a3.50035 3.50035 0 0 0 .0117-.0332c2.23883-6.156787 6.17427-8.714844 14.23828-8.714844 3.4086 0 6.75775.777401 10.17578 2.412109a3.50035 3.50035 0 0 0 5.01172-3.15625v-26.126953a3.50035 3.50035 0 0 0 -3.22461-3.488281c-2.17698-.171866-4.03774-.261719-5.61914-.261719zm0 7c.47752 0 1.26483.06702 1.84375.08789v17.851562c-2.69563-.783287-5.42279-1.318359-8.1875-1.318359-9.95803 0-17.70096 4.782573-20.8086 13.304688-1.22501 3.274273-1.7207 7.220756-1.7207 11.980468v29.636721h-20.37891v-70.458986h20.37891v9.1875a3.50035 3.50035 0 0 0 6.44531 1.890625c2.68823-4.187438 5.47109-7.010939 8.19727-8.648438 3.90227-2.310073 8.56262-3.513672 14.23047-3.513672z"/><path d="m203.55664 47.701172c-14.92407 0-27.34753 5.249444-36.2832 15.564453-7.18051 8.25951-10.8711 18.17209-10.8711 29.169922 0 10.948213 3.69321 20.854193 10.86719 29.164063a3.50035 3.50035 0 0 0 .004.004c8.93567 10.315 21.35913 15.56445 36.2832 15.56445 6.76358 0 13.29354-1.55791 19.42774-4.625a3.50035 3.50035 0 0 0 1.93359-3.13086v-23.28906a3.50035 3.50035 0 0 0 -5.4707-2.89063c-4.47876 3.05371-8.50945 4.40039-12.21875 4.40039-4.70329 0-8.14156-1.37475-11.06641-4.2539-2.91475-2.86921-4.29688-6.251976-4.29688-10.943363 0-4.691385 1.38213-8.07611 4.29688-10.945313 2.92485-2.879148 6.36312-4.251953 11.06641-4.251953 3.76117 0 7.76688 1.362998 12.17968 4.457031a3.50035 3.50035 0 0 0 5.50977-2.865234v-23.289062a3.50035 3.50035 0 0 0 -1.88486-3.103606c-6.04757-3.144741-12.60078-4.736328-19.47656-4.736328zm0 7c5.10302 0 9.83837 1.067497 14.36133 3.101562v15.029297c-3.52495-1.642189-7.09964-2.59375-10.68945-2.59375-6.20329 0-11.77875 2.131449-15.97657 6.263672-4.20792 4.142169-6.38672 9.718399-6.38672 15.933594 0 6.215197 2.1788 11.789473 6.38672 15.931643 4.19782 4.13222 9.77328 6.26562 15.97657 6.26562 3.57039 0 7.14427-.94232 10.68945-2.57031v14.92773c-4.6204 2.00884-9.35254 3.17774-14.36133 3.17774-13.34401 0-23.34736-4.32129-30.99414-13.14844-6.17778-7.15827-9.16016-15.16824-9.16016-24.583983 0-9.477961 2.98418-17.482186 9.15625-24.580078a3.50035 3.50035 0 0 0 .004-.0059c7.64678-8.827151 17.65013-13.148437 30.99414-13.148437z"/><path d="m261.95898 47.617188c-10.23528 0-19.55355 3.506131-27.41015 10.283203l.002-.0039c-9.91434 8.532343-14.98828 20.318567-14.98828 34.371094 0 13.823832 4.94879 25.477202 14.62305 34.009762 8.06851 7.11226 17.5942 10.8086 28.02343 10.8086 6.46657 0 12.42351-1.44458 17.6504-4.36914a3.50035 3.50035 0 0 0 .008-.004c.93872-.52803 1.81475-1.29819 2.71289-1.98242v.34961a3.50035 3.50035 0 0 0 3.5 3.5h27.3789a3.50035 3.50035 0 0 0 3.5-3.5v-77.458986a3.50035 3.50035 0 0 0 -3.5-3.5h-27.3789a3.50035 3.50035 0 0 0 -3.5 3.5v.08008c-1.18278-.819423-2.36309-1.646639-3.57422-2.228516l-.004-.002c-5.30816-2.561828-11.04057-3.853515-17.04297-3.853515zm0 7c5.01399 0 9.6308 1.047047 14.00391 3.158203a3.50035 3.50035 0 0 0 .006.0039c2.27691 1.09292 4.84765 3.019497 7.5918 5.867187a3.50035 3.50035 0 0 0 6.01953-2.429687v-4.095703h20.3789v70.458986h-20.3789v-5.0957a3.50035 3.50035 0 0 0 -6.23633-2.18165c-2.41363 3.02989-4.75683 5.09658-6.90234 6.30469-.00053.0003-.001-.00029-.002 0-4.12122 2.30556-8.78951 3.47852-14.23047 3.47852-8.8237 0-16.43706-2.92788-23.39257-9.0586-8.2437-7.27083-12.25391-16.54134-12.25391-28.759762 0-12.43488 4.10591-21.793385 12.55469-29.064453a3.50035 3.50035 0 0 0 .004-.002c6.7226-5.798883 14.15359-8.583985 22.83789-8.583984zm7.26172 16.623046c-6.33424 0-12.01714 2.608336-16.10351 7.408204a3.50035 3.50035 0 0 0 -.002.002c-3.31643 3.901694-5.08984 8.643718-5.08984 13.701171 0 5.054187 1.77168 9.793098 5.08399 13.693358 4.03845 4.81381 9.73511 7.41797 16.11132 7.41797 5.74778 0 10.9893-2.11703 14.98438-6.10742 4.04951-3.98989 6.21094-9.243943 6.21094-15.003908 0-5.713584-2.16823-10.936778-6.21094-14.919921-4.03428-4.029706-9.26984-6.191407-14.98438-6.191407zm0 7c4.07486 0 7.18034 1.283851 10.04492 4.148438a3.50035 3.50035 0 0 0 .0195.02148c2.85025 2.804279 4.13086 5.866545 4.13086 9.941406 0 4.139744-1.28743 7.227819-4.13086 10.025388a3.50035 3.50035 0 0 0 -.0195.0195c-2.79258 2.79258-5.89207 4.06641-10.04492 4.06641-4.63688 0-7.89477-1.50899-10.75586-4.92383a3.50035 3.50035 0 0 0 -.0156-.0195c-2.35943-2.775803-3.42383-5.655966-3.42383-9.167968 0-3.511065 1.06376-6.390896 3.42188-9.166015l.002-.002c2.92452-3.434131 6.20013-4.94336 10.77148-4.94336z"/><path d="m381.29297 2.2109375a3.50035 3.50035 0 0 0 -3.5 3.5v47.9902345c-1.18324-.819746-2.36455-1.646505-3.57617-2.228516-5.30927-2.563093-11.04299-3.855468-17.04688-3.855468-10.23528 0-19.55355 3.506131-27.41015 10.283203-9.91155 8.532053-14.98633 20.316665-14.98633 34.367187 0 13.823832 4.95075 25.477202 14.625 34.009762 8.06852 7.11226 17.5942 10.8086 28.02344 10.8086 6.46656 0 12.4235-1.44458 17.65039-4.36914a3.50035 3.50035 0 0 0 .008-.004c.93872-.52803 1.81475-1.29819 2.71289-1.98242v.34961a3.50035 3.50035 0 0 0 3.5 3.5h27.37695a3.50035 3.50035 0 0 0 3.5-3.5v-125.3691425a3.50035 3.50035 0 0 0 -3.5-3.5h-27.37695zm3.5 7h20.37695v118.3691425h-20.37695v-5.0957a3.50035 3.50035 0 0 0 -6.23828-2.18165c-2.41363 3.02989-4.75488 5.09658-6.90039 6.30469-.00053.0003-.001-.00029-.002 0-4.12122 2.30556-8.78952 3.47852-14.23046 3.47852-8.82423 0-16.43869-2.92714-23.39454-9.0586-8.24369-7.27083-12.2539-16.54134-12.2539-28.759762 0-12.43488 4.10786-21.793385 12.55664-29.064453a3.50035 3.50035 0 0 0 .002-.002c6.7226-5.798883 14.1536-8.583984 22.83789-8.583984 5.01399 0 9.6308 1.047047 14.00391 3.158203a3.50035 3.50035 0 0 0 .008.0039c2.27692 1.09292 4.84766 3.019499 7.5918 5.867187a3.50035 3.50035 0 0 0 6.01953-2.429687v-52.0058595zm-20.36133 62.0292965c-6.33424 0-12.01715 2.608334-16.10352 7.408204a3.50035 3.50035 0 0 0 -.002.002c-3.31644 3.901694-5.08984 8.643716-5.08984 13.701171 0 5.054188 1.77168 9.793098 5.08398 13.693358 4.03846 4.81381 9.73512 7.41797 16.11133 7.41797 5.74779 0 10.99125-2.11703 14.98633-6.10742 4.04951-3.98989 6.20898-9.243944 6.20898-15.003908 0-5.713584-2.16627-10.936778-6.20898-14.919921-4.03428-4.029709-9.27178-6.191407-14.98633-6.191407zm0 7c4.07486 0 7.18229 1.283852 10.04688 4.148438a3.50035 3.50035 0 0 0 .0195.02148c2.85025 2.804279 4.1289 5.866545 4.1289 9.941406 0 4.139744-1.28547 7.227819-4.1289 10.025388a3.50035 3.50035 0 0 0 -.0195.0195c-2.79258 2.79258-5.89402 4.06641-10.04688 4.06641-4.63688 0-7.89477-1.50899-10.75586-4.92383a3.50035 3.50035 0 0 0 -.0156-.0195c-2.35944-2.775804-3.42383-5.655968-3.42383-9.167968 0-3.511063 1.06376-6.390896 3.42187-9.166015l.002-.002c2.92451-3.43413 6.20013-4.94336 10.77148-4.94336z"/><path d="m456.55664 47.951172c-14.34809 0-26.06005 4.1671-34.3125 12.664062-8.161 8.402809-12.25781 19.507483-12.25781 32.570313 0 11.079563 3.2854 20.828823 9.82226 28.697263 8.73867 10.55556 21.96233 15.78711 38.58399 15.78711 13.16783 0 24.18064-3.75348 32.35156-11.375 4.67642-4.36044 8.06761-10.38063 10.3125-17.82422a3.50035 3.50035 0 0 0 -3.34961-4.51172h-26.46094a3.50035 3.50035 0 0 0 -2.96679 1.64454c-2.54009 4.06413-5.48595 5.70117-10.22071 5.70117-5.01667 0-8.12911-1.22388-10.1289-3.29297-1.51236-1.56477-2.58033-3.8594-3.01367-7.15234h53.875a3.50035 3.50035 0 0 0 3.5-3.500005v-3.505859c0-9.645223-2.1718-18.333043-6.57618-25.814454a3.50035 3.50035 0 0 0 -.004-.0039c-7.83973-13.267418-21.44643-20.08399-39.1542-20.08399zm0 7c16.0136 0 26.50083 5.427785 33.12891 16.644531 3.71757 6.317394 5.60547 13.653937 5.60547 22.257813v.0059h-54.09375a3.50035 3.50035 0 0 0 -3.5 3.5c0 6.378785 1.57878 11.769735 5.19921 15.515625 3.62044 3.74589 8.93834 5.42969 15.16211 5.42969 6.00443 0 11.20968-2.71482 14.82618-7.34571h19.85937c-1.80924 4.33403-4.08487 7.70989-6.77344 10.2168-6.74203 6.28921-15.70596 9.49414-27.57812 9.49414-15.20492 0-25.90795-4.45029-33.19531-13.25586a3.50035 3.50035 0 0 0 -.004-.004c-5.48263-6.59946-8.20703-14.49264-8.20703-24.224613 0-11.643912 3.41593-20.626632 10.27929-27.693359 6.77193-6.972574 16.26136-10.541016 29.29102-10.541016zm1.08398 10.361328c-5.3548 0-10.17377 1.671229-13.75195 5.042969a3.50035 3.50035 0 0 0 -.0117.01172c-2.88259 2.741984-4.6712 6.466694-5.38086 10.724609a3.50035 3.50035 0 0 0 3.45313 4.076172h31.30078a3.50035 3.50035 0 0 0 3.41211-4.275391c-1.09514-4.818592-3.2309-8.834337-6.55078-11.568359-3.31989-2.734022-7.65062-4.011719-12.47071-4.011719zm0 7c3.63808 0 6.13849.86531 8.02149 2.416016 1.02325.842677 1.88478 2.011191 2.62305 3.439453h-21.58594c.53818-1.052713 1.19297-1.955345 1.99609-2.720703 2.20811-2.0783 4.95477-3.134766 8.94531-3.134766z"/></g></g></svg>