<svg height="145" viewBox="-9.413 -17.166 665 145" width="665" xmlns="http://www.w3.org/2000/svg"><path d="m102.568 16.236c0-.467-.019-.929-.047-1.388l2.758-1.292c-.212-2.007-.662-3.942-1.317-5.78l-3.043.033c-.352-.863-.755-1.698-1.208-2.503l1.921-2.358c-1.05-1.688-2.292-3.244-3.699-4.635l-2.723 1.346c-.686-.621-1.414-1.196-2.173-1.729l.708-2.958c-1.659-1.058-3.449-1.926-5.342-2.577l-1.871 2.397c-.882-.259-1.786-.467-2.709-.617l-.645-2.969c-.973-.114-1.961-.179-2.965-.179s-1.993.065-2.966.18l-.645 2.969c-.924.15-1.828.358-2.71.618l-1.871-2.398c-1.892.65-3.682 1.519-5.34 2.576l.708 2.958c-.76.533-1.487 1.108-2.174 1.729l-2.724-1.348c-1.407 1.391-2.649 2.947-3.699 4.635l1.922 2.358c-.452.805-.856 1.64-1.208 2.503l-3.043-.033c-.655 1.838-1.104 3.774-1.316 5.781l2.758 1.292c-.028.459-.047.921-.047 1.387s.019.928.047 1.387l-2.758 1.292c.212 2.007.662 3.943 1.316 5.781l3.044-.032c.351.862.755 1.697 1.207 2.502l-1.922 2.358c1.05 1.688 2.292 3.245 3.699 4.636l2.725-1.348c.686.621 1.414 1.196 2.173 1.729l-.708 2.958c1.659 1.058 3.449 1.926 5.341 2.576l1.87-2.397c.882.26 1.786.468 2.709.618l.645 2.968c.974.114 1.962.18 2.966.18s1.992-.065 2.965-.179l.645-2.968c.923-.15 1.827-.358 2.709-.618l1.871 2.397c1.893-.65 3.683-1.519 5.342-2.577l-.708-2.958c.759-.533 1.487-1.108 2.173-1.729l2.724 1.348c1.407-1.391 2.649-2.947 3.699-4.635l-1.921-2.357c.452-.805.856-1.641 1.208-2.503l3.043.032c.655-1.838 1.104-3.773 1.317-5.78l-2.758-1.292c.028-.459.047-.921.047-1.387zm-22.354 6.778c-3.743 0-6.778-3.034-6.778-6.778 0-3.743 3.035-6.777 6.778-6.777s6.777 3.034 6.777 6.777c0 3.744-3.034 6.778-6.777 6.778z" fill="#c1c1c1"/><g fill="#5b5b5b"><path d="m122.532 23.174v12.339h-7.05v-31.728h24.676c7.051 0 10.576 3.22 10.576 9.659 0 3.056-.505 5.3-1.517 6.731 1.011 1.67 1.517 3.843 1.517 6.521v8.813h-7.051v-8.812c0-2.35-1.176-3.525-3.525-3.525zm0-7.051h21.151v-5.288h-21.151z"/><path d="m189.51 35.512h-24.675c-7.051 0-10.576-3.526-10.576-10.576v-21.15h35.251v7.05h-28.2v5.288h28.2v7.05h-28.2v1.763c0 2.352 1.175 3.524 3.525 3.524h24.675z"/><path d="m193.035 3.785h35.251v7.05h-14.1v24.678h-7.051v-24.678h-14.1z"/><path d="m238.861 23.174v12.339h-7.05v-31.728h24.676c7.051 0 10.576 3.22 10.576 9.659 0 3.056-.505 5.3-1.516 6.731 1.01 1.67 1.516 3.843 1.516 6.521v8.813h-7.05v-8.812c0-2.35-1.176-3.525-3.525-3.525zm0-7.051h21.151v-5.288h-21.151z"/><path d="m281.164 35.512c-7.05 0-10.576-3.526-10.576-10.576v-10.575c0-7.051 3.525-10.574 10.576-10.574h14.1c7.05 0 10.576 3.523 10.576 10.574v10.575c0 7.05-2.938 10.576-8.813 10.576zm0-7.051h14.1c2.35 0 3.525-1.174 3.525-3.524v-10.575c0-2.351-1.175-3.524-3.525-3.524h-14.1c-2.351 0-3.525 1.175-3.525 3.524v10.575c0 2.35 1.174 3.524 3.525 3.524z"/><path d="m309.365 35.512v-31.728h24.676c7.051 0 10.575 3.242 10.575 9.729 0 6.438-3.524 9.658-10.575 9.658h-17.626v12.339h-7.05zm28.201-19.389v-5.288h-21.151v5.288z"/><path d="m348.141 35.512v-31.728h7.052v31.728z"/><path d="m393.968 35.512h-24.676c-7.05 0-10.576-3.526-10.576-10.576v-21.15h35.252v7.05h-28.202v5.288h28.202v7.05h-28.202v1.763c0 2.352 1.178 3.524 3.526 3.524h24.676z"/></g><path d="m39.574 123.664c-16.756 0-25.135-8.378-25.135-25.135v-25.133c0-16.756 8.378-25.135 25.135-25.135h33.513c16.756 0 25.135 8.378 25.135 25.135v25.134c0 16.757-6.983 25.135-20.946 25.135h-37.702zm0-16.756h33.513c5.584 0 8.378-2.793 8.378-8.379v-25.133c0-5.585-2.793-8.378-8.378-8.378h-33.513c-5.586 0-8.378 2.793-8.378 8.378v25.134c0 5.585 2.792 8.378 8.378 8.378z" fill="#d12c00"/><path d="m77.275 125.663h-37.701v-1.999-2.001h37.701c6.609-.024 11.115-1.918 14.173-5.564 3.064-3.657 4.776-9.451 4.774-17.57l-.002-25.134c-.006-8.072-2.003-13.744-5.697-17.436-3.692-3.694-9.366-5.691-17.436-5.699h-33.513c-8.072.008-13.744 2.005-17.438 5.699-3.694 3.692-5.691 9.364-5.697 17.436v25.134c.006 8.071 2.003 13.743 5.697 17.438 3.694 3.692 9.366 5.688 17.438 5.697v2.001 1.999c-8.685.008-15.58-2.185-20.265-6.87-4.686-4.686-6.878-11.578-6.87-20.265v-25.134c-.008-8.685 2.185-15.58 6.87-20.265 4.685-4.685 11.58-6.876 20.265-6.87h33.513c8.685-.006 15.58 2.185 20.265 6.87 4.685 4.685 6.876 11.58 6.87 20.265v25.134c-.004 8.637-1.782 15.412-5.701 20.133-3.902 4.705-9.827 7.002-17.128 7.002-.039-.001-.079-.001-.118-.001zm-4.188-16.755h-33.513v-2.001-2.001h33.513c2.484-.006 3.969-.606 4.869-1.509.9-.898 1.501-2.383 1.509-4.869l-.002-25.134c-.006-2.484-.607-3.969-1.507-4.869-.9-.902-2.385-1.501-4.869-1.509h-33.513c-2.486.008-3.971.607-4.871 1.509-.9.9-1.501 2.385-1.507 4.869v25.134c.006 2.486.607 3.971 1.507 4.869.9.902 2.385 1.503 4.871 1.511v1.999 1.999c-3.102.008-5.805-.787-7.698-2.679-1.893-1.893-2.688-4.6-2.68-7.699v-25.133c-.008-3.099.787-5.804 2.68-7.698 1.894-1.892 4.597-2.687 7.698-2.68h33.513c3.1-.006 5.805.789 7.696 2.68 1.894 1.894 2.688 4.599 2.68 7.698v25.134c.008 3.1-.787 5.807-2.68 7.699-1.884 1.885-4.575 2.681-7.66 2.681-.012-.001-.024-.001-.036-.001z"/><path d="m106.6 123.664v-75.403h58.647c16.756 0 25.135 7.708 25.135 23.124 0 15.304-8.378 22.956-25.135 22.956h-41.891v29.323zm67.025-46.079v-12.568h-50.269v12.567h50.269z" fill="#d12c00"/><path d="m106.599 125.662v-1.998h2.001-2.001v1.998h-2.001v-79.402h60.65c8.66-.002 15.499 1.988 20.205 6.31 4.71 4.324 6.942 10.771 6.93 18.815.015 7.987-2.224 14.398-6.936 18.692-4.706 4.289-11.539 6.264-20.198 6.264l-39.892-.003v29.323h-18.758zm2.001-3.999 12.755-.002v-29.321h43.893c8.096-.002 13.831-1.853 17.501-5.216 3.667-3.357 5.617-8.425 5.631-15.738-.013-7.376-1.968-12.489-5.637-15.873-3.673-3.388-9.401-5.251-17.496-5.253h-56.647zm12.756-42.078v-16.568h54.267v14.568 2zm52.269-2v-2.001zm-48.271-2.001h46.271l-.002-8.567h-46.27v8.567z"/><path d="m198.76 48.261h83.782v16.756h-33.513v58.647h-16.756v-58.647h-33.513z" fill="#d12c00"/><path d="m230.272 125.662v-58.646h-33.513v-18.755-2.001h87.782v20.756h-33.513v58.646zm-29.513-62.645h33.513v58.645h12.757v-58.645l33.513-.002v-12.755h-79.782v12.757z"/><path d="m290.92 123.664v-75.403h16.756v75.403z" fill="#d12c00"/><path d="m290.92 125.662v-1.998h2-2v1.998h-2.001v-79.402h20.756v79.402zm2-3.999 12.755-.002v-71.401h-12.755z"/><path d="m341.189 123.664c-16.757 0-25.135-8.378-25.135-25.135v-25.133c0-16.756 8.378-25.135 25.135-25.135h33.513c16.757 0 25.135 8.378 25.135 25.135v25.134c0 16.757-6.982 25.135-20.945 25.135h-37.703zm0-16.756h33.513c5.585 0 8.378-2.793 8.378-8.379v-25.133c0-5.585-2.793-8.378-8.378-8.378h-33.513c-5.586 0-8.378 2.793-8.378 8.378v25.134c.001 5.585 2.793 8.378 8.378 8.378z" fill="#d12c00"/><path d="m378.891 125.663h-37.701v-2-2h37.701c6.608-.023 11.113-1.918 14.173-5.563 3.063-3.658 4.776-9.451 4.772-17.57v-25.134c-.009-8.072-2.004-13.745-5.697-17.437-3.693-3.695-9.366-5.691-17.437-5.697h-33.512c-8.072.006-13.745 2.002-17.438 5.697-3.693 3.691-5.689 9.364-5.697 17.437v25.134c.008 8.069 2.004 13.744 5.697 17.436 3.693 3.693 9.366 5.691 17.438 5.698v2 2c-8.687.008-15.582-2.185-20.267-6.87-4.685-4.685-6.875-11.579-6.869-20.264v-25.134c-.006-8.685 2.184-15.58 6.869-20.267 4.685-4.683 11.58-6.875 20.267-6.869h33.512c8.685-.006 15.579 2.186 20.265 6.869 4.685 4.687 6.877 11.582 6.869 20.267v25.134c-.004 8.637-1.783 15.411-5.7 20.129-3.902 4.708-9.827 7.005-17.128 7.005-.038-.001-.078-.001-.117-.001zm-4.189-16.756h-33.512v-2-2h33.512c2.484-.008 3.969-.608 4.867-1.509.902-.9 1.503-2.385 1.51-4.869v-25.133c-.007-2.484-.607-3.969-1.51-4.87-.898-.903-2.383-1.503-4.867-1.509h-33.512c-2.486.006-3.971.606-4.87 1.509-.902.898-1.503 2.385-1.509 4.87v25.134c.006 2.484.607 3.969 1.509 4.869.899.9 2.383 1.501 4.87 1.509v2 2c-3.102.007-5.805-.789-7.7-2.681-1.89-1.893-2.687-4.599-2.679-7.697v-25.134c-.008-3.1.789-5.805 2.679-7.698 1.895-1.892 4.598-2.689 7.7-2.681h33.512c3.1-.008 5.803.789 7.697 2.681 1.891 1.893 2.688 4.598 2.679 7.698v25.134c.009 3.099-.788 5.805-2.679 7.697-1.887 1.885-4.577 2.681-7.661 2.681-.011-.001-.024-.001-.036-.001z"/><path d="m408.215 123.664v-75.403h58.647c16.757 0 25.135 8.378 25.135 25.135v50.269h-16.757v-50.269c0-5.585-2.793-8.378-8.378-8.378h-41.891v58.647h-16.756z" fill="#d12c00"/><path d="m473.239 125.664v-52.269c-.007-2.485-.607-3.969-1.51-4.869-.898-.902-2.385-1.503-4.867-1.509h-39.891v58.647h-18.758v-2.001h2-2v2.001h-2.001v-79.404h60.649c8.686-.006 15.579 2.186 20.265 6.871 4.684 4.686 6.877 11.579 6.869 20.265v52.269h-20.756zm1.321-59.966c1.891 1.892 2.687 4.597 2.68 7.697v48.267h12.756v-48.267c-.007-8.07-2.004-13.743-5.696-17.436-3.693-3.695-9.366-5.692-17.437-5.699h-56.648v71.402h12.757v-58.646h43.892.036c3.081 0 5.773.797 7.66 2.682z"/><path d="m500.375 106.908h67.025v-12.567h-41.89c-16.757 0-25.135-7.568-25.135-22.705 0-15.583 8.378-23.375 25.135-23.375h58.647v16.756h-67.025v12.567h41.891c16.757 0 25.135 7.68 25.135 23.04 0 15.361-8.378 23.04-25.135 23.04h-58.647v-16.756z" fill="#d12c00"/><path d="m559.021 125.663h-60.648v-18.755-2.002h67.025v-8.566h-39.888c-8.657 0-15.483-1.949-20.192-6.192-4.714-4.248-6.96-10.602-6.944-18.512-.013-8.124 2.216-14.626 6.923-18.997 4.703-4.367 11.548-6.381 20.214-6.379h60.646v20.757h-67.027v8.566h39.892c8.661 0 15.498 1.983 20.203 6.286 4.711 4.31 6.946 10.739 6.932 18.755.015 8.016-2.221 14.445-6.932 18.753-4.703 4.303-11.534 6.286-20.189 6.286-.005 0-.011 0-.015 0zm-56.646-4h56.646c8.096-.002 13.827-1.858 17.5-5.234 3.668-3.37 5.621-8.46 5.634-15.805-.013-7.345-1.966-12.435-5.634-15.806-3.673-3.374-9.404-5.232-17.5-5.234h-43.89v-16.567h67.023v-12.757h-56.644c-8.094.002-13.815 1.881-17.489 5.308-3.673 3.423-5.633 8.606-5.646 16.067.015 7.228 1.96 12.225 5.624 15.544 3.668 3.325 9.41 5.16 17.511 5.16h43.89v16.568h-67.024v12.756z"/></svg>