<svg enable-background="new 0 0 566.929 129.21" height="160" viewBox="0 0 511.99999 159.99999" width="512" xmlns="http://www.w3.org/2000/svg"><g stroke-width="1.17025"><g fill="#856125"><path d="m15.35755 33.630975 9.432946 12.719604c-.27055-.36599-.563353-.684038-.880752-.957654-.317398-.273615-.659392-.499289-1.028324-.68053s-.764802-.316879-1.189952-.406915c-.425151-.09121-.879581-.135639-1.366806-.135639-.195592 0-.395869.007-.603174.02222-.206133.01403-.416952.03625-.633626.06548-.217846.02923-.439205.06548-.66642.108744-.228386.04326-.461458.09471-.701556.152009l-9.7187225-12.790933c.2494683-.05964.4919093-.112253.7296654-.157855.236585-.0456.4684851-.08302.6945291-.113422.2248728-.02923.4450608-.05262.659393-.06782.214332-.0152.422807-.02339.626598-.02339.507135 0 .979134.04677 1.421853.140315.441547.09471.853814.235029 1.237971.423285.382987.188257.739035.424455 1.069317.707425.330282.285308.634798.616219.91706.995071"/><path d="m137.55602 36.099359 4.64034 12.62723c-.30334-.826693-.78237-1.44642-1.33401-1.9118-.55164-.46421-1.17473-.775243-1.76853-.981039-.59381-.206966-1.15716-.309864-1.58934-.361313-.43217-.05145-.73318-.05145-.79994-.05145l-4.8617-12.757021c.0691 0 .38182 0 .83156.05379.44975.05379 1.03653.161363 1.65493.375344.61722.215151 1.26725.536707 1.83997 1.019627.57389.482919 1.07166 1.127201 1.38672 1.986634"/><path d="m175.67079 40.836178 3.14705 12.449497c-.0129-.04911-.0246-.09588-.0386-.141485-.0129-.0456-.0269-.08887-.0422-.129792-.014-.04093-.0293-.08068-.0445-.118099-.0164-.03742-.0316-.0725-.0492-.106406-.19677-.394053-.43804-.785767-.73435-1.149418-.29632-.364821-.64886-.702747-1.06932-.991563-.42047-.288817-.90769-.528522-1.4769-.695732-.56804-.167209-1.21572-.263091-1.95593-.263091-.28694 0-.58794.0152-.903.04443-.31506.0304-.64534.076-.99085.137977-.34433.06314-.70507.142654-1.08103.239706-.37596.09822-.76831.213981-1.17824.349619-1.46635.484089-2.85073 1.088615-4.24564 1.930508-1.39492.841894-2.79803 1.922323-4.30187 3.353542-1.505 1.433557-3.11074 3.219072-4.90738 5.474645-1.79898 2.256741-3.79004 4.984709-6.06571 8.299664l-4.34519-11.814569c2.37053-3.444746 4.44475-6.28029 6.31869-8.624729 1.87277-2.343269 3.54409-4.198942 5.11234-5.688626 1.56591-1.487344 3.02758-2.609869 4.47989-3.484502 1.4523-.874634 2.89406-1.503715 4.42015-2.005343.42515-.141485.83391-.261923 1.22509-.363651.39119-.101729.76715-.184749 1.12554-.24906.35956-.06548.70273-.112253 1.03067-.143824.32793-.0304.64065-.0456.94048-.04677.77066 0 1.4441.09822 2.03557.272446.59029.173056 1.09859.422116 1.53663.722625.43803.300509.80462.651298 1.11265 1.03015s.55867.784598.76363 1.195021c.0176.03508.034.07133.0504.109914.0164.03859.0316.07951.0468.122776.0152.04326.0293.0877.0433.134469.0152.05028.0293.09939.041.14967"/><path d="m143.18135 65.55393 4.43773 11.517568c-.7894 2.001835-2.0344 4.880642-3.25598 8.491429-1.22157 3.615464-2.41972 7.966415-3.10957 12.912538-.69101 4.951965-.87255 10.501445-.0609 16.508125.81399 6.01603 2.62703 12.49042 5.92634 19.27819l-4.49512-9.25031c-3.43165-7.05904-5.31379-13.79185-6.15706-20.04758-.8421-6.245212-.64768-12.014519.075-17.1641.72146-5.140226 1.97232-9.664233 3.2466-13.422351 1.27076-3.751102 2.56964-6.742161 3.393-8.823509m32.16497-.811491 3.1693 11.547969c-.31388-.0082-.63362-.0152-.95922-.02222-.32677-.0058-.65822-.01052-.9967-.0152-.33731-.0035-.68048-.007-1.02833-.0094-.34785-.0012-.70038-.0023-1.05643-.0023-2.48297 0-5.16856.0456-7.86001.114591-2.69144.06899-5.38875.162532-7.89163.258414-2.50288.09705-4.81251.196442-6.72979.279462-1.91727.08302-3.44102.1485-4.37447.176564l-4.43773-11.517568c.97094-.02923 2.55793-.09705 4.55368-.18358 1.99574-.08653 4.40024-.190595 7.00619-.291154 2.60595-.10056 5.41451-.197611 8.21606-.268938 2.80271-.0725 5.59839-.118099 8.18326-.118099.37127 0 .73786 0 1.09977.0023.3619.0012.71912.0047 1.07048.0094.35137.0035.69688.0094 1.03653.0152.33965.0082.67227.0152.99904.02456"/><path d="m195.47716 30.346422 2.36585 12.84238c.041.219828.0199.46421-.055.717948-.075.252568-.20262.515659-.37245.774074-.171.258414-.38416.512152-.63362.748349-.24713.235029-.52822.452518-.83508.638436-.53407.323895-.91003.695731-1.17473 1.127202-.26469.432639-.41695.924913-.50596 1.488514-.0878.56477-.10892 1.202036-.11126 1.924661-.001.723795.0164 1.531778.008 2.437983-.008.906204-.0515 5.878052-.1136 12.921892-.0621 7.057872-.14289 16.205276-.22371 25.432192-.0808 9.252637-.16397 18.587137-.22838 25.964227-.0644 7.39229-.11244 12.81197-.12415 14.2011-.004.3578.005.70625.0246 1.04769.0199.34143.0504.67468.0914.99975.041.32506.0925.64311.1546.95063.0621.30753.13352.60804.21433.89919l-2.5591-9.20236c-.0843-.30168-.15811-.61271-.22253-.93427-.0644-.32155-.11712-.65129-.16045-.98922-.0433-.33793-.075-.68521-.0949-1.04067-.0211-.35547-.0293-.71795-.0258-1.09096.0129-1.44291.0644-7.08009.13586-14.76704.0703-7.670583.15929-17.374572.24713-26.993203.0878-9.591736.17568-19.098114.24244-26.433109.0679-7.319795.11478-12.485745.12298-13.427029.008-.942453-.009-1.782007-.008-2.533865.002-.751857.0246-1.413679.11712-2.000665.0914-.586987.25064-1.09797.52587-1.546979.27524-.44901.66759-.834878 1.22275-1.170466.31857-.192934.61254-.418608.87021-.662991.25884-.244383.48137-.508644.65939-.777582.17803-.267769.31154-.540215.38884-.804476.0773-.26426.0996-.512151.0574-.741333"/><path d="m36.533074 49.879515 8.621296 12.109231c.04802 2.855421.33848 8.896006.750747 16.416919.413438 7.534945.949853 16.561911 1.48744 25.355015.539929 8.81416 1.081029 17.39095 1.501494 23.98227.421637 6.60301.721467 11.20419.776514 12.04258l-8.533455-9.02931c-.056218-.87112-.363076-5.65705-.792911-12.52316-.429835-6.85324-.982647-15.77263-1.534288-24.937577-.549299-9.139219-1.096255-18.522821-1.51672-26.355937-.420466-7.815576-.71444-14.093527-.760117-17.060031m51.618853-21.304577 6.571673 12.910199c-1.263738-2.481246-2.672707-4.459695-4.218707-6.032399-1.54483-1.571534-3.227862-2.738491-5.040899-3.594416-1.810695-.855925-3.751394-1.403156-5.811557-1.736405-2.060163-.33325-4.240961-.451348-6.533024-.451348-.426322 0-.857328.0035-1.291848.01169-.43452.007-.873724.01871-1.315271.03274-.441548.01403-.88778.0304-1.337525.05028-.449746.01871-.903005.04093-1.359778.06314-6.182831.312203-10.700198 1.763299-13.997162 3.941698-3.298135 2.179568-5.375866 5.087608-6.67474 8.313696-1.300046 3.229596-1.821236 6.777241-2.005116 10.231342-.183881 3.457609-.03162 6.820504.01405 9.673587l-8.621292-12.109227c-.04334-2.964166-.197935-6.459192-.0012-10.05127.195592-3.58974.742549-7.276531 2.099984-10.631241 1.355093-3.352373 3.520665-6.373834 6.957003-8.637591 3.432824-2.262589 8.136414-3.768642 14.571056-4.093706.475512-.02456.947511-.04677 1.414825-.06665s.932285-.03742 1.392572-.05145c.460286-.01403.915888-.02573 1.367976-.03391.452088-.0082.900662-.01286 1.344552-.01286 2.38576 0 4.654399.122776 6.797718.468888 2.14449.344942 4.162489.91322 6.046971 1.803054 1.884481.889835 3.635443 2.101226 5.242347 3.734732 1.610417 1.634676 3.074433 3.690299 4.387363 6.267428"/><path d="m197.23867 132.40961 2.32837 8.96499c-2.82262 0-5.86543.008-8.85437.0199-2.98893.0117-5.92282.0269-8.5276.0433-2.60477.0164-4.88161.0316-6.55645.0456-1.67483.0129-2.74649.0211-2.94091.0234l-3.44102-8.95914c.20262-.002 1.31878-.0117 3.06272-.0246 1.74393-.0129 4.11564-.0292 6.82817-.0456 2.7137-.0175 5.76939-.0327 8.8813-.0456 3.11191-.014 6.28004-.0222 9.21979-.0222"/><path d="m113.55084 30.38267 5.57849 12.841211c.43218 1.548148 1.13607 4.091367 1.74276 7.478818.60786 3.38979 1.11851 7.628489 1.16536 12.566427.0468 4.944953-.37362 10.591484-1.63033 16.789924-1.25905 6.210132-3.35786 12.976849-6.67123 20.14814-3.27471 7.09295-7.9373 13.62347-13.69967 19.43137-5.770564 5.81841-12.640897 10.90836-20.320538 15.11198-7.687839 4.2083-16.182644 7.52442-25.186927 9.78935-9.010138 2.26609-18.527412 3.47982-28.253161 3.47982-.131176 0-.263523 0-.39587 0-.131176-.001-.263523-.001-.39587-.002-.131176 0-.263523-.001-.39587-.002s-.264694-.004-.39587-.005l-9.579348-8.69839c.138203.002.275235.004.413438.005.138204.001.274064.002.412267.004.137032.001.274064.001.412267.002h.412267c10.128646 0 20.04179-1.26167 29.427888-3.61897 9.381413-2.3573 18.231095-5.80673 26.242189-10.1834 8.000554-4.37083 15.160176-9.66541 21.175524-15.71301 6.003636-6.03941 10.865344-12.829514 14.280594-20.203095 3.45508-7.456602 5.64642-14.489919 6.96286-20.944434 1.3141-6.442822 1.75565-12.31152 1.71114-17.449407-.0445-5.129703-.57272-9.534441-1.20283-13.057531-.63012-3.519581-1.35978-6.161022-1.80953-7.769973m.77066-11.107975 5.53867 13.256311c-.63832.547231-1.11149 1.101477-1.43591 1.723543-.32443.620896-.49894 1.309612-.53993 2.121103-.0398.812661.0527 1.751606.26586 2.872961.21199 1.121355.54345 2.427459.97797 3.974438l-5.57849-12.841211c-.45092-1.607782-.79525-2.964166-1.01544-4.128785s-.3174-2.138643-.27406-2.984044c.0433-.844232.22487-1.558672.56335-2.204123.33965-.645452.83273-1.221915 1.49798-1.790193"/><path d="m153.17297 141.39097 4.08518 8.61889c-1.92664-.30636-3.90248-1.1997-5.86894-2.53387-1.96647-1.33533-3.92356-3.10799-5.81156-5.17413-1.88682-2.06498-3.70572-4.41877-5.3946-6.91639-1.68889-2.49645-3.25012-5.13438-4.62512-7.76764l-4.96946-9.51573c1.43005 2.73849 3.05335 5.48166 4.81017 8.0775 1.75799 2.59701 3.6495 5.04551 5.61362 7.19234 1.9653 2.14917 4.00204 3.99432 6.04932 5.38227 2.04845 1.38912 4.10627 2.31872 6.11139 2.63676"/><path d="m322.18011 29.315102-2.6036 12.882137c-1.21455.496951-2.27098 1.018457-3.18101 1.559841-.91004.541384-1.6725 1.104985-2.29675 1.686125-.62543.582309-1.11383 1.183328-1.47456 1.800716-.3619.617388-.59615 1.251147-.71327 1.900106l2.29324-12.612028c.1218-.673515.36659-1.332998.74137-1.973772.37479-.640775.8831-1.265179 1.53429-1.870874.6512-.604526 1.44294-1.189175 2.38928-1.752775.94634-.562432 2.04728-1.103816 3.31101-1.619476"/><path d="m367.45568 31.991621-4.38034 12.781577c-.50245.426793-.96039.815-1.38085 1.200867-.4193.387037-.80229.770567-1.15014 1.189175s-.66173.871125-.94985 1.393801c-.28812.522675-.54461 1.116678-.77886 1.815917l4.20934-12.564088c.24362-.727302.51299-1.343521.80931-1.886075.29749-.543722.62426-1.01378.9885-1.448758.36191-.434978.75895-.833708 1.19581-1.235946s.91472-.802137 1.43708-1.24647"/><path d="m439.45949 37.495499-7.20882 12.574611c-.63479.424455-1.19815.792783-1.69708 1.128371-.50128.335588-.93697.637266-1.31762.928421-.38181.292324-.70741.572955-.9885.867618-.27875.294662-.51299.602187-.70624.94596l7.02142-12.423772c.20145-.356635.44389-.677022.73435-.982209.29046-.305186.62894-.598679 1.02598-.901527s.85147-.616219 1.37149-.964669c.51885-.34962 1.10445-.73198 1.76502-1.172804"/><path d="m207.11668 50.217441 1.91493 12.097539c-.33731-2.04393-.73904-3.552322-1.19347-4.666661-.45443-1.11434-.95922-1.838134-1.50383-2.312868-.54462-.473565-1.12788-.69807-1.73691-.816169s-1.24383-.128623-1.89034-.175394l-2.17143-12.408572c.67345.04794 1.33518.05963 1.96881.182411.6348.121606 1.24149.355466 1.80835.847739.5657.492274 1.09391 1.242962 1.56474 2.402904.47083 1.158773.88895 2.725629 1.23915 4.849071"/><path d="m344.52802 41.142534-3.48553 12.437803c-.0105-.127453-.0222-.254906-.0328-.378852-.0117-.123945-.0234-.246721-.034-.365989-.0105-.119269-.0246-.238537-.0363-.353128-.0141-.11576-.0258-.229182-.0387-.340265-.14875-1.2301-.51065-2.289482-1.0213-3.205041s-1.17004-1.687294-1.9161-2.340931c-.74372-.654806-1.57411-1.190344-2.42559-1.635845-.85147-.445502-1.72402-.799799-2.55558-1.088615l3.15056-12.815486c.86436.300509 1.77322.667668 2.65982 1.130709.88661.463041 1.7498 1.019626 2.52514 1.698987.77534.680531 1.46401 1.481499 1.99457 2.433306.53291.950638.90886 2.052115 1.06346 3.330155.0152.114591.0269.23269.041.351958.014.120438.0258.243214.0386.367159.0129.123946.0246.251399.0363.381191s.0246.259584.0363.392884m.32458 14.401052-3.50427 11.896419c.001-.118099.009-.720286.014-1.638184.006-.917897.007-2.150336-.005-3.531274-.0117-1.37977-.0363-2.905701-.0867-4.410586-.048-1.503715-.12181-2.986382-.22722-4.279624l3.48553-12.437803c.11127 1.343521.1874 2.884653.2401 4.446833.0515 1.563349.0785 3.148915.0914 4.582472.014 1.434726.0129 2.715106.007 3.669251-.006.954146-.014 1.579719-.0152 1.702496"/><path d="m494.59666 59.664185-9.40132 11.740903c-.0375-.361312-.1464-1.157603-.46146-2.19243-.31622-1.033658-.83741-2.303513-1.69826-3.611956-.86084-1.308442-2.06367-2.654302-3.73968-3.841138-1.67717-1.185666-3.82752-2.212308-6.58807-2.881146-.27758-.06782-.55281-.125114-.82453-.175394s-.5411-.09004-.80697-.122776c-.26586-.03274-.52939-.05613-.79057-.0725s-.51767-.02455-.773-.02455c-1.57176 0-3.03461.293494-4.39321.803307-1.35861.508644-2.61181 1.231269-3.76311 2.090701-1.1513.859433-2.19837 1.853335-3.14588 2.903363-.94751 1.051197-1.79195 2.158521-2.53919 3.243627l8.18678-11.892911c.77651-1.127202 1.65492-2.277789 2.63991-3.369912.98382-1.092123 2.07422-2.12578 3.27003-3.017953s2.50171-1.644031 3.91419-2.171383c1.41365-.528522 2.9374-.833709 4.57241-.833709.26587 0 .53291.0082.80463.02456.27055.01637.54578.04093.82336.07484.27641.03391.5575.076.84093.127453.28343.05145.56921.112252.8585.18241 2.87416.695731 5.11468 1.762129 6.85979 2.994568 1.74745 1.233607 3.00065 2.632085 3.89897 3.991977.89949 1.359891 1.44293 2.680027 1.77321 3.753441.32912 1.072244.44272 1.901275.48254 2.276619m.0176.19877-9.40366 11.732718c0-.0082-.001-.01754-.002-.02923 0-.01169-.001-.02572-.002-.04209-.002-.01637-.004-.03391-.006-.05379-.001-.01988-.004-.0421-.006-.06665l9.40132-11.740903c.002.02455.005.04794.007.06899s.004.03976.005.05613c.002.01637.004.0304.005.04326 0 .01286.001.02339.002.03157"/><path d="m426.76354 49.783632-6.72159 12.11274c-.15928-1.691972-.37947-3.192179-.6629-4.514653-.28226-1.322474-.62777-2.466046-1.03652-3.445916-.40759-.978701-.87841-1.792531-1.41132-2.454352-.53407-.661822-1.13139-1.170466-1.79078-1.539964l6.51077-12.579288c.6875.383529 1.30825.912051 1.86457 1.599597.5575.687546 1.04824 1.532947 1.47339 2.550235s.78705 2.206462 1.0822 3.580385c.29397 1.373923.52587 2.933764.69218 4.691216m.12649 15.493175-6.74267 11.528091c.0738-1.523593.12649-2.97352.15929-4.353289.0316-1.378601.0433-2.685874.034-3.925328-.009-1.239454-.0387-2.409919-.0878-3.513735-.0504-1.103815-.12063-2.14215-.21199-3.117344l6.72159-12.112739c.096 1.012611.171 2.091871.22253 3.238951.0539 1.147079.0855 2.363147.096 3.651712.0117 1.287395 0 2.646117-.0316 4.078505-.0316 1.434726-.0843 2.941949-.15929 4.525176"/><path d="m288.3918 41.322605-1.28013 12.431957c-4.75864 5.197522-9.73746 9.368401-14.77602 12.761699-5.04207 3.396806-10.14036 6.01369-15.12973 8.100884-4.99287 2.088363-9.87566 3.645866-14.48438 4.926245-4.61107 1.281549-8.94689 2.283636-12.84703 3.262336l-1.06346-11.293062c4.06059-1.017288 8.57327-2.059131 13.37524-3.38979 4.79729-1.330659 9.88035-2.950134 15.07702-5.120348 5.1955-2.169044 10.50227-4.887658 15.75047-8.417763 5.24469-3.527767 10.42731-7.862348 15.37802-13.262158"/><path d="m479.77028 76.397983-8.83797 11.107145c-.85732-.988055-1.84114-1.776161-2.92569-2.404073-1.08454-.626743-2.26981-1.094461-3.52886-1.437065s-2.59424-.561262-3.97744-.695731c-1.38203-.1333-2.81325-.181241-4.26672-.181241-.13001 0-.26119.0012-.39236.0012-.13001.0012-.26118.0023-.39236.0035-.13.0023-.26235.0035-.39352.0058-.13118.0023-.26353.0047-.3947.007-.84093.01871-1.57177.04326-2.20657.0877-.6348.0456-1.17472.111083-1.63501.210474-.46029.09939-.84093.23269-1.15716.413931-.3174.18124-.56921.411592-.77534.701577l7.93028-11.2369c.21316-.301679.47551-.539046.80579-.728472.32911-.188256.72498-.327403 1.20401-.430301s1.04121-.170717 1.70177-.218658c.65939-.04677 1.42068-.07367 2.29558-.09238.13703-.0023.27406-.0047.41109-.007.13704-.0023.27407-.0035.4111-.0058s.27172-.0023.40875-.0035.27172-.0012.40876-.0012c1.51203 0 3.00181.04911 4.44123.189426 1.43942.139146 2.82965.36599 4.14024.722625 1.31176.356635 2.54622.840724 3.67644 1.492022s2.15503 1.473313 3.04866 2.499955m5.9322-5.565884-9.06636 11.318788c-.24244.304017-.53407.639605-.87958 1.011441-.34668.371836-.74958.778751-1.21338 1.221914-.46497.444333-.99436.924914-1.59285 1.444081-.59849.519168-1.26959 1.078091-2.018 1.676771l8.83797-11.107145c.77886-.622065 1.4769-1.203206 2.09999-1.74342.62308-.539046 1.17238-1.039505 1.65609-1.500207.48254-.461872.90184-.883988 1.2614-1.271025.35839-.385868.66173-.736657.91472-1.051198"/><path d="m264.567 40.720418-.34434 12.454173c-.83742-1.219576-1.69006-2.380687-2.61766-3.434223-.92877-1.052366-1.9325-1.999496-3.06975-2.793448s-2.40801-1.435896-3.87203-1.879059c-1.46284-.443163-3.11894-.687546-5.02684-.687546-.36893 0-.74841.0094-1.13725.02689-.38884.01871-.78705.04677-1.19581.08536-.40875.03742-.82805.08536-1.25788.143824-.42866.05846-.86904.126284-1.3223.204626-2.78163.48292-5.31848 1.220746-7.55549 2.192431-2.23936.971685-4.18123 2.177229-5.77876 3.595586-1.5952 1.419525-2.84605 3.050693-3.69752 4.874795-.85382 1.825272-1.30942 3.842308-1.31879 6.030061-.009 2.190092-.0211 7.574701-.0305 14.432623-.0105 6.870784-.0222 15.228914-.0316 23.335644-.0105 8.124275-.0187 15.994805-.0246 21.851805-.007 5.86753-.0117 9.70633-.0117 9.7496 0 .19059 0 .37534.002.55658.002.1789.008.3543.0152.52268.008.17071.0176.33442.0304.49578.0129.16019.0281.31688.048.46889l-1.21572-9.30176c-.0222-.15902-.0375-.32155-.0515-.48876-.0141-.16838-.0246-.3391-.0316-.51449-.007-.17657-.0117-.35781-.014-.54489-.004-.18709-.005-.37886-.004-.57764 0-.0444.006-4.03758.0129-10.13896.008-6.0897.0187-14.272434.0293-22.71943.0117-8.425949.0246-17.11265.0375-24.254711.0129-7.12803.0246-12.723112.034-14.998563.0105-2.273111.48489-4.36966 1.37384-6.266258.88778-1.895429 2.18899-3.590909 3.85094-5.065391 1.66078-1.473313 3.68347-2.726799 6.01301-3.735901 2.33071-1.009103 4.96945-1.776161 7.86703-2.277789.46966-.08185.92878-.152009 1.37618-.212812.4474-.0608.88426-.109914 1.30941-.14967.42515-.03976.83976-.06899 1.245-.0877.40407-.01988.79877-.02806 1.18293-.02806 1.9852 0 3.70923.253738 5.23298.71444 1.52374.460703 2.84721 1.127202 4.02897 1.951556 1.18409.825523 2.22764 1.808901 3.19507 2.902193.96507 1.094461 1.85285 2.298836 2.72424 3.567523"/><path d="m296.30569 41.782139-1.59051 12.414417c-.009-.113421-.0164-.222166-.0246-.326233-.009-.105237-.0187-.204627-.0269-.301679-.009-.09588-.0187-.187087-.0269-.274784-.0105-.0877-.0211-.169548-.0304-.247891-.27758-2.069654-.80346-3.830615-1.46168-5.321467-.65939-1.489684-1.45113-2.70809-2.26864-3.692638-.81516-.983378-1.65492-1.734066-2.40684-2.287143-.75074-.553077-1.41248-.909712-1.87628-1.104985l1.25554-12.94177c.48254.203457 1.17238.572955 1.95358 1.148249.78237.574124 1.6561 1.354045 2.50523 2.377179.8503 1.023134 1.676 2.288313 2.36116 3.835291.68633 1.548149 1.23329 3.379266 1.52375 5.529602.0117.08068.0211.167209.0316.257245.009.09121.0199.185918.0293.285309.009.09939.0187.204626.0269.313371.008.108744.0176.220997.0258.337927m-1.99586 81.685861-1.53078 9.30877c.0117-.11693.0234-.23386.034-.3543.0105-.12044.0211-.24087.0293-.36365.009-.12278.0176-.24789.0246-.373.007-.12512.014-.25257.0199-.3812.11712-2.51398.34199-7.9021.60083-14.73897.25884-6.82635.5493-15.09211.80111-23.391774.24947-8.279787.45911-16.593483.55398-23.551964.0949-6.94445.0761-12.545379-.12766-15.424186l1.59051-12.414418c.21433 2.993398.23424 8.811816.13703 16.028712-.0972 7.232097-.31389 15.872027-.57038 24.479216-.26001 8.628237-.56101 17.222564-.82805 24.319024-.26821 7.11049-.50128 12.71259-.62191 15.32713-.006.1333-.0129.2666-.0211.39756-.008.1298-.0164.25959-.0246.38704-.0105.12745-.0211.25374-.0316.37768-.0117.12395-.0234.24556-.0351.36833m-.17928 1.34586-1.52257 9.25849c.0164-.1029.0316-.20697.048-.3122.0164-.10524.0305-.21281.0457-.31922.0141-.10875.0269-.21749.041-.3274.0129-.11109.0246-.22217.0363-.33676l1.53078-9.30877c-.0129.1181-.0246.23386-.0386.34962s-.0269.22801-.0433.34144c-.014.11225-.0293.22216-.0457.33208-.0164.10757-.0351.21632-.0515.32272"/><path d="m377.49063 49.271481-4.78558 12.132617c-.0691-.79746-.18622-1.460451-.37947-2.007681-.19208-.547231-.46263-.979871-.83507-1.316628-.37245-.336757-.85147-.577632-1.46168-.741334-.6102-.164871-1.35509-.251398-2.26044-.280631l4.57945-12.302165c.94282.0304 1.71582.121607 2.35179.291155.63597.170717 1.13491.420946 1.52375.770566.38884.349619.66876.799798.87021 1.369246.20145.569447.32442 1.256993.39704 2.084855m-3.49724 70.961079-4.69188 9.43388c.002-.0292.005-.0585.007-.0865.002-.0292.006-.0596.008-.0877.002-.0292.006-.0585.008-.0877s.005-.0596.007-.0889c.16749-2.08251.47317-6.98654.83742-13.23409.36425-6.2382.78354-13.8129 1.17941-21.261315.3947-7.430877.76597-14.737809 1.03301-20.472038.26821-5.726043.42984-9.889907.4111-11.059203-.004-.174226-.006-.344943-.0117-.510983-.005-.16604-.0105-.326234-.0176-.484089-.007-.157855-.0152-.309863-.0246-.458364-.009-.1485-.0199-.292324-.0316-.432639l4.78557-12.132618c.0129.146162.0234.294663.034.44901.009.154347.0187.312202.0246.475904.006.163701.0141.330911.0187.502797.005.171887.009.34845.0129.530861.0211 1.213729-.14641 5.541294-.4193 11.491843-.27406 5.959902-.65471 13.554481-1.06112 21.278852-.40758 7.74191-.83859 15.61712-1.2122 22.103202-.37362 6.49895-.68985 11.59708-.86201 13.76379-.002.0304-.006.0608-.008.0912-.004.0304-.006.062-.008.0912-.002.0304-.005.062-.008.0912-.005.0327-.008.0631-.0105.0924m-.55887 3.47982-4.67314 9.29942c.0621-.24555.11947-.50046.171-.76121.0527-.2631.10189-.5332.1464-.81033.0457-.27829.0855-.56477.12298-.8606.0363-.29466.0691-.59868.0984-.91088l4.69188-9.43388c-.0293.32506-.0644.64194-.1019.94947-.0375.30752-.0808.60569-.12649.89451-.0469.28998-.0972.57061-.15343.84423-.0539.26777-.11243.5332-.17568.78927m-.63833 1.98781-4.64854 9.22458c.0586-.145.11595-.2935.17099-.44551.0551-.152.10893-.30752.15929-.46538.0515-.16019.10072-.32155.14874-.48876.0469-.16721.0914-.33793.13469-.51215l4.67314-9.29942c-.0457.18124-.0925.35898-.14172.53203-.0492.17306-.10072.34261-.15343.50865-.0527.16604-.10892.3274-.16631.48526-.0562.15668-.11595.31103-.17685.4607m-.36542.80214-4.63449 9.19183c.0316-.062.0621-.12277.0914-.18592.0293-.0631.0597-.12511.089-.19059.0293-.0643.0586-.12862.0867-.19527.0269-.0655.0562-.13096.0832-.19878l4.64854-9.22458c-.0281.0713-.0586.13915-.0867.20813-.0293.069-.0597.13564-.0902.20346-.0293.0667-.0609.13213-.0914.19761-.0316.0666-.0644.13096-.096.19411"/><path d="m342.2992 122.98625-3.43633 9.32748c.006-.0503.0105-.10056.0152-.15201.004-.0503.008-.10173.0129-.15318.004-.0515.007-.10407.0117-.15552.002-.0514.007-.10406.009-.15668.13937-2.38069.33965-6.98187.56101-12.57461.22136-5.58339.4638-12.15367.69101-18.49008.22605-6.323557.43804-12.416759.59732-17.070558.16046-4.647953.26821-7.864686.28578-8.449335l3.49724-11.594741c-.0211.608034-.13001 3.949883-.29515 8.781415-.16279 4.837378-.37947 11.170286-.61254 17.745239-.23307 6.586645-.48254 13.41767-.70858 19.22206-.22605 5.81608-.43218 10.60084-.57624 13.07741-.005.0538-.007.10874-.0117.16253-.004.055-.007.10875-.0117.16136-.005.0538-.008.10758-.0129.1602-.006.055-.0105.10757-.0164.15902m2.24443-59.466895-3.49724 11.594741c-3.95987.06665-7.75226.11693-11.22373.154347-3.47148.03742-6.62204.06314-9.29943.07951-2.67622.01637-4.88162.02456-6.45924.02923-1.57762.0035-2.52982.0035-2.70316.0035l2.27801-11.584218c.18037 0 1.17121 0 2.81325-.0035 1.64204-.0047 3.93645-.01286 6.72511-.0304 2.78631-.01754 6.06688-.04326 9.68124-.08185s7.56252-.09237 11.68519-.161363m-2.62586 61.725978-3.42111 9.23978c.0422-.16604.0808-.33442.11829-.50864.0375-.17423.0703-.35079.10072-.53086.0305-.18124.0597-.36599.0843-.55542.0246-.18826.0457-.38119.0644-.57763l3.43634-9.32748c-.0187.20463-.041.40458-.0679.60102s-.055.38821-.0867.57646c-.0316.18826-.0679.37184-.10541.55191-.0375.18124-.0797.35898-.12298.53086m-.39348 1.27337-3.40588 9.19183c.0351-.0959.0703-.19293.10306-.29232.034-.0994.0668-.19995.0984-.30168.0316-.1029.0621-.2058.0914-.31103.0293-.10641.0586-.21281.0855-.32039l3.42111-9.23978c-.0269.11225-.0574.22217-.0878.33208-.0304.10992-.0632.21749-.0949.32273-.034.1064-.0679.21164-.10307.31454-.034.1029-.0703.20463-.10775.30402"/><path d="m202.45408 131.47651 2.12106 9.00007c-.0773 0-.14874-.001-.20964-.005-.0609-.002-.11361-.006-.15577-.009-.0422-.004-.075-.007-.0996-.009-.0234-.004-.0351-.005-.0375-.006l-2.14214-9.00124c.004 0 .0164.002.041.005.0234.003.0586.007.10306.0105.0433.004.0984.007.1628.0105.0621.002.13586.005.21668.005m29.90696-.0301.93112 9.00124c-1.31762 0-3.44923 0-5.97787 0-2.52865 0-5.45083 0-8.35426 0-2.90344 0-5.78462 0-8.22894 0s-4.45061 0-5.60074 0l-2.09764-9.00124h5.83264 8.56859 8.70211zm-29.90691.0293c-.0808 0-.1546-.002-.21785-.005-.0644-.004-.11946-.007-.1628-.0105-.0445-.004-.0796-.007-.10306-.0105-.0246-.002-.0375-.005-.041-.005h.082.21316.34082.46615c-.055.006-.10776.0105-.16046.014-.0515.004-.1019.007-.14992.009-.0492.002-.0949.004-.14054.005-.0422.001-.0855.002-.12649.002zm.57858-.0292 2.09764 9.00124c-.0527.006-.10307.0105-.15343.014-.0504.004-.0984.007-.14406.009-.0469.002-.0914.004-.13469.005-.0433.001-.0843.001-.12298.001l-2.12106-9.00007c.041 0 .0843-.001.12766-.002.0457-.001.0914-.002.14055-.005.048-.002.0984-.006.14991-.009.0527-.004.10541-.008.16046-.014"/><path d="m316.45171 132.95567-2.41269 8.94395c-3.46094 0-6.87736 0-10.06775 0-3.18921 0-6.15121 0-8.70211 0-2.55207 0-4.69187 0-6.2367 0s-2.49703 0-2.6692 0l1.26608-8.94395h2.77929 6.49555 9.06284z"/><path d="m385.58839 133.50992-5.16153 8.9229c-1.9161-.0655-4.15312-.20112-6.4405-.3695s-4.62512-.36716-6.74384-.56126c-2.1199-.19528-4.0196-.38353-5.43326-.52736-1.41131-.14499-2.33774-.24555-2.50522-.26426l4.28547-8.99071c.17451.0187 1.13842.12277 2.61063.27244 1.47104.15084 3.45039.34728 5.65696.54957 2.20773.20229 4.64268.41159 7.02376.58582 2.38342.17422 4.71296.31571 6.70753.38236"/><path d="m362.91255 133.23864-4.2597 8.93342c-3.62842-.0327-7.17837-.0666-10.47416-.097-3.29462-.0304-6.33626-.0608-8.94689-.0854s-4.79026-.0468-6.35969-.0631c-1.56942-.0152-2.52981-.0246-2.70667-.0257l3.08146-8.94395c.18037.002 1.18293.0117 2.81677.0281 1.63501.0164 3.90365.0374 6.62086.0655 2.71956.0257 5.88652.0561 9.31934.0889 3.434.0304 7.13152.0655 10.90868.0994"/><path d="m423.86596 94.392282-6.65014 10.423108c-.0504-.5484-.11244-1.09446-.18271-1.63585-.0726-.54138-.15343-1.08043-.24596-1.61713-.0925-.53671-.19559-1.06991-.30802-1.60077-.11244-.53086-.23542-1.058213-.36776-1.584396-.88076-3.47281-2.78866-7.104644-5.25172-10.635918-2.46072-3.527767-5.47425-6.952636-8.56859-10.016192-3.09318-3.062386-6.26833-5.763461-9.05348-7.844808-2.78397-2.080178-5.18027-3.541798-6.71924-4.126446-.50245-.191765-.96625-.369498-1.39726-.530861-.42984-.161362-.82688-.304017-1.19347-.422115-.36541-.119269-.70038-.213982-1.00607-.279462-.30686-.06548-.5856-.10056-.83976-.10056-.21082 0-.40407.02455-.58326.076-.17803.05145-.34082.130961-.49191.242044-.15109.109914-.28812.251399-.41461.426793-.12532.175394-.24127.385868-.34785.633758l5.09712-11.96073c.11009-.257246.22956-.474735.3619-.658314.13001-.18241.27407-.329742.42984-.443163.15694-.115761.32677-.197611.51299-.251399.18622-.05379.38767-.07834.60669-.07834.26586 0 .55632.03742.87606.105237.3174.06782.66642.16604 1.04824.289985.37947.122776.79408.271277 1.24266.438486.44857.16721.93111.353128 1.45464.550739 1.60339.608034 4.09925 2.12695 6.99917 4.287809 2.90226 2.163198 6.2086 4.969509 9.4306 8.152333 3.22552 3.185163 6.36671 6.746839 8.9305 10.412583 2.56847 3.670421 4.55953 7.446078 5.47893 11.055695.1382.547231.26821 1.0968.38416 1.647539.11946.553077.22604 1.106154.32208 1.665077.096.557755.18154 1.117848.25767 1.681448.0691.562432.13352 1.128371.18856 1.697818m.0141 8.62473-6.65717 10.09337c.0621-.71444.10775-1.42304.13703-2.12462.0305-.70274.0457-1.39847.0457-2.08953-.001-.69105-.0176-1.37626-.0492-2.05562-.0304-.68053-.0773-1.35405-.14054-2.02405l6.65014-10.423108c.0656.6969.11478 1.398478.14875 2.105902.0316.706255.0504 1.419526.0515 2.136304.001.717948-.014 1.441742-.0445 2.172552-.0305.72964-.0785 1.4663-.14172 2.2088m-1.56005 9.35086-6.60446 9.73439c.18973-.77875.36424-1.55048.52001-2.31403s.29866-1.52009.42398-2.26844.23542-1.48968.32911-2.22517c.0937-.73432.171-1.46162.23307-2.18307l6.65718-10.09337c-.0644.74952-.14406 1.50605-.2401 2.2696-.0984.76355-.21082 1.53529-.34082 2.31404-.13001.77875-.27641 1.56452-.43921 2.35964-.1628.79395-.34199 1.59609-.53876 2.40641m-4.26555 13.01544-6.44636 9.2351c.44506-1.10382.86436-2.19126 1.25906-3.26351.39352-1.07107.76128-2.12695 1.10328-3.16996.34199-1.04184.65822-2.06965.94985-3.08226.29046-1.01378.55633-2.01353.79526-3.00042l6.60446-9.73439c-.24829 1.02665-.52353 2.06615-.8257 3.11969-.30217 1.05353-.62894 2.1211-.98499 3.20504-.35605 1.08393-.73787 2.1819-1.14662 3.29624-.40992 1.11668-.84444 2.24739-1.30824 3.39447m-6.98863 14.89449-6.18049 8.66098c.66759-1.26985 1.30942-2.51866 1.92313-3.74993.61489-1.2301 1.2005-2.44032 1.76151-3.63184.56101-1.19151 1.09391-2.36548 1.59987-3.52192.50597-1.15643.98616-2.29416 1.43942-3.41551l6.44636-9.2351c-.46966 1.16579-.96859 2.35028-1.49447 3.55232-.52587 1.20204-1.08103 2.42278-1.66312 3.66224-.58209 1.24062-1.1923 2.49995-1.83061 3.77799-.64065 1.27921-1.30707 2.58064-2.0016 3.90077m7.50041-8.3628-6.47095 8.9837c-.64768.89919-1.29302 1.74459-1.93016 2.5362-.63714.79162-1.26608 1.5271-1.87863 2.20296-.6102.67585-1.20517 1.29207-1.77555 1.84398-.57039.55191-1.11383 1.0395-1.62565 1.45694l6.18049-8.66098c.53173-.43497 1.0986-.94245 1.69123-1.51657.59264-.57296 1.20986-1.21373 1.847-1.91765s1.29068-1.46864 1.95359-2.29182c.6629-.82201 1.33518-1.70366 2.00863-2.63676"/><path d="m448.52233 43.430846-7.57189 12.352445c-.0469-.48058-.14406-.926082-.29046-1.340013-.14757-.413931-.34434-.796291-.59146-1.148249-.2483-.353128-.54461-.677023-.89247-.976362-.34785-.29934-.74372-.572956-1.19112-.824354l7.44423-12.519655c.46497.261923.87958.546062 1.24148.855925.36191.309864.67111.64779.92878 1.014949.25766.367159.4638.763551.61722 1.193852.15461.429131.2565.892173.30569 1.391462m.002 1.480329-7.57306 12.297488c.0117-.126284.0187-.251398.0246-.374174.006-.122777.008-.243214.008-.362482 0-.118099-.004-.235029-.008-.34962-.006-.114591-.0141-.226843-.0246-.339096l7.57189-12.352445c.0117.115761.0199.23269.0258.351958.006.119269.008.240875.008.363651.001.122777-.002.247891-.007.375345-.007.128622-.014.258414-.0258.389375m-.32894 1.963248-7.56135 12.222654c.0398-.169548.0773-.335588.11127-.498121.034-.163701.0644-.322725.0902-.48058.0269-.156686.0504-.312202.0703-.463042.0199-.150839.0351-.300509.0468-.446671l7.57307-12.297488c-.0129.152009-.0281.307525-.048.464211-.0211.157855-.0445.318048-.0726.48175-.0269.163701-.0586.329741-.0925.499289-.0363.169548-.075.342604-.11712.517998m-1.14903 3.466964-7.52035 12.091692c.12297-.306356.2401-.605696.34785-.89802s.20847-.576463.29983-.853586c.0937-.277123.17685-.5484.25415-.812661.0761-.264261.14523-.521506.20613-.771735l7.56135-12.222654c-.0632.260754-.13352.527353-.21316.802138-.0785.273615-.16748.555415-.26352.844232-.0949.288816-.19911.584648-.31154.887495-.11127.304017-.2319.61505-.36074.933099m-2.0789 4.672507-7.44188 11.916298c.0586-.147331.11829-.289986.17568-.429132.0586-.139146.11712-.273615.17334-.404576.0586-.130961.11595-.258415.17099-.381191.0574-.122776.11361-.242044.16983-.356635.12532-.260753.24947-.516829.36659-.769397.11946-.252568.2319-.500459.34082-.743672.1101-.243214.21551-.48292.31623-.717948.10072-.235029.19676-.46655.28812-.693393l7.52035-12.091692c-.0949.236198-.19559.475904-.29983.720286-.10423.244383-.21316.493443-.32559.747181-.11478.252568-.2319.510982-.35488.772905-.12181.263091-.24947.528521-.38064.800967-.0586.119269-.11713.242045-.17451.369498-.0597.127453-.11947.259584-.17803.395222-.0597.135639-.12063.275954-.18037.420947-.0597.144993-.12532.292324-.18622.444332m-2.25107 7.256653-7.36224 11.641513c.16982-.705086.34551-1.380939.52353-2.02756.1792-.646621.3619-1.264009.54579-1.848657.18388-.584648.36776-1.136556.55281-1.655724.18505-.517998.36776-1.002087.5493-1.449927l7.44188-11.916298c-.18622.46538-.37713.968178-.56804 1.507223-.1909.539046-.38298 1.11317-.57389 1.721204-.18974.608034-.37947 1.247639-.56453 1.921154-.18739.671176-.36893 1.373923-.54461 2.107072m-1.83295 11.508213-7.30134 11.206535c.0867-1.033658.19325-2.042761.31623-3.026139s.26118-1.939862.41344-2.867114c.15109-.926083.31623-1.824102.49074-2.688212s.36073-1.696649.55281-2.49294l7.36224-11.641513c-.1991.827862-.39118 1.691972-.57155 2.589991-.18154.899189-.35253 1.831118-.50948 2.794618-.15694.9635-.301 1.957402-.42632 2.979367-.12766 1.021965-.23658 2.071993-.32677 3.145407m.0714 13.586052-7.31891 10.690875c-.11009-1.149418-.18857-2.288312-.2401-3.412006-.0527-1.123693-.0773-2.233356-.0785-3.326648-.001-1.093291.0246-2.169044.0691-3.226088.0445-1.054705.11127-2.091871.19676-3.104481l7.30134-11.206535c-.0878 1.053536-.15577 2.130458-.20144 3.228427-.0457 1.0968-.0703 2.216985-.0679 3.351203.001 1.136556.0281 2.290651.0843 3.458778.055 1.166958.13938 2.350285.25533 3.546475m48.65609 56.096988-9.31114 8.5382c-1.5214-.23269-3.78067-.63961-6.53654-1.48735-2.75586-.84891-6.00949-2.1363-9.52313-4.12995-3.51012-1.99248-7.27908-4.68888-11.06561-8.35345-3.78185-3.6599-7.58126-8.2833-11.15697-14.13095-1.29185-2.11292-2.41153-4.26208-3.37661-6.42528-.96391-2.1632-1.77673-4.34277-2.45135-6.52116-.67344-2.17606-1.2122-4.35213-1.6315-6.50714-.41929-2.15501-.72029-4.29015-.92174-6.389033l7.31891-10.690875c.21082 2.180738.52587 4.402401.96508 6.641603.4392 2.24271 1.00138 4.504129 1.70645 6.766715.70507 2.26493 1.55186 4.53102 2.5591 6.78075 1.00725 2.2509 2.17612 4.48425 3.52301 6.68253 3.73148 6.07917 7.69135 10.88848 11.636 14.69454 3.94815 3.81074 7.8764 6.61471 11.53527 8.68787 3.66121 2.07317 7.05187 3.41435 9.92368 4.296 2.87065.88165 5.22127 1.30493 6.80709 1.54698"/></g><g fill="#deba27" transform="translate(0 160)"><path d="m113.55084-129.61733c.44975 1.60895 1.17941 4.25039 1.80836 7.76997.63011 3.52309 1.15832 7.92666 1.20283 13.05753.0445 5.13789-.39704 11.006589-1.71114 17.449411-1.31644 6.454515-3.50778 13.487829-6.96286 20.944439-3.41643 7.37475-8.276959 14.16368-14.280595 20.20309-6.015348 6.04877-13.174971 11.34218-21.175524 15.71301-8.011094 4.37667-16.860777 7.8261-26.242189 10.1834-9.387269 2.3573-19.300413 3.61897-29.427888 3.61897-.137032 0-.274064 0-.412267 0-.138203-.001-.275235-.001-.412267-.002-.138203-.001-.275235-.002-.412267-.004-.137032-.001-.275235-.002-.413438-.005 1.647896-1.17281 2.976051-2.17373 4.024287-3.28339 1.048235-1.10849 1.818893-2.32573 2.352966-3.93.534073-1.60428.83039-3.59559.933456-6.2534.103067-2.65547.01171-5.9751-.2319-10.23602-.243612-4.25741-.538758-10.32371-.864355-17.17345-.324426-6.83454-.679303-14.44549-1.040037-21.814391-.360733-7.353704-.727323-14.467702-1.078686-20.336399-.350193-5.85934-.686331-10.48274-.986161-12.87161-.254154-2.03341-.561011-3.80255-.951025-5.31328-.390014-1.51074-.862012-2.76188-1.446448-3.76046-.585606-.99741-1.283649-1.74108-2.12575-2.2357-.842102-.49461-1.828263-.74016-2.987764-.74016-.203791 0-.412267.007-.626599.0234-.2143314.0152-.4345194.0374-.6593922.0678-.226044.0304-.4579441.0678-.6945291.11342-.2377561.0456-.4801972.0971-.7296654.15786 6.8258267-5.25668 12.8236067-9.36676 18.2451497-12.57414 5.416858-3.20504 10.259823-5.51206 14.778361-7.16428 4.516196-1.65104 8.710308-2.64845 12.82712-3.23193 4.116812-.58465 8.157496-.75537 12.370348-.75537 1.318785 0 2.655139.0164 4.014916.0433 1.360949.0257 2.745323.062 4.161319.0994s2.865957.0783 4.353397.11225c1.48744.0339 3.014701.0631 4.58764.0795 6.596269.0666 11.815192.74835 15.93669 1.74343 4.123837.99507 7.149077 2.30351 9.359157 3.62131 2.21008 1.31779 3.60265 2.64494 4.45764 3.67626.85498 1.03132 1.17121 1.76681 1.2286 1.90011-.66408.56828-1.15833 1.14474-1.49564 1.79019-.33848.64545-.52002 1.36106-.56335 2.20413-.0433.8454.0539 1.81942.27406 2.98404.22019 1.16579.56453 2.521 1.01544 4.12878zm-26.209393 63.59217c2.80037-5.14958 4.734042-10.5985 5.963815-16.122252 1.228602-5.51557 1.755648-11.103637 1.741593-16.544372-.01405-5.432546-.566867-10.717766-1.499152-15.634656-.929943-4.91105-2.239359-9.4561-3.76662-13.41768-1.305902-3.38628-2.805054-6.07566-4.483402-8.20612-1.677176-2.12929-3.534719-3.69965-5.559746-4.8479-2.025026-1.14708-4.216365-1.87321-6.563475-2.3117s-4.849992-.59049-7.49459-.59049c-.443889 0-.892464.005-1.344552.0129-.452088.008-.908861.0199-1.367976.0339-.460287.0152-.925258.0316-1.392572.0515s-.939312.0421-1.414825.0666c-6.435813.32506-11.138231 1.83111-14.571056 4.0937-3.436337 2.26376-5.601909 5.28522-6.957002 8.63759-1.357436 3.35471-1.903221 7.0415-2.099985 10.63124-.196763 3.59208-.04216 7.08711.0012 10.05127.04685 2.96768.340822 9.24563.760117 17.060036.420465 7.833115.967421 17.215544 1.51672 26.355934.55047 9.16495 1.103282 18.08434 1.534288 24.93758.429835 6.86608.736693 11.65201.792911 12.52314 4.311234-.34612 8.240652-.79513 11.990875-1.78201 3.750223-.98689 7.318907-2.51165 10.907503-5.0081 3.587424-2.49528 7.192416-5.95873 11.015254-10.82183 3.818153-4.85726 7.849467-11.10598 12.290705-19.16828"/><path d="m169.24669-27.45358c.075-.0327.49191-.21398 1.07751-.58348.58561-.37067 1.33987-.93076 2.09179-1.72588.75192-.79279 1.50032-1.81943 2.07539-3.12085.57506-1.30143.97562-2.87881 1.03184-4.7719.0562-1.89075.0796-6.25574.0808-11.783.001-5.51791-.0187-12.192251-.0492-18.721601-.0293-6.517657-.0703-12.891489-.10892-17.835279-.0386-4.93676-.0761-8.45167-.10073-9.26316-.32677-.009-.65939-.0164-.99904-.0234-.33966-.006-.68516-.0117-1.03653-.0152-.35136-.004-.70858-.007-1.07048-.009-.36191-.002-.72967-.002-1.09977-.002-2.58487 0-5.38055.0468-8.18327.1181-2.80154.0713-5.6101.16838-8.21605.26894s-5.01045.20462-7.0062.29115c-1.99574.0865-3.58274.15435-4.55367.18358-.97679 2.47072-2.62469 6.22416-4.10393 11.0136-1.48158 4.796454-2.79568 10.633581-3.09903 17.265829-.30451 6.646281.40641 14.091191 2.98074 22.089171 2.58018 8.01553 7.03313 16.58998 14.21618 25.46728-2.62118-.41394-5.33019-1.87556-7.99119-4.03758-2.65982-2.16203-5.26811-5.02213-7.68901-8.2377-2.41855-3.21322-4.65088-6.78074-6.55996-10.35879-1.90673-3.57454-3.49021-7.1596-4.61692-10.41609-1.12553-3.25649-2.05314-6.7562-2.72424-10.431294-.67111-3.670421-1.08454-7.512728-1.1841-11.457934-.0984-3.940528.11713-7.982782.70742-12.056612.58912-4.06915 1.55068-8.16987 2.94442-12.23201 1.38906-4.05512 2.74884-7.03448 4.02546-9.33449 1.27428-2.29884 2.46658-3.92065 3.51833-5.25949 1.05174-1.33885 1.96412-2.39472 2.68207-3.56168.71796-1.16696 1.24032-2.445 1.51204-4.22701.27055-1.77967.0562-3.115-.42398-4.11592-.4802-1.00092-1.22509-1.66742-2.01449-2.11175-.78939-.44433-1.62447-.6665-2.28386-.77758s-1.14311-.11108-1.23095-.11108c6.21563-.40224 12.92902-.79629 19.55925-1.16462 6.63024-.36833 13.17732-.7121 19.06032-1.01378s11.10075-.56126 15.07233-.76238c3.97158-.19995 6.697-.34144 7.59532-.40809.0398-.002.0785-.006.11712-.008.0387-.002.0761-.004.11361-.006.0375-.001.0738-.002.11009-.004.0363-.001.0726-.001.10658-.001.76129 0 1.26959.17189 1.57177.45018.301.2783.39704.66299.32911 1.08745-.0679.42445-.29632.88983-.63948 1.32832-.34551.43848-.8058.85242-1.33753 1.1728-.55515.33676-.94751.72263-1.22274 1.17047-.27524.44784-.4357.95999-.52588 1.54698-.0914.58698-.11478 1.24881-.11712 2.00066-.001.75186.0164 1.59141.008 2.53387-.008.94128-.0562 6.10723-.12298 13.42703-.0668 7.33499-.1546 16.84137-.24244 26.433105-.0878 9.618631-.17685 19.32262-.24713 26.993205-.0714 7.68695-.1218 13.32413-.13586 14.76704-.014 1.44525.15695 2.77006.47552 3.95456s.78471 2.22634 1.36329 3.10565 1.26608 1.59492 2.02971 2.12578c.76246.53086 1.59987.87697 2.47477 1.01495-2.93974 0-6.10787.008-9.21979.0211-3.11191.0129-6.1676.0281-8.8813.0456-2.71253.0164-5.08423.0327-6.82817.0456-1.74628.0164-2.86244.0257-3.06506.0281zm6.38428-80.64987c.0445-.90854.10892-1.98663.16748-3.11617.0586-1.12954.11127-2.31287.13352-3.43189.0222-1.11901.0129-2.17372-.0515-3.04952-.0644-.87697-.18623-1.57387-.38885-1.97728-.20496-.41042-.4556-.81617-.76363-1.19502-.3092-.37885-.67579-.73081-1.11265-1.03015-.43803-.29934-.94517-.5484-1.53663-.72263-.59146-.17422-1.26608-.27244-2.03557-.27244-.29866 0-.61137.0152-.94048.0468-.32794.0316-.67111.0783-1.03067.14382-.35956.0643-.73435.14733-1.12553.24906-.39119.10173-.79994.22217-1.22509.36365-1.52609.5028-2.96786 1.13071-4.42016 2.00534-1.4523.87581-2.91398 1.99716-4.47989 3.48451-1.56708 1.48851-3.23957 3.34418-5.11234 5.68862-1.87394 2.34561-3.94816 5.17998-6.31869 8.62473.69921.0199 1.42185.0362 2.16323.0503.74137.014 1.50149.0257 2.27332.0351.77183.008 1.55654.0152 2.34594.0199.79057.004 1.58582.006 2.38225.006 1.92196 0 3.84274-.0117 5.67569-.0327 1.83178-.0211 3.57571-.0503 5.14397-.0854 1.56708-.0351 2.95965-.076 4.0887-.12044 1.12905-.0444 1.99458-.0912 2.50991-.13914.72615-.069 1.30707-.22217 1.77204-.47006.46498-.24789.81517-.59049 1.07986-1.03833.2647-.44784.44389-1.00092.56804-1.67093.12298-.67001.19325-1.4546.23776-2.36548"/><path d="m228.81105-88.488506c5.88885-3.658727 10.81029-6.935095 14.94467-9.909785 4.12852-2.972349 7.47351-5.644189 10.2118-8.099719 2.7383-2.45435 4.8699-4.69121 6.57636-6.79595 1.70646-2.10239 2.98776-4.07032 4.02429-5.98796-.87139-1.26752-1.75916-2.47306-2.72541-3.56752-.96626-1.09447-2.01098-2.07784-3.19507-2.9022-1.18293-.82435-2.5064-1.49085-4.02897-1.95155-1.52258-.4607-3.24661-.71444-5.23298-.71444-.38416 0-.77886.009-1.18293.0281-.40524.0199-.81867.0491-1.245.0877-.42632.0386-.86201.0889-1.30941.14967-.4474.0596-.90535.13096-1.37618.21281-2.89758.50163-5.53632 1.26869-7.86703 2.27779-2.32954 1.0091-4.35223 2.26259-6.01301 3.7359-1.66195 1.47448-2.96316 3.16996-3.85094 5.06539-.88895 1.8966-1.3633 3.99315-1.37384 6.26626-.0105 2.27545-.0222 7.87053-.034 14.998562-.0129 7.142061-.0258 15.828763-.0375 24.254711-.0117 8.446996-.0222 16.629727-.0293 22.719427-.007 6.10139-.0129 10.09453-.0129 10.13897-.005 1.03131.0305 1.89659.19325 2.68119.16045.7846.44623 1.48852.94282 2.20062.4966.7121 1.2005 1.43005 2.20188 2.24154 1.00139.81149 2.29558 1.71769 3.97041 2.80397-1.37266 0-3.59211 0-6.22382 0-2.63289 0-5.67804 0-8.70211 0-3.02173 0-6.02355 0-8.56859 0-2.54505 0-4.63449 0-5.83264 0 .47668-.0491 1.0658-.16955 1.6842-.43732.61723-.26777 1.26257-.68287 1.84818-1.32247.58677-.63844 1.11499-1.50255 1.50032-2.666.38416-1.16345.62426-2.6274.63831-4.46788.0164-2.4754.0117-7.73138-.0246-14.34843-.0375-6.60535-.10776-14.562415-.22371-22.46218-.11595-7.882226-.2764-15.710664-.49542-22.092683-.21902-6.371497-.49542-11.307097-.84327-13.432877-.35019-2.12344-.76715-3.6903-1.24032-4.84907-.47082-1.15877-.99904-1.91063-1.56474-2.4029-.56686-.49228-1.17355-.72613-1.80835-.84774-.63362-.12278-1.29419-.13447-1.96881-.18241 6.17815-3.4085 11.65942-6.14465 16.62185-8.33124 4.96009-2.18541 9.40367-3.8236 13.51228-5.03616 4.10744-1.21256 7.87992-1.99949 11.49545-2.48358 3.61554-.48409 7.07647-.66533 10.55966-.66533h.37127c.12298 0 .2483.001.37128.002.12297 0 .24712.001.3701.002.12415.001.24947.002.37244.005 3.61671.0491 6.88556.37417 9.92252 1.00676 3.03695.63376 5.84201 1.57504 8.53345 2.85659 2.69145 1.28155 5.26929 2.90337 7.84947 4.89702 2.58252 1.99482 5.16856 4.36147 7.87523 7.1327-4.95188 5.40098-10.13333 9.73439-15.37802 13.26099-5.2482 3.53011-10.55614 6.24872-15.75047 8.417765-5.19784 2.170214-10.27973 3.789689-15.07702 5.120348-4.80197 1.335336-9.31465 2.377179-13.37524 3.393297z"/><path d="m287.84719-132.3032 34.33175 1.61713c-1.47572.60336-2.72775 1.23946-3.77364 1.90479-1.04473.66533-1.88214 1.36106-2.53217 2.08134-.65002.72146-1.10796 1.46747-1.39491 2.2357-.28812.76823-.4029 1.55867-.3619 2.36665.041.80565.0621 2.26493.0726 4.01069.009 1.74693.006 3.78267-.002 5.74008-.008 1.95973-.0223 3.84113-.034 5.2782-.0129 1.43823-.0222 2.43097-.0246 2.61104h30.72325c.001-.13564.0117-.87698.0164-1.99599.005-1.11785.002-2.60987-.0187-4.24455-.0211-1.6335-.0621-3.40966-.13586-5.09696-.0738-1.68496-.18153-3.28221-.33731-4.55792-.1546-1.27804-.53055-2.37951-1.06346-3.33015-.53056-.95064-1.21923-1.75278-1.99457-2.43331-.77534-.67936-1.63853-1.23711-2.52514-1.69898-.88777-.46305-1.79546-.83021-2.65982-1.13071 4.44827.0327 8.58733.10523 12.30476.19644 3.71743.0912 7.01322.19995 9.77494.30635 2.76172.10641 4.98702.21048 6.56465.28999 1.57762.0795 2.50991.13447 2.67856.14499-.9885.83839-1.81304 1.53412-2.51225 2.34093-.70039.80682-1.27194 1.72705-1.75448 3.01211-.48019 1.28506-.87021 2.9361-1.20283 5.20805-.3338 2.27311-.6102 5.16945-.8667 8.94394-.25298 3.778-.57038 9.665404-.90535 16.476554-.33614 6.824013-.69101 14.581124-1.01544 22.073974-.32442 7.508051-.61957 14.749502-.83624 20.515302-.21785 5.77398-.35605 10.06179-.36659 11.64502-.0117 1.58323.0867 2.97001.2928 4.1814.20613 1.21256.5165 2.2509.93346 3.13956.4146.88867.93228 1.62533 1.54834 2.2357.61723.61037 1.33401 1.09446 2.14332 1.47448-3.77716-.0339-7.47468-.069-10.90751-.10056-3.43282-.0327-6.59978-.0631-9.31933-.0889-2.71722-.0269-4.98703-.0491-6.62087-.0655-1.63501-.0175-2.6364-.0257-2.81677-.0281.10659-.008.69219-.055 1.52024-.27595.82922-.21983 1.89853-.61505 2.97371-1.32014 1.07517-.70508 2.15503-1.71769 3.00182-3.17581.84678-1.45811 1.4605-3.35938 1.60573-5.83829.14406-2.4754.35019-7.26133.57623-13.07741.22605-5.80556.47552-12.636585.70859-19.222062.23307-6.574952.45092-12.90786.61254-17.745239.16514-4.830362.27407-8.17338.29515-8.781414-4.12384.06899-8.07083.121607-11.68519.160193-3.61436.03859-6.89493.06548-9.68124.08185-2.78866.01754-5.08307.02573-6.72511.0304-1.64204.0035-2.63288.0035-2.81325.0035-.0293.678192-.1991 4.411754-.42983 9.71919-.23308 5.313282-.52705 12.21096-.80931 19.196336-.28109 6.999407-.55047 14.091186-.72967 19.764616-.17802 5.68161-.2682 9.93785-.18739 11.24629.0785 1.30727.23541 2.46838.47551 3.49269.23776 1.0243.56101 1.91297.96859 2.67067.40759.7577.90301 1.38795 1.48862 1.8966.58677.50864 1.26373.89685 2.03556 1.17163-3.60382 0-7.16196 0-10.48352 0s-6.40653 0-9.06284 0-4.88513 0-6.49555 0c-1.60807 0-2.59892 0-2.77929 0 .0773-.001.51065-.0117 1.1232-.1941.61254-.18358 1.40428-.54138 2.20305-1.23945.79876-.69807 1.60104-1.73407 2.23701-3.27871.63597-1.5423 1.10211-3.58974 1.2286-6.30835.1265-2.71862.37245-8.66098.65471-16.17137.27875-7.494021.59381-16.543204.85499-25.50586.26118-8.939269.46848-17.792011.5411-24.94109.0714-7.13504.006-12.57929-.28226-14.73196-.29046-2.15034-.83742-3.98145-1.52375-5.5296-.68516-1.54698-1.51087-2.81333-2.36117-3.83529-.84913-1.02314-1.72285-1.80306-2.50522-2.37718-.78003-.56945-1.46987-.94012-1.95241-1.14357z"/><path d="m384.50619-128.0341c.32443 0 .6594.0304 1.00256.0935.34551.062.70273.15551 1.07283.27946.37011.12511.75543.2818 1.15482.46889.40172.18825.81868.40808 1.25554.66065 1.7451 1.00559 4.52673 2.57479 7.83424 4.59182 3.3075 2.01821 7.14088 4.48543 10.98363 7.28589 3.84626 2.8028 7.70307 5.94236 11.0539 9.30058 3.35319 3.36173 6.20158 6.943282 8.02515 10.628904.20379-4.331073.24947-8.090364.13469-11.330484-.11478-3.23778-.38884-5.95873-.8257-8.2143-.43452-2.2544-1.03067-4.0446-1.78844-5.42203-.75661-1.37743-1.67835-2.34327-2.76055-2.94779.49659-.007.9885-.0129 1.47338-.0175.48606-.005.96508-.008 1.43942-.0117.47435-.004.94049-.005 1.3996-.007.45912-.001.91004-.001 1.35392-.001 1.77556 0 3.40589.0105 4.85819.0246 1.45114.0152 2.72307.0362 3.78185.0561 1.05878.0211 1.90322.0421 2.4982.0573.59614.0164.94282.0281 1.0049.0304-1.45699.97402-2.55208 1.66274-3.37544 2.32456-.82453.66182-1.37734 1.29558-1.75213 2.16203-.37479.86644-.57272 1.96441-.68399 3.55349-.11244 1.58907-.13703 3.67159-.171 6.50479-.0293 2.83321-.089 6.5808-.20613 10.861594-.11712 4.286639-.28929 9.107648-.54696 14.079495-.25649 4.978863-.59731 10.110904-1.0494 15.005578-.45209 4.902859-1.01427 9.568353-1.717 13.607103-.70273 4.0446-1.86223 7.929-3.30048 11.55966-1.44059 3.63184-3.15876 7.0076-4.97531 10.02906-1.81655 3.02379-3.73148 5.69212-5.56092 7.90794-1.8306 2.21698-3.57688 3.97677-5.05378 5.18818 2.88938-5.49336 5.29271-10.62541 7.2135-15.45927 1.91962-4.82685 3.35787-9.35788 4.3206-13.65504.96157-4.29366 1.44762-8.35462 1.46402-12.246045.0164-3.88674-.43686-7.606272-1.35627-11.219397-.9194-3.609617-2.90929-7.384105-5.47893-11.055695-2.56378-3.665744-5.70497-7.22742-8.93049-10.412583-3.22201-3.181655-6.52834-5.989135-9.43061-8.15233-2.89992-2.16203-5.3946-3.68095-6.99916-4.28781-.52354-.19761-1.00608-.3847-1.45465-.55074-.44857-.16721-.86201-.31571-1.24266-.43849-.38064-.12394-.72966-.22216-1.04823-.28998-.31974-.0678-.6102-.10524-.87607-.10524-.54578 0-.98265.15669-1.34104.52502-.35956.36715-.63831.94596-.8667 1.78902-.22838.84306-.40875 1.95038-.56686 3.37576-.15929 1.42654-.29749 3.172297-.44389 5.289892-.22136 3.148915-.53056 8.197936-.86904 14.061956-.33965 5.872206-.71093 12.565257-1.05644 18.980016-.34785 6.427626-.66876 12.575786-.90886 17.334826-.24009 4.76605-.39938 8.13713-.41695 8.9989-.0211.85943.0843 1.85684.29983 2.89635.21551 1.04067.53993 2.11993.9604 3.1454.42046 1.02547.93697 1.99482 1.53311 2.81099.59732.81734 1.27428 1.48267 2.018 1.89543-1.99457-.0678-4.32411-.20931-6.70753-.38353-2.38108-.17422-4.81603-.38354-7.02376-.58583-2.20657-.20229-4.18592-.39873-5.65696-.54956-1.47221-.14967-2.43495-.2549-2.61063-.27244 1.53429-.20697 2.91046-.50982 4.12267-.98104 1.21103-.4724 2.25926-1.11434 3.13767-2.00301.87724-.88749 1.58465-2.02054 2.11639-3.47398.53055-1.45343.88543-3.22608 1.05877-5.39279.17217-2.1667.4884-7.26484.86201-13.76378.37362-6.486096.8058-14.361306 1.21221-22.103216.40758-7.72437.78705-15.318949 1.06112-21.278852.27289-5.950552.44037-10.278112.41929-11.491842-.0222-1.21607-.082-2.21932-.22956-3.04368-.14874-.82435-.38532-1.46747-.7566-1.96442-.37244-.49695-.87958-.84657-1.57177-1.08043-.69101-.23386-1.56708-.35195-2.67387-.3882 1.41599-2.09304 2.63991-3.93819 3.74202-5.5296 1.09977-1.59025 2.0789-2.92675 3.00182-4.0025.92408-1.07459 1.79078-1.88842 2.67036-2.43448.88075-.54021 1.77322-.81734 2.74415-.81734z"/><path d="m448.63008-121.35625c.78237 0 1.70295.0351 2.80506.10874 1.10211.0737 2.38459.18826 3.89428.34378 1.50852.15668 3.24309.35663 5.24586.60335 2.00512.24672 4.27727.54139 6.86448.8875 3.54526.47356 6.86916.88866 9.93188 1.24413 3.06155.35546 5.86309.6513 8.36363.88749 2.50054.2362 4.70008.41394 6.55996.53203 1.86106.1181 3.38129.17657 4.52088.17657h.22019c.0738 0 .14289-.001.21199-.002s.13586-.002.20145-.004c.0656-.001.12766-.003.18973-.006.65471-.0234 1.26257-.09 1.82358-.1754s1.07283-.19293 1.53546-.29583.87373-.20346 1.23329-.27712c.36073-.0748.66642-.12278.91823-.12278.13352 0 .25298.014.35488.0444.10306.0304.18973.0783.26118.14616.0714.069.12532.15669.16514.26894.0398.11226.0621.24789.0679.41276.0164.47006-.20496 1.05003-.6348 1.82645-.431.77641-1.07049 1.74809-1.88916 3.00275-.81985 1.25465-1.82124 2.79228-2.97254 4.6994-1.15248 1.90712-2.45838 4.18491-3.88491 6.91989-.0106-.12862-.0632-.8337-.32912-1.86619-.26586-1.03249-.74489-2.39121-1.60456-3.82594-.86084-1.43473-2.10349-2.94546-3.89662-4.28313-1.79313-1.33651-4.13672-2.50113-7.20179-3.24129-.28929-.0702-.57506-.13096-.8585-.18241-.28343-.0515-.56335-.0935-.84093-.12745-.27757-.0339-.55281-.0585-.82336-.0748-.27055-.0164-.53876-.0245-.80462-.0245-2.54739 0-4.82188.74016-6.83403 1.91063-2.01214 1.17046-3.76193 2.77123-5.2564 4.49009-1.49564 1.72004-2.73712 3.55934-3.73031 5.20688-.99436 1.64754-1.74042 3.102142-2.24639 4.050441-.55867 1.047689-.87372 1.833457-.91706 2.42629-.0433.591664.18505.989224.7121 1.260501s1.35392.4151 2.50874.501628c1.15481.08653 2.63757.113422 4.47403.148501 1.83646.03274 3.99852.160193 6.20743.341434 2.2089.18241 4.46583.418608 6.49203.672345 2.02737.253738 3.82752.525014 5.12054.775244 1.29302.250229 2.08124.479411 2.08593.648959.006.169548-.0633.440825-.26352.825523-.20028.384699-.53056.883988-1.04941 1.510731-.5165.626743-1.2204 1.37977-2.16791 2.273112-.94634.894511-2.13395 1.929339-3.62257 3.118513-.89363-1.026642-1.91844-1.847488-3.04866-2.498786s-2.36468-1.136556-3.67644-1.492022c-1.31058-.356635-2.70081-.584648-4.14023-.722625-1.43942-.139146-2.92921-.189426-4.44124-.189426-.13586 0-.27172 0-.40876.0012-.13703.0012-.27172.0012-.40875.0035s-.27289.0035-.41109.0058c-.13587.0012-.2729.0047-.4111.007-1.66195.03625-2.90812.09705-3.84978.279462-.94165.18241-1.57879.487597-2.02385 1.01378-.44389.526183-.6957 1.271025-.8667 2.336254s-.26352 2.447337-.38533 4.248053c-.13234 8.782584.80111 16.552557 2.55559 23.424508 1.75799 6.88482 4.33934 12.86343 7.49459 18.05277 3.15876 5.19635 6.89493 9.59875 10.95318 13.32413 4.06293 3.73005 8.44913 6.78074 12.90793 9.27135-1.58582-.24205-3.93644-.66533-6.80826-1.54815-2.87181-.88165-6.26247-2.22167-9.92368-4.296-3.65887-2.07199-7.58712-4.87713-11.53527-8.68787-3.94348-3.80723-7.90452-8.61537-11.636-14.69454-3.72094-6.06982-6.07625-12.41208-7.45477-18.635076-1.37617-6.211301-1.78024-12.302165-1.59636-17.887893.18154-5.576374.94985-10.647611 1.9161-14.832522.96508-4.179069 2.13044-7.472969 3.11308-9.499359.98148-2.02289 1.71115-3.79203 2.189-5.34369.47668-1.55048.7039-2.88465.68048-4.03641-.0234-1.15175-.29632-2.12344-.81751-2.94896-.52002-.82553-1.29068-1.50606-2.30729-2.07784.19559-.0526.4029-.10056.6266-.14149.2237-.0409.4638-.0748.72498-.10406.26118-.0281.54227-.0491.84913-.0643.30569-.0164.63714-.0234.99904-.0234z"/></g></g></svg>