<svg height="49.612206" viewBox="0 0 72.561952 13.126563" width="274.24991" xmlns="http://www.w3.org/2000/svg"><g fill="#fbe01b" stroke-width=".511011" transform="matrix(.81755495 0 0 .81755495 -8.561017 -220.452312)"><path d="m3.3242188 61.052734c-6.8910324 0-12.7821584 2.030212-16.9589848 6.267578-4.153734 4.214384-6.121093 10.131357-6.121093 17.076172v32.742186.002c.0015 1.73335 1.577198 3.30904 3.310547 3.31055h.002 15.3164059.00195c1.73334814-.002 3.3090414-1.5772 3.3105469-3.31055v-.002-8.94726h.2402343v8.94726.002c.00151 1.73335 1.5771988 3.30904 3.3105469 3.31055h.00195 15.314412.002c1.733348-.002 3.309041-1.5772 3.310546-3.31055v-.002-33.269529c0-7.115536-1.535978-12.926033-5.197265-16.941407-3.666307-4.045968-9.2189439-5.875-15.8437502-5.875zm113.9218712 0c-8.20766 0-15.43745 2.936374-21.001949 8.613282-.002.0026-.0039.0052-.0059.0078-.09577.09796-.181481.205267-.255859.320313-5.350025 5.639052-8.115236 12.85768-8.115234 21.080078-.000002 8.334523 2.772339 15.738903 8.191406 21.632813 5.420686 5.89571 12.402346 9.0293 20.244136 9.0293 6.09126 0 11.56253-2.04018 15.83204-6.01367 2.37719-2.1999 4.07642-4.8198 5.18164-7.6875 1.10245 2.4516 2.58997 4.71796 4.57226 6.67382 4.37114 4.31287 10.07835 6.53516 16.47461 6.53516 1.18765 0 2.42868-.12204 3.73633-.34961h.002c.41339-.0723.753-.33542 1.10742-.55859.1727.0286.33256.11514.50782.11523h.002 14.10937.002c1.73335-.002 3.30904-1.5772 3.31054-3.31055v-.002-18.445251c0-6.794275-2.03517-12.649927-6.23046-16.882812-4.17558-4.262645-9.99501-6.347657-16.73633-6.347656-6.23859 0-11.86475 2.295989-16.25586 6.658203-.003.0026-.005.0052-.008.0078l-.002.0039c-.001.0013-.003.0026-.004.0039-.084.08496-.16051.177112-.22852.27539-2.48283 2.56072-4.1976 5.56078-5.24219 8.830079-.84699-1.736759-1.84528-3.434791-3.14062-5.041016l-.002-.002c-.61906-.765501-1.59364-1.23086-2.57813-1.230469h-14.59961-.002c-1.73335.0015-3.30904 1.577198-3.31055 3.310547v.002 9.931641c-.12037-.108094-.28628-.146224-.40234-.263672-1.46549-1.482929-2.21485-3.325631-2.21485-6.347657 0-2.888132.75807-4.717997 2.41016-6.353515 1.68302-1.64219 3.57756-2.40625 6.5-2.40625 1.35098 0 3.09812.403656 5.19531 1.386719.001.000668.003.0013.004.002 1.00409.468603 2.24466.387527 3.17969-.207031.93503-.594559 1.53361-1.684917 1.53515-2.792969v-.002-15.316382-.002c-.00074-1.379048-.95741-2.704314-2.26562-3.140625-3.35037-1.116793-6.50899-1.716797-9.4961-1.716797zm-91.281246 4.595704v51.490232.002c.0015 1.73335 1.577198 3.30904 3.310547 3.31055h.002 14.107422.002c1.733347-.002 3.309041-1.5772 3.310547-3.31055v-.002-51.490232-.002c-.0015-1.733346-1.577201-3.309038-3.310547-3.310546h-.002c-7.648458 0-11.843359 0-14.345357 0-3.097533 0-3.074612 1.454765-3.074612 3.312546zm25.642578-3.3125c-1.505248 0-3.310547.222406-3.310547 3.3125v51.490232.002c.0015 1.73335 1.577198 3.30904 3.310547 3.31055h.002 14.107422.002c1.733348-.002 3.309041-1.5772 3.310547-3.31055v-.002-51.490232-.002c-.0015-1.733347-1.577199-3.30904-3.310547-3.310546h-.002-14.107469-.002zm212.150388 13.052734c-6.22116 0-11.80472 2.219419-16.19336 6.421875-.0995.0672-.193.143011-.27929.226562-.003.0026-.005.0052-.008.0078-3.51243 3.489335-5.62612 7.814908-6.36328 12.607422-.13206-5.174082-1.3347-9.59931-4.06836-12.863282l-.002-.002c-3.43052-4.127446-8.33589-6.324218-13.86328-6.324218-3.8905 0-7.5864 1.649312-11.0293 4.324218-3.3207-2.702767-7.14824-4.324219-11.30273-4.324218-4.87504 0-9.3267 1.920793-12.72461 5.466797-3.40093 3.523534-5.18555 8.06881-5.18555 13.048828v23.160154.002c.002 1.73335 1.5772 3.30905 3.31055 3.31055h.002 14.10742.002c.87471-.00076 1.7058-.40473 2.31836-1.02539.61255.62066 1.44364 1.02463 2.31836 1.02539h.002 14.10742.002c.87471-.00076 1.70581-.40473 2.31836-1.02539.61255.62066 1.44365 1.02463 2.31836 1.02539h.002 14.10742.002c1.73335-.002 3.30904-1.5772 3.31055-3.31055v-.002-14.46484c.81639 4.55689 2.92324 8.64737 6.27929 11.95898 4.38458 4.32648 10.06399 6.57422 16.40039 6.57422 5.29541 0 10.26318-1.76966 14.53125-5.12109 1.38664-1.09042 1.6281-3.36292.50196-4.72071-.00067-.001-.001-.003-.002-.004l-6.18164-7.43164h9.41407v14.22851.002c.001 1.73335 1.57719 3.30904 3.31054 3.31054h.002 1.96093c5.20346 0 9.53163-.79352 12.92774-2.79882.007-.005.0144-.009.0215-.0137l.002-.002c5.95274-3.57882 9.32147-9.94021 10.04101-17.92773v-.002c.0827-.89603.23643-1.575653.375-2.005857.0776-.241002.005-.128275.0352-.181641.20572-.05925.80773-.304687 1.79687-.304687h.002c1.73334-.0015 3.30904-1.577198 3.31054-3.310547v-.002-14.863004-.002c-.002-1.733349-1.5772-3.309042-3.31054-3.310547h-.002-4.26172c-5.51736 0-10.33887 1.591228-13.81445 4.970703-1.85258 1.794457-3.25625 3.759295-4 5.955078-.005.01395-.009.02701-.0137.04102-.00067.002-.001.0039-.002.0059-.69614 2.158048-1.00202 4.984277-1.20899 8.927734-.12377 1.90738-.71382 2.81701-.70117 2.804688.0415-.04045-.88273.264804-2.09766.380859.0443-.655813.10352-1.38003.10352-1.855469 0-6.195167-2.25007-11.754637-6.54883-16.03125-.002-.0023-.004-.0055-.006-.0078-.0955-.09536-.20017-.181059-.3125-.255859-.001-.000668-.003-.0013-.004-.002-4.23965-4.113345-9.68189-6.291016-15.75781-6.291016zm-261.3496069 8.0625c.033854.125.1158854.657552.1230469.798828-.06853.205346-.1041267.420244-.1054688.636719v3.099609h-.2402343v-3.099609c0-.919163.1225767-1.097047.2226562-1.435547zm159.5136769 11.380859c-.0768.186198-.23178.559896-.23243.560547.10897-.254752.2329-.562604.23243-.560547zm-3.66211 1.710938c.35596.106899.73788.151047 1.09961.154297.14006.158658.14769.167984.33984.382812.40932.494602.70703 1.179637.70703 2.63086v.378902c-.20028.0711-.43292.009-.61523.1211-.001.00067-.003.001-.004.002-.58188.3602-1.02598.48633-1.68945.48633-.83598 0-.92449-.0598-1.36133-.50781-.42538-.436295-.53125-.621031-.53125-1.53516 0-.738871.0659-.915544.6543-1.503906.54786-.547858.78004-.599054 1.40039-.609375zm142.0332 22.009761-.14649.0977c.0502-.0305.0991-.0631.14649-.0977z" fill="#0e3c9f" stroke-width="1.931382" transform="matrix(.26458333 0 0 .26458333 15.69856 253.49479)"/><path d="m98.349846 274.67689v3.9324q-.788474 0-1.087895.29942-.28944.28944-.369286 1.15776-.259498 2.88442-2.235675 4.07212-1.047973.6188-2.974247.6188h-.518996v-3.95235h.169672q.898262 0 1.277529-.36929.389247-.37926.449131-1.31745.07984-1.52704.279459-2.14585.209595-.6188.838378-1.22762 1.097877-1.06794 3.044112-1.06794zm-7.79492 5.43948h-5.659053q-.129749-.42917-.129749-.78847 0-.49904.179653-.97811h1.896331q-.199613-1.10786-1.247586-1.10786-.698649 0-1.137799.59884-.439151.58886-.439151 1.51707 0 .96813.419189 1.56697.42917.59884 1.117838.59884.558919 0 1.077915-.55892l2.125888 2.55506q-1.487124 1.16774-3.30361 1.16774-2.215714 0-3.722799-1.48712-1.507084-1.48713-1.507084-3.68288 0-2.18577 1.517065-3.69286 1.527046-1.50708 3.74276-1.50708 2.165811 0 3.632973 1.47714 1.477142 1.46716 1.477142 3.62299 0 .21958-.03992.69865zm-11.976833 4.37155h-3.732779v-5.36962q0-.6188-.129749-.85834-.129749-.23953-.469093-.23953-.628784 0-.628784 1.10785v5.35964h-3.732779v-5.36962q0-.6188-.13973-.85834-.129749-.23953-.469092-.23953-.618803 0-.618803 1.10785v5.35964h-3.73278v-6.12815q0-1.67676 1.127819-2.8445 1.127818-1.17772 2.73471-1.17772 1.656795 0 2.974246 1.3973 1.467162-1.3973 2.934324-1.3973 1.86639 0 2.994208 1.35737.888282 1.05796.888282 3.08404zm-20.141039-3.73278v3.86252q-.459111.0799-.838378.0799-2.245656 0-3.74276-1.47714-1.497104-1.47715-1.497104-3.70284 0-2.16581 1.507085-3.6729 1.517065-1.50708 3.682876-1.50708 2.415328 0 3.802644 1.41726 1.397297 1.40728 1.397297 3.85255v4.88056h-3.732779v-4.61109q0-.78847-.389247-1.25756-.379267-.4691-1.028012-.4691-.588861 0-1.01803.42917-.42917.42917-.42917 1.01804 0 .6188.389247 1.01803.389247.39922.988088.39922.489054 0 .908243-.25949zm-12.016755-3.90246h3.862529q1.247586 1.54701 1.247586 3.26369 0 1.99614-1.467162 3.35351-1.457181 1.35738-3.593049 1.35738-2.774633 0-4.710888-2.10593-1.936254-2.10592-1.936254-5.13007 0-3.03413 1.966196-5.05024 1.976178-2.0161 4.930463-2.0161 1.00805 0 2.235675.40921v4.05216q-.958146-.44913-1.746621-.44913-1.427239 0-2.335482.88829-.898263.88828-.898263 2.30554 0 1.4472.838379 2.29556.838378.84835 2.265617.84835.908243 0 .908243-.52897 0-.39923-.598842-.39923h-.968127zm-13.334207-5.98841v13.62365h-3.732779v-13.62365zm-5.90857 0v13.62365h-3.73278v-13.62365zm-10.609477 6.78687v3.59305h-1.167742v3.24373h-4.052161v-8.66325q0-2.51513 1.367355-3.90245 1.377336-1.3973 3.862528-1.3973 2.395367 0 3.543146 1.26755 1.14778 1.25757 1.14778 3.89247v8.80298h-4.052161v-8.5335q0-.79845-.189634-1.10785-.189633-.30941-.678687-.30941-.948166 0-.948166 1.41726v1.69672z" fill="#fbe01b" stroke-width=".511011"/></g></svg>