<svg height="56.197262" viewBox="0 0 81.088313 14.868859" width="306.47552" xmlns="http://www.w3.org/2000/svg"><g fill="#fbe01b" stroke-width=".511011" transform="translate(-2.426862 -244.490175)"><path d="m-21.248047-100.07227c-1.206959-.26779-2.085585 3.519112-1.490234 2.015629h-20.16211c-.528617-.000219-.987595.36405-1.107421.878907l-3.509766 15.007812c-.166198.713032.375277 1.39489 1.107422 1.394531h2.373047v34.927735c-.000101.627834.508884 1.136819 1.136718 1.136718h15.978516c.627834.000101 1.13682-.508884 1.136719-1.136718v-15.960938h12.601562c.523701-.000296.979404-.358405 1.103516-.867187l3.5097655-14.41211c.1748163-.715604-.3668679-1.405892-1.1035156-1.40625h-16.1113279v-1.384765h14.767578c.525003.000386.98195-.358875 1.1054686-.869141l4.3300782-17.919922c.173502-.715701-.3690383-1.404901-1.1054688-1.404301zm170.564457 0c-.51771.00028-.9698.350398-1.09961.851567l-3.28516 12.693359c-.18662.719504.3563 1.421533 1.09961 1.421875h14.85937c.51362.000241.96358-.344028 1.09766-.839843l3.4336-12.69336c.19572-.722782-.34885-1.434018-1.09766-1.433598zm32.83984 7.093754c-.0804.0026-.16025.01373-.23828.0332l-14.85938 3.658203c-.508.124877-.86515.580387-.86523 1.103515v3.867188h-.43164c-.52069.000304-.97458.354403-1.10156.859375l-2.78321 11.076172v-10.798829c.0001-.627835-.50889-1.13682-1.13672-1.136718h-14.85742c-.17261.000093-.34293.0395-.49804.115234-.14377-.447566-.54825-.760432-1.01758-.787109l-1.34571-.07422c-.01-.000793-.0195-.0015-.0293-.002-1.92622-.05516-3.94655.3609-6.04883 1.201172-.002.000803-.004.0011-.006.002-1.16701.446209-2.18421 1.005397-3.07031 1.654297v-.972657c.0001-.627835-.50889-1.13682-1.13672-1.136718h-14.48438c-.52126.000528-.97534.35558-1.10156.861328l-3.04883 12.191406c-1.00451-2.992642-2.63192-5.674802-5.04297-7.90039-4.0855-3.771244-9.193636-5.675782-15.107418-5.675782-5.86456 0-10.903702 1.909969-14.890624 5.685547-.0011.001-.0028.000952-.0039.002-4.140306 3.830956-6.253906 8.828135-6.253906 14.712891 0 5.927345 2.029201 10.944745 6.025391 14.783203 3.987722 3.830281 9.055349 5.767578 14.972656 5.767578 6.009467 0 11.168831-1.903277 15.257811-5.677734.002-.002.004-.0039.006-.0059 4.10187-3.838898 6.1836-8.912414 6.1836-14.941406 0-1.212001-.1458-2.359688-.32227-3.492187h2.18946v22.158203c-.0001.627831.50888 1.136815 1.13671 1.136718h14.48438c.62783.000102 1.13682-.508883 1.13672-1.136718v-15.605469c0-.743493.0897-1.455384.25976-2.148437.21435-.675569.49828-1.248346.85547-1.72461.009-.01156.0172-.02328.0254-.03516.35626-.514593.76223-.877077 1.24805-1.138672.0192-.0099.038-.0203.0566-.03125.46979-.289114.96357-.429687 1.57031-.429688.70155 0 1.27629.08888 1.73047.240235.61997.206992 1.28635-.150318 1.45703-.78125l.29102-1.076172c.21144.309986.56226.495629.9375.496094h2.37305v22.234375c-.0001.627831.50888 1.136815 1.13671 1.136718h14.93164c.52126-.000524.97535-.355577 1.10157-.861328l3.58398-14.335937c.17916-.716877-.36264-1.41142-1.10156-1.412109h-2.44727v-6.828126c.12099.04329.24845.06574.37696.06641h3.93945v22.234375c-.0001.627835.50888 1.13682 1.13672 1.136718h14.85937c.62783.000102 1.13682-.508883 1.13672-1.136718v-22.234375h1.47656c.52069-.000299.97459-.354399 1.10157-.859375l3.50976-13.960938c.18069-.71756-.3616-1.413691-1.10156-1.414062h-4.98633v-7.525391c.00038-.641035-.52916-1.155549-1.16992-1.136719zm24.94141 7.914063c-5.95502 0-10.97529 1.852198-14.82422 5.542969-.004.0039-.008.0078-.0117.01172-3.79867 3.745897-5.71485 8.682442-5.71484 14.548828 0 6.869148 2.81839 12.335876 8.27343 15.955079h.002c4.65738 3.087484 10.5706 4.59375 17.65039 4.59375.94925 0 2.14209-.07983 3.58789-.228516 1.47113-.101431 3.22995-.274724 5.28515-.525391.4623-.05568.84387-.387715.96289-.83789l3.43555-12.992188c.14038-.531949-.1204-1.088069-.61914-1.320312h1.46094c.62783.000102 1.13682-.508884 1.13672-1.136719v-1.941406c0-6.012666-1.93211-11.194147-5.75391-15.330078-3.88099-4.195653-8.93043-6.339844-14.87109-6.339844zm-195.662113.07422c-5.6829572 0-10.46309588 1.98621-14.0527345 5.892578-.0006508.000666-.0013.0013-.00195.002-3.5310144 3.847237-5.3007813 8.780415-5.3007813 14.582031 0 5.979366 2.0872358 10.963683 6.1972657 14.654297.0003949.000359.00156-.000359.00195 0 .00107.000961.0008822.0029.00195.0039 4.0542913 3.683698 9.2363001 5.401499 15.2949221 5.142578l-.04883.002h1.791015c.394989.000253.761784-.20459.96875-.541015l1.105469-1.798828v1.203125c-.000101.627834.508885 1.136819 1.136719 1.136718h14.933594c.521261-.000527.975341-.35558 1.101562-.861328l3.583985-14.335937c.179167-.716878-.362635-1.411422-1.101563-1.412109h-2.447266v-19.455079l10.220703 35.244141c.140773.485974.585844.820374 1.091797.820312h17.248047c.499472-.000471.940101-.326979 1.085938-.804687l11.425781-37.332031c.22314-.73004-.322557-1.468105-1.085937-1.46875h-15.382808c-.543996.000224-1.011553.385898-1.115234.919922l-2.919922 14.984375-3.367188-15.015625c-.116079-.51945-.577113-.888764-1.109375-.888672h-15.605468c-.306071.000505-.599002.124437-.8125.34375-.213025-.218829-.505154-.34272-.810547-.34375h-12.992188c-.484187-.00025-.915372.306283-1.074219.763672l-.193359.554687c-2.365324-1.236477-4.938033-1.992187-7.767578-1.992187zm230.898433.15039c-2.09763 0-4.06587.315735-5.88476.955078-.001.000472-.002.0015-.004.002-1.77771.593173-3.34458 1.495235-4.66015 2.701171-1.32152 1.211418-2.34047 2.708354-3.04493 4.441407-.00034.000836-.002.0011-.002.002-.70965 1.696966-1.05469 3.591233-1.05469 5.654297 0 3.238263 1.36642 6.052563 3.92969 8.125l.006.0039c1.65241 1.321915 3.94786 2.451152 6.91016 3.472656 1.13207.410121 1.9762.768972 2.46875 1.03125.0948.05046.1028.0638.16992.105469-.0231.03343-.0202.145591-.0527.171875-.0976.07877-.4028.214844-1.02148.214844-1.24397 0-3.98204-1.021627-7.69922-3.271485-.6525-.394673-1.50086-.04748-1.68945.691407l-3.0625 12.021484c-.14481.569601.16854 1.155654.72265 1.351562 5.70647 2.019981 10.67296 3.052735 14.93946 3.052735 4.35702 0 8.01626-1.050065 10.83789-3.216797 3.1602-2.34628 4.78515-5.893417 4.78515-10.240234 0-3.156333-1.40941-5.921133-4.01562-7.984376-.008-.006-.0155-.01182-.0234-.01758-1.71912-1.289336-4.01811-2.466674-6.91797-3.585937-.004-.0013-.008-.0026-.0117-.0039-1.15894-.434605-2.0096-.825855-2.49804-1.121094-.16726-.101099-.22374-.15624-.29688-.216797.006-.0042.005-.05109.0117-.05664.0356-.02873.24817-.138672.74219-.138671 1.23511 0 3.34963.865615 6.04883 2.841796.62603.458467 1.51724.168673 1.7539-.570312l3.50977-10.976563c.16241-.50747-.0495-1.059643-.50977-1.328125-4.67693-2.723942-9.49407-4.111328-14.38672-4.111328zm-35.38671 12.578125c1.27048.04313 2.90792.613861 3.23437 2.28125h-6.68555c.15202-.512754.38159-.952472.77344-1.300781.009-.0077.017-.0155.0254-.02344.68192-.64402 1.48761-.957031 2.65235-.957031zm-193.046879 3.433594c1.103855.08691 3.468122.562704 3.492187 2.597656v4.835938h-2.671875c-1.844366 0-3.077807-.37127-3.783203-.917969s-1.0527344-1.275408-1.0527344-2.574219c0-1.04917.3544754-1.868105 1.2148434-2.6875.0066-.0064.0131-.01294.01953-.01953.873241-.873227 1.73209-1.234375 2.78125-1.234375zm192.917969 8.511719h17.05273c-4.89502 1.029065-8.60616 1.609374-10.50195 1.609375-3.062 0-5.14172-.583263-6.55078-1.609375z" fill="#999" transform="matrix(.26458333 0 0 .26458333 15.007203 270.97123)"/><path d="m-21.248047-98.935547-.671875 2.015625h-20.980469l-3.509765 15.007813h3.509765v36.064453h15.978516v-17.097656h13.738281l3.5097659-14.41211h-17.2480469v-3.658203h15.904297l4.330078-17.919922zm170.564457 0-3.28516 12.693359h14.85937l3.4336-12.693359zm32.87304 7.09375-14.85937 3.658203v5.003906h-1.56836l-3.50781 13.960938h5.07617v23.371094h14.85937v-23.371094h2.61328l3.50977-13.960938h-6.12305zm-39.23047 7.914063c-1.74222-.04989-3.60849.324545-5.5996 1.121093-2.09067.796448-3.63336 1.891393-4.62891 3.285157v-3.658204h-14.48438l-3.50976 14.03711h3.50976v23.294922h14.48438v-15.605469c0-.846236.0997-1.666469.29883-2.462891.24889-.796447.59692-1.494455 1.04492-2.091796.448-.647106.99547-1.143741 1.64258-1.492188.64711-.398236 1.36957-.597656 2.16601-.597656.79645 0 1.49251.09977 2.08985.298828l4.33203-16.054688zm64.13868 0c-5.72445 0-10.40334 1.742115-14.03711 5.226562-3.584 3.534211-5.37696 8.11534-5.37696 13.740234 0 6.570659 2.58874 11.573155 7.76563 15.007813 4.43022 2.936895 10.10433 4.404297 17.02344 4.404297.896 0 2.06621-.07519 3.50976-.22461 1.44356-.09953 3.18568-.272564 5.22656-.521484l3.43555-12.992187c-5.32622 1.144894-9.08517 1.716796-11.27539 1.716797-4.67911 0-7.7156-1.294366-9.10937-3.882813h22.32617v-1.941406c0-5.774211-1.8174-10.626147-5.45117-14.558594-3.68356-3.982211-8.36245-5.974609-14.03711-5.974609zm-195.662113.07422c-5.4257766 0-9.8319075 1.841838-13.216797 5.525391-3.3351106 3.633789-5.0019531 8.239348-5.0019531 13.814453 0 5.724447 1.9415529 10.328053 5.82421872 13.8125 3.83288948 3.484447 8.66232808 5.10241 14.48632838 4.853516h1.791015l3.210938-5.226563v5.226563h14.933594l3.583984-14.335938h-3.583984v-22.996096h-12.992188l-.597656 1.716797c-2.48889-1.592894-5.3015-2.390625-8.4375-2.390625zm82.509765.150391c-5.624889 0-10.33017 1.790987-14.113281 5.375-3.932443 3.633789-5.898437 8.26379-5.898437 13.888672 0 5.674658 1.89267 10.329101 5.675781 13.962891 3.783114 3.633751 8.510881 5.451171 14.185547 5.451171 5.774222 0 10.603658-1.79294 14.486328-5.376953 3.88267-3.633751 5.82422-8.337079 5.82422-14.111328 0-5.624882-1.94155-10.23044-5.82422-13.814453s-8.661268-5.375-14.335938-5.375zm148.388668 0c-1.99111 0-3.83294.299143-5.52539.896484-1.64266.547553-3.06119 1.367785-4.25586 2.462891-1.19466 1.095131-2.1146 2.440334-2.76171 4.033203-.64711 1.543131-.97071 3.285246-.97071 5.226563 0 2.936894 1.16826 5.350634 3.50781 7.242187 1.49334 1.194658 3.68516 2.289578 6.57227 3.285156 2.33956.846211 3.50781 1.468977 3.50781 1.867188 0 1.244447-.77134 1.867187-2.31445 1.867187-1.74222 0-4.504-1.145783-8.28711-3.435546l-3.0625 12.021484c5.62489 1.991105 10.47877 2.986328 14.56055 2.986328 4.18133 0 7.56585-.995223 10.15429-2.986328 2.88712-2.140447 4.33204-5.252221 4.33204-9.333984 0-2.837342-1.19465-5.202198-3.58399-7.09375-1.59289-1.194659-3.80915-2.338464-6.64648-3.433594-2.38933-.896-3.58399-1.618463-3.58399-2.166016 0-1.045316.64719-1.568359 1.94141-1.568359 1.69244 0 3.93315 1.02163 6.7207 3.0625l3.50977-10.976563c-4.52978-2.638236-9.13535-3.957031-13.81446-3.957031zm-207.248042.523437 10.826171 37.332032h17.248047l11.425782-37.332034h-15.382813l-3.957031 20.308594-4.554688-20.308594zm110.796872 0-3.58398 13.960938h3.50976v23.371094h14.93164l3.58399-14.335938h-3.58399v-22.996094zm61.06446 9.78125c1.344 0 2.44088.421368 3.28711 1.267579.84622.846236 1.26757 1.943109 1.26757 3.287109h-9.33203c0-1.393789.44775-2.490662 1.34375-3.287109.896-.846211 2.03982-1.267579 3.4336-1.267579zm-193.046879 3.433594c1.09511 0 2.13921.374436 3.134765 1.121094.995556.696894 1.494141 1.567965 1.494141 2.613281v5.972657h-3.808594c-3.982224 0-5.9726561-1.542671-5.9726561-4.628907 0-1.344.5230252-2.514213 1.5683591-3.509765 1.045334-1.045317 2.239985-1.56836 3.583985-1.56836z" fill="#0e3c9f" transform="matrix(.26458333 0 0 .26458333 15.007203 270.97123)"/><g transform="matrix(.40869827 .00420625 -.00420625 .40869827 30.16628 156.29104)"><path d="m26.138672 231.58203a.27796854.27796854 0 0 0 -.222656.15625l-1.976563 4.09961-4.494141.69531a.27796854.27796854 0 0 0 -.148437.47657l3.287109 3.14257-.726562 4.49024a.27796854.27796854 0 0 0 .404297.28906l4.007812-2.1543 4.044922 2.08008a.27796854.27796854 0 0 0 .400391-.29687l-.8125-4.47657 3.228515-3.20507a.27796854.27796854 0 0 0 -.158203-.47266l-4.507812-.61133-2.050782-4.06054a.27796854.27796854 0 0 0 -.27539-.15235z" fill="#999"/><path d="m30.442018 244.60872-4.175875-2.14494-4.134318 2.22399.749543-4.63432-3.392711-3.24472 4.639119-.71922 2.037507-4.22934 2.117589 4.18981 4.65196.63085-3.330376 3.30867z" fill="#f4ea01"/></g></g></svg>