<?xml version="1.0" encoding="UTF-8" standalone="no"?>
<svg
   xmlns:dc="http://purl.org/dc/elements/1.1/"
   xmlns:cc="http://creativecommons.org/ns#"
   xmlns:rdf="http://www.w3.org/1999/02/22-rdf-syntax-ns#"
   xmlns:svg="http://www.w3.org/2000/svg"
   xmlns="http://www.w3.org/2000/svg"
   xmlns:sodipodi="http://sodipodi.sourceforge.net/DTD/sodipodi-0.dtd"
   xmlns:inkscape="http://www.inkscape.org/namespaces/inkscape"
   id="Ebene_1"
   enable-background="new 0 0 566.929 87.964"
   xml:space="preserve"
   height="116"
   viewBox="0 0 512.00016 115.99943"
   width="512"
   version="1.1"
   y="0px"
   x="0px"
   sodipodi:docname="system.svg"
   inkscape:version="1.0.2 (e86c8708, 2021-01-15)"><defs
   id="defs2176" /><sodipodi:namedview
   pagecolor="#ffffff"
   bordercolor="#666666"
   borderopacity="1"
   objecttolerance="10"
   gridtolerance="10"
   guidetolerance="10"
   inkscape:pageopacity="0"
   inkscape:pageshadow="2"
   inkscape:window-width="1104"
   inkscape:window-height="744"
   id="namedview2174"
   showgrid="false"
   inkscape:zoom="1"
   inkscape:cx="171.82001"
   inkscape:cy="35.234001"
   inkscape:window-x="0"
   inkscape:window-y="23"
   inkscape:window-maximized="0"
   inkscape:current-layer="Ebene_1" /><metadata
   id="metadata61"><rdf:RDF><cc:Work
       rdf:about=""><dc:format>image/svg+xml</dc:format><dc:type
         rdf:resource="http://purl.org/dc/dcmitype/StillImage" /><dc:title></dc:title></cc:Work></rdf:RDF></metadata>
<g
   id="g2193"
   transform="matrix(1.443405,0,0,1.4190913,7.9891129,7.9997002)"><g
     id="g4569"
     transform="matrix(0.81916268,0,0,0.81916268,-1.6623689e-5,0)"><path
       id="path3999-4"
       d="m 333.43,86.024 h 34.396 L 419.501,0 h -34.384 l -51.69,86.024"
       fill="#498cc1" /><path
       id="path3912-8"
       stroke-linejoin="miter"
       d="m 135,23.469 v 46.875 h 28.125 c 8.7494,-1.435 13.753,-6.3365 15.656,-14.062 0.0175,-6.2553 0.003,-12.495 0,-18.75 -1.9033,-7.726 -6.9069,-12.627 -15.656,-14.062 H 135 Z m 11,9.4062 h 12.469 c 3.9161,0.69463 7.6321,1.9226 9.4062,7.8125 l -0.0312,12.5 c -1.7896,5.8814 -5.4902,7.1179 -9.4063,7.8125 h -12.469 l 0.0312,-28.125 z"
       stroke="#000000"
       stroke-linecap="butt"
       stroke-width="1.11043px"
       fill="#666666" /><path
       id="path3896"
       stroke-linejoin="miter"
       d="M 14.64,70.354 V 34.428 H 0.569 L 0.564669,23.493 h 43.78 l -4.6933,10.935 -10.944,0.0043 v 35.921 l -14.067,3.7e-5"
       stroke="#000000"
       stroke-linecap="butt"
       stroke-width="1.11043px"
       fill="#666666" /><path
       id="path3900"
       stroke-linejoin="miter"
       d="M 49.031,23.5 31.843,70.344 h 14.094 l 5.4375,-17.156 5.4688,7.8125 h 9.375 l 3.125,9.3438 h 14.188 l -17.312,-46.844 h -17.188 z m 8.5312,12.469 5.5312,14.094 h -10.938 l 5.4062,-14.094 z"
       stroke="#000000"
       stroke-linecap="butt"
       stroke-width="1.11043px"
       fill="#666666" /><path
       id="path3908"
       stroke-linejoin="miter"
       d="M 84.957,70.354 V 23.493 h 17.225 l 17.195,34.381 V 23.493 h 10.944 l -0.009,46.861 H 113.12 L 95.923,36.003 95.9186,70.354 h -10.961"
       stroke="#000000"
       stroke-linecap="butt"
       stroke-width="1.11043px"
       fill="#666666" /><path
       id="path3991"
       stroke-linejoin="miter"
       d="m 191.27,48.513 -18.746,-25.02 h 14.059 l 10.195,15.598 10.146,-15.598 h 15.604 l -18.804,24.942 0.0346,21.919 h -12.477 l -0.0122,-21.841"
       stroke="#000000"
       stroke-linecap="butt"
       stroke-width="1.11043px"
       fill="#666666" /><path
       id="path3999-4-5"
       d="m 288.28,86.024 h 34.396 L 374.346,0 h -34.39 l -51.68,86.024"
       fill="#197123" /><path
       id="path3999-4-5-7"
       d="m 243.12,86.024 h 34.396 L 329.186,0 h -34.384 l -51.69,86.024"
       fill="#ae1f19" /></g><flowRoot
     id="flowRoot4066"
     style="letter-spacing:0px;word-spacing:0px"
     line-height="125%"
     font-weight="normal"
     xml:space="preserve"
     font-size="40px"
     transform="translate(-94.313277,-12.248728)"
     font-style="normal"
     font-family="'Open Sans Light'"
     fill="#000000"><flowRegion
       id="flowRegion4068"><rect
         id="rect4070"
         y="24.964"
         width="185.5"
         x="377"
         height="41" /></flowRegion><flowPara
       id="flowPara4072">Cooccc</flowPara></flowRoot><text
     id="text4074"
     style="letter-spacing:0px;word-spacing:0px"
     font-weight="normal"
     xml:space="preserve"
     font-size="40px"
     font-style="normal"
     y="32.581753"
     x="295.30255"
     font-family="'Open Sans Light'"
     line-height="125%"
     fill="#000000"><tspan
       id="tspan4076"
       font-weight="normal"
       font-style="normal"
       font-stretch="normal"
       font-variant="normal"
       y="32.581753"
       x="295.30255"
       font-family="Ebrima" /></text></g>
</svg>
