<svg height="152" viewBox="0 0 135.46666 40.216667" width="512" xmlns="http://www.w3.org/2000/svg"><g transform="matrix(.34026213 0 0 .34097492 -32.560437 -62.5519)"><g stroke="#fff"><path d="m466.23323 190.74004-19.32497 7.24603v7.38302l4.22128-1.58254v8.00304l8.45426 3.17017v-14.34169l6.64943-2.49331z" fill="#fff" stroke-width="1.5"/><path d="m467.52097 190.74004 19.32499 7.24601v7.38303l-4.22131-1.58255v.006l-8.45421-3.16994v-.004l-6.64947-2.49337z" fill="none" stroke-width="1.5"/><path d="m467.25832 190.361.93256.34957v7.38492l-.93256-.3498z" fill="#fff" stroke-width=".778924"/><path d="m467.521 225.38132 19.32496-7.24605v-7.38302l-4.2213 1.58254v-8.00303l-8.45422-3.17016v14.34167l-6.64944 2.49333z" fill="#fff" stroke-width="1.5"/><path d="m466.23326 225.38132-19.325-7.24601v-7.38305l4.22133 1.58255v-.006l8.4542 3.16992v.004l6.64947 2.49337z" fill="none" stroke-width="1.5"/><path d="m466.4959 225.76036-.93255-.34957v-7.38492l.93255.34978z" fill="#fff" stroke-width=".778924"/></g><g fill="#fff" stroke="#000" stroke-width=".40636" transform="matrix(1.4720031 0 0 1.4720031 75.413633 -35.002924)"><path d="m18.205362 154.28269v5.5265h9.655123v16.15689h6.924381v-16.15689h9.655123v-5.5265z"/><path d="m45.011281 154.28269v21.68339h6.924381v-7.83463h14.921554v7.83463h6.924381v-21.68339h-6.924381v7.76961h-14.921554v-7.76961z"/><path d="m91.255602 153.9576c-9.069964 0-11.085511.22756-12.743461 1.49541-1.657951 1.26784-2.145583 3.47844-2.145583 9.52508 0 6.37174.455123 8.51732 2.145583 9.81767 1.65795 1.26785 3.673497 1.49541 12.808479 1.49541 8.97244 0 11.02049-.22756 12.67845-1.49541 1.65795-1.26784 2.14558-3.44593 2.14558-9.68763 0-6.20919-.48763-8.38728-2.14558-9.65512-1.65796-1.26785-3.6735-1.49541-12.743468-1.49541zm0 5.62403c6.046643 0 6.761837.0975 7.50954.97526.585159.7152.780217 1.95053.780217 5.16891 0 2.63321-.227567 3.57597-.97527 4.16113-.877738.65017-1.95053.78021-7.249469.78021-5.461484 0-6.501766-.0975-7.379505-.78021-.780212-.61767-.975265-1.49541-.975265-4.19364 0-2.76325.130036-3.99859.520142-4.74629.650176-1.26784 1.267844-1.36537 7.76961-1.36537z"/><path d="m108.75907 154.28269v21.68339h6.50177l-.16255-16.22191h1.17032l8.15972 16.22191h5.49399l8.15972-16.22191h1.1053l-.16255 16.22191h6.50177v-21.68339h-11.89823l-6.46926 14.07632-6.43675-14.07632z"/><path d="m147.78948 168.78163v1.04028c0 2.99081.48764 4.25866 1.98304 5.20141 1.52792.97527 4.16113 1.26785 10.89046 1.26785 6.46926 0 9.2-.16255 10.50035-.65018 2.24311-.84523 3.15336-2.69823 3.15336-6.46926 0-3.02332-.55265-4.48621-2.04806-5.46148-1.39788-.87774-2.79576-1.04028-9.9477-1.26784-4.58374-.13004-6.37173-.22757-6.95689-.39011-.68268-.16254-.97526-.58516-.97526-1.39788 0-1.59293.45512-1.72297 6.04664-1.72297 4.68127 0 5.49399.065 6.04664.39011.48763.29258.58516.58516.65018 1.78798h6.37173c.0325-.42261.0325-.87773.0325-1.00777 0-2.5682-.52014-3.93357-1.8205-4.81131-1.52791-1.04028-3.80353-1.33286-10.11024-1.33286-5.20142 0-8.19223.13004-9.46007.39011-2.99082.65017-4.16113 2.50318-4.16113 6.6318 0 4.7788 1.4954 6.14417 6.85936 6.30671l1.75548.065 3.51095.16254 5.20141.19506c2.11308.0325 2.60071.35759 2.60071 1.65795 0 1.91802 0 1.91802-7.08693 1.91802-4.64876 0-5.36395-.065-5.98162-.45513-.52014-.32508-.65018-.7477-.65018-2.04805z"/><path d="m191.06787 153.9576c-9.06996 0-11.08551.22756-12.74346 1.49541-1.65795 1.26784-2.14558 3.47844-2.14558 9.52508 0 6.37174.45512 8.51732 2.14558 9.81767 1.65795 1.26785 3.6735 1.49541 12.80848 1.49541 8.97244 0 11.02049-.22756 12.67844-1.49541 1.65795-1.26784 2.14559-3.44593 2.14559-9.68763 0-6.20919-.48764-8.38728-2.14559-9.65512-1.65795-1.26785-3.6735-1.49541-12.74346-1.49541zm0 5.62403c6.04664 0 6.76184.0975 7.50954.97526.58516.7152.78021 1.95053.78021 5.16891 0 2.63321-.22756 3.57597-.97526 4.16113-.87774.65017-1.95053.78021-7.24947.78021-5.46149 0-6.50177-.0975-7.37951-.78021-.78021-.61767-.97526-1.49541-.97526-4.19364 0-2.76325.13003-3.99859.52014-4.74629.65018-1.26784 1.26784-1.36537 7.76961-1.36537z"/><path d="m208.57134 154.28269v21.68339h6.72933l-.16254-16.1894h.71519l11.4106 16.1894h11.47562v-21.68339h-6.72933l.16254 16.15689h-.68268l-11.34558-16.15689z"/></g><text x="151.56845" y="225.71251"/><g stroke-width=".679346" transform="matrix(1.4720031 0 0 1.4720031 75.413633 -35.002924)"><path d="m30.852722 189.32375v31.00999h9.298348l-.232458-23.19938h1.673702l11.669427 23.19938h7.857105l11.669427-23.19938h1.580719l-.232459 23.19938h9.298348v-31.00999h-17.015977l-9.251856 20.13092-9.205365-20.13092z" fill="#fff" stroke="#000"/><path d="m108.42928 188.85883c-12.971202 0-15.853689.32544-18.224768 2.13862s-3.068455 4.97462-3.068455 13.62208c0 9.11238.650884 12.18084 3.068455 14.04051 2.371079 1.81318 5.253566 2.13862 18.317748 2.13862 12.83172 0 15.7607-.32544 18.13178-2.13862s3.06846-4.92813 3.06846-13.85454c0-8.87992-.69738-11.99487-3.06846-13.80805s-5.25357-2.13862-18.22476-2.13862zm0 8.04307c8.64746 0 9.67028.13948 10.73959 1.39475.83685 1.02282 1.1158 2.78951 1.1158 7.39219 0 3.76583-.32544 5.11409-1.39475 5.95094-1.25528.92984-2.7895 1.11581-10.36766 1.11581-7.81061 0-9.29835-.13948-10.553628-1.11581-1.115801-.88334-1.394752-2.13862-1.394752-5.99743 0-3.9518.185967-5.71848.743868-6.78779.929835-1.81318 1.813178-1.95266 11.111532-1.95266z" fill="#fff" stroke="#000"/><g fill="none" stroke="#fff"><path d="m163.28658 185.68282-21.89649 38.2581h2.92281l-.0194.0338h5.04655l21.93627-38.25765h-2.9228l.0199-.0343z"/><path d="m182.9439 189.32375v7.90359h13.80804v23.1064h9.90274v-23.1064h13.80805v-7.90359z"/><path d="m243.90912 188.85883c-12.9712 0-15.85369.32544-18.22476 2.13862-2.37108 1.81318-3.06846 4.97462-3.06846 13.62208 0 9.11238.65088 12.18084 3.06846 14.04051 2.37107 1.81318 5.25356 2.13862 18.31774 2.13862 12.83172 0 15.7607-.32544 18.13178-2.13862s3.06846-4.92813 3.06846-13.85454c0-8.87992-.69738-11.99487-3.06846-13.80805s-5.25357-2.13862-18.22476-2.13862zm0 8.04307c8.64746 0 9.67028.13948 10.73959 1.39475.83685 1.02282 1.1158 2.78951 1.1158 7.39219 0 3.76583-.32544 5.11409-1.39475 5.95094-1.25528.92984-2.78951 1.11581-10.36766 1.11581-7.81061 0-9.29835-.13948-10.55362-1.11581-1.11581-.88334-1.39476-2.13862-1.39476-5.99743 0-3.9518.18597-5.71848.74387-6.78779.92984-1.81318 1.81318-1.95266 11.11153-1.95266z"/></g></g></g></svg>