<svg height="142" width="512" xmlns="http://www.w3.org/2000/svg"><g transform="matrix(1.3251442 0 0 1.3316993 -9.242607 -2.692557)"><path d="m163.29998 37.018991-23.00826 34.022874 18.84719 17.378611 39.89733-29.861808z" fill="#171a21" fill-rule="evenodd"/><circle cx="189.56975" cy="36.779259" fill="#171a21" r="28.75"/><g fill-rule="evenodd"><path d="m211.58055 36.779259a22.010825 22.010856 0 1 1 -44.02162 0 22.010825 22.010856 0 1 1 44.02162 0z" fill="#fff"/><path d="m207.12496 36.790947a17.555218 17.555218 0 0 1 -35.11043 0 17.555218 17.555218 0 1 1 35.11043 0z" fill="#171a21"/><path d="m161.10529 85.015903a17.623371 17.623371 0 1 1 -35.24674 0 17.623371 17.623371 0 1 1 35.24674 0z" fill="#171a21"/><path d="m156.63935 85.015903a13.157435 13.557435 0 0 1 -26.31487 0 13.157435 13.557435 0 1 1 26.31487 0z" fill="#fff"/><path d="m48.258612 38.977203a17.623371 17.623371 0 1 1 -35.246741 0 17.623371 17.623371 0 1 1 35.246741 0z" fill="#171a21"/><path d="m43.865761 38.977203a13.23052 12.83052 0 1 1 -26.461039 0 13.23052 12.83052 0 1 1 26.461039 0z" fill="#fff"/><rect fill="#171a21" height="22.776436" rx="13.68118" transform="matrix(.92586714 .37784924 -.37784924 .92586714 0 0)" width="141.70076" x="33.120049" y="13.313908"/></g><g fill="#171a21" transform="scale(.95096987 1.051558)"><path d="m263.04439 26.509251v6.490086q-2.5262-1.129603-4.92918-1.704674-2.40297-.575071-4.53895-.575071-2.83428 0-4.1898.780453-1.35553.780454-1.35553 2.423513 0 1.232295.90369 1.930596.92422.677762 3.32719 1.17068l3.36828.677762q5.11402 1.026913 7.27054 3.121814 2.15651 2.094901 2.15651 5.956092 0 5.072947-3.01912 7.558075-2.99858 2.46459-9.1806 2.46459-2.91643 0-5.8534-.554533-2.93697-.554533-5.87394-1.64306v-6.67493q2.93697 1.560907 5.66856 2.361898 2.75213.780454 5.29887.780454 2.58782 0 3.96388-.862607 1.37606-.862606 1.37606-2.46459 0-1.437677-.94476-2.21813-.92422-.780454-3.71742-1.396601l-3.0602-.677762q-4.60057-.985836-6.73654-3.142352-2.11544-2.156516-2.11544-5.812325 0-4.580029 2.9575-7.044619 2.95751-2.464589 8.50284-2.464589 2.5262 0 5.19618.390226 2.66997.369689 5.52478 1.129604z"/><path d="m271.16095 25.543953h28.26062v5.97663h-10.16643v24.686975h-7.90722v-24.686975h-10.18697z"/><path d="m306.28529 25.543953h21.33924v5.97663h-13.43201v5.709633h12.63102v5.976631h-12.63102v7.02408h13.88385v5.976631h-21.79108z"/><path d="m356.44364 50.621154h-12.36403l-1.95113 5.586404h-7.94831l11.35766-30.663605h9.42705l11.35765 30.663605h-7.9483zm-10.39236-5.689095h8.40015l-4.18981-12.199719z"/><path d="m373.16571 25.543953h10.06374l6.98301 16.41006 7.02408-16.41006h10.0432v30.663605h-7.47592v-22.427767l-7.06516 16.533289h-5.01133l-7.06516-16.533289v22.427767h-7.49646z"/></g></g></svg>