<?xml version="1.0" encoding="UTF-8" standalone="no"?>
<svg
   xmlns:dc="http://purl.org/dc/elements/1.1/"
   xmlns:cc="http://creativecommons.org/ns#"
   xmlns:rdf="http://www.w3.org/1999/02/22-rdf-syntax-ns#"
   xmlns:svg="http://www.w3.org/2000/svg"
   xmlns="http://www.w3.org/2000/svg"
   xmlns:sodipodi="http://sodipodi.sourceforge.net/DTD/sodipodi-0.dtd"
   xmlns:inkscape="http://www.inkscape.org/namespaces/inkscape"
   version="1.1"
   id="TEXT"
   x="0px"
   y="0px"
   width="512"
   height="180"
   viewBox="1.735 -0.002 511.99999 180"
   enable-background="new 1.735 -0.002 565.195 186.787"
   xml:space="preserve"
   sodipodi:docname="system.svg"
   inkscape:version="1.0.2 (e86c8708, 2021-01-15)"><metadata
   id="metadata7537"><rdf:RDF><cc:Work
       rdf:about=""><dc:format>image/svg+xml</dc:format><dc:type
         rdf:resource="http://purl.org/dc/dcmitype/StillImage" /><dc:title></dc:title></cc:Work></rdf:RDF></metadata><defs
   id="defs7535" /><sodipodi:namedview
   pagecolor="#ffffff"
   bordercolor="#666666"
   borderopacity="1"
   objecttolerance="10"
   gridtolerance="10"
   guidetolerance="10"
   inkscape:pageopacity="0"
   inkscape:pageshadow="2"
   inkscape:window-width="1169"
   inkscape:window-height="683"
   id="namedview7533"
   showgrid="false"
   inkscape:zoom="1"
   inkscape:cx="282.5975"
   inkscape:cy="93.393501"
   inkscape:window-x="0"
   inkscape:window-y="23"
   inkscape:window-maximized="0"
   inkscape:current-layer="TEXT" />
<linearGradient
   id="SVGID_1_"
   gradientUnits="userSpaceOnUse"
   x1="-749.87158"
   y1="1590.8164"
   x2="-1296.2295"
   y2="1590.8164"
   gradientTransform="translate(1307.8203,-1510.6299)">
	<stop
   offset="0"
   style="stop-color:#013A67"
   id="stop7208" />
	<stop
   offset="1"
   style="stop-color:#6CD1FF"
   id="stop7210" />
</linearGradient>

<linearGradient
   id="SVGID_2_"
   gradientUnits="userSpaceOnUse"
   x1="-1243.2905"
   y1="1574.0098"
   x2="-1247.2357"
   y2="1570.0649"
   gradientTransform="translate(1307.8203,-1510.6299)">
	<stop
   offset="0"
   style="stop-color:#08406F"
   id="stop7215" />
	<stop
   offset="1"
   style="stop-color:#60C5F5"
   id="stop7217" />
</linearGradient>

<linearGradient
   id="SVGID_3_"
   gradientUnits="userSpaceOnUse"
   x1="-1184.7046"
   y1="1649.1289"
   x2="-1188.3298"
   y2="1645.5037"
   gradientTransform="translate(1307.8203,-1510.6299)">
	<stop
   offset="0"
   style="stop-color:#08406F"
   id="stop7222" />
	<stop
   offset="1"
   style="stop-color:#60C5F5"
   id="stop7224" />
</linearGradient>

<linearGradient
   id="SVGID_4_"
   gradientUnits="userSpaceOnUse"
   x1="-1282.2764"
   y1="1629.2715"
   x2="-1282.2764"
   y2="1624.958"
   gradientTransform="translate(1307.8203,-1510.6299)">
	<stop
   offset="0"
   style="stop-color:#08406F"
   id="stop7229" />
	<stop
   offset="1"
   style="stop-color:#60C5F5"
   id="stop7231" />
</linearGradient>

<linearGradient
   id="SVGID_5_"
   gradientUnits="userSpaceOnUse"
   x1="-1186.8145"
   y1="1668.4004"
   x2="-1186.8145"
   y2="1663.9434"
   gradientTransform="translate(1307.8203,-1510.6299)">
	<stop
   offset="0"
   style="stop-color:#08406F"
   id="stop7236" />
	<stop
   offset="1"
   style="stop-color:#60C5F5"
   id="stop7238" />
</linearGradient>

<linearGradient
   id="SVGID_6_"
   gradientUnits="userSpaceOnUse"
   x1="-880.30621"
   y1="1629.2422"
   x2="-880.30621"
   y2="1624.7754"
   gradientTransform="translate(1307.8203,-1510.6299)">
	<stop
   offset="0"
   style="stop-color:#08406F"
   id="stop7243" />
	<stop
   offset="1"
   style="stop-color:#60C5F5"
   id="stop7245" />
</linearGradient>

<linearGradient
   id="SVGID_7_"
   gradientUnits="userSpaceOnUse"
   x1="-1056.936"
   y1="1630.1133"
   x2="-1056.936"
   y2="1625.6357"
   gradientTransform="translate(1307.8203,-1510.6299)">
	<stop
   offset="0"
   style="stop-color:#08406F"
   id="stop7250" />
	<stop
   offset="1"
   style="stop-color:#60C5F5"
   id="stop7252" />
</linearGradient>

<linearGradient
   id="SVGID_8_"
   gradientUnits="userSpaceOnUse"
   x1="-785.71918"
   y1="1517.4062"
   x2="-785.71918"
   y2="1512.543"
   gradientTransform="translate(1307.8203,-1510.6299)">
	<stop
   offset="0"
   style="stop-color:#08406F"
   id="stop7257" />
	<stop
   offset="1"
   style="stop-color:#60C5F5"
   id="stop7259" />
</linearGradient>

<linearGradient
   id="SVGID_9_"
   gradientUnits="userSpaceOnUse"
   x1="-792.98682"
   y1="1541.9346"
   x2="-792.98682"
   y2="1537.7236"
   gradientTransform="translate(1307.8203,-1510.6299)">
	<stop
   offset="0"
   style="stop-color:#08406F"
   id="stop7264" />
	<stop
   offset="1"
   style="stop-color:#60C5F5"
   id="stop7266" />
</linearGradient>

<linearGradient
   id="SVGID_10_"
   gradientUnits="userSpaceOnUse"
   x1="-848.63037"
   y1="1585.4502"
   x2="-848.63037"
   y2="1581.7305"
   gradientTransform="translate(1307.8203,-1510.6299)">
	<stop
   offset="0"
   style="stop-color:#08406F"
   id="stop7271" />
	<stop
   offset="1"
   style="stop-color:#60C5F5"
   id="stop7273" />
</linearGradient>

<linearGradient
   id="SVGID_11_"
   gradientUnits="userSpaceOnUse"
   x1="-817.83942"
   y1="1560.3301"
   x2="-817.83942"
   y2="1554.7754"
   gradientTransform="translate(1307.8203,-1510.6299)">
	<stop
   offset="0"
   style="stop-color:#08406F"
   id="stop7278" />
	<stop
   offset="1"
   style="stop-color:#60C5F5"
   id="stop7280" />
</linearGradient>

<linearGradient
   id="SVGID_12_"
   gradientUnits="userSpaceOnUse"
   x1="-1233.6094"
   y1="1604.0459"
   x2="-1237.1525"
   y2="1600.5027"
   gradientTransform="translate(1307.8203,-1510.6299)">
	<stop
   offset="0"
   style="stop-color:#08406F"
   id="stop7285" />
	<stop
   offset="1"
   style="stop-color:#60C5F5"
   id="stop7287" />
</linearGradient>

<linearGradient
   id="SVGID_13_"
   gradientUnits="userSpaceOnUse"
   x1="-1187.7441"
   y1="1539.5889"
   x2="-1193.1104"
   y2="1539.5889"
   gradientTransform="translate(1307.8203,-1510.6299)">
	<stop
   offset="0"
   style="stop-color:#08406F"
   id="stop7292" />
	<stop
   offset="1"
   style="stop-color:#60C5F5"
   id="stop7294" />
</linearGradient>

<linearGradient
   id="SVGID_14_"
   gradientUnits="userSpaceOnUse"
   x1="-1134.9185"
   y1="1555.1787"
   x2="-1141.5786"
   y2="1555.1787"
   gradientTransform="translate(1307.8203,-1510.6299)">
	<stop
   offset="0"
   style="stop-color:#08406F"
   id="stop7299" />
	<stop
   offset="1"
   style="stop-color:#60C5F5"
   id="stop7301" />
</linearGradient>

<linearGradient
   id="SVGID_15_"
   gradientUnits="userSpaceOnUse"
   x1="-1052.0112"
   y1="1560.4355"
   x2="-1058.0044"
   y2="1560.4355"
   gradientTransform="translate(1307.8203,-1510.6299)">
	<stop
   offset="0"
   style="stop-color:#08406F"
   id="stop7306" />
	<stop
   offset="1"
   style="stop-color:#60C5F5"
   id="stop7308" />
</linearGradient>

<linearGradient
   id="SVGID_16_"
   gradientUnits="userSpaceOnUse"
   x1="-958.72308"
   y1="1539.8438"
   x2="-964.42432"
   y2="1539.8438"
   gradientTransform="translate(1307.8203,-1510.6299)">
	<stop
   offset="0"
   style="stop-color:#08406F"
   id="stop7313" />
	<stop
   offset="1"
   style="stop-color:#60C5F5"
   id="stop7315" />
</linearGradient>

<linearGradient
   id="SVGID_17_"
   gradientUnits="userSpaceOnUse"
   x1="-907.03961"
   y1="1553.6641"
   x2="-912.83643"
   y2="1553.6641"
   gradientTransform="translate(1307.8203,-1510.6299)">
	<stop
   offset="0"
   style="stop-color:#08406F"
   id="stop7320" />
	<stop
   offset="1"
   style="stop-color:#60C5F5"
   id="stop7322" />
</linearGradient>

<linearGradient
   id="SVGID_18_"
   gradientUnits="userSpaceOnUse"
   x1="-1206.2344"
   y1="1604.1572"
   x2="-1211.3452"
   y2="1604.1572"
   gradientTransform="translate(1307.8203,-1510.6299)">
	<stop
   offset="0"
   style="stop-color:#08406F"
   id="stop7327" />
	<stop
   offset="1"
   style="stop-color:#60C5F5"
   id="stop7329" />
</linearGradient>

<linearGradient
   id="SVGID_19_"
   gradientUnits="userSpaceOnUse"
   x1="-1186.75"
   y1="1609.0566"
   x2="-1190.3036"
   y2="1605.5032"
   gradientTransform="translate(1307.8203,-1510.6299)">
	<stop
   offset="0"
   style="stop-color:#08406F"
   id="stop7334" />
	<stop
   offset="1"
   style="stop-color:#60C5F5"
   id="stop7336" />
</linearGradient>

<linearGradient
   id="SVGID_20_"
   gradientUnits="userSpaceOnUse"
   x1="-754.56299"
   y1="1527.7207"
   x2="-758.23242"
   y2="1524.0511"
   gradientTransform="translate(1307.8203,-1510.6299)">
	<stop
   offset="0"
   style="stop-color:#08406F"
   id="stop7341" />
	<stop
   offset="1"
   style="stop-color:#60C5F5"
   id="stop7343" />
</linearGradient>

<linearGradient
   id="SVGID_21_"
   gradientUnits="userSpaceOnUse"
   x1="-1162.0054"
   y1="1605.0977"
   x2="-1167.4038"
   y2="1605.0977"
   gradientTransform="translate(1307.8203,-1510.6299)">
	<stop
   offset="0"
   style="stop-color:#08406F"
   id="stop7348" />
	<stop
   offset="1"
   style="stop-color:#60C5F5"
   id="stop7350" />
</linearGradient>

<linearGradient
   id="SVGID_22_"
   gradientUnits="userSpaceOnUse"
   x1="-1159.2227"
   y1="1542.2295"
   x2="-1163.7104"
   y2="1537.7417"
   gradientTransform="translate(1307.8203,-1510.6299)">
	<stop
   offset="0"
   style="stop-color:#08406F"
   id="stop7355" />
	<stop
   offset="1"
   style="stop-color:#60C5F5"
   id="stop7357" />
</linearGradient>

<linearGradient
   id="SVGID_23_"
   gradientUnits="userSpaceOnUse"
   x1="-1092.1538"
   y1="1557.541"
   x2="-1096.3123"
   y2="1553.3827"
   gradientTransform="translate(1307.8203,-1510.6299)">
	<stop
   offset="0"
   style="stop-color:#08406F"
   id="stop7362" />
	<stop
   offset="1"
   style="stop-color:#60C5F5"
   id="stop7364" />
</linearGradient>

<linearGradient
   id="SVGID_24_"
   gradientUnits="userSpaceOnUse"
   x1="-1003.6841"
   y1="1563.0293"
   x2="-1008.0682"
   y2="1558.645"
   gradientTransform="translate(1307.8203,-1510.6299)">
	<stop
   offset="0"
   style="stop-color:#08406F"
   id="stop7369" />
	<stop
   offset="1"
   style="stop-color:#60C5F5"
   id="stop7371" />
</linearGradient>

<linearGradient
   id="SVGID_25_"
   gradientUnits="userSpaceOnUse"
   x1="-931.02881"
   y1="1542.0801"
   x2="-935.23602"
   y2="1537.8724"
   gradientTransform="translate(1307.8203,-1510.6299)">
	<stop
   offset="0"
   style="stop-color:#08406F"
   id="stop7376" />
	<stop
   offset="1"
   style="stop-color:#60C5F5"
   id="stop7378" />
</linearGradient>

<linearGradient
   id="SVGID_26_"
   gradientUnits="userSpaceOnUse"
   x1="-819.26172"
   y1="1570.4844"
   x2="-822.71863"
   y2="1567.0277"
   gradientTransform="translate(1307.8203,-1510.6299)">
	<stop
   offset="0"
   style="stop-color:#08406F"
   id="stop7383" />
	<stop
   offset="1"
   style="stop-color:#60C5F5"
   id="stop7385" />
</linearGradient>

<linearGradient
   id="SVGID_27_"
   gradientUnits="userSpaceOnUse"
   x1="-808.19043"
   y1="1614.5957"
   x2="-812.1507"
   y2="1610.6355"
   gradientTransform="translate(1307.8203,-1510.6299)">
	<stop
   offset="0"
   style="stop-color:#08406F"
   id="stop7390" />
	<stop
   offset="1"
   style="stop-color:#60C5F5"
   id="stop7392" />
</linearGradient>

<linearGradient
   id="SVGID_28_"
   gradientUnits="userSpaceOnUse"
   x1="-866.16309"
   y1="1556.835"
   x2="-870.44788"
   y2="1552.5503"
   gradientTransform="translate(1307.8203,-1510.6299)">
	<stop
   offset="0"
   style="stop-color:#08406F"
   id="stop7397" />
	<stop
   offset="1"
   style="stop-color:#60C5F5"
   id="stop7399" />
</linearGradient>

<linearGradient
   id="SVGID_29_"
   gradientUnits="userSpaceOnUse"
   x1="-821.14062"
   y1="1551.8691"
   x2="-826.25342"
   y2="1546.7565"
   gradientTransform="translate(1307.8203,-1510.6299)">
	<stop
   offset="0"
   style="stop-color:#08406F"
   id="stop7404" />
	<stop
   offset="1"
   style="stop-color:#60C5F5"
   id="stop7406" />
</linearGradient>

<linearGradient
   id="SVGID_30_"
   gradientUnits="userSpaceOnUse"
   x1="-1122.022"
   y1="1627.5498"
   x2="-1125.6652"
   y2="1623.9065"
   gradientTransform="translate(1307.8203,-1510.6299)">
	<stop
   offset="0"
   style="stop-color:#08406F"
   id="stop7411" />
	<stop
   offset="1"
   style="stop-color:#60C5F5"
   id="stop7413" />
</linearGradient>

<linearGradient
   id="SVGID_31_"
   gradientUnits="userSpaceOnUse"
   x1="-1004.9712"
   y1="1604.3584"
   x2="-1008.6124"
   y2="1600.7172"
   gradientTransform="translate(1307.8203,-1510.6299)">
	<stop
   offset="0"
   style="stop-color:#08406F"
   id="stop7418" />
	<stop
   offset="1"
   style="stop-color:#60C5F5"
   id="stop7420" />
</linearGradient>

<linearGradient
   id="SVGID_32_"
   gradientUnits="userSpaceOnUse"
   x1="-958.11041"
   y1="1608.3047"
   x2="-961.6203"
   y2="1604.7947"
   gradientTransform="translate(1307.8203,-1510.6299)">
	<stop
   offset="0"
   style="stop-color:#08406F"
   id="stop7425" />
	<stop
   offset="1"
   style="stop-color:#60C5F5"
   id="stop7427" />
</linearGradient>

<linearGradient
   id="SVGID_33_"
   gradientUnits="userSpaceOnUse"
   x1="-937.19342"
   y1="1628.8623"
   x2="-941.6178"
   y2="1624.4382"
   gradientTransform="translate(1307.8203,-1510.6299)">
	<stop
   offset="0"
   style="stop-color:#08406F"
   id="stop7432" />
	<stop
   offset="1"
   style="stop-color:#60C5F5"
   id="stop7434" />
</linearGradient>

<linearGradient
   id="SVGID_34_"
   gradientUnits="userSpaceOnUse"
   x1="-1078.5425"
   y1="1606.9883"
   x2="-1084.5801"
   y2="1606.9883"
   gradientTransform="translate(1307.8203,-1510.6299)">
	<stop
   offset="0"
   style="stop-color:#08406F"
   id="stop7439" />
	<stop
   offset="1"
   style="stop-color:#60C5F5"
   id="stop7441" />
</linearGradient>

<linearGradient
   id="SVGID_35_"
   gradientUnits="userSpaceOnUse"
   x1="-977.6958"
   y1="1603.7383"
   x2="-982.90771"
   y2="1603.7383"
   gradientTransform="translate(1307.8203,-1510.6299)">
	<stop
   offset="0"
   style="stop-color:#08406F"
   id="stop7446" />
	<stop
   offset="1"
   style="stop-color:#60C5F5"
   id="stop7448" />
</linearGradient>

<linearGradient
   id="SVGID_36_"
   gradientUnits="userSpaceOnUse"
   x1="-933.02979"
   y1="1603.0254"
   x2="-939.2749"
   y2="1603.0254"
   gradientTransform="translate(1307.8203,-1510.6299)">
	<stop
   offset="0"
   style="stop-color:#08406F"
   id="stop7453" />
	<stop
   offset="1"
   style="stop-color:#60C5F5"
   id="stop7455" />
</linearGradient>

<linearGradient
   id="SVGID_37_"
   gradientUnits="userSpaceOnUse"
   x1="-867.36182"
   y1="1594.8955"
   x2="-871.78058"
   y2="1590.4768"
   gradientTransform="translate(1307.8203,-1510.6299)">
	<stop
   offset="0"
   style="stop-color:#08406F"
   id="stop7460" />
	<stop
   offset="1"
   style="stop-color:#60C5F5"
   id="stop7462" />
</linearGradient>

<linearGradient
   id="SVGID_38_"
   gradientUnits="userSpaceOnUse"
   x1="-835.07959"
   y1="1604.7285"
   x2="-835.07959"
   y2="1598.9258"
   gradientTransform="translate(1307.8203,-1510.6299)">
	<stop
   offset="0"
   style="stop-color:#08406F"
   id="stop7467" />
	<stop
   offset="1"
   style="stop-color:#60C5F5"
   id="stop7469" />
</linearGradient>













<g
   id="g7606"
   transform="matrix(0.87757437,0,0,0.87800352,8.2125516,7.9992348)"><polygon
     fill="url(#SVGID_1_)"
     points="345.625,52.224 345.625,9.374 261.264,92.841 250.775,93.958 251.667,8.077 177.937,82.94 168.255,82.987 167.12,11.089 127.342,51.15 116.278,51.717 116.697,8.939 11.591,114.896 46.209,114.328 91.598,70.276 100.303,70.276 99.883,114.541 136.035,77.543 144.679,77.543 144.679,115.229 104.892,154.729 143.019,154.166 218.036,78.299 228.14,78.299 228.14,115.569 274.897,115.854 320.115,70.353 328.843,69.786 328.708,112.798 364.839,76.667 373.375,76.667 373.941,113.103 373.203,114.998 482.378,114.998 503.279,93.815 435.398,92.662 434.781,82.809 445.357,71.67 470.968,71.667 493.216,49.133 479.769,48.565 479.769,39.082 491.191,27.662 536.777,27.946 557.949,5.927 479.951,5.642 406.662,79.217 396.4,79.785 396.685,9.001 355.48,51.055 "
     id="polygon7213"
     style="fill:url(#SVGID_1_)" /><path
     fill="url(#SVGID_2_)"
     d="M 114.692,13.213 13.577,114.328 2.106,118.641 c 0,0 -0.604,0.039 -0.271,-0.445 0,0 117.26,-117.292 117.472,-117.471 0.212,-0.181 0.467,-0.028 0.467,-0.028 z"
     id="path7220"
     style="fill:url(#SVGID_2_)" /><path
     fill="url(#SVGID_3_)"
     d="m 145.814,115.796 -37.518,37.521 -11.065,4.457 c 0,0 -0.576,0.063 -0.236,-0.406 l 43.929,-43.75 z"
     id="path7227"
     style="fill:url(#SVGID_3_)" /><polygon
     fill="url(#SVGID_4_)"
     points="48.982,118.642 2.106,118.642 13.603,114.328 46.209,114.328 "
     id="polygon7234"
     style="fill:url(#SVGID_4_)" /><polygon
     fill="url(#SVGID_5_)"
     points="144.781,157.771 97.23,157.771 108.296,153.313 142.168,153.313 "
     id="polygon7241"
     style="fill:url(#SVGID_5_)" /><polygon
     fill="url(#SVGID_6_)"
     points="484.787,118.612 370.242,118.583 374.052,114.147 481.529,114.146 "
     id="polygon7248"
     style="fill:url(#SVGID_6_)" /><path
     fill="url(#SVGID_7_)"
     d="m 277.053,119.483 -51.527,-0.028 c -0.333,0.006 -0.81,-0.334 -0.81,-0.334 l 4.561,-4.115 h 45.054 z"
     id="path7255"
     style="fill:url(#SVGID_7_)" /><path
     fill="url(#SVGID_8_)"
     d="m 477.382,1.913 h 88.652 c 0.785,0 0.785,0.313 0.785,0.313 l -10.572,4.55 h -75.164 z"
     id="path7262"
     style="fill:url(#SVGID_8_)" /><polygon
     fill="url(#SVGID_9_)"
     points="539.042,31.304 492.697,31.304 490.625,27.094 535.927,27.094 "
     id="polygon7269"
     style="fill:url(#SVGID_9_)" /><polygon
     fill="url(#SVGID_10_)"
     points="473.589,74.82 448.91,74.82 444.791,71.102 470.402,71.1 "
     id="polygon7276"
     style="fill:url(#SVGID_10_)" /><path
     fill="url(#SVGID_11_)"
     d="m 491.8,49.7 h -13.58 l -1.193,-5.548 h 25.467 c 0.346,-0.043 0.441,0.146 0.441,0.146 z"
     id="path7283"
     style="fill:url(#SVGID_11_)" /><path
     fill="url(#SVGID_12_)"
     d="m 96.872,70.634 -47.89,48.01 -2.773,-4.313 46.601,-46.366 c 2,-2.313 4.675,-1.731 4.675,-1.731 z"
     id="path7290"
     style="fill:url(#SVGID_12_)" /><path
     fill="url(#SVGID_13_)"
     d="M 114.71,51.669 V 13.193 l 5.063,-12.499 c 0,0 0.303,0.075 0.303,0.571 0,0.493 0,53.647 0,53.647 l -0.315,2.311 c 0,10e-4 -4.496,0.025 -5.051,-5.554 z"
     id="path7297"
     style="fill:url(#SVGID_13_)" /><path
     fill="url(#SVGID_14_)"
     d="m 172.902,88.843 c 0,0 -6.539,1.949 -6.621,-5.625 -0.08,-7.313 -0.013,-69.292 -0.013,-69.292 L 171.482,0.03 c 0,0 0.182,-0.027 0.182,0.725 l -0.017,81.792 z"
     id="path7304"
     style="fill:url(#SVGID_14_)" /><path
     fill="url(#SVGID_15_)"
     d="m 255.809,98.91 c 0,0 -5.889,0.577 -5.96,-6.088 l -0.033,-80.063 4.651,-12.071 c 0,0 0.583,0.153 0.583,0.907 l -0.016,91.14 z"
     id="path7311"
     style="fill:url(#SVGID_15_)" /><path
     fill="url(#SVGID_16_)"
     d="m 349.097,57.425 c 0,0 -4.869,0.452 -5.701,-4.563 V 13.139 l 4.393,-12.147 c 0,0 0.563,0.134 0.563,0.886 v 49.667 z"
     id="path7318"
     style="fill:url(#SVGID_16_)" /><path
     fill="url(#SVGID_17_)"
     d="m 400.781,85.333 c 0,0 -4.938,0.643 -5.797,-4.373 V 13.254 l 4.85,-12.544 c 0,0 0.268,0.221 0.268,1.708 v 77.226 z"
     id="path7325"
     style="fill:url(#SVGID_17_)" /><path
     fill="url(#SVGID_18_)"
     d="m 97.759,120.819 c 0,0 -0.833,-0.067 -0.809,-1.147 -0.001,-0.918 -0.078,-49.037 -0.078,-49.037 0,0 -1.218,-1.577 0.613,-4.4 0.547,0.131 3.495,0.727 4.101,4.256 v 40.369 z"
     id="path7332"
     style="fill:url(#SVGID_18_)" /><path
     fill="url(#SVGID_19_)"
     d="m 140.843,78.598 c 0,0 -41.489,41.547 -41.883,41.938 -0.346,0.379 -1.202,0.281 -1.202,0.281 l 3.827,-9.963 36.059,-36.088 c 0,0 1.34,-1.727 3.831,-1.637 z"
     id="path7339"
     style="fill:url(#SVGID_19_)" /><path
     fill="url(#SVGID_20_)"
     d="M 566.609,3.639 539.043,31.304 535.928,27.093 556.24,6.769 566.822,2.227 c 0,0.001 0.349,0.847 -0.213,1.412 z"
     id="path7346"
     style="fill:url(#SVGID_20_)" /><path
     fill="url(#SVGID_21_)"
     d="m 140.924,113.617 -0.079,-35.026 c 0,0 -1.301,-2.633 0.631,-5.456 0.593,-0.007 3.7,0.421 4.339,4.146 l -0.001,38.519 z"
     id="path7353"
     style="fill:url(#SVGID_21_)" /><path
     fill="url(#SVGID_22_)"
     d="m 166.269,13.926 -41.462,41.463 c -1.987,1.986 -5.045,1.836 -5.045,1.836 -1.795,-3.531 0.315,-6.065 0.315,-6.065 0,0 50.503,-50.49 50.867,-50.87 0.331,-0.417 0.541,-0.264 0.541,-0.264 z"
     id="path7360"
     style="fill:url(#SVGID_22_)" /><path
     fill="url(#SVGID_23_)"
     d="m 249.815,12.762 -74.376,74.375 c -1.55,1.551 -2.537,1.702 -2.537,1.702 -3.781,-1.877 -1.213,-6.254 -1.213,-6.254 0,0 80.652,-80.635 81.016,-81.015 0.943,-1.093 1.761,-0.883 1.761,-0.883 z"
     id="path7367"
     style="fill:url(#SVGID_23_)" /><path
     fill="url(#SVGID_24_)"
     d="M 343.396,13.139 259.233,97.3 c -1.429,1.432 -3.424,1.607 -3.424,1.607 -3.115,-1.557 -0.776,-6.175 -0.776,-6.175 0,0 90.609,-90.5 90.974,-90.881 0.941,-1.098 1.781,-0.862 1.781,-0.862 z"
     id="path7374"
     style="fill:url(#SVGID_24_)" /><path
     fill="url(#SVGID_25_)"
     d="M 394.984,13.254 352.47,55.768 c -1.428,1.432 -3.373,1.657 -3.373,1.657 -2.932,-1.908 -0.588,-5.983 -0.588,-5.983 0,0 49.584,-49.69 49.947,-50.07 1.047,-1.033 1.377,-0.66 1.377,-0.66 z"
     id="path7381"
     style="fill:url(#SVGID_25_)" /><path
     fill="url(#SVGID_26_)"
     d="M 502.958,45.453 473.589,74.82 470.401,71.098 491.8,49.7 502.935,44.299 c 0,0 0.414,0.294 0.023,1.154 z"
     id="path7388"
     style="fill:url(#SVGID_26_)" /><path
     fill="url(#SVGID_27_)"
     d="m 513.634,89.96 -28.848,28.65 -3.258,-4.465 20.049,-20.049 12.289,-5.382 c 10e-4,0.006 0.397,0.438 -0.232,1.246 z"
     id="path7395"
     style="fill:url(#SVGID_27_)" /><path
     fill="url(#SVGID_28_)"
     d="M 481.083,6.777 404.171,83.69 c -1.43,1.433 -3.395,1.644 -3.395,1.644 -2.449,-3.092 -0.689,-5.979 -0.689,-5.979 l 77.289,-77.44 z"
     id="path7402"
     style="fill:url(#SVGID_28_)" /><path
     fill="url(#SVGID_29_)"
     d="M 492.697,31.304 480.021,44.09 c -2.771,2.282 -1.801,5.608 -1.801,5.608 -2.25,-0.21 -3.125,-2.065 -3.412,-3.695 -0.285,-1.63 0.303,-3.422 1.348,-4.467 l 14.469,-14.44 z"
     id="path7409"
     style="fill:url(#SVGID_29_)" /><path
     fill="url(#SVGID_30_)"
     d="m 142.17,153.315 77.913,-77.942 c 0,0 1.437,-1.873 4.267,-1.771 l -0.456,5.223 c 0,0 -78.666,78.506 -79.113,78.947 z"
     id="path7416"
     style="fill:url(#SVGID_30_)" /><path
     fill="url(#SVGID_31_)"
     d="m 274.33,115.003 47.642,-47.659 c 0,0 1.438,-1.871 4.268,-1.771 l -0.857,5.621 -48.323,48.29 z"
     id="path7423"
     style="fill:url(#SVGID_31_)" /><path
     fill="url(#SVGID_32_)"
     d="m 330.125,110.25 36.779,-36.789 c 0.842,-0.843 1.779,-1.771 3.396,-1.771 l -0.107,5.501 -43.08,43.042 c -0.57,0.563 -1.02,0.398 -1.02,0.398 z"
     id="path7430"
     style="fill:url(#SVGID_32_)" /><path
     fill="url(#SVGID_33_)"
     d="m 361.984,118.058 7.25,-7.281 5.557,2.326 -0.734,1.047 -3.813,4.437 -0.271,0.301 h -7.721 c -0.34,0.015 -0.52,-0.271 -0.52,-0.271 0,0 -0.156,-0.149 0.252,-0.559 z"
     id="path7437"
     style="fill:url(#SVGID_33_)" /><path
     fill="url(#SVGID_34_)"
     d="m 223.983,117.337 -0.09,-38.514 c 0,0 -1.738,-2.016 0.457,-5.223 0.673,-0.01 4.202,0.478 4.928,4.707 l -0.001,36.694 -4.561,4.115 c 0,0.003 -0.73,-0.474 -0.733,-1.779 z"
     id="path7444"
     style="fill:url(#SVGID_34_)" /><path
     fill="url(#SVGID_35_)"
     d="m 325.449,119.944 -0.08,-48.75 c 0,0 -1.471,-2.681 0.871,-5.621 0.596,-0.009 3.244,0.472 3.885,4.702 v 39.976 l -4.027,10.39 c -0.005,-0.001 -0.606,-0.143 -0.649,-0.697 z"
     id="path7451"
     style="fill:url(#SVGID_35_)" /><path
     fill="url(#SVGID_36_)"
     d="M 369.234,110.774 V 78.146 c 0,0 -2.113,-3.379 1.064,-6.456 0.693,-0.008 4.131,0.24 4.492,4.323 V 113.1 Z"
     id="path7458"
     style="fill:url(#SVGID_36_)" /><path
     fill="url(#SVGID_37_)"
     d="m 448.91,74.82 -13.451,13.479 -3.844,4.81 c -3.896,-2.458 -1.953,-6.874 -0.912,-7.925 l 14.088,-14.079 z"
     id="path7465"
     style="fill:url(#SVGID_37_)" /><path
     fill="url(#SVGID_38_)"
     d="m 501.58,94.099 h -66.391 c -2.502,-0.197 -3.574,-0.993 -3.574,-0.993 -0.012,-3.571 3.844,-4.81 3.844,-4.81 l 77.746,0.002 c 0.543,-0.002 0.662,0.422 0.662,0.422 z"
     id="path7472"
     style="fill:url(#SVGID_38_)" /><path
     fill="#c0392b"
     d="m 199.027,180.485 c 3.235,0 5.857,2.921 5.857,6.156 H 186.913 V 128.36 h 5.958 v 52.125 z"
     id="path7474" /><path
     fill="#c0392b"
     d="m 215.707,186.642 c -3.235,0 -6.057,-2.923 -6.057,-6.156 v -40.459 h 6.057 z"
     id="path7476" /><g
     id="g7482">
	<g
   id="g7480">
		<path
   fill="#c0392b"
   d="m 233.678,140.026 h -6.157 V 128.36 h -6.055 v 58.281 h 12.212 c 3.235,0 5.857,-2.923 5.857,-6.156 v -34.75 c 0,-3.235 -2.622,-5.709 -5.857,-5.709 z m -0.1,40.459 h -6.057 v -34.65 h 6.057 z"
   id="path7478" />
	</g>
</g><g
     id="g7488">
	<path
   fill="#231f20"
   d="m 246.087,128.005 c 0,0 46.465,0 48.477,0 2.012,0 2.755,0.446 3.648,2.085 0.893,1.64 7.894,16.084 8.563,17.722 0.67,1.64 0.074,2.83 -0.895,4.098 -0.969,1.266 -11.021,12.732 -11.021,12.732 l 12.286,21.645 h -18.541 c 0,0 -14.521,-24.848 -15.339,-26.038 -0.82,-1.19 -0.82,-3.128 0.967,-3.128 1.788,0 5.51,0 6.33,0 0.818,0 1.191,-0.148 2.159,-0.967 0.968,-0.82 5.957,-6.853 5.957,-6.853 0,0 -2.383,-6.403 -2.904,-7.595 -0.521,-1.192 -1.639,-1.563 -2.68,-1.563 -1.042,0 -18.689,0 -18.689,0 v 46.143 h -18.319 z"
   id="path7484" />
	<path
   fill="#ffffff"
   d="m 288.318,186.786 -0.145,-0.248 c -0.008,-0.012 -3.629,-6.213 -7.359,-12.572 v 0 c -3.727,-6.349 -7.584,-12.895 -7.959,-13.435 v 0 c -0.387,-0.568 -0.614,-1.249 -0.616,-1.916 v 0 c 0,-0.491 0.129,-0.991 0.473,-1.384 v 0 c 0.344,-0.394 0.887,-0.619 1.522,-0.613 v 0 c 1.789,0 5.511,0 6.33,0.002 v 0 c 0.746,-0.025 0.852,-0.048 1.837,-0.85 v 0 c 0.404,-0.336 1.929,-2.08 3.282,-3.676 v 0 c 1.053,-1.238 2.031,-2.416 2.427,-2.892 v 0 c -0.46,-1.233 -2.351,-6.289 -2.793,-7.298 v 0 c -0.421,-0.958 -1.276,-1.252 -2.22,-1.264 v 0 c -0.521,0 -5.195,0 -9.737,0 v 0 c -3.631,0 -7.174,0 -8.453,0 v 0 46.144 h -19.321 v -58.78 -0.502 h 0.502 c 0.048,0 46.464,0 48.475,0 v 0 c 2.065,-0.057 3.211,0.618 4.088,2.348 v 0 c 0.917,1.688 7.892,16.073 8.589,17.771 v 0 c 0.217,0.535 0.32,1.048 0.318,1.537 v 0 c 0,1.179 -0.584,2.135 -1.279,3.054 v 0 c -0.914,1.193 -9.293,10.762 -10.808,12.49 v 0 l 12.536,22.083 z m 17.969,-1.002 -12.035,-21.208 0.232,-0.265 c 0.012,-0.015 10.068,-11.488 10.999,-12.705 v 0 c 0.665,-0.873 1.079,-1.625 1.077,-2.447 v 0 c -0.002,-0.35 -0.071,-0.727 -0.248,-1.158 v 0 c -0.645,-1.579 -7.671,-16.082 -8.54,-17.671 v 0 c -0.91,-1.55 -1.252,-1.767 -3.209,-1.825 v 0 c -1.888,0 -42.963,0 -47.975,0 v 0 57.279 h 17.317 v -46.143 h 0.502 c 0.017,0 17.646,0 18.689,0 v 0 c 1.141,-0.013 2.518,0.438 3.138,1.862 v 0 c 0.538,1.231 2.91,7.614 2.914,7.621 v 0 l 0.101,0.271 -0.184,0.224 c -0.023,0.021 -4.947,5.995 -6.02,6.915 v 0 c -0.95,0.834 -1.591,1.107 -2.482,1.086 v 0 c -0.819,-0.002 -4.541,-0.002 -6.33,-0.002 v 0 c -0.812,0.045 -0.939,0.354 -0.996,0.997 v 0 c -0.002,0.427 0.165,0.952 0.441,1.348 v 0 c 0.808,1.181 13.699,23.231 15.214,25.821 v 0 z"
   id="path7486" />
</g><g
     id="g7494">
	<path
   fill="#231f20"
   d="m 432.835,128.005 c 0,0 46.465,0 48.475,0 2.012,0 2.756,0.446 3.648,2.085 0.893,1.64 7.895,16.084 8.563,17.722 0.672,1.64 0.074,2.83 -0.893,4.098 -0.969,1.266 -11.021,12.732 -11.021,12.732 l 12.287,21.645 h -18.543 c 0,0 -14.52,-24.848 -15.34,-26.038 -0.818,-1.19 -0.818,-3.128 0.969,-3.128 1.787,0 5.512,0 6.328,0 0.82,0 1.191,-0.148 2.16,-0.967 0.969,-0.82 5.957,-6.853 5.957,-6.853 0,0 -2.383,-6.403 -2.904,-7.595 -0.52,-1.191 -1.637,-1.563 -2.68,-1.563 -1.043,0 -18.689,0 -18.689,0 v 46.143 h -18.318 v -58.281 z"
   id="path7490" />
	<path
   fill="#ffffff"
   d="m 475.064,186.785 -0.143,-0.248 c -0.01,-0.013 -3.631,-6.211 -7.361,-12.571 v 0 c -3.727,-6.348 -7.584,-12.893 -7.959,-13.435 v 0 c -0.387,-0.567 -0.613,-1.249 -0.615,-1.917 v 0 c -0.004,-0.489 0.129,-0.989 0.473,-1.383 v 0 c 0.342,-0.395 0.885,-0.617 1.523,-0.612 v 0 c 1.785,0 5.51,0 6.328,0 v 0 c 0.746,-0.022 0.852,-0.047 1.838,-0.849 v 0 c 0.404,-0.338 1.93,-2.08 3.283,-3.676 v 0 c 1.051,-1.238 2.031,-2.416 2.426,-2.892 v 0 c -0.459,-1.229 -2.35,-6.288 -2.793,-7.296 v 0 c -0.422,-0.961 -1.277,-1.254 -2.221,-1.266 v 0 c -0.521,0 -5.195,0 -9.736,0 v 0 c -3.635,0 -7.178,0 -8.453,0 v 0 46.143 h -19.32 v -58.778 -0.502 h 0.502 c -0.002,0 46.465,0 48.477,0 v 0 c 2.064,-0.058 3.209,0.617 4.086,2.345 v 0 c 0.92,1.688 7.891,16.075 8.588,17.771 v 0 c 0.221,0.538 0.32,1.051 0.32,1.54 v 0 c -0.002,1.177 -0.584,2.134 -1.279,3.052 v 0 c -0.914,1.191 -9.293,10.762 -10.809,12.49 v 0 l 12.535,22.083 h -19.69 z m 17.971,-1.001 -12.037,-21.207 0.236,-0.266 c 0.008,-0.016 10.066,-11.488 10.996,-12.705 v 0 c 0.662,-0.873 1.078,-1.627 1.076,-2.446 v 0 c 0,-0.353 -0.07,-0.728 -0.248,-1.16 v 0 c -0.643,-1.577 -7.668,-16.08 -8.539,-17.67 v 0 c -0.908,-1.55 -1.254,-1.767 -3.209,-1.824 v 0 c -1.889,-0.002 -42.963,-0.002 -47.975,0 v 0 57.278 h 17.314 v -46.143 h 0.502 c 0.02,0 17.646,0 18.689,0 v 0 c 1.141,-0.013 2.52,0.438 3.139,1.862 v 0 c 0.537,1.233 2.91,7.613 2.914,7.621 v 0 l 0.102,0.271 -0.184,0.225 c -0.021,0.021 -4.949,5.992 -6.02,6.914 v 0 c -0.951,0.836 -1.59,1.109 -2.482,1.084 v 0 c -0.818,0 -4.543,0 -6.328,0 v 0 c -0.814,0.045 -0.941,0.353 -0.998,0.996 v 0 c -0.004,0.43 0.164,0.953 0.441,1.35 v 0 c 0.809,1.18 13.697,23.227 15.215,25.82 v 0 z"
   id="path7492" />
</g><g
     id="g7500">
	<path
   fill="#231f20"
   d="m 310.5,186.286 c 0,0 0,-37.282 0,-38.549 0,-1.266 0.297,-1.786 0.893,-3.053 0.598,-1.267 7.447,-13.851 8.193,-15.041 0.744,-1.191 1.787,-1.639 3.797,-1.639 2.01,0 48.24,0 48.24,0 v 12.063 c 0,0 -34.912,0 -36.252,0 -1.34,0 -1.936,0.076 -2.83,2.012 -0.894,1.936 -3.723,8.787 -3.723,8.787 h 36.711 v 12.138 h -36.711 v 11.021 h 42.805 v 12.262 H 310.5 Z"
   id="path7496" />
	<path
   fill="#ffffff"
   d="m 310.5,186.786 v -0.5 h 0.5 -0.5 v 0.5 H 310 v -0.5 c 0,-0.002 0,-37.283 0,-38.549 v 0 c -0.008,-1.356 0.355,-2.036 0.938,-3.266 v 0 c 0.629,-1.324 7.443,-13.847 8.223,-15.095 v 0 c 0.822,-1.356 2.164,-1.897 4.223,-1.874 v 0 c 2.01,0 48.238,0 48.24,0 v 0 h 0.498 v 13.063 h -0.498 c -0.002,0 -34.912,0 -36.252,0 v 0 c -1.342,0.082 -1.42,-0.131 -2.377,1.722 v 0 c -0.711,1.539 -2.688,6.288 -3.43,8.077 v 0 h 36.465 v 13.139 l -36.711,-0.002 v 10.021 h 42.805 v 13.263 z m 60.621,-1.002 v -11.26 h -42.805 v -12.022 h 36.713 v -11.137 h -36.961 l 0.285,-0.691 c 0.002,-0.005 2.828,-6.845 3.732,-8.805 v 0 c 0.832,-2.019 1.945,-2.384 3.285,-2.302 v 0 c 1.244,0 31.479,0 35.752,0 v 0 -11.063 c -5.002,0 -45.855,0 -47.742,0 v 0 c -1.963,0.024 -2.707,0.378 -3.373,1.402 v 0 c -0.711,1.135 -7.6,13.782 -8.164,14.989 v 0 c -0.607,1.303 -0.836,1.666 -0.846,2.842 v 0 c 0,1.178 0,33.604 0,38.046 v 0 z"
   id="path7498" />
</g><g
     id="g7510">
	<g
   id="g7504">
		<path
   fill="#231f20"
   d="M 411.845,146.324 V 128.006 H 389.99 v 18.318 h -18.367 v 21.407 h 18.367 v 18.555 h 21.855 v -18.555 h 17.945 v -21.407 z m -11.019,17.164 c -3.559,0 -6.441,-2.884 -6.441,-6.441 0,-3.557 2.883,-6.44 6.441,-6.44 3.557,0 6.439,2.884 6.439,6.44 0,3.557 -2.883,6.441 -6.439,6.441 z"
   id="path7502" />
	</g>
	<g
   id="g7508">
		<path
   fill="#ffffff"
   d="m 389.489,186.786 v -18.555 h -18.367 v -22.409 h 18.367 v -18.318 h 22.856 v 18.318 h 17.944 v 22.409 l -17.946,-0.003 v 18.558 z M 372.121,167.23 h 18.369 v 18.554 h 20.854 V 167.23 h 17.944 v -20.407 h -17.443 v -0.5 h 0.5 -0.5 v 0.5 h -0.501 V 128.504 H 390.49 v 18.319 l -18.369,-0.002 z m 28.705,-3.244 v -0.498 -0.502 c 3.279,-0.006 5.932,-2.658 5.938,-5.939 v 0 c -0.006,-3.281 -2.658,-5.936 -5.938,-5.941 v 0 c -3.283,0.006 -5.936,2.66 -5.941,5.941 v 0 c 0.006,3.281 2.658,5.934 5.941,5.941 v 0 0.5 0.498 c -3.836,0 -6.941,-3.107 -6.944,-6.939 v 0 c 0.003,-3.834 3.108,-6.94 6.944,-6.942 v 0 c 3.832,0.002 6.938,3.108 6.938,6.942 v 0 c 0,3.832 -3.106,6.939 -6.938,6.942 v 0 z"
   id="path7506" />
	</g>
</g><polygon
     fill="#ffffff"
     points="400.675,179.758 407.08,173.578 394.496,173.578 "
     id="polygon7512" /><polygon
     fill="#ffffff"
     points="423.574,157.083 417.392,150.681 417.392,163.263 "
     id="polygon7514" /><polygon
     fill="#ffffff"
     points="378.001,156.86 384.181,163.263 384.181,150.681 "
     id="polygon7516" /><g
     id="g7526">
	<g
   id="g7520">
		<path
   fill="#231f20"
   d="m 543.201,128.005 h -35.049 c -6.496,0 -11.766,5.268 -11.766,11.766 v 34.75 c 0,6.498 5.27,11.766 11.766,11.766 h 35.049 c 6.498,0 11.766,-5.268 11.766,-11.766 v -34.75 c -0.003,-6.499 -5.268,-11.766 -11.766,-11.766 z m -17.526,46.663 c -9.705,0 -17.574,-7.868 -17.574,-17.573 0,-9.705 7.869,-17.572 17.574,-17.572 9.705,0 17.574,7.867 17.574,17.572 0,9.705 -7.869,17.573 -17.574,17.573 z"
   id="path7518" />
	</g>
	<g
   id="g7524">
		<path
   fill="#ffffff"
   d="m 508.151,186.785 c -6.772,0 -12.266,-5.491 -12.266,-12.266 v 0 -34.749 c 0,-6.776 5.493,-12.266 12.266,-12.268 v 0 h 35.05 v 0.501 0.499 h -35.05 c -6.22,0.014 -11.255,5.046 -11.266,11.268 v 0 34.749 c 0.011,6.222 5.046,11.254 11.266,11.265 v 0 h 35.05 c 6.221,-0.011 11.253,-5.043 11.266,-11.265 v 0 -34.749 c -0.002,-6.224 -5.045,-11.268 -11.266,-11.268 v 0 -0.499 -0.501 c 6.774,0.002 12.262,5.493 12.264,12.268 v 0 l 0.002,34.749 c -0.002,6.774 -5.493,12.266 -12.266,12.266 v 0 z M 507.6,157.094 c 0,-9.981 8.094,-18.071 18.073,-18.073 v 0 c 9.982,0.002 18.074,8.092 18.076,18.073 v 0 c -0.002,9.982 -8.094,18.073 -18.076,18.073 v 0 -0.499 -0.501 c 9.43,-0.018 17.059,-7.646 17.075,-17.073 v 0 c -0.017,-9.428 -7.646,-17.056 -17.075,-17.072 v 0 c -9.43,0.017 -17.056,7.645 -17.072,17.072 v 0 c 0.017,9.428 7.643,17.056 17.072,17.073 v 0 0.501 0.499 c -9.979,0 -18.073,-8.091 -18.073,-18.073 z"
   id="path7522" />
	</g>
</g><rect
     x="209.64999"
     y="128.36"
     fill="#c0392b"
     width="6.0570002"
     height="6.2690001"
     id="rect7528" /><polygon
     fill="#ffffff"
     points="400.898,134.187 394.496,140.366 407.08,140.366 "
     id="polygon7530" /></g>
</svg>
