<svg enable-background="new 0 0 566.929 71.161" height="71.161" viewBox="0 0 566.929 71.161" width="566.93" xmlns="http://www.w3.org/2000/svg"><g fill="#4d4d4d"><path d="m0 0h30.1v10.491h-19.554v12.727h19.554v10.824h-19.554v22.618h-10.546z"/><path d="m64.333 56.66h-10.254v-8.821h-19.864l-5.885 8.821h-12.074l39.725-56.66h8.351v56.66zm-10.254-19.526v-16.532l-12.133 16.532z"/><path d="m68.35 0h11.893l16.771 38.086 16.886-38.086h12.02v56.66h-10.59v-28.565l-13.08 28.565h-10.708l-12.607-28.565v28.565h-10.585z"/><path d="m323.29 0h11.9l16.77 38.086 16.88-38.086h12.02v56.66h-10.59v-28.565l-13.08 28.565h-10.71l-12.6-28.565v28.565h-10.59z"/><path d="m129.26 0h10.956v56.66h-10.956z"/><path d="m143.23 0h10.95v46.331h14.28v10.329h-25.23z"/><path d="m156.29 0h12.17l11.51 23.218 11.17-23.218h12.07l-18.15 36.039v20.621h-10.62v-20.621z"/><path d="m262.76 15.627c-4.812-9.167-14.422-15.419-25.493-15.419-15.891 0-28.772 12.882-28.772 28.772s12.882 28.773 28.772 28.773c11.15 0 20.819-6.342 25.595-15.616l-13.038.107c-3.214 2.964-7.508 4.774-12.225 4.774-9.962 0-18.038-8.076-18.038-18.039s8.076-18.038 18.038-18.038c4.65 0 8.89 1.76 12.089 4.649l13.07.037z"/><path d="m291.23 57.903c-15.973 0-28.923-12.949-28.923-28.923s12.95-28.923 28.923-28.923c15.974 0 28.923 12.949 28.923 28.923s-12.95 28.923-28.92 28.923zm18.41-28.923c0-10.106-8.193-18.299-18.299-18.299s-18.3 8.193-18.3 18.299 8.193 18.299 18.3 18.299c10.1 0 18.3-8.193 18.3-18.299z"/><path d="m403.42.007c9.588.771 17.129 8.796 17.129 18.583 0 9.786-7.541 17.812-17.129 18.582l-8.281-.038v19.526h-10.624v-56.66h10.624l8.28.007zm-8.28 10.898v15.368l8.282-.006c3.624-.677 6.367-3.857 6.367-7.677 0-3.821-2.743-7-6.367-7.678l-8.28-.007z"/><path d="m537.27 57.397h-10.513v-56.909l14.607-.021 8.281.007c9.588.771 17.129 8.796 17.129 18.583 0 7.996-5.034 14.817-12.107 17.464l12.261 20.876h-11.51l-17.18-29.354h-.969v29.354zm12.38-30.663c3.623-.677 6.367-3.857 6.367-7.677 0-3.821-2.744-7-6.367-7.678h-12.377v15.363l12.38-.008z"/><path d="m434.4 32.74.006 8.282c.678 3.624 3.857 6.366 7.677 6.366 3.821 0 7.001-2.742 7.679-6.366l.008-8.282.025-32.252h10.878v32.252l-.007 8.282c-.771 9.588-8.796 17.128-18.583 17.128-9.786 0-17.812-7.54-18.582-17.128l.038-8.282-.018-32.252h10.916l-.05 32.252z"/><path d="m471.54 57.397h10.73v-46.183h9.63v-10.726h-29.66v10.726h9.3z"/><path d="m523.99 57.397h-29.49v-56.909h29.49v10.417h-18.92v13.514h18.92v10.624h-18.92v11.841h18.92z"/><path d="m0 65.649v5.512h555.42l11.51-5.512z"/></g></svg>