<svg enable-background="new -96 437.7 598.2 350.3" viewBox="-96 437.7 598.2 350.3" xmlns="http://www.w3.org/2000/svg"><path d="m203.2 610.3c15.9-18.6 39.5-30.3 65.8-30.3 5.3 0 10.5.5 15.5 1.4 3.4-9.3 5.2-19.3 5.2-29.7 0-47.8-38.8-86.6-86.6-86.6s-86.6 38.8-86.6 86.6c0 10.4 1.9 20.5 5.3 29.7 5.1-.9 10.3-1.4 15.6-1.4 26.4-.1 50 11.7 65.8 30.3zm81.3-29c-10.4 28.4-35.3 49.9-65.7 55.5 3.4 9.3 5.2 19.3 5.2 29.7 0 21.5-7.8 41.1-20.8 56.2 15.9 18.6 39.4 30.3 65.8 30.3 47.8 0 86.6-38.8 86.6-86.6 0-42.4-30.7-77.8-71.1-85.1zm-96.8 55.5c-30.5-5.5-55.4-27-65.9-55.4-40.4 7.4-71 42.7-71 85.1 0 47.8 38.8 86.6 86.6 86.6 26.3 0 49.9-11.8 65.8-30.3-12.9-15.1-20.8-34.8-20.8-56.2.1-10.5 1.9-20.5 5.3-29.8zm0 0c5 .9 10.2 1.4 15.5 1.4s10.6-.5 15.6-1.4c-3.6-9.8-8.9-18.7-15.5-26.5-6.7 7.7-12 16.7-15.6 26.5z" fill="#f4f4f4" stroke="#f4f4f4" stroke-miterlimit="10" stroke-width="4"/></svg>