<svg height="163.673" viewBox="0 0 598.672 163.673" width="598.672" xmlns="http://www.w3.org/2000/svg"><g fill="none" stroke="#f4f4f4"><path d="m185.71875-171.06836c-1.30678-.0511-2.5392.68483-3.47852 1.96289-.6696.91202-4.80752 6.67352-5.47851 7.01953-2.73271 1.41662-10.31452-.0182-18.63477-3.52734-1.41509-.59664-5.21803-1.93883-8.45117-2.98438-4.78858-1.54889-6.57431-1.87251-9.64648-1.74023l-3.77149.16797-3.9375 4.69336c-20.02762 23.87327-27.11957 33.68372-30.80273 42.60937-1.762214 4.27047-1.865022 6.02059-.60156 10.3125.22032.74847.51922 1.49411.85351 2.23828l2.68359.0723c.00001 0 4.24853-.92583 8.26368-1.07227.60242-.0211 1.1988-.0226 1.77539-.004v-.002c1.73006.0562 3.27647.32135 4.23242.94922 0 0 4.95883 7.10732 3.75586 14.031253l-4.73633 1.611328c4.54765 2.725946 9.89924 5.302694 16.01367 7.660157 6.77455 2.61171 7.10216 3.033016 4.95899 6.394531-1.50365 2.357042-2.37922 2.58594-7.14844 1.867187-4.80958-.725323-8.46798-1.039424-11.64648-.904297.0153.0498.0384.09606.0469.148438l.70313 7.466797c.13661.851403-.69267 1.535744-1.50196 1.238281l-9.17187-3.212891-.33985-.130859-.16992-.06641-2.9375 13.986328c1.98309 4.806155 5.14536 9.513962 8.09766 11.390625 2.1085 1.341709 3.03446.816799 2.39062-1.357422-1.22781-4.150166-.006-7.102964 3.26367-7.898438 2.99615-.728639 11.12332 1.607727 16.16211 4.646485 3.59739 2.170183 9.75171 8.020755 12.4336 11.822265 1.00753 1.428735 2.39629 2.984442 3.08789 3.451172l.002-.0059c1.63634 1.109598 1.75796 1.096972 5.14844-.552734 6.8269-3.322946 25.07979-16.662673 38.47656-28.119141 4.73386-4.04866 7.49795-11.076143 8.74414-22.226562.89851-8.039119.27307-11.550318-3.01758-16.927738-1.32235-2.16141-4.35687-5.80046-6.74023-8.08593-3.66826-3.51719-6.89253-5.92599-18.10547-13.5254-1.66154-1.12561-1.61961-2.36835.15625-4.70117 7.11387-9.74633 16.29708-30.73555 12.15039-37.0332-1.00464-1.10784-2.06565-1.62238-3.08203-1.66211zm-53.18555 21.17383c2.452.0839 5.85056 1.24874 11.69922 3.76758 10.54584 4.54212 11.96969 4.93226 19.44141 5.32422 6.03616.31746 6.41015.40489 6.41015 1.50585 0 1.39657-1.93482 5.07855-3.57812 6.81055h-.002c-1.11879 1.17992-2.69026 1.61141-3.39063.9336-.17586-.17113-2.59047-.77091-5.36523-1.33594-15.65969-3.17883-24.24707-5.65119-28.56836-8.22266-3.83312-2.28185-3.99116-5.65306-.36328-7.82617 1.11577-.66809 2.2456-1.00737 3.71679-.95703zm95.32032 8.56836-1.95313 2.94726c-1.07326 1.62075-4.59792 6.06346-7.83203 9.87305-5.09769 6.00372-9.23438 11.79586-9.23438 12.92969 0 .1902.88422.3457 1.9668.3457 1.78867 0 2.02072.18836 2.5625 2.07031.3662 1.28365.5957 10.90219.5957 25.300785v23.228516l-1.41406 1.193359c-1.5741 1.326254-1.41428 2.327908.99219 6.177734 1.11823 1.789643 8.22858 10.970809 8.98437 11.601563.18213.152049 1.0511 1.208679 1.9336 2.347656h.01c2.27225 2.932797 3.73735 2.77341 5.12696-.554687.60235-1.441684 2.06157-4.552008 3.24218-6.914063 1.18047-2.362194 2.67522-5.662417 3.32032-7.333984 1.09734-2.853848 1.10742-3.061524.17187-3.34961-3.11422-.969662-4.05495-1.523976-4.76562-2.810547-.62658-1.138977-.78711-5.432234-.78711-21.298828 0-22.905694-.19924-22.098514 4.6875-19.154294 4.32909 2.60767 4.88272 2.17282 4.40429-3.46094-.50028-5.88105-1.75524-8.70117-4.60546-10.35547-4.8944-2.84215-4.77149-2.53915-4.77149-11.66015 0-7.72556-.0705-8.23278-1.31836-9.63868l-1.3164-1.48437zm136.14062.008-1.6543 2.33594c-.90951 1.2842-3.45249 4.48192-5.65039 7.10742-12.13331 14.49077-13.42539 16.64453-9.98437 16.64453 1.08648 0 1.89875.38066 2.2793 1.06836.38276.68979.58984 9.65714.58984 25.314454 0 23.853636-.02 24.261326-1.18555 25.283203-2.21502 1.942527-1.06181 4.183297 7.86328 15.267578 2.62076 3.255553 5.14642 6.290631 5.61328 6.740234 1.29173 1.251901 2.20795.563217 3.83399-2.884765 5.01526-10.629387 7.23633-15.665061 7.23633-16.396485 0-.51602-.53097-.832031-1.39258-.832031-.76554 0-2.11122-.599354-2.99024-1.332031l-1.59961-1.332031-.1621-20.396485c-.18853-23.615121-.32663-22.970111 4.33593-20.070311 4.5626 2.8377 4.8861 2.60162 4.49414-3.27539-.39307-5.87353-1.54138-8.55606-4.39453-10.27149-4.48921-2.70207-4.55859-2.83695-4.55859-9.48632 0-7.52143-.42376-10.59201-1.68555-12.2129zm-248.37695 8.83789c.55437-.0665 1.18991.48218 1.83593 1.67774 1.48262 2.74357 9.36277 8.79594 14.85938 11.41406 5.32131 2.53374 8.21182 3.47077 13.70898 4.4414 5.65688 1.00016 9.24805 2.72543 9.24805 4.44141 0 1.13717-2.57374 4.68845-4.27344 5.89648v-.004c-.3137.22487-.82928.40865-1.14062.35156-2.89701-.28307-10.38012-2.70078-13.52539-4.37109-.54471-.28809-1.25958-.52344-1.59375-.52344-1.61114 0-10.39239-5.64112-14.11133-9.06445-5.60104-5.15464-7.07216-7.61417-6.58789-11.02539.28987-2.04781.86731-3.14895 1.58008-3.23438zm194.66601 4.55078c-3.63693 0-16.64938 13.73837-21.10156 22.28125-1.53901 2.94993-1.61537 3.35903-.89258 4.69336.58509 1.08022 1.68459 1.727186 4.2168 2.480471 5.42114 1.612947 5.10958 2.860343-1.05274 4.224609-1.72461.381516-3.45374.778383-3.8457.882812-1.61615.429414-.70324 2.859505 1.83008 4.871094 1.68647 1.339621 2.74475 2.708131 3.13086 4.06836.31983 1.12742.59054 6.924342.5918 12.880859.004 14.232064.28684 15.580795 4.11132 19.552734 1.65765 1.721694 3.2131 3.469844 3.46094 3.890625.24562.417857 1.87196 1.885753 3.61328 3.259766 1.74189 1.374849 3.36333 2.498047 3.60547 2.498047.23977 0 2.58727-1.735137 5.2168-3.857422 2.62953-2.122842 5.22565-3.867187 5.76172-3.867187.56614-.0029 1.80842 1.252351 2.94336 2.970703 1.08035 1.637036 2.26591 3.155976 2.6289 3.375.96605.578678 3.53541-1.968539 8.63477-8.558594 6.81075-8.799922 8.08622-12.148438 4.6289-12.148438-1.23867 0-1.37062-.168931-.98437-1.242187.24492-.682969.62877-9.317107.84766-19.1875.22139-9.869558.58778-18.735132.81836-19.701172.56197-2.36373-1.49157-6.01866-3.61719-6.43359-2.54376-.4982-8.14801-4.4113-12.32227-8.60352-4.5392-4.55814-10.07392-8.33008-12.22461-8.33008zm93.125.12305c-.96218.0321-1.83478.49496-3.54492 1.71094-5.04185 3.58694-15.02118 15.51186-17.74414 21.20508-1.25663 2.62257-1.29798 2.96168-.50195 4.13867.5596.827774 2.10536 1.643422 4.35742 2.296872 4.64586 1.349368 4.78505 2.658218.41016 3.890625-1.69343.475641-3.60784.869141-4.25391.869141-.64565 0-1.45896.511538-1.80469 1.138671-.54944.995283-.2672 1.486765 2.23438 3.873047 1.7558 1.674492 3.09194 3.529655 3.45507 4.794922.32569 1.134939.56401 7.033944.6211 13.107422.0114 6.074035.23068 12.076526.48437 13.339844.36356 1.815819 1.46129 3.35089 5.24414 7.326172 2.63246 2.765152 5.67944 5.645853 6.77344 6.40039h.008c1.09456.753842 2.11792 1.365235 2.2793 1.365235.16096-.0024 1.76954-1.230298 3.57422-2.726563 4.63082-3.841194 6.57174-5.107857 7.52344-4.90039.45406.09747 1.79904 1.52607 2.98828 3.173828 1.18896 1.647339 2.46499 3.089509 2.82812 3.205078.86914.274301 7.41549-7.164241 11.39258-12.947266 3.47639-5.054525 3.91188-7.447238 1.41602-7.792969-1.14594-.157897-1.27947-.394328-.9336-1.658203.22307-.810512.59168-9.547575.81641-19.417968.22599-9.869698.61348-18.511388.86133-19.203128.53203-1.48136-1.77196-6.19531-3.02735-6.19531-2.11309 0-7.94699-3.89206-12.77539-8.52344-5.85918-5.61997-8.96196-7.84658-11.65429-8.37109-.37466-.0726-.70662-.11031-1.02735-.0996zm124.97852 1.25781c-.32276 0-2.61445 1.98587-5.0918 4.41602-5.14043 5.0406-5.53854 6.29574-2.82031 8.88086l1.69336 1.60937.0566 24.195314c.008 15.650494-.19563 24.571232-.57617 25.261719-.32443.589678-1.04432 1.066406-1.59766 1.066406-1.41397 0-6.15033-3.00449-6.91406-4.386718-.40978-.804664-.58794-7.73217-.4668-23.089844l.16211-21.941407 1.56055-2.48437c2.13969-3.41067 2.02567-4.88405-.56446-7.25196-2.13398-1.95046-6.69611-5.51746-7.90429-6.17968-1.85885-1.01924-9.1318 9.45423-10.91406 15.71679-.48303 1.68995-.40622 2.17244.47851 3.03711.87623.85827.9693 1.39127.53125 3.23633-.28363 1.21444-.55033 11.651255-.60742 23.191406l-.0879 20.980468 5.04687 4.417969c2.77476 2.430004 6.96773 6.313922 9.31836 8.632813h-.0332c2.39157 2.358574 4.77593 4.192912 5.41406 4.25.84379.02478 1.58379-.844981 2.84961-3.353516.94015-1.863578 2.5395-4.242815 3.55469-5.287109 1.67198-1.720162 1.95417-1.828046 2.99805-1.138672.6334.41911 1.9974 2.491816 3.0332 4.605469l1.88281 3.841796 2.26367-3.013672c2.83408-3.771991 6.73493-10.184863 8.17188-13.433593 1.08648-2.43989 1.08648-2.500231 0-4.564453-1.00837-1.914819-1.09961-3.358014-1.09961-17.0625 0-14.751844.72682-26.086766 1.79883-28.029296.42259-.76596.10914-1.58271-1.38086-3.58789-3.74902-5.04715-10.17482-12.53516-10.75586-12.53516zm39.80273.38867c-.60976-.0578-1.0733.50785-1.57422 1.67969-1.07033 2.5045-8.05001 9.14717-12.47851 11.87695-5.26937 3.24915-5.32075 3.30788-4.75586 5.31446.89698 3.19888.53595 17.907039-.56445 22.925779-1.21333 5.533925-1.15751 5.628492 4.17187 6.927734 4.84344 1.180471 6.2818 2.099574 5.84375 3.738281-.18449.692994-2.59911 5.678426-5.36523 11.078125-4.90582 9.578687-5.01121 9.860082-4.24219 11.59375.85409 1.926376 2.92478 4.263672 3.77734 4.263672.29115 0 1.50524-.493215 2.69727-1.095703 3.22422-1.628821 5.75665-.765317 9.83984 3.355469l-.0391-.0078c1.77767 1.793681 3.52734 3.261719 3.88477 3.261719.35854 0 2.47683-2.085294 4.70507-4.634765 2.38977-2.734521 5.89241-5.91246 8.54102-7.75 6.35363-4.409012 8.65361-7.679835 6.7168-9.556641-.48428-.47035-.48428-1.866616 0-5.533203.36021-2.696369.64843-8.129292.64843-12.074219 0-5.452749.20017-7.431126.83594-8.246094.46283-.589539.79838-1.878445.85547-2.865234l.0566-1.794922h-4.13086c-3.13372-.0013-4.58563-.271162-6.01172-1.113281-1.03343-.610982-1.7729-1.290754-1.64062-1.515625 1.65834-2.827114 7.75459-15.732949 8.03711-17.015629.29101-1.31414-.0525-2.5046-1.51367-5.24023-2.04223-3.82212-3.24616-4.57806-4.14258-2.59766-.77181 1.7068-2.82729 1.83767-6.7168.42774-2.25206-.81678-3.74042-1.81365-4.98828-3.3418-1.08168-1.32103-1.8375-2.00278-2.44727-2.06055zm-101.36133.1875c-.4979.0529-.98061.38243-1.45703.98243-2.23117 2.81291-9.42789 9.31621-15.77929 14.26171-7.28041 5.66955-10.01412 8.00304-9.95703 8.63477.005.21554.38047 1.38503.83007 2.599609 1.14678 3.132049 1.12077 26.384831-.0566 35.0625-.97022 7.125431-1.02229 8.842058-.28906 9.552735.27904.269845 2.52906 1.280608 5 2.246094 2.47164.966042 7.12943 3.336464 10.35156 5.265624l5.85938 3.507813 1.71289-1.589844c.94293-.873726 2.23617-2.406508 2.87305-3.404297.95044-1.488189 1.30921-1.693973 1.98828-1.146484 1.25816 1.011573 2.43751 4.094762 3.66992 9.587891 1.27209 5.670658 1.08072 7.271967-.96484 8.02539-3.11548 1.147471-3.91031.728816-9.2461-4.878906-6.3993-6.725535-9.27327-8.385497-14.80664-8.546875-2.61171-.07658-4.24352.131122-4.85742.626953-2.19553 1.765415-1.73547 7.41659 1.08594 13.332031 1.38097 2.895899 4.48035 6.625 5.5039 6.625.25941 0 .41504-1.026425.33985-2.28125-.11822-1.944198.10894-2.477762 1.54297-3.601562 2.30454-1.807604 3.60308-1.367724 7.70312 2.605469 1.88419 1.825983 4.20777 3.778856 5.16406 4.34375l.0234.002c1.41843.835714 2.11497.92241 3.77734.478515 7.13003-1.907299 15.36606-11.866138 18.59961-22.490234 1.04555-3.445754 1.20089-14.00742.33399-22.953125-.29449-3.036948-.70856-10.770237-.92188-17.185547l-.38672-11.664062 1.51368-.960938c.83223-.528552 1.51367-1.409403 1.51367-1.957033 0-.54693-2.50173-3.53111-5.55664-6.63086-6.25045-6.3404-9.03619-9.90668-11.51172-14.74218-1.3331-2.60311-2.5003-3.82335-3.59571-3.70704zm-208.82421.008c-.41619-.15512-1.66702.9683-2.90625 2.60937-4.99396 6.61192-9.79883 13.5739-9.79883 14.19922 0 .36829.67528 1.1837 1.5 1.8125l1.5 1.14258-.28321 18.539061c-.26107 17.076443-.37884 18.808022-1.5 21.970703-.66974 1.888223-1.21679 3.648951-1.21679 3.914062 0 .612792 10.57194 15.983256 12.13281 17.638672h-.0371c1.98987 2.111842 3.0514 1.608739 4.44922-2.105469.94307-2.50742 1.87957-3.839627 3.73437-5.3125 2.92417-2.321675 3.08466-3.480803.90821-6.535156l-1.56641-2.199219.0566-22.492187c.0139-15.291257.21984-22.682427.63477-23.085937.43749-.42357 1.41796.48246 3.42969 3.16602 1.54931 2.06826 3.12319 4.444135 3.48632 5.279292 1.11364 2.530395 1.50559 2.28535 6.55078-4.097652 1.79201-2.26766 3.29733-4.47992 3.24024-4.91211-.0324-1.32514-9.55201-18.46094-10.25586-18.46094-.36133 0-.99298.94713-1.40234 2.10156-.89684 2.52817-3.63157 6.46219-4.78907 6.89453-1.19885.44543-4.67879-3.58524-6.01953-6.97265-.61432-1.55183-1.44414-2.94393-1.84765-3.09375zm46.25195 12.72851c4.24079-.22154 10.517 3.07597 12.26953 6.65625 0 .47509-2.19233 1.81195-5.33594 3.25586-2.93516 1.34714-5.96759 2.44922-6.73828 2.44922-1.87834 0-3.55387-1.9213-4.43164-5.08398-.91647-3.29705-.46482-5.02327 1.70703-6.52149.68133-.46568 1.55066-.70473 2.5293-.75586zm93.89258.18555c4.33479.11623 10.3843 3.07877 11.47851 6.88867-.14355.36244-2.1118 1.47696-4.37304 2.47461-2.26181.99835-4.55979 2.03778-5.10157 2.31445v-.004c-.54414.2768-1.7518.50195-2.68554.50195-1.80078 0-2.50205-.8015-3.84961-4.41602-1.23408-3.30985-.94528-5.25407 1.01562-6.85351.81692-.66825 2.0707-.94499 3.51563-.90625zm169.82812 3.93555c.80166.0517 2.1765.55661 4.59961 1.62109 3.34355 1.46995 3.78125 1.83871 3.78125 3.19726 0 1.6266-5.16273 10.949675-6.71094 12.119146l-.002-.002c-1.19773.906587-1.56639.874384-2.71289-.236328-.84727-.820676-.91015-1.801183-.54687-8.419924.22821-4.12078.52816-7.68152.66601-7.90625.16928-.27219.44479-.40407.92578-.37304zm-107.33789.51171c1.18799 0 4.57362 3.44878 5.84961 5.95899 1.26415 2.57119 1.32227 2.805116 1.32227 22.476561l-.002 19.873047-1.71093.132813c-2.24914.168897-5.0153-1.329687-6.86133-3.720703l-1.48828-1.929688.21875-19.324219c.18449-16.417001.35715-19.637191 1.15429-21.396481.51533-1.13898 1.20053-2.07032 1.51758-2.07032zm-295.13281.11133c.75811-.0723 1.72233.0813 3.11328.38281 4.59392.99654 11.36581 5.21176 16.92188 10.533208 6.69309 6.410019 9.02157 11.141569 8.13281 16.527344-.21513 1.302722-.68875 2.261719-1.11524 2.261719-.40769 0-1.98019-2.291696-3.49609-5.091797-2.15918-3.987534-3.3698-5.540386-5.58203-7.160156-4.10408-3.005898-15.1317-8.177735-17.43555-8.177735-.57756 0-1.95666-.418683-3.06445-.931643-2.47275-1.14246-2.61406-2.58533-.56445-5.73242 1.13593-1.74223 1.82632-2.49089 3.08984-2.61133zm247.2207 11.224612c.0807.000407.14048.01.17578.03125.27667.160264.49024 7.868938.49024 17.128906 0 18.007258-.0671 18.487217-3.01563 21.611328h-.002c-1.60654 1.703314-2.70875 1.562035-4.89453-.623047-2.41678-2.416358-2.87413-4.410432-3.28906-14.421875-.42148-10.102644.46228-19.404036 1.94726-20.49414 1.38056-1.013749 7.37798-3.238535 8.58789-3.232422zm-93.73633.08398c.25958-.01657.44333.01029.52539.08984.25426.253555.40245 8.305954.31055 17.892578l-.16797 17.429688-1.76758 2.121093c-2.43529 2.922354-3.63494 2.953985-6.10546.15625-2.63121-2.961758-2.82221-4.568777-2.57422-20.488281.17224-11.235217.2976-12.609389 1.24804-13.625 1.13477-1.214445 6.71426-3.460172 8.53125-3.576172zm-168.41406 15.414063 5.62305 1.554687c12.80987 3.541273 15.44927 4.378431 18.71875 5.933594 1.88599.897397 4.11001 2.206998 4.94336 2.910156 1.90396 1.607657 3.42048 4.399863 2.98828 5.496094-.18171.45935-2.26854 2.214899-4.63867 3.900391-4.83314 3.437539-7.15905 3.923789-9.03516 1.886718-3.63999-3.952863-14.16244-10.934622-18.58203-12.330078-1.66015-.523957-3.33837-1.208192-3.73047-1.519531-1.33433-1.062813-.75692-3.188696 1.50195-5.535156zm421.23633 1.331665c.3151.0086.63454.118717.98438.332031.8559.522844 1.02397 1.669442 1.15624 8.121094.11933 5.659659-.0488 7.996569-.68359 9.466797v-.02734c-.64788 1.502113-1.14188 1.928125-2.15234 1.841797-.72154-.06335-3.17126-.194399-5.44336-.298828-3.82337-.176416-4.12695-.283293-4.12695-1.410156.002-.670437.91132-2.832924 2.02148-4.806641 1.11015-1.974134 2.16706-4.034241 2.3457-4.570312.73881-2.208196 4.06072-7.839069 4.94141-8.375.33174-.19048.64193-.282001.95703-.273438z" stroke-width="2" transform="matrix(1.00000000691 0 0 1.00000000691 -1.41426508894 181.01930987273)"/><path d="m-1914.8972 442.16598-.513.0642-.4442.70639c-2.2802 3.57107-3.0628 5.02192-3.3944 6.31179-.1584.61724-.1352.86669.1212 1.45091.5563 1.269 2.329 2.39147 4.9896 3.16465.978.28423 1.0269.3419.7984.83667-.1601.34697-.2755.39002-.9423.34623-1.4855-.0975-2.1666.0103-3.0101.49245-.5212.29702-.595.48748-.4899 1.24595.1226.8786 1.0529 2.27099 1.7644 2.63752.315.1623.428.0784.2977-.21757-.2484-.56482-.1355-.99339.2966-1.14323.3962-.13725 1.5561.0904 2.3049.45479.5348.26027 1.4878 1.00678 1.9286 1.50575.1659.18756.3867.38954.4903.44684.2455.13569.2645.13088.6968-.13967.8705-.54502 3.1066-2.62469 4.7192-4.38338.5697-.62146.8118-1.63584.7665-3.20747-.032-1.13311-.1834-1.6181-.738-2.32977-.2231-.28616-.711-.7528-1.0817-1.04359-.5702-.4475-1.0525-.746-2.7348-1.67389-.2492-.13746-.2697-.31486-.072-.66167.4667-.81736.9002-2.70338.8439-3.66382-.034-.57892-.039-.59252-.3255-.85124-.3637-.32663-.603-.3217-.7875.0154-.075.13527-.2079.2929-.2928.34941-.3469.23035-1.4133.12238-2.6204-.26874-.2054-.0665-.7524-.21019-1.2153-.31781-.6858-.15942-.938-.18204-1.3561-.12715zm-.629 2.94424c.3375-.0164.8298.10111 1.6793.38342 1.532.50902 1.7308.54827 2.7616.51438.8329-.0272.8871-.0208.9084.13284.029.19505-.1654.73504-.3571.99639-.1303.1778-.3357.25726-.4446.17082-.029-.0218-.3761-.0794-.767-.12534-2.2056-.25799-3.4258-.50344-4.0674-.81116-.5696-.27313-.6591-.74013-.2044-1.08659.1401-.10626.2887-.16443.4911-.17484zm-1.9773 2.63136c.075-.0154.1722.0542.2838.21344.256.36548 1.4544 1.11751 2.2576 1.41769.7779.29066 1.192.38103 1.9633.45137.794.0726 1.3158.27166 1.349.51122.022.15886-.2584.68495-.4677.87376-.04.0349-.1083.0667-.1514.066-.4022-.005-1.4736-.25778-1.9365-.45366-.08-.034-.1829-.0569-.2284-.053-.2205.0192-1.5314-.66641-2.1068-1.10019-.8665-.65327-1.1187-.97499-1.1187-1.45693 0-.28935.061-.44937.1558-.46977zm7.2946 2.75314c.1019-.0192.2352-.004.4313.022.6483.0845 1.6609.59187 2.525 1.26893 1.0403.81549 1.4481 1.44774 1.4307 2.2102-.013.18443-.051.32176-.1083.32682-.056.005-.313-.29796-.5749-.67093-.3728-.53105-.5715-.73329-.9057-.93322-.62-.37092-2.2293-.95729-2.5448-.92992-.08.007-.2731-.0362-.4347-.0945-.3607-.13018-.4106-.33313-.1906-.79681.1213-.2569.2019-.37085.3724-.40262zm-1.526 3.90813.7978.15563c1.8226.34242 2.2022.42249 2.6799.60083.2756.1029.6038.26487.7316.35316.2919.20182.5542.57073.5159.72896-.015.0665-.2677.33385-.5597.59734-.5952.53737-.9032.63728-1.1993.37514-.5749-.50871-2.1529-1.36191-2.785-1.50425-.2375-.0535-.4786-.12611-.5382-.16495-.2033-.13248-.1666-.44092.097-.79532l.2597-.34654zm-21.6714 4.60833c2.0834.55688 6.4808-.70427 7.4732-3.14252l.3136 6.49741c-3.1821 2.15329-7.4662 3.15126-10.5607 4.21683.2855-.28638 1.2655-.87082 1.5037-1.52596.69-1.89714 1.2702-6.04576 1.2702-6.04576zm-.041.20631c2.0834.55688 6.4808-.70427 7.4732-3.14253l.3136 6.49742c-3.182 2.15328-7.4662 3.15126-10.5607 4.21682.2855-.28638 1.2655-.87082 1.5037-1.52596.69-1.89714 1.2702-6.04575 1.2702-6.04575zm-18.7202-6.80272c1.281-1.39209 4.3212-6.45228 14.2466-7.93824 0 0 2.4973 6.53105 4.3966 7.86104 4.6017 2.32853 6.7598 3.48625 7.5834 3.95197l-.1127 5.26607c-.016.72627-.8244 1.14148-1.8086 1.49088l-.036-3.02432c-.2206 1.11106-.836 2.75594-1.0177 3.74651-.6799.77176-1.8037.97481-2.3401 1.03743-.161.0837.7828-2.21369-.134-3.22681-.1831.56183-.7996 3.5287-1.0569 3.6942-2.6483 1.61562-6.4512 1.50436-7.0294-.73464-1.3769-.68356-2.5406-1.95758-2.3977-2.8107 0 0 1.0716-1.33977 2.2794-1.27739.1808-.12264.4808 2.00697 1.7485 2.8132.725-4.19207-2.5565-3.13171-3.1792-8.09818l-.1293 2.12774c-9.0127.12499-7.8014-3.48316-11.013-4.87873zm24.4892-66.67842c-6.6178-.0563-14.0153 1.38748-15.682 5.60782-.013.0544 2.1917-.23461 3.7278-.29776-1.9865.1612-10.0608 2.36139-10.3208 7.27468-.352.27324 3.6723-.60573 3.6723-.60573-7.4819 4.26671-9.7228 6.65445-8.2628 11.6827.017.42963 1.0328-.81705 3.1703-2.25364-6.8734 8.81606 5.2097 19.91453 13.7115 24.00034 1.0702.6261-1.5852-2.76857.7094-8.40881.2996-.73639-2.7784-2.46696-2.9513-3.14399-.3171-1.70793 4.1542-1.91431.8217-5.95228 1.7995-2.38492 5.5241-1.80233 8.1242-3.48847.5467-.36346.9884-.76061 1.3545-1.16185-2.0479-.0857-3.4685-.39379-3.5746-.91808-.232-1.14629 5.2052-3.42631 11.2171-4.53209 1.2574-.23128 2.4927-.41234 3.6826-.56049 9.3096-4.21601 1.1883-16.17094-6.6295-17.12996-.8946-.0656-1.825-.10434-2.7704-.11239zm17.8842 17.60461c.232 1.1463-4.6567 3.79162-10.6687 4.8974s-12.3606.94191-12.5926-.20433c-.232-1.14628 5.2045-3.42569 11.2164-4.53146 6.0121-1.1058 11.8129-1.30785 12.0449-.16155zm-4.409-.48086c-6.8128-.0274-19.473 2.81402-18.7029 6.16122l3.2721 25.75601c8.1057 3.5926 15.6672 3.77644 18.93 2.06229l-3.4904-15.69813-5.7017.1615-2.3216-4.18689c5.5759.68112 12.4134-2.25329 13.4639-3.07705l-.076.48126.1308 4.05328-3.0003 1.52174 3.6817 15.7878c.8645-.71338 5.107-3.33395 5.107-3.33395-.5731-1.86814-7.1446-28.61799-7.1446-28.61799-.2576-.7339-1.8776-1.0619-4.1485-1.07107zm2.2419 27.96792c-.018.00032-.037.004-.055.004l1.3589 6.11284c-3.2628 1.71414-10.8254 1.53017-18.9311-2.06243l-.026-.20288c-1.3122-.14512-2.5324-.1322-3.6257.33571-10.1814 3.38208-14.6326 9.53138-16.4746 14.50266 2.0699-1.96155 5.5878-4.31331 11.836-5.24875 0 0 1.358 3.53931 2.8316 5.93768l4.7145-2.51928c.4184 1.92489.5945 4.09937.616 6.37703 1.903.98639 3.2924 1.72125 3.8183 2.01864l-.1138 5.26626c-.016.72627-.8243 1.14086-1.8085 1.49026l-.035-3.02431c-.2206 1.11106-.8357 2.75625-1.0174 3.74682-.4451.50532-1.0721.7539-1.6085.89182-.6721 4.85777-1.6304 9.33825-2.2623 12.20086-.8138 1.78432-1.5001 2.87639-1.1692 3.56874 1.2548 1.46069 3.0755.85188 5.5056.89766-.5667 1.9302-.9498 4.18738-.7152 6.01213-3.3374.89544-6.4015 3.31762-7.0426 6.30258h42.7038c-3.6751-3.57327-9.2535-6.22801-13.824-6.72295 1.594-2.07339 2.3369-4.10469 2.8244-6.4252 3.6038-.51599 7.7937-1.05763 8.4978-2.2799-.2569-9.01055-2.4218-22.58064-3.2812-28.38792-.053-.3582-.5005-3.5347-.5546-3.83293l.8246 2.69298 6.8923-3.09875c1.3126.68081-.9196-12.16932-2.6404-12.12204-1.8405.51013-8.342 1.12621-10.1005 1.61141-.2814.0776-.6113-.0984-.959-.37075-.9379.60522-1.8439 1.20229-2.1894 1.48735l-.9239-3.96284c-.9922-.96597-1.9943-1.21593-3.0652-1.19688zm-38.738 22.35098c-.01.0391-.016.0825-.022.12114.047-.003.082-.008.1285-.0117-.036-.0363-.07-.0738-.1066-.10947zm37.5076 27.83764v.003c-.4385 1.90855-.4539 3.75185-.045 5.16555-3.0172-.19745-5.8603.36635-8.6525.24376-.064-.002-.1258-.005-.1898-.007.7848-1.67799 1.2805-3.51076 1.426-5.23854 2.4143-.0114 4.9545-.0616 7.4616-.16639zm37.5717-51.70223c-.4309-.014-.8766-.012-1.3268.004-3.0006.10944-6.1756.80132-6.1756.80132l-12.843-.34739c-.3711 1.35143-.5727 2.57932-.6569 3.73222.7418-.11811 1.386-.23383 1.7851-.34447 1.7209-.0473 3.9516 12.8014 2.639 12.12059l-1.1283.50794c.3554.81186.711 1.65081 1.0539 2.5441.2447-.29466 6.1852-6.09398 8.2351-8.25117 0 0 1.1814 3.63633 1.7063 4.02998.8528.43737 3.6117 1.61875 5.8895-.63785l.4247-.7984 6.3668-2.16606c.899-5.17439-2.8068-10.48582-2.8068-10.48582-.7144-.46922-1.8701-.66735-3.163-.70937zm-6.9419 14.53332-1.8011 5.72166c-2.7263-.41292-5.1225-.81025-7.8089-1.20417-.347-.0514-.6891.11682-.8598.42328l-2.7294 5.19037c-.3024.54571.072 1.21967.6947 1.25088l7.4265.39848-8.2759 33.72424c-.06.25389 2.3142 2.65023 3.3191 3.65777h5.7479l.8247-3.47678-.4598-1.9369 1.0553-1.02756.87-3.94095-1.3852-1.43333 1.6552-.72251 4.9291-23.46903.127.0496.254.0978 6.8543 2.40105c.6048.2223 1.2245-.28912 1.1224-.92539l-.5255-5.58008c-.052-.32308-.2866-.58759-.6013-.67726 0 0-4.3208-1.40249-7.1273-2.0128l1.0393-5.8647c-1.7999.63946-3.5461-.11758-4.1935-.44956-.044-.0334-.099-.11821-.1518-.19413zm-41.1171-8.61316-3.182.0701c-.01.0122-.022.0229-.031.035.8954.15514 1.8165.30076 2.7703.37658.1437-.1696.2948-.32105.4423-.48168zm-6.7026 12.68254-4.7349 2.5295c.5351.87727 1.085 1.61709 1.5939 1.97339 1.6604.84022 2.6822 1.37178 3.7584 1.9296-.019-2.29805-.1955-4.49197-.6174-6.43249zm-10.642 7.33015-.1299 2.12811c-.9198.0128-1.7093-.0216-2.4317-.0803.078 4.14791.8073 9.21844 2.4741 15.50542 1.8091 6.82398-3.4444 6.15529-4.5161 12.1308-.1851 1.03203-3.007 1.8109-4.824.10071-.6859 1.98185-.6636 4.71313 1.4275 6.34492l4.0563-3.4403c3.4498.36762-.3635 4.81525-.3635 4.81525l9.3838.0453c.9912-2.58008 3.7689-4.62743 6.7755-5.43412-.2346-1.82475.1485-4.08047.7153-6.01067-2.4302-.0458-4.2508.56303-5.5057-.89766-.3309-.69235.3568-1.78442 1.1706-3.56874.6293-2.85053 1.5837-7.30517 2.2551-12.13956-.277.0703-.5361.12033-.7181.14158-.161.0837.7826-2.21407-.1343-3.22719-.183.56183-.7995 3.52877-1.0568 3.69427-2.6482 1.61562-6.4512 1.50481-7.0294-.73419-1.3768-.68356-2.5411-1.95808-2.3982-2.8112 0 0 1.0721-1.33954 2.2799-1.27716.1808-.12264.481 2.0079 1.7487 2.81413.725-4.19207-2.5564-3.13288-3.1791-8.09937zm43.2351 4.99478c.8173 5.94713 1.6252 12.69568 1.7763 17.99551-.7041 1.22227-4.894 1.76537-8.4978 2.28137-.4875 2.3205-1.2304 4.35034-2.8244 6.42373 4.2792.46339 9.443 2.82043 13.1 6.05153l3.6213.0175c0-.0162.0004-.032 0-.0482h-1.8289c-1.0049-1.00755-3.3789-3.40388-3.3192-3.65778l3.3995-13.85022c-1.3442-5.23592-3.2911-10.22769-5.4283-15.21349zm-15.4514 21.00376c-2.5071.10481-5.0473.15495-7.4615.16639-.1456 1.72778-.6413 3.56201-1.4261 5.24.064.003.1254.004.1898.006 2.7922.12259 5.6353-.43975 8.6525-.2423-.4086-1.4137-.3917-3.25846.047-5.16701v-.001-.001z" stroke-width="1.195711" transform="matrix(1.33811616058 0 0 1.33811616058 2623.2255437204 -504.0723484563)"/></g></svg>