<svg height="163.673" viewBox="0 0 598.672 163.673" width="598.672" xmlns="http://www.w3.org/2000/svg"><g fill="#f4f4f4"><path d="m37.5625 44.09375c-7.507737.221044-15.104994 2.292433-21.6875 7.375-8.7951018 6.791501-11.8197137 16.410747-11.875 25.15625-.055286 8.745503 2.7098086 16.631795 5.875 20.5 1.690454 2.113068 2.399277 3.47185 2.46875 4.21875.03474.37345-.0093.61192-.21875.9375-.2094.32558-.621235.73908-1.21875 1.1875-.787856.59066-1.8265757 1.66512-3.0625 3.09375s-2.6215262 3.17172-3.875 5.03125-2.3860545 3.83468-3.125 5.6875c-.73894546 1.85282-1.12704997 3.61058-.625 5.1875.8219427 2.58395 3.285968 7.55159 7.84375 12.46875s11.20547 9.72631 20.28125 11.71875c17.985029 3.94731 34.666594-.81196 43.40625-8.65625h.03125v-.0312c1.238087-1.29223 2.181724-2.24947 2.875-2.84375s1.113108-.79261 1.3125-.8125c.199392-.0199.406081.0594.90625.46875s1.173559 1.11937 2.09375 2.09375c2.041248 2.16145 6.352729 4.87887 11.59375 7.15625s11.37793 4.04955 17 3.9375c10.59874-.21319 21.71533-3.14816 28.71875-11.84375 6.0372 6.12192 14.17109 12.71875 24.75 12.71875 10.64103 0 11.4192-1.09375 15.34375-1.09375 3.78315 0 7.66892 1.97223 16.46875 1.3125 8.75646-.65648 12.77871-2.59375 16.09375-2.59375 1.71587 0 2.61255.27726 3.5625.59375s2.00623.6875 3.5625.6875c2.90744 0 10.96599-.39988 14.4375-1.09375 3.30429-.66045 2.41832-1.06329 7.8125.59375l.0937.0312c3.11844.95944 8.69753 1.12822 14.0625.9375 2.68248-.0954 5.30879-.2913 7.46875-.5625s3.79824-.56039 4.875-1.0625c3.10352-1.44914 6.00685-2.04882 11.25-1 2.6744.53498 5.70878 1.23818 8.5 1.625s5.33953.51837 7.25-.4375c1.31448-.65702 1.92436-.53508 3.21875-.25s3.11128.8125 6.03125.8125c2.805 0 7.09102-.0205 11-.15625 1.95449-.0679 3.81554-.15721 5.375-.3125s2.76773-.3172 3.65625-.6875c.91647-.3818 2.46303-.25921 4 .125s2.98394.96518 4 1.21875c.61312.15381 1.65501.28077 3.15625.4375s3.3773.30192 5.34375.4375c3.9329.27117 8.16298.45046 10.59375.21875 2.47842-.23625 4.51539-1.20896 6.625-2s4.30502-1.45336 7.25-1.25c3.02572.20894 6.96495.97316 10.625 1.4375s7.00078.75518 9.3125-.46875c2.68241-1.42057 6.72289-5.42073 8.875-16.5625l-1.96875-.375c-2.08189 10.77823-5.79416 14.10207-7.84375 15.1875-1.35628.71807-4.55705.70266-8.125.25s-7.51972-1.21444-10.75-1.4375c-3.31102-.22864-5.85711.51679-8.0625 1.34375s-4.07142 1.67925-6.125 1.875c-2.10123.20029-6.3619.0493-10.25-.21875-1.94405-.13404-3.80924-.28382-5.28125-.4375s-2.65637-.34356-2.90625-.40625c-.71094-.17743-2.26947-.76271-3.96875-1.1875s-3.60772-.72845-5.28125-.0312c-.40598.1692-1.60568.38307-3.09375.53125s-3.32087.2455-5.25.3125c-3.85827.13399-8.10125.15625-10.90625.15625-2.68903 0-4.19114-.47233-5.59375-.78125s-2.85598-.41548-4.5625.4375c-1.10953.55513-3.40572.58693-6.0625.21875-2.64724-.36686-5.66311-1.0506-8.375-1.59375h-.0312c-5.54485-1.10918-9.10027-.41661-12.46875 1.15625-.54124.25239-2.20034.64498-4.28125.90625s-4.65073.43774-7.28125.53125c-5.26103.18703-10.91469-.0772-13.40625-.84375-5.64103-1.73555-5.76991-1.28313-8.90625-.65625-3.00249.60013-11.32869 1.03125-14.03125 1.03125-1.24873 0-1.94545-.26324-2.9375-.59375s-2.23637-.6875-4.1875-.6875c-4.02096 0-7.74646 1.95623-16.25 2.59375h-.0312c-8.43395.6261-11.87267-1.3125-16.28125-1.3125-4.27545 0-4.83878 1.09375-15.34375 1.09375-10.13768 0-18.1104-6.64748-24.09375-12.84375l-.8125-.875-.6875.96875c-6.43375 8.7175-17.32208 11.66147-27.9375 11.875-5.16593.10295-11.094771-1.55063-16.15625-3.75s-9.279498-4.9962-10.90625-6.71875l-.09375-.0937c-.859449-.9116-1.560251-1.64857-2.21875-2.1875-.686519-.56187-1.464392-.96273-2.34375-.875-.879358.0877-1.620589.58099-2.4375 1.28125-.799804.68559-1.733064 1.64957-2.9375 2.90625-.02576.0269-.03647.0353-.0625.0625-8.108662 7.22826-24.208023 11.93392-41.5625 8.125-8.61622-1.89156-14.907782-6.47166-19.25-11.15625-4.342268-4.68469-6.7182427-9.52455-7.4063-11.6876-.25345-.79608-.062867-2.22861.59375-3.875s1.7054738-3.4999 2.90625-5.28125 2.5341118-3.47441 3.71875-4.84375c1.184638-1.36934 2.274606-2.43266 2.78125-2.8125.696985-.52308 1.276618-1.04865 1.6875-1.6875s.604388-1.4012.53125-2.1875c-.146277-1.5726-1.144704-3.110568-2.90625-5.3125v-.03125c-2.6608086-3.251795-5.4899637-10.888503-5.4375-19.1875s2.8438518-17.223251 11.09375-23.59375c8.268325-6.384244 18.262558-7.763001 27.65625-6.625s18.159195 4.800961 23.625 8.375c5.544012 3.624684 8.563241 6.563982 10 9.4375s1.405854 5.808646.5625 9.8125l-.15625.78125.71875.34375s.146645.03868.25.0625.229113.05571.375.0625c.291774.01357.657243-.0061 1.15625-.125.998015-.23772 2.479269-.834133 4.75-2.21875 4.254313-2.593178 11.713257-5.359043 19.9375-5.78125 4.04819-.20734 8.91991.519521 13.3125 1.75s8.33863 2.969226 10.40625 4.59375c1.19713.941057 2.19797 1.517354 3.15625 1.75s1.88712.06924 2.59375-.34375c1.41326-.825978 2.10039-2.238577 3.125-3.3125.98499-1.031505 2.07145-1.554107 3.71875-1.90625s3.83042-.502262 6.75-.71875c2.84914-.210776 6.63291-.217789 10.03125-.03125s6.51835.629436 7.6875 1.0625c1.68344.623346 3.33335.52506 4.875.03125s2.97862-1.347816 4.40625-2.28125c.12411-.08115.70848-.325763 1.5-.5s1.82155-.335713 3-.46875c2.3569-.266074 5.30737-.435384 8.3125-.46875 3.00513-.03337 6.08443.06308 8.625.3125 2.54057.249421 4.60626.733486 5.375 1.15625 2.15924 1.187958 3.48651 1.93279 5 2.1875s2.9919-.03097 5.34375-.6875c2.07634-.579745 5.52187-.636631 8.625-.4375s6.00361.653996 6.84375.875c1.83683.483187 4.82674 2.069632 8.09375.5625 1.1375-.525345 3.1253-.765923 5.1875-.625s4.20993.663687 5.84375 1.40625c3.7032 1.683554 6.76192 1.76895 10.40625-.28125 1.32983-.748126 5.65209-1.684132 10.4375-1.75 4.78541-.06587 10.15197.667866 14.0625 2.75 2.0973 1.116693 3.64624 1.857579 4.9375 2.28125s2.39095.535998 3.375.28125c1.96811-.509496 3.04164-2.054696 5.5-3.9375 2.11861-1.623016 6.813-2.27161 11.21875-2.21875s8.62383.695127 9.71875.96875c2.4.600463 6.24516 2.593394 9.65625 1.28125 1.12093-.431037 3.40509-.635091 5.5625-.53125s4.2943.521973 5.0625.90625c1.05473.527611 2.27052 1.217433 3.84375 1.40625s3.43225-.148279 5.71875-1.40625c1.30382-.71765 3.65946-1.291956 6.53125-1.5l-.15625-2c-3.03621.219956-5.57357.7444-7.34375 1.71875-2.0285 1.116029-3.37573 1.322433-4.5 1.1875s-2.08523-.636111-3.1875-1.1875c-1.3888-.694723-3.55516-1.013341-5.875-1.125s-4.68993.0083-6.375.65625c-2.19891.845856-5.6575-.648213-8.4375-1.34375-1.49408-.373377-5.64375-.97636-10.21875-1.03125s-9.48611.364016-12.4375 2.625c-2.61164 2.000196-3.72861 3.321246-4.78125 3.59375-.52632.136252-1.16779.105079-2.25-.25s-2.5688-1.061443-4.625-2.15625c-4.39647-2.340866-10.02691-3.037632-15.03125-2.96875-5.00434.06888-9.25283.837376-11.375 2.03125h-.0312c-3.24246 1.817282-5.1576 1.704194-8.5625.15625-1.92618-.875437-4.2822-1.406673-6.5625-1.5625-2.26859-.155027-4.46172.05271-6.125.8125-.009.0039-.0227-.004-.0312 0-2.33167 1.057356-4.49833-.09519-6.75-.6875-1.20886-.317996-4.01063-.731631-7.21875-.9375s-6.71959-.215255-9.28125.5c-2.28715.638469-3.41974.83279-4.46875.65625s-2.21924-.782708-4.375-1.96875c-1.38876-.763736-3.51189-1.11539-6.15625-1.375s-5.74938-.377759-8.8125-.34375c-3.06312.03401-6.08071.223355-8.53125.5-1.22527.138322-2.32378.302991-3.21875.5s-1.57911.372648-2.15625.75c-1.37737.900566-2.67015 1.66656-3.90625 2.0625s-2.36319.455654-3.59375 0c-1.74385-.645936-4.80234-.965289-8.28125-1.15625s-7.30439-.220224-10.28125 0c-2.90642.215512-5.14555.346893-7.03125.75s-3.43774 1.158505-4.71875 2.5c-1.24039 1.300077-2.05526 2.580978-2.71875 2.96875-.33174.193886-.56544.25326-1.09375.125s-1.33838-.535557-2.40625-1.375c-2.46348-1.935476-6.50119-3.690979-11.0626-4.96875s-9.60194-2.03616-13.96875-1.8125c-8.605757.441793-16.283313 3.263678-20.875 6.0625-2.054185 1.252575-3.24512 1.686333-3.96875 1.875.606908-3.585684.622404-6.786443-.875-9.78125-1.691741-3.383482-5.012512-6.477184-10.6875-10.1875-5.753195-3.761961-14.713942-7.537001-24.46875-8.71875-2.438702-.295437-4.934921-.417431-7.4375-.34375z"/><path d="m364.28125 67.53125-.28125 1.96875c2.56991.373299 5.56815 1.264829 8.1875 2.0625 9.25853 2.817489 17.42745 16.22503 18.0625 32.53125.14229 3.67757.19152 7.01049.125 10.0625l2 .0625c.0675-3.09599.0187-6.50432-.125-10.21875-.65895-16.91978-8.87928-31.121239-19.46875-34.34375-2.63465-.802329-5.71391-1.720299-8.5-2.125z"/><path d="m41.5 53.375c-6.476712-.455103-12.665702.732274-17.59375 4.1875-12.952863 9.080977-14.036475 25.568981-3.59375 36.3125 5.165937 5.313183 12.117497 9.51756 17.5 13.09375 2.691251 1.7881 4.973714 3.41958 6.40625 4.875.716268.72771 1.221212 1.39433 1.46875 1.96875s.279347 1.02516.125 1.5c-.365361 1.12402-1.239241 1.97816-2.65625 2.53125s-3.373022.75423-5.65625.40625c-4.566456-.69597-10.437028-3.53933-16.0625-9.375l-.71875-.71875-.71875.71875c-7.637667 7.92518-10.53125 11.4375-10.53125 11.4375l-.53125.625.53125.65625c8.919575 10.82162 22.005245 18.94487 40.625 15.71875 9.418698-1.63183 16.689642-7.1043 20.34375-14.375s3.676025-16.33439-1.21875-24.9375c-4.916696-8.641638-12.976257-12.362662-19.34375-15.3125-3.183746-1.474919-5.958873-2.788004-7.71875-4.28125-1.742452-1.478462-2.545018-2.981422-2.1875-5.4375.173605-.868716.697418-1.388536 1.90625-1.6875s3.062142-.236567 5.25.3125c4.375717 1.098134 10.16457 4.080948 15.8125 9.09375l.875.78125.625-1 7.78125-12.34375.4375-.71875-.625-.5625c-6.541151-5.95305-15.257885-10.516406-24-12.5-2.185529-.495899-4.372346-.817049-6.53125-.96875zm-.125 1.96875c2.041557.142748 4.125154.462461 6.21875.9375 8.106718 1.839422 16.242548 6.095215 22.4375 11.53125l-6.6875 10.65625c-5.568643-4.731713-11.202322-7.67121-15.75-8.8125-2.397017-.601558-4.488239-.732755-6.1875-.3125s-3.076855 1.570466-3.40625 3.21875v.03125c-.478371 3.109689.778158 5.56459 2.875 7.34375s4.975121 3.088794 8.15625 4.5625c6.362257 2.947412 13.861196 6.456638 18.4375 14.5v.03125c4.58308 8.07351 4.541984 16.32548 1.1875 23-3.358142 6.6818-10.056948 11.77933-18.90625 13.3125-17.524849 3.03641-29.561914-4.25656-38.15625-14.375.285627-.33959 3.008968-3.50922 9.1875-9.96875 5.647422 5.57712 11.556905 8.4749 16.4375 9.21875 2.553272.38914 4.814509.21888 6.65625-.5s3.274111-2.02877 3.84375-3.78125c.313153-.96341.206075-1.99294-.1875-2.90625s-1.05169-1.75729-1.875-2.59375c-1.64662-1.67292-4.029126-3.31722-6.75-5.125-5.441747-3.61556-12.284437-7.769683-17.1875-12.8125-9.693275-9.972481-8.764637-24.845477 3.3125-33.3125 4.457452-3.125274 10.21908-4.271994 16.34375-3.84375z"/><path d="m105.40625 74.125c-6.668432.315928-12.508502 2.329004-15.59375 4.25-4.097262 2.550912-8.182638 7.890364-10.65625 14.8125-2.473612 6.92214-3.293176 15.45602-.5625 24.3125 2.743263 8.89679 8.574294 14.49847 14.9375 17.53125s13.23671 3.57411 18.3125 2.4375c10.84475-2.42749 16.78452-7.87119 19.9375-12.71875s3.5625-9.1875 3.5625-9.1875l.0937-.78125-.75-.25-14.96875-5.1875-.8125-.28125-.40625.78125s-1.35561 2.72109-3.6875 4.96875c-1.16595 1.12383-2.55176 2.09766-4.09375 2.59375s-3.23812.56251-5.1875-.25c-3.97643-1.65675-5.924586-4.98962-6.5312-8.78125s.264969-8.00062 2-10.9375c1.65707-2.804167 4.68285-4.004597 7.9375-3.5s6.67165 2.754532 8.84375 7.03125l.40625.78125.8125-.28125s9.17751-2.999178 16-4.5625l1.0625-.25-.3125-1.03125c-4.48663-14.122095-14.11999-19.833429-23.46875-21.1875-2.33719-.338518-4.65219-.417809-6.875-.3125zm.0937 2.03125c2.11706-.112159 4.30632-.03648 6.5.28125 8.5467 1.237901 17.0682 6.093917 21.46875 18.8125-6.34505 1.532526-13.35194 3.760255-14.375 4.09375-2.45306-4.294306-6.16036-6.799087-9.875-7.375-3.9371-.610403-7.88582.912667-9.96875 4.4375-2.003969 3.392116-2.906636 7.98163-2.21875 12.28125s3.09548 8.37325 7.75 10.3125c2.36562.98599 4.62543.93569 6.5625.3125s3.5597-1.79471 4.875-3.0625c2.06026-1.98584 3.14092-3.83421 3.625-4.71875l13.375 4.625c-.13748.9441-.64758 3.73912-3.09375 7.5-2.90427 4.46519-8.3385 9.52024-18.71875 11.84375-4.56121 1.02139-11.06496.54747-17-2.28125-5.934994-2.82872-11.327463-7.94929-13.9062-16.3125-2.591324-8.40452-1.813888-16.46864.53125-23.03125 2.345138-6.562614 6.318012-11.586162 9.84375-13.78125 2.632752-1.639254 8.27383-3.601022 14.625-3.9375z"/><path d="m199.625 74.03125-1 .03125-20.71875.71875-1.03125.03125.0625 1.03125s1.15625 20.904746 1.15625 28.71875c0 3.9252-.20301 7.78695-1.40625 10.4375s-3.15736 4.20725-7.46875 3.9375c-2.08258-.13008-3.40537-.84262-4.40625-1.96875s-1.66642-2.72995-2.03125-4.5625c-.72967-3.6651-.31093-8.1863-.0937-11.375.4237-6.208438 2.71875-22.96875 2.71875-22.96875l.15625-1.125h-1.125l-21.28125-.15625h-.875l-.125.84375c-1.94544 12.611049-3.16098 23.60467-2.90625 32.6875s1.94601 16.3036 5.96875 21.3125c4.07046 5.06832 10.75648 7.02768 17 7.25s12.06184-1.15984 15.03125-3.46875c1.19101-.92609 1.89762-1.0316 2.0625-1s.26081.13553.40625.625c.29087.97893.125 2.75.125 2.75l-.1875 1.15625 1.1875-.0312 20.4375-.5625 1-.0312-.0312-1-2.59375-62.28125-.0312-1zm-1.9375 2.0625 2.53125 60.28125-18.3125.5c.0168-.68264-.0345-1.57573-.28125-2.40625-.24994-.84116-.83479-1.81994-1.9375-2.03125s-2.25776.28759-3.65625 1.375c-2.20959 1.71809-7.87527 3.27168-13.75 3.0625s-11.94646-2.07532-15.5-6.5c-3.60126-4.4841-5.28273-11.26383-5.53125-20.125-.24256-8.64877.92613-19.288307 2.78125-31.46875l19.28125.15625c-.20383 1.481502-2.20616 15.800347-2.625 21.9375-.21382 3.1393-.66033 7.83585.15625 11.9375.40829 2.05082 1.13673 3.97004 2.46875 5.46875s3.26083 2.49883 5.78125 2.65625c4.89461.30625 7.94849-1.88255 9.40625-5.09375s1.59375-7.29545 1.59375-11.28125c0-7.721798-1.0484-26.419262-1.125-27.8125z"/><path d="m271.53125 76.6875c-6.09476-.391576-12.62009 1.478311-18.34375 5.3125l-.1875.125-.0937.15625c-.23782.37399-.43957.632751-.53125.71875.0479-.01231-.51788-.298662-1.53125-1.3125-1.18893-1.188932-3.72905-3.228741-7.1875-4.15625s-7.85141-.63144-12.25 2.78125l-.0312.03125-.0625.0625c-.77834.778336-1.65116 1.656581-2.21875 2.0625-.19408-2.605206-1.1875-4.8125-1.1875-4.8125l-.28125-.5625h-.625-18-1v1l.4375 57.375v1h1l20-.125.96875-.0312.0312-.9375s1.01481-31.85945 1.15625-35.25c.022-.52707.35808-1.33523.96875-2.03125s1.46751-1.255926 2.25-1.46875 1.43589-.162491 2.125.40625 1.43516 1.769534 1.875 3.96875v.0312c.88595 4.45719 1.03169 13.37905.90625 21.09375-.12565 7.72751-.5 14.3125-.5 14.3125l-.0625 1.0625 1.0625-.0312 20.71875-.125h1.0625l-.0625-1.09375s-1.45772-20.07336-.28125-29.28125c.43272-3.39351.74779-6.16646 1.46875-7.84375.36048-.838644.78404-1.366847 1.34375-1.71875s1.31766-.564024 2.46875-.5c1.15371.06416 1.92972.364213 2.53125.84375s1.06325 1.200527 1.375 2.34375c.6235 2.28645.53454 6.14612-.25 11.78125-1.57162 11.28848-4.15625 20.4375-4.15625 20.4375l-.28125 1.09375 1.09375.1875 21.15625 3.4375.84375.15625.25-.84375s4.66688-15.31139 2.5-37.625v-.03125c-1.10728-11.371015-7.01315-18.258152-14.5625-20.84375-1.88734-.6464-3.87466-1.025725-5.90625-1.15625zm-.125 2c1.86792.117264 3.66628.446025 5.375 1.03125 6.8349 2.340902 12.16903 8.376265 13.21875 19.15625 1.96953 20.22585-1.58788 33.89866-2.1875 36.03125l-19.15625-3.125c.40177-1.47101 2.45784-9.22155 3.90625-19.625.79746-5.72787.9975-9.73795.21875-12.59375-.38938-1.427902-1.06825-2.582381-2.0625-3.375s-2.25171-1.201407-3.6875-1.28125c-1.43791-.07998-2.64746.197903-3.625.8125s-1.65848 1.539644-2.125 2.625c-.93304 2.17071-1.19572 5.00851-1.625 8.375-1.18827 9.30031.0896 26.88673.21875 28.625l-18.625.125c.0464-.87556.35173-6.11578.46875-13.3125.12635-7.77099.0426-16.63092-.9375-21.53125-.49516-2.475784-1.37267-4.142991-2.5625-5.125s-2.67024-1.157176-3.9375-.8125-2.38198 1.14002-3.21875 2.09375-1.41874 2.08232-1.46875 3.28125c-.14254 3.4169-1.07266 32.62887-1.125 34.28125l-18.03125.125-.4375-55.375h16.3125c.25957.64732.74394 1.961571.84375 3.65625.0226.383678.0634.726621.21875 1.0625.15536.335879.47521.667169.875.8125.79958.290661 1.36859-.08955 1.84375-.40625.92062-.613592 1.77706-1.583446 2.53125-2.34375.0203-.01571.0423-.01569.0625-.03125.01-.0096.0217-.02171.0312-.03125 3.90579-2.987211 7.4839-3.135866 10.4375-2.34375 2.9783.798741 5.31218 2.655932 6.28125 3.625 1.1105 1.111014 1.7705 1.827553 2.875 1.90625.55225.03935 1.0978-.212593 1.4375-.53125.26894-.252284.45094-.562962.65625-.875 5.36491-3.565918 11.42946-5.255955 17-4.90625z"/><path d="m361.15625 76.6875c-6.09459-.391577-12.62009 1.478315-18.34375 5.3125l-.1875.125-.125.15625c-.23811.374078-.4082.632654-.5.71875.0482-.01229-.51783-.298609-1.53125-1.3125-1.18893-1.188932-3.72905-3.228741-7.1875-4.15625s-7.85141-.63144-12.25 2.78125l-.0625.03125-.0312.0625c-.76797.767486-1.64978 1.616248-2.21875 2.03125-.2005-2.589887-1.2188-4.78125-1.2188-4.78125l-.25-.5625h-.65625-17.96875-1v1l.4375 57.375v1h1l20-.125.96875-.0312.0312-.9375s.98356-31.85945 1.125-35.25c.022-.52707.38933-1.33523 1-2.03125s1.43626-1.255926 2.21875-1.46875 1.46714-.162491 2.15625.40625 1.43516 1.769534 1.875 3.96875c.88948 4.44979 1.00052 13.39747.875 21.125s-.46875 14.3125-.46875 14.3125l-.0625 1.0625 1.0625-.0312 20.71875-.125h1.0625l-.0625-1.09375s-1.48802-20.07315-.3125-29.28125c.43272-3.39351.7477-6.16649 1.46875-7.84375.36053-.838629.78389-1.36682 1.34375-1.71875s1.31738-.564027 2.46875-.5c1.15343.06415 1.961.364204 2.5625.84375s1.06319 1.200515 1.375 2.34375c.62361 2.28647.53454 6.14615-.25 11.78125-1.57162 11.28842-4.15625 20.4375-4.15625 20.4375l-.3125 1.09375 1.125.1875 21.125 3.4375.875.15625.25-.84375s4.64532-15.32499 2.46875-37.65625c-1.10727-11.371-6.98214-18.258144-14.53125-20.84375-1.88728-.646401-3.87472-1.025724-5.90625-1.15625zm-.125 2c1.86786.117263 3.66634.446026 5.375 1.03125 6.83464 2.340894 12.16902 8.37625 13.21875 19.15625 1.97089 20.22105-1.58657 33.89346-2.1875 36.03125l-19.15625-3.125c.40192-1.47101 2.45784-9.2215 3.90625-19.625.79746-5.7279.99764-9.73797.21875-12.59375-.38944-1.42789-1.06831-2.582389-2.0625-3.375s-2.25193-1.201404-3.6875-1.28125c-1.43813-.07997-2.67858.19793-3.65625.8125s-1.6584 1.539629-2.125 2.625c-.9332 2.17074-1.16447 5.00851-1.59375 8.375-1.18728 9.30018.0897 26.88695.21875 28.625l-18.625.125c.0463-.87562.3206-6.11584.4375-13.3125.12623-7.77097.042-16.63104-.9375-21.53125-.49516-2.475784-1.34142-4.142991-2.53125-5.125s-2.67024-1.157176-3.9375-.8125-2.38198 1.14002-3.21875 2.09375-1.44999 2.08232-1.5 3.28125v.0312c-.14388 3.46231-1.04145 32.59908-1.09375 34.25l-18.03125.125-.4375-55.375h16.28125c.25842.644254.74368 1.95716.84375 3.65625.0226.383644.0947.726651.25 1.0625.15529.335849.44394.667115.84375.8125.79963.290769 1.39992-.08956 1.875-.40625.92045-.61358 1.77678-1.583605 2.53125-2.34375.0204-.01583.0421-.01558.0625-.03125.01-.0096.0217-.02171.0312-.03125 3.90548-2.98662 7.45285-3.135812 10.40625-2.34375 2.9783.798741 5.34343 2.655932 6.3125 3.625 1.11045 1.11096 1.73922 1.827531 2.84375 1.90625.55226.03936 1.12908-.21269 1.46875-.53125.27266-.255719.44793-.557748.65625-.875 5.35925-3.555463 11.43763-5.255453 17-4.90625z"/><path d="m446.25 9.3125c-.65615-.083116-1.37422-.040734-2.21875.09375-3.26475.5198846-14.45821 2.803648-17.34375 3.5625-1.50268.395181-2.67122 1.067988-3.4375 2.15625s-1.1358 2.445074-1.46875 4.21875c-.1927 1.026531-.90591 5.971144-1.90625 13.09375s-2.26363 16.325295-3.53125 25.5c-2.53523 18.34941-5.0367 36.564327-5.21875 37.90625-.0484.3593-.10663.590313-.15625.875-.19915-.326645-.34688-.526902-.625-1.09375-.55686-1.13407-3.07138-5.67857-6.6875-12.125s-8.28057-14.698035-12.90625-22.875-9.23334-16.283988-12.75-22.46875c-1.75833-3.092381-3.22841-5.697015-4.3125-7.59375s-1.7426-3.027099-1.9375-3.34375c-.26204-.426103-.5022-.949315-1-1.4375s-1.22916-.825861-2.1875-.96875c-1.91667-.285778-4.90864.02578-10.875 1.21875h-.0312c-8.1162 1.795611-10.01118 2.089063-12 2.53125-1.00882.224008-2.24081.476013-3.09375 1.46875-.42647.496368-.66814 1.215825-.625 1.96875.0431.752925.32656 1.542229.84375 2.4375.75147 1.302478 9.64385 16.292005 20.625 34.78125l1.71875-1c-10.9809-18.488755-19.97452-33.653728-20.62505-34.78125-.41781-.723229-.54498-1.256737-.5625-1.5625-.0175-.305763.0344-.389368.15625-.53125.24381-.283763 1.06782-.636758 2-.84375 1.89718-.421813 3.8622-.699611 12-2.5 5.90164-1.180029 8.81842-1.418222 10.15625-1.21875.66891.09974.89723.244779 1.09375.4375s.40579.522353.71875 1.03125c.0928.150849.79219 1.386747 1.875 3.28125s2.58588 4.502178 4.34375 7.59375c3.51574 6.183144 8.09381 14.32434 12.71875 22.5s9.29221 16.401024 12.90625 22.84375 6.24211 11.18782 6.65625 12.03125c.50068 1.020451.87454 1.715438 1.28125 2.21875.20335.251656.40696.455843.71875.625s.8563.249901 1.25.0625.55969-.472016.6875-.71875.21289-.48711.28125-.75c.13671-.525781.22155-1.136703.3125-1.8125.17895-1.319077 2.68373-19.58966 5.21875-37.9375 1.26751-9.17392 2.56256-18.34895 3.5625-25.46875s1.7437-12.300531 1.875-13c.31505-1.678324.65078-2.764012 1.125-3.4375s1.08118-1.051181 2.3125-1.375c2.58246-.679148 14.091-3.011885 17.15625-3.5.73797-.117516 1.30093-.138759 1.65625-.09375.35532.04501.46156.114182.53125.1875.13938.146636.32794.800071.125 2.21875-.0414.289248-.41658 2.49101-1 5.9375s-1.3807 8.199465-2.34375 13.84375c-1.92609 11.288571-4.45584 26.095279-7 40.9375-5.08832 29.68444-10.24535 59.54821-10.59375 61.5-.3531 1.97763-.68366 3.16303-1.0625 3.78125s-.71774.81292-1.625 1.03125c-2.03084.48873-8.89618 1.95006-11.3125 2.21875-1.15016.12794-1.57749-.0105-2-.34375-.42251-.33321-.90442-1.06725-1.59375-2.15625-.145-.22899-1.97055-3.28438-4.78125-8s-6.65559-11.1844-11.0625-18.59375l-1.71875 1.03125c4.40709 7.40965 8.2512 13.87712 11.0625 18.59375s4.5155 7.56224 4.8125 8.03125c.67667 1.069 1.17751 1.98296 2.03125 2.65625s2.02991.91006 3.46875.75c2.76368-.30731 9.42134-1.73473 11.5625-2.25 1.17874-.28367 2.19784-.85222 2.84375-1.90625s.97785-2.45063 1.34375-4.5c.3706-2.07621 5.50532-31.81494 10.59375-61.5 2.54421-14.842529 5.07375-29.648008 7-40.9375.96313-5.644746 1.76006-10.426888 2.34375-13.875s.93338-5.502998 1-5.96875c.22906-1.601321.27837-2.924636-.625-3.875-.45168-.4751822-1.09385-.7293838-1.75-.8125z"/><path d="m466 12.5c-.70821-.0897-1.6351-.246887-2.625.09375-1.00167.344687-1.87397 1.307794-2.25 2.8125-.0835.333472-.15558.841782-.3125 1.8125s-.36814 2.302641-.625 3.96875c-.51372 3.332218-1.20743 7.948512-2.03125 13.4375-1.64765 10.977976-3.81118 25.440964-5.96875 39.96875s-4.30783 29.13815-6 40.4375-2.93652 19.40117-3.15625 20.53125c-.52436 2.69628-.41248 4.27634.34375 5.34375s1.94561 1.17029 2.53125 1.28125c.50824.0959 1.48707.1844 2.9375.3125s3.28779.2644 5.15625.40625c3.73692.28371 7.58132.55603 8.9375.59375 1.5693.0443 2.77141-.77138 3.40625-1.78125s.86515-2.14535 1.03125-3.125c.0559-.32847.21294-1.52659.5-3.5625s.69407-4.8392 1.15625-8.15625c.92435-6.63409 2.11465-15.32876 3.3125-24 1.19785-8.671244 2.37951-17.316943 3.28125-23.90625.45087-3.294653.82363-6.0913 1.09375-8.09375.13131-.973453.14358-1.121732.21875-1.6875.10354.352929.0974.272209.21875.6875.60391 2.066114 1.43062 4.951469 2.4375 8.40625 2.01376 6.909562 4.68692 16.053052 7.375 25.28125 5.37617 18.4564 10.82685 37.1599 11.4375 39.125.60057 1.93437 1.2165 3.09167 1.96875 3.84375s1.62408.96355 2.21875 1.09375c.41165.0902 1.14296.21057 2.1875.34375s2.35024.26391 3.6875.40625c2.67452.28469 5.37369.54242 6.6875.5 1.34244-.0433 2.41655-.60179 3.125-1.34375s1.12699-1.59802 1.59375-2.375c1.1413-1.90177 34.00472-58.667223 37.0625-64-.14491 1.841-.3531 4.277753-.59375 7.28125-.50403 6.290802-1.18946 14.6501-1.875 23.09375-1.37108 16.88731-2.79062 34.21743-2.9375 35.65625-.17165 1.67625-.067 2.94124.4375 3.9375.50445.99626 1.51271 1.55153 2.53125 1.6875 1.84772.24766 18.30013 1.91272 20.96875 2.03125.76651.0347 1.45396-.13447 2-.5s.90054-.88054 1.125-1.40625c.44892-1.05142.47816-2.1883.53125-3.0625.004-.0645.20351-2.19923.5-5.5625s.72038-8.07598 1.21875-13.6875c.99674-11.22304 2.30799-26.03477 3.625-40.875 1.31701-14.840229 2.63717-29.708295 3.625-41 .49391-5.645853.89758-10.396363 1.1875-13.8125.14496-1.708069.26487-3.078039.34375-4.0625.0789-.984461.12031-1.481062.125-1.78125.0197-1.293125-.24876-2.382913-.84375-3.1875s-1.49518-1.229394-2.4375-1.34375h-.0312c-1.71865-.207107-15.43393-1.46875-18.1875-1.46875-1.27424 0-2.33641.149889-3.3125.59375s-1.80119 1.172052-2.5625 2.1875c-.23349.31126-.40733.6357-.8125 1.34375s-.95036 1.695391-1.625 2.90625c-1.34927 2.421717-3.19247 5.771544-5.375 9.75-4.36506 7.956911-10.07038 18.401367-15.75 28.84375s-11.3282 20.884074-15.625 28.8125c-4.2968 7.92843-7.19307 13.25289-7.46875 13.78125-.0563.10799-.0747.10923-.125.1875-.0328-.0853-.0624-.10909-.0937-.21875-.0699-.24488-1.65526-6.06871-3.9375-14.5-2.28234-8.431288-5.30976-19.575145-8.34385-30.78125s-6.07422-22.48586-8.4375-31.1875-4.01851-14.781204-4.3125-15.78125c-.56792-1.930604-1.27176-3.112567-2.375-3.75s-2.27094-.663987-3.78125-.875c-3.15044-.440023-10.66778-1.188011-18.28125-1.90625-.0129-.0012-.0184.0012-.0312 0zm-1.96875 1.96875c.38233-.131563 1.0223-.05978 1.75.03125h.0312c7.61932.718652 15.18852 1.483017 18.21875 1.90625 1.58169.220987 2.54749.327433 3.0625.625s.92642.825104 1.4375 2.5625c.24501.833454 1.9495 7.04939 4.3125 15.75s5.40347 19.950355 8.4375 31.15625 6.06146 22.349788 8.34375 30.78125c2.28229 8.43146 3.79194 14.05288 3.9375 14.5625.12729.44524.29504.83683.53125 1.1875s.59.70557 1.125.8125 1.05528-.13327 1.40625-.4375.62341-.67405.875-1.15625c.15582-.29864 3.14114-5.82239 7.4375-13.75 4.29636-7.927605 9.946-18.371258 15.625-28.8125s11.38716-20.89088 15.75-28.84375c2.18142-3.976435 4.02978-7.335557 5.375-9.75.67261-1.207221 1.22676-2.179061 1.625-2.875s.71449-1.202635.65625-1.125c.64069-.854552 1.17509-1.318111 1.78125-1.59375s1.36524-.40625 2.5-.40625c2.06173 0 16.69919 1.283432 17.96875 1.4375.53268.06464.84424.225087 1.09375.5625s.45283.960875.4375 1.96875c.00019-.01244-.0466.677634-.125 1.65625s-.19893 2.324856-.34375 4.03125c-.28964 3.412788-.69366 8.167524-1.1875 13.8125-.98767 11.289951-2.30801 26.160104-3.625 41-1.31699 14.8399-2.62824 29.65163-3.625 40.875-.49838 5.61168-.92218 10.32329-1.21875 13.6875s-.47695 5.24923-.5 5.625c-.0539.8878-.10942 1.85742-.34375 2.40625-.11716.27441-.25089.42725-.40625.53125s-.37401.17608-.8125.15625c-2.14938-.0955-19.42222-1.81366-20.8125-2-.59946-.08-.78545-.20126-1-.625s-.3711-1.32475-.21875-2.8125c.17612-1.72518 1.56633-18.79906 2.9375-35.6875.68559-8.44422 1.37088-16.833083 1.875-23.125.25206-3.145959.44749-5.763884.59375-7.625.0731-.930558.1483-1.670472.1875-2.1875.0196-.258514.0209-.448436.0312-.59375s.0312-.111907.0312-.3125c0-.202123.0352-.382064-.125-.75-.0801-.183968-.31096-.512619-.71875-.625s-.71277.04996-.875.15625c-.32446.212575-.42111.386044-.5625.59375s-.2901.46089-.46875.78125c-.43152.77156-37.51901 64.82361-38.28125 66.09375-.50524.84102-.9107 1.57771-1.34375 2.03125s-.83119.69009-1.71875.71875c-.91619.0296-3.79002-.18694-6.4375-.46875-1.32374-.14091-2.59754-.30649-3.625-.4375s-1.83665-.24546-2-.28125c-.55633-.1218-.8515-.19533-1.25-.59375s-.91932-1.23037-1.46875-3c-.54035-1.7389-6.06142-20.63765-11.4375-39.09375-2.68804-9.228052-5.32986-18.37125-7.34375-25.28125-1.00695-3.455-1.86454-6.339106-2.46875-8.40625s-.93773-3.179345-1.03125-3.46875c-.11628-.361141-.15783-.688226-.65625-1.03125-.24921-.171512-.72918-.255883-1.0625-.125s-.48769.340951-.59375.5c-.42424.636196-.4528 1.219719-.53125 2.0625-.003.02868-.1677 1.374923-.4375 3.375s-.64298 4.768544-1.09375 8.0625c-.90155 6.587912-2.08348 15.235619-3.28125 23.90625-1.19777 8.67063-2.41957 17.36713-3.34375 24-.46209 3.31644-.83822 6.12232-1.125 8.15625s-.50612 3.35222-.53125 3.5c-.1569.92535-.36459 1.84287-.71875 2.40625s-.67255.87149-1.65625.84375c-1.19682-.0333-5.11892-.31096-8.84375-.59375-1.86242-.1414-3.68746-.27929-5.125-.40625s-2.59324-.25167-2.75-.28125c-.74436-.14104-1.07573-.17866-1.28125-.46875s-.48264-1.33078 0-3.8125c.28377-1.45942 1.46376-9.32348 3.15625-20.625s3.87369-25.909786 6.03125-40.4375 4.29024-28.962101 5.9375-39.9375c.82363-5.4877 1.51833-10.110453 2.03125-13.4375.25646-1.663524.46952-3.006927.625-3.96875s.28371-1.634847.28125-1.625c.27097-1.084294.58642-1.305937.96875-1.4375z"/><path d="m447.875 0c-1.0977.02061123-2.09841.16118132-2.84375.25-1.6764.19976995-6.51755 1.1478134-11.53125 2.1875s-10.08768 2.1327125-11.96875 2.59375c-4.09109 1.0026954-7.17916 4.5905722-8 8.96875-.20904 1.11351-.78938 5.170498-1.59375 10.8125s-1.80355 12.79525-2.78125 19.8125c-1.74918 12.554378-3.07272 22.232883-3.40625 24.65625-2.32852-4.143751-24.79164-44.106457-27.875-49.40625-1.72426-2.963726-4.07348-4.372693-6.34375-4.84375s-4.4297-.09196-6 .21875c-1.53323.30288-7.32715 1.408567-13.40625 2.6875s-12.3768 2.701461-15.3125 3.75c-3.15738 1.127718-4.60111 3.929581-4.90625 6.6875s.33305 5.548922 1.3125 7.40625c.86479 1.639677 5.05248 8.60801 9.4375 15.90625s8.92788 14.821729 10.34375 17.1875l1.71875-1c-1.42513-2.381229-5.96052-9.92349-10.34375-17.21875s-8.67179-14.447927-9.375-15.78125c-.74655-1.415672-1.34561-4.004919-1.09375-6.28125s1.18188-4.180968 3.5625-5.03125c2.6023-.929461 9.0366-2.381933 15.09375-3.65625s11.78398-2.37938 13.34375-2.6875c1.5227-.301291 3.41652-.592693 5.21875-.21875s3.55451 1.336726 5.03125 3.875c3.15894 5.429708 29.28125 51.9375 29.28125 51.9375l1.46875 2.59375.40625-2.9375s1.85741-13.53025 3.8125-27.5625c.97755-7.016125 1.97744-14.174409 2.78125-19.8125s1.42479-9.81876 1.59375-10.71875c.68916-3.675822 3.28634-6.5796954 6.53125-7.375l.5-.125c1.97477-.4727232 6.58591-1.4756399 11.375-2.46875 4.94551-1.0255452 9.84018-1.9799226 11.25-2.15625l.125-.03125c1.53033-.1823626 3.63367-.4520996 5.5625.125s3.72915 1.9119648 4.90625 5.375l.46875 1.40625 1.125-1c2.44254-2.1165046 5.53322-2.6546054 9.6875-2.375 2.09453.1404835 6.77176.6136642 11.1875 1.09375s8.69844.9894343 9.6875 1.1875c2.15067.4305028 7.34474 1.997557 9.28125 9.0625 2.03983 7.441886 19.875 74.125 19.875 74.125l.625 2.40625 1.21875-2.1875s8.79107-16.261668 17.90625-33.03125c4.55759-8.384791 9.19029-16.894454 12.84375-23.5625s6.38779-11.581747 6.9375-12.46875c2.38537-3.852055 5.9036-6.717373 13.5625-6.09375 3.98389.324305 8.77654.661059 12.90625 1.125 2.06485.231971 3.95182.505344 5.46875.8125s2.69356.692537 3.125.96875c2.46572 1.577986 5.66826 4.875922 4.90625 12.84375-.39831 4.164896-2.93838 32.675231-5.4375 60.65625-1.24956 13.99051-2.48459 27.84277-3.4375 38.4375s-1.62268 18.01927-1.71875 18.875c-.20931 1.86438-.72944 4.83065-2.15625 7.25s-3.64777 4.30634-7.65625 4.40625c-8.47078.21111-21.50389-2.00624-24.0625-2.46875-1.00864-.18187-3.03117-1.07788-4.6875-2.8125s-3.01877-4.25603-2.96875-7.9375c.10535-7.6816 2.71875-32.5625 2.71875-32.5625l-1.84375-.59375s-4.50908 7.8253-9.28125 16.09375c-2.38609 4.13423-4.84007 8.39783-6.84375 11.8125s-3.58343 6.03196-4.09375 6.78125c-2.21268 3.24885-5.13143 6.04802-10.3125 5.78125-5.55221-.28693-10.46152-.71404-14.25-1.6875-3.75722-.96543-6.62118-2.48927-8.59375-8.71875-2.03213-6.41458-11.625-38.625-11.625-38.625l-1.9375.15625s-.88618 7.46717-1.90625 15.53125-2.20793 16.83248-2.6875 19.03125c-.47698 2.1878-1.70344 4.45954-3.40625 6.125s-3.84785 2.71892-6.21875 2.6875c-5.25146-.0696-17.41182-1.11758-20.59375-1.78125-1.52261-.31749-3.465-1.24087-4.9375-2.65625s-2.50116-3.25571-2.40625-5.5625l-1.96875-.15625c-.38723 2.74632-.93193 4.60123-1.78125 5.875s-2.0083 2.08159-4.0625 2.6875c-4.21472 1.24415-15.22653 3.21079-17.375 3.5625-1.03029.16952-2.64585.30559-4.21875-.125s-3.12238-1.3591-4.3125-3.59375c-2.68949-5.04804-11.75-19.625-11.75-19.625l-1.71875 1.0625s9.12699 14.69404 11.6875 19.5c1.43388 2.69235 3.5574 4.04484 5.5625 4.59375s3.89879.34773 5.0625.15625c2.23753-.36629 13.06572-2.27915 17.625-3.625 2.3328-.68809 4.05882-1.77602 5.1875-3.46875.48586-.72867.81916-1.60849 1.125-2.53125.52467 1.01339 1.15326 1.93368 1.9375 2.6875 1.78175 1.71262 4.00711 2.78499 5.9375 3.1875 3.72207.77633 15.50621 1.7401 20.96875 1.8125 2.9861.0396 5.65506-1.29271 7.65625-3.25s3.37148-4.5288 3.9375-7.125c.56343-2.58323 1.69757-11.14583 2.71875-19.21875.71308-5.63723 1.0168-8.13164 1.34375-10.84375 1.7711 5.95549 8.4247 28.36329 10.25 34.125 2.12743 6.71852 5.91922 9.01393 10 10.0625 4.04952 1.04054 9.06246 1.46093 14.65625 1.75 5.96693.30723 9.67118-3.1451 12.0625-6.65625.64068-.94071 2.17943-3.48411 4.1875-6.90625s4.45634-7.67598 6.84375-11.8125c3.58112-6.20479 5.45185-9.49825 6.9375-12.09375-.62525 6.04539-2.18978 21.45496-2.28125 28.125-.057 4.19353 1.53358 7.31562 3.5 9.375s4.23114 3.08987 5.8125 3.375c2.61939.47349 15.60553 2.72089 24.46875 2.5 4.65752-.11609 7.63781-2.5666 9.3125-5.40625s2.18356-6.04763 2.40625-8.03125c.11993-1.06827.797-8.31058 1.75-18.90625s2.18793-24.44688 3.4375-38.4375c2.49913-27.981231 5.04481-56.550146 5.4375-60.65625.81999-8.574172-2.88422-12.844736-5.8125-14.71875-.91656-.586787-2.1988-.92325-3.8125-1.25s-3.5586-.576846-5.65625-.8125c-4.19529-.471309-9.00464-.802305-12.96875-1.125-8.2331-.670377-12.79087 2.726055-15.4375 7-.70929 1.144497-3.31327 5.890765-6.96875 12.5625s-8.28559 15.176666-12.84375 23.5625c-8.51264 15.66105-15.69629 28.896982-16.75 30.84375-1.08469-4.060323-17.19429-64.44693-19.1875-71.71875-2.16349-7.893057-8.31842-9.9632528-10.84375-10.46875-1.34794-.2699343-5.41349-.7683358-9.84375-1.25s-9.09678-.9472335-11.28125-1.09375c-3.89689-.262282-7.25675.2783256-10.03125 2.15625-1.39788-3.120741-3.53366-4.8149782-5.71875-5.46875-1.22896-.36770019-2.43355-.45811123-3.53125-.4375z"/></g></svg>