<?xml version="1.0" encoding="UTF-8" standalone="no"?>
<svg
   xmlns:ns="&amp;ns_sfw;"
   xmlns:dc="http://purl.org/dc/elements/1.1/"
   xmlns:cc="http://creativecommons.org/ns#"
   xmlns:rdf="http://www.w3.org/1999/02/22-rdf-syntax-ns#"
   xmlns:svg="http://www.w3.org/2000/svg"
   xmlns="http://www.w3.org/2000/svg"
   xmlns:sodipodi="http://sodipodi.sourceforge.net/DTD/sodipodi-0.dtd"
   xmlns:inkscape="http://www.inkscape.org/namespaces/inkscape"
   version="1.2"
   id="Ebene_1"
   x="0px"
   y="0px"
   width="512"
   height="84"
   viewBox="-373.657 52.361 512 84"
   xml:space="preserve"
   sodipodi:docname="system.svg"
   inkscape:version="1.0.2 (e86c8708, 2021-01-15)"><defs
   id="defs10264" /><sodipodi:namedview
   pagecolor="#ffffff"
   bordercolor="#666666"
   borderopacity="1"
   objecttolerance="10"
   gridtolerance="10"
   guidetolerance="10"
   inkscape:pageopacity="0"
   inkscape:pageshadow="2"
   inkscape:window-width="1113"
   inkscape:window-height="681"
   id="namedview10262"
   showgrid="false"
   inkscape:zoom="0.70710678"
   inkscape:cx="298.14614"
   inkscape:cy="77.5"
   inkscape:window-x="0"
   inkscape:window-y="23"
   inkscape:window-maximized="0"
   inkscape:current-layer="Ebene_1" />
<metadata
   id="metadata10240">
	<ns:sfw>
		<ns:slices />
		<ns:sliceSourceBounds
   height="123.153"
   width="891.18"
   y="447.639"
   x="352.163"
   bottomLeftOrigin="true" />
	</ns:sfw>
<rdf:RDF><cc:Work
     rdf:about=""><dc:format>image/svg+xml</dc:format><dc:type
       rdf:resource="http://purl.org/dc/dcmitype/StillImage" /><dc:title></dc:title></cc:Work></rdf:RDF></metadata>

<g
   id="g10280"
   transform="matrix(0.55656562,0,0,0.55216173,-160.08225,20.893437)"><g
     id="g10248">
	<path
   fill="#aa0000"
   d="m 341.373,193.968 c -2.26,-2.385 -8.34,-2.6 -9.285,-2.6 -42.588,0 -85.172,-0.002 -127.764,0.002 -4.329,0 -5.108,0.531 -4.578,-4.957 0.868,-8.979 4.167,-17.322 10.688,-23.766 1.249,-1.271 1.666,-1.699 4.52,-4.287 12.092,-10.957 36.181,-19.742 36.181,-19.742 0,0 20.16,-7.443 31.48,-11.896 5.084,-2 10.049,-4.311 14.577,-7.445 16.421,-12.943 7.894,-25.79 -13.755,-28.781 -15.163,-2.17 -28.979,1.533 -41.748,9.677 -1.667,1.063 -3.074,2.125 -4.684,3.281 -2.856,2.414 -5.307,5.229 -5.836,8.34 -0.286,1.681 -0.013,2.838 0.021,3.112 0.108,0.871 0.375,2.25 -0.272,2.884 -0.778,0.76 -2.394,-0.002 -3.111,-0.681 -6.58,-6.219 -13.172,-12.424 -19.759,-18.637 -0.412,-0.389 -1.173,-1.221 -1.173,-1.221 0,0 -0.72,-0.834 -0.745,-1.406 -0.029,-0.644 0.604,-1.249 1.36,-1.485 3.589,-0.661 5.245,-0.873 7.399,-2.448 5.797,-4.237 11.855,-8.025 18.325,-11.18 8.651,-4.219 17.747,-6.726 27.272,-8.01 7.325,-0.988 28.84,-4.338 53.973,6.837 6.629,2.907 12.313,7.024 16.598,12.831 2.535,3.437 12.098,22.281 -7.383,37.333 -6.963,5.588 -15.271,9.038 -23.674,11.971 -7.188,2.512 -12.465,4.396 -24.227,7.795 -8.932,2.658 -15.342,4.736 -25.563,9.586 -8.129,3.855 -13.465,8.543 -13.465,8.543 0,0 -2.662,2.053 -2.147,3.658 0.446,1.395 2.668,1.254 3.975,1.258 31.445,0.02 62.892,0.014 94.337,0.016 3.254,0 6.408,-0.229 8.893,-2.783 0.361,-0.373 1.318,-0.574 1.75,-0.356 0.414,0.207 0.703,1.061 0.707,1.633 0.049,7.365 0.051,14.894 0.008,22.258 -0.006,0.716 -0.238,0.972 -0.596,1.179 -0.538,0.308 -1.678,0.142 -2.299,-0.513 z"
   id="path10242" />
	<path
   fill="#aa0000"
   d="m 107.1,193.042 c -5.159,-0.314 -10.332,-0.979 -15.427,-1.879 -20.739,-3.656 -30.385,-8.555 -36.174,-10.826 -2.766,-1.086 -5.47,-2.113 -8.476,-1.012 -0.343,0.127 -0.745,0.119 -1.121,0.127 -1.911,0.021 -2.496,-0.723 -1.666,-2.428 0.989,-2.031 2.148,-3.984 3.317,-5.926 3.167,-5.252 6.376,-10.479 9.57,-15.718 0.147,-0.239 0.315,-0.471 0.46,-0.715 0.651,-1.09 1.366,-2.101 2.858,-1.892 1.403,0.197 1.706,1.354 2,2.451 0.642,2.388 2.099,4.166 4.016,5.646 4.536,3.511 9.659,5.873 15.033,7.748 6.969,2.431 14.143,3.953 21.429,5.097 8.627,1.354 17.299,1.526 25.961,1.024 7.342,-0.428 14.576,-1.752 21.498,-4.457 4.213,-1.646 7.409,-4.553 9.968,-8.104 3.395,-4.711 2.004,-11.188 -2.622,-14.871 -6.284,-5.002 -13.592,-6.979 -21.333,-8.31 -6.96,-1.192 -13.912,-1.065 -20.879,-0.976 -3.271,0.043 -11.09,0.354 -14.087,3.136 -1.104,0.972 -1.979,1.045 -2.504,0.571 -0.525,-0.477 -0.548,-1.229 -0.554,-1.885 -0.059,-6.802 -0.066,-13.604 -0.021,-20.401 0.015,-2.229 1.054,-2.902 2.78,-1.693 2.18,1.527 4.599,2.195 7.125,2.519 4.196,0.539 17.892,0.063 20.69,-0.303 7.481,-0.978 6.828,-0.859 11.194,-2.029 4.673,-1.252 9.131,-4.53 11.458,-7.241 0.038,-0.043 0.076,-0.089 0.113,-0.134 3.244,-3.907 2.154,-8.405 -0.864,-11.626 -2.898,-3.09 -6.541,-5.069 -10.597,-6.267 -6.647,-1.96 -13.456,-3.032 -20.365,-2.707 -12.507,0.588 -24.774,2.497 -36.083,8.316 -2.589,1.332 -5.016,3.008 -7.407,4.686 -2.042,1.433 -3.07,3.531 -3.128,6.056 -0.03,1.313 0.18,2.815 -1.379,3.39 -1.573,0.578 -2.388,-0.791 -3.285,-1.701 -5.76,-5.853 -11.496,-11.727 -17.238,-17.598 -0.33,-0.337 -0.698,-0.658 -0.942,-1.053 -0.694,-1.123 -0.267,-2.054 1.063,-2.208 1.488,-0.172 3.082,0.063 4.464,-0.387 2.042,-0.665 3.952,-1.753 5.895,-2.707 5.165,-2.533 10.195,-5.386 15.502,-7.57 8.405,-3.458 17.25,-5.316 26.285,-6.437 8.648,-1.073 23.906,-1.519 34.944,0.111 7.378,1.115 14.691,2.597 21.539,5.649 6.041,2.692 11.94,5.698 16.45,10.779 3.26,3.672 5.449,7.775 6.183,12.751 0.704,4.771 -0.081,9.127 -2.12,13.406 -1.404,2.946 -3.504,4.854 -6.393,6.588 -5.668,3.397 -9.024,4.248 -9.741,4.687 -1.14,0.692 -1.19,1.616 -0.027,2.282 1.046,0.601 2.248,0.953 3.413,1.315 6.821,2.13 12.679,5.873 17.563,11.002 3.567,3.744 5.68,8.23 6.39,13.535 0.726,5.435 -0.549,10.236 -2.896,14.957 -1.827,3.677 -4.856,6.263 -8.043,8.605 -6.444,4.744 -13.622,7.955 -21.316,10.232 -5.727,1.691 -11.531,2.842 -17.409,3.619 -20.096,2.202 -30.361,1.064 -35.064,0.776 z"
   id="path10244" />
	<path
   fill="#aa0000"
   d="m 383.914,72.788 c 6.705,0 13.41,0 20.117,0.001 0.66,0 1.328,-0.05 1.98,0.028 1.494,0.178 1.725,0.81 0.787,2.032 -1.676,2.182 -1.662,2.417 0.246,4.435 0.063,0.069 0.133,0.134 0.199,0.201 9.354,9.465 18.715,18.931 28.074,28.396 0.465,0.472 0.898,0.979 1.438,1.361 0.939,0.676 1.945,0.688 2.869,-0.056 0.514,-0.412 0.969,-0.897 1.434,-1.369 9.24,-9.317 18.48,-18.638 27.719,-27.96 0.334,-0.335 0.682,-0.659 0.977,-1.026 1.232,-1.531 1.203,-2.073 0.053,-3.714 -1.035,-1.398 -1.035,-2.249 1.076,-2.302 0.461,-0.012 0.939,-0.026 1.412,-0.026 13.6,0 27.199,-0.003 40.799,0.005 0.844,0 1.711,-0.01 2.525,0.169 0.348,0.076 0.771,0.6 0.83,0.971 0.057,0.367 -0.199,1.01 -0.504,1.162 -0.918,0.461 -1.902,0.855 -2.906,1.075 -3.807,0.832 -6.908,2.712 -9.66,5.516 -11.838,12.063 -23.799,24.003 -35.695,36.012 -2.98,3.016 -5.918,6.092 -8.842,9.17 -1.85,1.944 -1.854,2.862 0.021,4.78 3.295,3.36 6.68,6.634 9.959,10.009 2.43,2.5 4.688,5.17 7.137,7.647 6.508,6.582 13.096,13.082 19.613,19.652 4.387,4.422 8.736,8.881 13.047,13.377 2.482,2.594 5.373,4.4 8.861,5.293 1.271,0.322 2.514,0.807 3.715,1.338 0.326,0.146 0.666,0.764 0.617,1.109 -0.051,0.354 -0.516,0.813 -0.891,0.932 -0.613,0.193 -1.301,0.195 -1.955,0.195 -13.883,0.01 -27.766,0.008 -41.648,0.002 -0.563,0 -1.15,0.012 -1.684,-0.141 -0.883,-0.252 -1.217,-0.783 -0.67,-1.699 0.459,-0.771 1.186,-1.648 1.102,-2.402 -0.092,-0.801 -0.914,-1.588 -1.559,-2.242 -10.768,-10.99 -21.557,-21.961 -32.342,-32.934 -0.396,-0.404 -0.795,-0.809 -1.203,-1.201 -2.383,-2.303 -3.256,-2.332 -5.645,0.043 -6.895,6.857 -13.801,13.715 -20.633,20.641 -4.438,4.498 -8.764,9.107 -13.129,13.68 -1.645,1.722 -1.645,1.83 -0.395,4.113 0.713,1.306 0.443,1.879 -1.045,2.092 -0.646,0.095 -1.316,0.058 -1.98,0.058 -13.41,0.002 -26.818,0.019 -40.229,-0.022 -1.205,-0.004 -3.223,0.323 -3.326,-1.144 -0.211,-1.533 1.641,-1.61 2.729,-1.867 4.885,-1.143 8.611,-3.928 12.064,-7.471 11.008,-11.291 22.199,-22.397 33.279,-33.619 3.439,-3.483 6.729,-7.119 10.127,-10.646 1.311,-1.354 2.764,-2.567 4.104,-3.896 2.799,-2.776 2.813,-3.519 0.117,-6.235 -8.166,-8.261 -16.348,-16.498 -24.508,-24.763 -6.633,-6.715 -13.291,-13.408 -19.84,-20.205 -2.521,-2.617 -5.482,-4.244 -8.967,-5.059 -0.643,-0.15 -1.273,-0.349 -1.904,-0.544 -0.896,-0.277 -2.004,-0.489 -1.881,-1.71 0.125,-1.243 1.217,-1.243 2.188,-1.241 0.568,0.001 1.135,-0.002 1.701,-0.002 6.712,10e-4 13.419,10e-4 20.125,10e-4 z"
   id="path10246" />
</g><g
     id="g10259">
	<path
   id="path2898_1_"
   fill="#0584db"
   d="m -369.356,194.63 52.284,-0.042 c 21.383,0 38.716,-17.33 38.716,-38.716 0,-21.38 -17.332,-38.713 -38.716,-38.713 l -13.576,0.065 c -1.083,0 -1.958,-0.878 -1.958,-1.957 0,-1.089 0.876,-1.964 1.958,-1.964 l 52.156,0.007 0.031,-16.392 h -52.198 c -10.117,0 -18.314,8.201 -18.314,18.313 0,10.115 8.197,18.313 18.314,18.313 l 13.642,0.153 c 12.244,0 22.168,9.922 22.168,22.163 0,12.248 -9.923,22.17 -22.168,22.17 h -52.319 l -0.02,16.6" />
	<path
   id="path2900_1_"
   fill="#0584db"
   d="m -369.336,174.172 h 52.319 c 10.117,0 18.313,-8.195 18.313,-18.313 0,-10.109 -8.198,-18.31 -18.313,-18.31 l -13.642,-0.148 c -12.245,0 -22.168,-9.922 -22.168,-22.171 0,-12.242 9.924,-22.165 22.168,-22.165 l 52.198,-0.023 -0.031,-16.479 -52.156,-0.016 c -21.382,0 -38.715,17.335 -38.715,38.72 0,21.379 17.332,38.71 38.715,38.71 l 13.495,0.011 c 1.047,0 1.892,0.848 1.892,1.896 0,1.044 -0.845,1.895 -1.892,1.895 l -52.203,0.02 0.02,16.373" />
	<path
   id="path2902_1_"
   fill="#0584db"
   d="m -237.837,178.134 c -9.057,0 -16.487,-7.256 -16.487,-16.482 v -52.407 c 0,-8.885 7.431,-16.233 16.487,-16.233 l 55.806,0.015 -0.004,-16.459 -55.802,-0.011 c -18.148,0 -32.856,14.714 -32.856,32.856 v 52.239 c 0,18.143 14.709,32.853 32.856,32.853 l 55.574,0.023 -0.02,-16.416 -55.554,0.022" />
	<path
   id="path2904_1_"
   fill="#0584db"
   d="m -250.323,109.412 c 0,-6.92 5.563,-12.529 12.486,-12.529 h 55.806 l -0.004,16.433 h -48.078 c -3.851,10e-4 -3.897,3.873 -3.897,3.873 h 40.089 l 0.012,16.38 h -56.444 l 0.03,-24.157" />
	<path
   id="path2906_1_"
   fill="#0584db"
   d="m -237.837,174.15 c -6.905,0 -12.502,-5.6 -12.502,-12.499 l -0.011,-24.17 h 56.445 l -0.013,16.429 h -40.095 c 0.046,3.866 3.899,3.871 3.899,3.871 h 47.851 l -0.02,16.349 -55.554,0.02" />
	<path
   id="path2908_1_"
   fill="#0584db"
   d="m -142.932,178.092 c -9.06,0 -16.442,-7.386 -16.442,-16.44 v -52.239 c 0,-9.053 7.34,-16.399 16.397,-16.399 l 54.028,-0.01 0.007,-16.442 -54.162,-0.003 c -18.147,0 -32.855,14.712 -32.855,32.855 v 52.24 c 0,18.143 14.84,32.852 32.984,32.852 l 54.033,0.024 -0.003,-77.356 h -46.439 v 16.396 h 30.023 v 44.528 l -37.571,-0.006" />
	<path
   id="path2910_1_"
   fill="#0584db"
   d="m -155.507,161.651 c 0,6.916 5.609,12.614 12.529,12.614 l 33.744,0.002 v -36.823 h -26.11 v 16.45 h 9.691 l 0.04,3.872 -9.642,-0.014 c -2.13,0 -3.856,-1.729 -3.856,-3.858 l -0.06,-36.745 c 0,0 -0.01,-3.831 3.873,-3.911 h 46.396 l -0.046,-16.399 -54.028,0.042 c -6.919,0 -12.527,5.611 -12.527,12.528 v 52.242" />
	<path
   id="path2912_1_"
   fill="#0584db"
   d="m -38.173,96.609 c 0.728,-2.088 2.716,-3.593 5.051,-3.593 2.342,0 4.336,1.511 5.057,3.605 l 26.207,77.729 h -38.378 l 0.04,-18.279 h 12.84 l -5.795,-17.212 -18.807,55.651 h -19.386 l 33.171,-97.901" />
	<path
   id="path2914_1_"
   fill="#0584db"
   d="m 3.443,178.097 h -43.62 v 16.418 H 26.236 L -8.312,91.994 c -3.026,-9.996 -12.989,-17.333 -24.82,-17.333 -11.818,0 -21.777,7.333 -24.811,17.314 l -34.865,102.536 h 17.388 l 33.823,-99.679 c 1.383,-3.298 4.638,-5.62 8.438,-5.62 3.797,0 7.042,2.302 8.428,5.59 l 28.174,83.295" />
</g></g>
</svg>
