<?xml version="1.0" encoding="UTF-8" standalone="no"?>
<svg
   xmlns:dc="http://purl.org/dc/elements/1.1/"
   xmlns:cc="http://creativecommons.org/ns#"
   xmlns:rdf="http://www.w3.org/1999/02/22-rdf-syntax-ns#"
   xmlns:svg="http://www.w3.org/2000/svg"
   xmlns="http://www.w3.org/2000/svg"
   xmlns:sodipodi="http://sodipodi.sourceforge.net/DTD/sodipodi-0.dtd"
   xmlns:inkscape="http://www.inkscape.org/namespaces/inkscape"
   version="1.0"
   id="Ebene_1"
   x="0px"
   y="0px"
   width="24"
   height="24"
   viewBox="0 0 24 24.000001"
   enable-background="new 0 0 21.775 20.762"
   xml:space="preserve"
   sodipodi:docname="star_filled_spacing.svg"
   inkscape:version="1.0.2 (e86c8708, 2021-01-15)"><metadata
   id="metadata17"><rdf:RDF><cc:Work
       rdf:about=""><dc:format>image/svg+xml</dc:format><dc:type
         rdf:resource="http://purl.org/dc/dcmitype/StillImage" /><dc:title></dc:title></cc:Work></rdf:RDF></metadata><defs
   id="defs15" /><sodipodi:namedview
   pagecolor="#ffffff"
   bordercolor="#666666"
   borderopacity="1"
   objecttolerance="10"
   gridtolerance="10"
   guidetolerance="10"
   inkscape:pageopacity="0"
   inkscape:pageshadow="2"
   inkscape:window-width="1067"
   inkscape:window-height="787"
   id="namedview13"
   showgrid="false"
   inkscape:zoom="16"
   inkscape:cx="10.8875"
   inkscape:cy="10.381"
   inkscape:window-x="0"
   inkscape:window-y="23"
   inkscape:window-maximized="0"
   inkscape:current-layer="Ebene_1" />
<path
   fill="#393a3b"
   d="M 11.999439,4 C 11.832287,4 11.666053,4.1348423 11.539311,4.4035637 L 9.8319675,8.0308211 C 9.5784835,8.5701902 8.9061998,9.0816277 8.3404529,9.1673489 L 4.5253348,9.749097 c -0.5675837,0.086684 -0.6952442,0.49988 -0.2847103,0.919817 l 2.76169,2.82302 c 0.4096154,0.4209 0.6667731,1.247291 0.5694206,1.83867 L 6.9196566,19.318083 C 6.8489386,19.747652 7.0059886,20 7.2906985,20 7.399072,20 7.5248956,19.9634 7.6644955,19.88731 l 3.4137685,-1.883939 c 0.253484,-0.139658 0.588707,-0.208042 0.921175,-0.208042 0.334305,0 0.669529,0.06935 0.922094,0.208042 L 16.33622,19.88731 C 16.473065,19.9634 16.601643,20 16.709099,20 c 0.286547,0 0.44176,-0.252348 0.37196,-0.681917 l -0.652997,-3.987479 c -0.09552,-0.591379 0.159805,-1.419696 0.568502,-1.83867 l 2.763527,-2.82302 c 0.409615,-0.4209 0.281955,-0.8331326 -0.285629,-0.919817 L 15.659344,9.1673489 C 15.092679,9.0816277 14.420395,8.5701902 14.16783,8.0308211 L 12.461405,4.4035637 C 12.333744,4.1348423 12.16751,4 11.999439,4 Z"
   id="path10"
   style="stroke-width:0.940523" />
</svg>
