<?xml version="1.0" encoding="UTF-8" standalone="no"?>
<svg
   xmlns:dc="http://purl.org/dc/elements/1.1/"
   xmlns:cc="http://creativecommons.org/ns#"
   xmlns:rdf="http://www.w3.org/1999/02/22-rdf-syntax-ns#"
   xmlns:svg="http://www.w3.org/2000/svg"
   xmlns="http://www.w3.org/2000/svg"
   xmlns:sodipodi="http://sodipodi.sourceforge.net/DTD/sodipodi-0.dtd"
   xmlns:inkscape="http://www.inkscape.org/namespaces/inkscape"
   version="1.0"
   id="Ebene_1"
   x="0px"
   y="0px"
   width="24"
   height="24"
   viewBox="0 0 24 24.000001"
   enable-background="new 0 0 21.775 20.762"
   xml:space="preserve"
   sodipodi:docname="star_hollow_3_spacing.svg"
   inkscape:version="1.0.2 (e86c8708, 2021-01-15)"><metadata
   id="metadata35"><rdf:RDF><cc:Work
       rdf:about=""><dc:format>image/svg+xml</dc:format><dc:type
         rdf:resource="http://purl.org/dc/dcmitype/StillImage" /><dc:title></dc:title></cc:Work></rdf:RDF></metadata><defs
   id="defs33" /><sodipodi:namedview
   pagecolor="#ffffff"
   bordercolor="#666666"
   borderopacity="1"
   objecttolerance="10"
   gridtolerance="10"
   guidetolerance="10"
   inkscape:pageopacity="0"
   inkscape:pageshadow="2"
   inkscape:window-width="1068"
   inkscape:window-height="789"
   id="namedview31"
   showgrid="false"
   inkscape:zoom="16"
   inkscape:cx="10.8875"
   inkscape:cy="10.381"
   inkscape:window-x="0"
   inkscape:window-y="23"
   inkscape:window-maximized="0"
   inkscape:current-layer="Ebene_1" />
<path
   fill="#393a3b"
   d="m 19.768322,10.669314 c 0.364972,-0.373728 0.283152,-0.7301181 -0.13606,-0.8668949 -0.0074,-0.00289 -0.01103,-0.010595 -0.01839,-0.013485 -0.06251,-0.028897 -0.159962,-0.067425 -0.301538,-0.088616 L 15.586312,9.1329832 C 15.32982,9.0944545 15.044829,8.9557512 14.795692,8.7679239 14.665148,8.6677493 14.545636,8.5550529 14.440833,8.435614 14.344304,8.3229175 14.262484,8.2034786 14.206405,8.0840397 L 12.539669,4.5432535 c -0.01839,-0.038529 -0.04045,-0.067425 -0.06068,-0.1030643 L 12.461526,4.403587 C 12.453252,4.3862491 12.44222,4.381433 12.433946,4.3650583 12.422914,4.35061 12.412802,4.3342353 12.40177,4.3207503 12.283177,4.1204011 12.144359,3.999999 11.999105,3.999999 c -0.137898,0 -0.270281,0.1146228 -0.385197,0.2976341 -0.0092,0.010595 -0.01655,0.02408 -0.02482,0.034676 -0.01563,0.027933 -0.03585,0.039492 -0.05056,0.071278 l -0.0239,0.050087 c -0.01839,0.031786 -0.03769,0.051051 -0.05516,0.089579 L 9.7918059,8.0821133 C 9.7348077,8.2034786 9.6520684,8.324844 9.5537007,8.4394668 9.4507362,8.5560161 9.333982,8.6667861 9.2080344,8.7631078 8.9561393,8.954788 8.6693099,9.0944545 8.4109796,9.1339464 L 4.6840357,9.7003181 c -0.050563,0.00771 -0.1093997,0.031786 -0.1654785,0.049124 v 0 c 0,0 0,0 -9.193e-4,0 -0.045966,0.014448 -0.087336,0.024081 -0.1305442,0.046234 C 3.9504143,9.9286005 3.8612398,10.289807 4.2326471,10.669314 l 2.7644105,2.82319 c 0.3962291,0.406478 0.6426082,1.187647 0.5718202,1.774246 l -0.6315763,3.857685 c -0.00368,0.02408 0,0.04334 -0.00184,0.0655 l -0.020225,0.128108 c -0.070788,0.429595 0.086417,0.681958 0.3714073,0.681958 0.1084804,0 0.2344279,-0.0366 0.3741653,-0.112696 l 3.4171309,-1.88309 c 0.253734,-0.139666 0.589288,-0.208055 0.922084,-0.208055 0.334634,0 0.670188,0.06935 0.923002,0.208055 l 3.418051,1.88309 c 0.136979,0.07609 0.265685,0.112696 0.373246,0.112696 0.286829,0 0.442195,-0.252363 0.372327,-0.681958 l -0.02758,-0.1676 c -9.2e-4,-0.01156 0.0018,-0.0183 0,-0.0289 l -0.62698,-3.816266 c -0.0855,-0.589489 0.166398,-1.398592 0.569982,-1.812775 z m -4.089158,4.86521 0.553433,3.378966 -2.891277,-1.595088 c -0.371407,-0.205165 -0.847618,-0.318824 -1.342215,-0.318824 -0.491838,0 -0.96713,0.113659 -1.340376,0.318824 L 7.764694,18.902895 8.3153698,15.534524 C 8.4624618,14.643548 8.1057636,13.493467 7.4870579,12.861597 L 5.1519721,10.469929 8.3815612,9.979651 C 9.2356142,9.8496167 10.168729,9.1397257 10.551168,8.3267704 l 1.438744,-3.0957799 1.456211,3.0938535 c 0.382439,0.8129553 1.315554,1.5228463 2.170527,1.6509542 l 3.230508,0.4999098 -2.340602,2.387815 c -0.615947,0.632834 -0.971726,1.780025 -0.827392,2.671001 z"
   id="path28"
   style="stroke-width:0.941015" />
</svg>
