<svg enable-background="new 0 0 21.775 20.762" height="24" viewBox="0 0 24 24.000001" width="24" xmlns="http://www.w3.org/2000/svg"><path d="m11.99898 4.3891397c.02388.017338.07623.067425.131327.1859009l1.707245 3.6274758c.305816.6511348 1.083674 1.2435133 1.766939 1.3465776l3.815818.58082c.137755.02119.200204.06357.208469.06357h.000918c0 .0183-.02296.09247-.128571.199386l-2.763368 2.82319c-.495.506652-.791633 1.465053-.675 2.17976l.652959 3.987719c.0248.150262.0028.225393-.0101.230209-.02296 0-.09-.0077-.202959-.06839l-3.410819-1.883088c-.297552-.16471-.686021-.254289-1.092858-.254289s-.796225.09054-1.092857.254289l-3.4126543 1.882126c-.1129592.06068-.18.06839-.2057143.07898-.00918-.01541-.031224-.09054-.00735-.240804l.652041-3.987719c.1175541-.715665-.1790787-1.673102-.6749972-2.179755l-2.760613-2.823189c-.1046939-.105954-.1294898-.180122-.1340817-.180122.00918-.01445.070714-.05876.2158164-.08091l3.8139807-.5808198c.6860206-.1040275 1.4620412-.696406 1.7687764-1.3475408l1.707245-3.6274758c.0551-.1184757.107449-.1704894.130408-.1859009m0-.3891397c-.167143 0-.334286.1348504-.460102.403588l-1.7072454 3.628439c-.2534694.5394016-.9247961 1.0508699-1.491429 1.1365962l-3.814899.5808199c-.5675512.08669-.6952043.5008729-.284694.9198729l2.7615314 2.823189c.4105104.419963.6667349 1.247366.569388 1.838781l-.652041 3.986756c-.070714.429595.086326.681958.3719388.681958.1083674 0 .2341838-.0366.3737757-.112696l3.4135725-1.88309c.253469-.139666.587755-.208055.921122-.208055.334286 0 .66949.06935.922042.208055l3.413572 1.88309c.137755.07609.265408.112696.373775.112696.285613 0 .441735-.252363.371939-.681958l-.652959-3.986756c-.09643-.591415.159796-1.419782.568469-1.838781l2.763369-2.823189c.409592-.419.281938-.8331833-.285613-.9198729l-3.814899-.5808199c-.566633-.0857263-1.238878-.5971946-1.491429-1.1365962l-1.707245-3.628439c-.127653-.2687376-.293878-.403588-.461939-.403588z" fill="#777" stroke-width=".940525"/></svg>