<?xml version="1.0" encoding="UTF-8" standalone="no"?>
<svg
   xmlns:dc="http://purl.org/dc/elements/1.1/"
   xmlns:cc="http://creativecommons.org/ns#"
   xmlns:rdf="http://www.w3.org/1999/02/22-rdf-syntax-ns#"
   xmlns:svg="http://www.w3.org/2000/svg"
   xmlns="http://www.w3.org/2000/svg"
   xmlns:sodipodi="http://sodipodi.sourceforge.net/DTD/sodipodi-0.dtd"
   xmlns:inkscape="http://www.inkscape.org/namespaces/inkscape"
   version="1.0"
   id="Ebene_1"
   x="0px"
   y="0px"
   width="24"
   height="24"
   viewBox="0 0 24 24.000001"
   enable-background="new 0 0 21.775 20.762"
   xml:space="preserve"
   sodipodi:docname="star_hollow_2_spacing.svg"
   inkscape:version="1.0.2 (e86c8708, 2021-01-15)"><metadata
   id="metadata26"><rdf:RDF><cc:Work
       rdf:about=""><dc:format>image/svg+xml</dc:format><dc:type
         rdf:resource="http://purl.org/dc/dcmitype/StillImage" /><dc:title></dc:title></cc:Work></rdf:RDF></metadata><defs
   id="defs24" /><sodipodi:namedview
   pagecolor="#ffffff"
   bordercolor="#666666"
   borderopacity="1"
   objecttolerance="10"
   gridtolerance="10"
   guidetolerance="10"
   inkscape:pageopacity="0"
   inkscape:pageshadow="2"
   inkscape:window-width="1068"
   inkscape:window-height="789"
   id="namedview22"
   showgrid="false"
   inkscape:zoom="16"
   inkscape:cx="10.8875"
   inkscape:cy="10.381"
   inkscape:window-x="0"
   inkscape:window-y="23"
   inkscape:window-maximized="0"
   inkscape:current-layer="Ebene_1" />
<path
   fill="#393a3b"
   d="m 17.002073,13.492504 2.766249,-2.82319 c 0.364972,-0.373728 0.283152,-0.7301181 -0.13606,-0.8668949 -0.0074,-0.00289 -0.01103,-0.010595 -0.01839,-0.013485 -0.06251,-0.028897 -0.159962,-0.067425 -0.301538,-0.088616 L 15.586312,9.1329832 C 15.32982,9.0944545 15.044829,8.9557512 14.795692,8.7679239 14.665148,8.6677493 14.545636,8.5550529 14.440833,8.435614 14.344304,8.3229175 14.262484,8.2034786 14.206405,8.0840397 L 12.539669,4.5432535 c -0.01839,-0.038529 -0.04045,-0.067425 -0.06068,-0.1030643 L 12.461526,4.403587 C 12.453252,4.3862491 12.44222,4.381433 12.433946,4.3650583 12.422914,4.35061 12.412802,4.3342353 12.40177,4.3207503 12.283177,4.1204011 12.144359,3.999999 11.999105,3.999999 c -0.137898,0 -0.270281,0.1146228 -0.385197,0.2976341 -0.0092,0.010595 -0.01655,0.02408 -0.02482,0.034676 -0.01563,0.027933 -0.03585,0.039492 -0.05056,0.071278 l -0.0239,0.050087 c -0.01839,0.031786 -0.03769,0.051051 -0.05516,0.089579 L 9.7918059,8.0821133 C 9.7348077,8.2034786 9.6520684,8.324844 9.5537007,8.4394668 9.4507362,8.5560161 9.333982,8.6667861 9.2080344,8.7631078 8.9561393,8.954788 8.6693099,9.0944545 8.4109796,9.1339464 L 4.6840357,9.7003181 c -0.050563,0.00771 -0.1093997,0.031786 -0.1654785,0.049124 v 0 c 0,0 0,0 -9.193e-4,0 -0.045966,0.014448 -0.087336,0.024081 -0.1305442,0.046234 C 3.9504143,9.9286005 3.8612398,10.289807 4.2326471,10.669314 l 2.7644105,2.82319 c 0.3962291,0.406478 0.6426082,1.187647 0.5718202,1.774246 l -0.6315763,3.857685 c -0.00368,0.02408 0,0.04334 -0.00184,0.0655 l -0.020225,0.128108 c -0.070788,0.429595 0.086417,0.681958 0.3714073,0.681958 0.1084804,0 0.2344279,-0.0366 0.3741653,-0.112696 l 3.4171309,-1.88309 c 0.253734,-0.139666 0.589288,-0.208055 0.922084,-0.208055 0.334634,0 0.670188,0.06935 0.923002,0.208055 l 3.418051,1.88309 c 0.136979,0.07609 0.265685,0.112696 0.373246,0.112696 0.286829,0 0.442195,-0.252363 0.372327,-0.681958 l -0.02758,-0.1676 c -9.2e-4,-0.01156 0.0018,-0.0183 0,-0.0289 l -0.62698,-3.816266 c -0.0855,-0.590452 0.166398,-1.398592 0.569982,-1.812775 z m -1.488388,1.902354 0.527693,3.226777 -2.760733,-1.522846 c -0.35486,-0.195533 -0.809926,-0.303413 -1.282459,-0.303413 -0.469775,0 -0.923922,0.10788 -1.28062,0.303413 L 7.9531557,18.61104 8.4790096,15.393895 C 8.6196664,14.542411 8.2795161,13.445306 7.6874707,12.841369 L 5.4590267,10.555655 8.5424431,10.086568 C 9.3578844,9.9632763 10.24963,9.2842083 10.615521,8.5078552 l 1.374391,-2.9541869 1.390939,2.9551502 c 0.364972,0.776353 1.256717,1.4544578 2.073078,1.5767865 l 3.084336,0.477756 -2.235799,2.279935 c -0.586529,0.603937 -0.92576,1.701041 -0.788781,2.551562 z"
   id="path19"
   style="stroke-width:0.941015" />
</svg>
