<svg enable-background="new 0 0 21.775 20.762" height="24" viewBox="0 0 24 24.000001" width="24" xmlns="http://www.w3.org/2000/svg"><path d="m19.768322 10.669314c.364972-.373728.283152-.7301181-.13606-.8668949-.0074-.00289-.01103-.010595-.01839-.013485-.06251-.028897-.159962-.067425-.301538-.088616l-3.726022-.5673349c-.256492-.0385287-.541483-.177232-.79062-.3650593-.130544-.1001746-.250056-.212871-.354859-.3323099-.096529-.1126965-.178349-.2321354-.234428-.3515743l-1.666736-3.5407862c-.01839-.038529-.04045-.067425-.06068-.1030643l-.017463-.0366022c-.008274-.0173379-.019306-.022154-.02758-.0385287-.011032-.0144483-.021144-.030823-.032176-.044308-.118593-.2003492-.257411-.3207513-.402665-.3207513-.137898 0-.270281.1146228-.385197.2976341-.0092.010595-.01655.02408-.02482.034676-.01563.027933-.03585.039492-.05056.071278l-.0239.050087c-.01839.031786-.03769.051051-.05516.089579l-1.6676621 3.5388602c-.0569982.1213653-.1397375.2427307-.2381052.3573535-.1029645.1165493-.2197187.2273193-.3456663.323641-.2518951.1916802-.5387245.3313467-.7970548.3708386l-3.7269439.5663717c-.050563.00771-.1093997.031786-.1654785.049124s0 0-.0009193 0c-.045966.014448-.087336.024081-.1305442.046234-.4366794.1329244-.5258539.4941309-.1544466.8736379l2.7644105 2.82319c.3962291.406478.6426082 1.187647.5718202 1.774246l-.6315763 3.857685c-.00368.02408 0 .04334-.00184.0655l-.020225.128108c-.070788.429595.086417.681958.3714073.681958.1084804 0 .2344279-.0366.3741653-.112696l3.4171309-1.88309c.253734-.139666.589288-.208055.922084-.208055.334634 0 .670188.06935.923002.208055l3.418051 1.88309c.136979.07609.265685.112696.373246.112696.286829 0 .442195-.252363.372327-.681958l-.02758-.1676c-.00092-.01156.0018-.0183 0-.0289l-.62698-3.816266c-.0855-.589489.166398-1.398592.569982-1.812775zm-4.089158 4.86521.553433 3.378966-2.891277-1.595088c-.371407-.205165-.847618-.318824-1.342215-.318824-.491838 0-.96713.113659-1.340376.318824l-2.894035 1.584493.5506758-3.368371c.147092-.890976-.2096062-2.041057-.8283119-2.672927l-2.3350858-2.391668 3.2295891-.490278c.854053-.1300343 1.7871678-.8399253 2.1696068-1.6528806l1.438744-3.0957799 1.456211 3.0938535c.382439.8129553 1.315554 1.5228463 2.170527 1.6509542l3.230508.4999098-2.340602 2.387815c-.615947.632834-.971726 1.780025-.827392 2.671001z" fill="#393a3b" stroke-width=".941015"/></svg>