<svg enable-background="new 0 0 21.775 20.762" height="24" viewBox="0 0 24 24.000001" width="24" xmlns="http://www.w3.org/2000/svg"><path d="m17.002073 13.492504 2.766249-2.82319c.364972-.373728.283152-.7301181-.13606-.8668949-.0074-.00289-.01103-.010595-.01839-.013485-.06251-.028897-.159962-.067425-.301538-.088616l-3.726022-.5673349c-.256492-.0385287-.541483-.177232-.79062-.3650593-.130544-.1001746-.250056-.212871-.354859-.3323099-.096529-.1126965-.178349-.2321354-.234428-.3515743l-1.666736-3.5407862c-.01839-.038529-.04045-.067425-.06068-.1030643l-.017463-.0366022c-.008274-.0173379-.019306-.022154-.02758-.0385287-.011032-.0144483-.021144-.030823-.032176-.044308-.118593-.2003492-.257411-.3207513-.402665-.3207513-.137898 0-.270281.1146228-.385197.2976341-.0092.010595-.01655.02408-.02482.034676-.01563.027933-.03585.039492-.05056.071278l-.0239.050087c-.01839.031786-.03769.051051-.05516.089579l-1.6676621 3.5388602c-.0569982.1213653-.1397375.2427307-.2381052.3573535-.1029645.1165493-.2197187.2273193-.3456663.323641-.2518951.1916802-.5387245.3313467-.7970548.3708386l-3.7269439.5663717c-.050563.00771-.1093997.031786-.1654785.049124s0 0-.0009193 0c-.045966.014448-.087336.024081-.1305442.046234-.4366794.1329244-.5258539.4941309-.1544466.8736379l2.7644105 2.82319c.3962291.406478.6426082 1.187647.5718202 1.774246l-.6315763 3.857685c-.00368.02408 0 .04334-.00184.0655l-.020225.128108c-.070788.429595.086417.681958.3714073.681958.1084804 0 .2344279-.0366.3741653-.112696l3.4171309-1.88309c.253734-.139666.589288-.208055.922084-.208055.334634 0 .670188.06935.923002.208055l3.418051 1.88309c.136979.07609.265685.112696.373246.112696.286829 0 .442195-.252363.372327-.681958l-.02758-.1676c-.00092-.01156.0018-.0183 0-.0289l-.62698-3.816266c-.0855-.590452.166398-1.398592.569982-1.812775zm-1.488388 1.902354.527693 3.226777-2.760733-1.522846c-.35486-.195533-.809926-.303413-1.282459-.303413-.469775 0-.923922.10788-1.28062.303413l-2.7644103 1.512251.5258539-3.217145c.1406568-.851484-.1994935-1.948589-.7915389-2.552526l-2.228444-2.285714 3.0834164-.469087c.8154413-.1232917 1.7071869-.8023597 2.0730779-1.5787128l1.374391-2.9541869 1.390939 2.9551502c.364972.776353 1.256717 1.4544578 2.073078 1.5767865l3.084336.477756-2.235799 2.279935c-.586529.603937-.92576 1.701041-.788781 2.551562z" fill="#393a3b" stroke-width=".941015"/></svg>