<svg enable-background="new 0 0 21.775 20.762" height="24" viewBox="0 0 24 24.000001" width="24" xmlns="http://www.w3.org/2000/svg"><path d="m11.999439 4c-.167152 0-.333386.1348423-.460128.4035637l-1.7073435 3.6272574c-.253484.5393691-.9257677 1.0508066-1.4915146 1.1365278l-3.8151181.5817481c-.5675837.086684-.6952442.49988-.2847103.919817l2.76169 2.82302c.4096154.4209.6667731 1.247291.5694206 1.83867l-.6520785 3.987479c-.070718.429569.086332.681917.3710419.681917.1083735 0 .2341971-.0366.373797-.11269l3.4137685-1.883939c.253484-.139658.588707-.208042.921175-.208042.334305 0 .669529.06935.922094.208042l3.414687 1.883939c.136845.07609.265423.11269.372879.11269.286547 0 .44176-.252348.37196-.681917l-.652997-3.987479c-.09552-.591379.159805-1.419696.568502-1.83867l2.763527-2.82302c.409615-.4209.281955-.8331326-.285629-.919817l-3.815118-.5817481c-.566665-.0857212-1.238949-.5971587-1.491514-1.1365278l-1.706425-3.6272574c-.127661-.2687214-.293895-.4035637-.461966-.4035637z" fill="#393a3b" stroke-width=".940523"/></svg>