<svg height="258" viewBox="122.277 6.458 511.99998 258.00001" width="512" xmlns="http://www.w3.org/2000/svg"><g fill="#008fa9" transform="matrix(1.5667693 0 0 1.5626211 -69.302853 4.366591)"><path d="m151.589 49.45h-5.862v-23.45h15.633v15.634h21.496v-19.542l-15.633-15.634h-31.267l-13.679 15.634v33.221l15.633 15.633h13.679z"/><path d="m155.498 70.946h5.862v23.45h-15.633v-15.634h-23.45v21.497l15.633 15.633h33.221l13.679-15.633v-35.175l-15.633-15.634h-13.679z"/><path d="m188.718 6.458v93.801l16.611 15.633h12.702v-19.541h-5.863v-89.893z"/><path d="m251.251 6.458v93.801l-16.609 15.633h-12.703v-19.541h5.862v-89.893z"/><path d="m300.105 80.717 15.634-15.633v-42.015l-16.61-16.611h-14.656v19.542h7.816v33.221h-7.816v21.496z"/><path d="m257.11401 6.458h23.450001v109.433h-23.450001z"/><path d="m370.456 96.351h-25.405v-68.396h25.405v-21.497h-46.9v109.434h46.9z"/><path d="m348.95999 49.450001h15.634v19.542h-15.634z"/><path d="m438.852 115.892h-21.497v-42.992h-11.724v-21.496h9.77v-25.404h-9.77v-19.542h17.588l15.633 15.634v29.312l-10.748 10.748 10.748 10.748z"/><path d="m378.27301 6.458h23.448v109.433h-23.448z"/><path d="m186.765 141.296v5.863h13.678v7.817h-27.358v-21.497h33.221v-5.863h-37.129l-4.886 4.886v22.474l6.351 6.35h35.664v-20.03z"/><path d="m253.206 142.273v-8.794l-5.862-5.863h-33.221v33.221h7.816v-13.678h13.679l9.771 13.678h7.817l-9.771-13.678h3.909zm-7.817-.977h-23.45v-7.816h23.45z"/><path d="m278.61 135.434-11.725 25.403h-9.771l15.634-33.221h15.633l17.588 33.221h-9.772l-13.678-25.403z"/><path d="m315.739 141.296v-7.817h29.312v-5.863h-37.129v33.221h7.817v-13.678h25.404v-5.863z"/><path d="m393.905 160.837-17.587-17.587 17.587-15.634h-11.724l-11.725 11.726-11.726-11.726h-9.77l15.634 15.634-17.588 17.587h11.724l11.726-11.725 11.725 11.725z"/></g></svg>