<?xml version="1.0" encoding="UTF-8" standalone="no"?>
<svg
   xmlns:dc="http://purl.org/dc/elements/1.1/"
   xmlns:cc="http://creativecommons.org/ns#"
   xmlns:rdf="http://www.w3.org/1999/02/22-rdf-syntax-ns#"
   xmlns:svg="http://www.w3.org/2000/svg"
   xmlns="http://www.w3.org/2000/svg"
   xmlns:sodipodi="http://sodipodi.sourceforge.net/DTD/sodipodi-0.dtd"
   xmlns:inkscape="http://www.inkscape.org/namespaces/inkscape"
   version="1.2"
   id="svg2"
   x="0px"
   y="0px"
   width="512"
   height="258"
   viewBox="122.277 6.458 511.99998 258.00001"
   xml:space="preserve"
   sodipodi:docname="system.svg"
   inkscape:version="1.0.2 (e86c8708, 2021-01-15)"><metadata
   id="metadata10860"><rdf:RDF><cc:Work
       rdf:about=""><dc:format>image/svg+xml</dc:format><dc:type
         rdf:resource="http://purl.org/dc/dcmitype/StillImage" /><dc:title></dc:title></cc:Work></rdf:RDF></metadata><defs
   id="defs10858" /><sodipodi:namedview
   pagecolor="#ffffff"
   bordercolor="#666666"
   borderopacity="1"
   objecttolerance="10"
   gridtolerance="10"
   guidetolerance="10"
   inkscape:pageopacity="0"
   inkscape:pageshadow="2"
   inkscape:window-width="1186"
   inkscape:window-height="712"
   id="namedview10856"
   showgrid="false"
   inkscape:zoom="1"
   inkscape:cx="301.28751"
   inkscape:cy="129.434"
   inkscape:window-x="0"
   inkscape:window-y="23"
   inkscape:window-maximized="0"
   inkscape:current-layer="svg2" />
















<g
   id="g10880"
   transform="matrix(1.5667693,0,0,1.5626211,-69.302853,4.3665907)"><g
     id="layer1">
</g><g
     id="layer5">
</g><polygon
     fill="#008fa9"
     points="151.589,49.45 145.727,49.45 145.727,26 161.36,26 161.36,41.634 182.856,41.634 182.856,22.092 167.223,6.458 135.956,6.458 122.277,22.092 122.277,55.313 137.91,70.946 151.589,70.946 "
     id="polygon10823" /><polygon
     fill="#008fa9"
     points="155.498,70.946 161.36,70.946 161.36,94.396 145.727,94.396 145.727,78.762 122.277,78.762 122.277,100.259 137.91,115.892 171.131,115.892 184.81,100.259 184.81,65.084 169.177,49.45 155.498,49.45 "
     id="polygon10825" /><polygon
     fill="#008fa9"
     points="188.718,6.458 188.718,100.259 205.329,115.892 218.031,115.892 218.031,96.351 212.168,96.351 212.168,6.458 "
     id="polygon10827" /><polygon
     fill="#008fa9"
     points="251.251,6.458 251.251,100.259 234.642,115.892 221.939,115.892 221.939,96.351 227.801,96.351 227.801,6.458 "
     id="polygon10829" /><polygon
     fill="#008fa9"
     points="300.105,80.717 315.739,65.084 315.739,23.069 299.129,6.458 284.473,6.458 284.473,26 292.289,26 292.289,59.221 284.473,59.221 284.473,80.717 "
     id="polygon10831" /><rect
     x="257.11401"
     y="6.4580002"
     fill="#008fa9"
     width="23.450001"
     height="109.433"
     id="rect10833" /><polygon
     fill="#008fa9"
     points="370.456,96.351 345.051,96.351 345.051,27.955 370.456,27.955 370.456,6.458 323.556,6.458 323.556,115.892 370.456,115.892 "
     id="polygon10835" /><rect
     x="348.95999"
     y="49.450001"
     fill="#008fa9"
     width="15.634"
     height="19.542"
     id="rect10837" /><polygon
     fill="#008fa9"
     points="438.852,115.892 417.355,115.892 417.355,72.9 405.631,72.9 405.631,51.404 415.401,51.404 415.401,26 405.631,26 405.631,6.458 423.219,6.458 438.852,22.092 438.852,51.404 428.104,62.152 438.852,72.9 "
     id="polygon10839" /><rect
     x="378.27301"
     y="6.4580002"
     fill="#008fa9"
     width="23.448"
     height="109.433"
     id="rect10841" /><polygon
     fill="#008fa9"
     points="186.765,141.296 186.765,147.159 200.443,147.159 200.443,154.976 173.085,154.976 173.085,133.479 206.306,133.479 206.306,127.616 169.177,127.616 164.291,132.502 164.291,154.976 170.642,161.326 206.306,161.326 206.306,141.296 "
     id="polygon10843" /><g
     id="g10847">
	<path
   fill="#008fa9"
   d="m 253.206,142.273 v -8.794 l -5.862,-5.863 h -33.221 v 33.221 h 7.816 v -13.678 h 13.679 l 9.771,13.678 h 7.817 l -9.771,-13.678 h 3.909 z m -7.817,-0.977 h -23.45 v -7.816 h 23.45 z"
   id="path10845" />
</g><polygon
     fill="#008fa9"
     points="278.61,135.434 266.885,160.837 257.114,160.837 272.748,127.616 288.381,127.616 305.969,160.837 296.197,160.837 282.519,135.434 "
     id="polygon10849" /><polygon
     fill="#008fa9"
     points="315.739,141.296 315.739,133.479 345.051,133.479 345.051,127.616 307.922,127.616 307.922,160.837 315.739,160.837 315.739,147.159 341.143,147.159 341.143,141.296 "
     id="polygon10851" /><polygon
     fill="#008fa9"
     points="393.905,160.837 376.318,143.25 393.905,127.616 382.181,127.616 370.456,139.342 358.73,127.616 348.96,127.616 364.594,143.25 347.006,160.837 358.73,160.837 370.456,149.112 382.181,160.837 "
     id="polygon10853" /></g>
</svg>
