<svg height="350.257" viewBox="0 0 598.191 350.257" width="598.191" xmlns="http://www.w3.org/2000/svg"><path d="m281.73251 316.24453c-7.93974-.0681-10.61402-.18998-10.80609-.49237-.20175-.31767-.25628-.31669-.26021.004-.004.3217-5.31023.40539-25.44755.40145-13.99342-.003-25.63292-.1257-25.86552-.27325-.23265-.14755-.84171-2.23033-1.35348-4.62834-.51179-2.398-.94329-4.2609-.95893-4.13972-.77195 5.98996-1.40357 7.72357-3.10877 8.53275-.93027.44146-2.91404.51354-14.13033.51354-11.72124 0-13.06868-.0535-13.25001-.52609-.11104-.28931 1.0642-19.39873 2.61166-42.46534l2.81355-41.93931-.8132-.96639c-.9289-1.10395-1.0173-2.07452-.33716-3.70226.67506-1.61567 2.55466-2.39839 15.52019-6.46303 11.97772-3.75497 22.5654-7.34874 31.63752-10.73872 7.26036-2.71297 7.47538-2.7678 7.23399-1.84471-.24877.95125-.096.87783.66096-.31777.55843-.88202 1.55688-1.3764 7.59154-3.75896 3.82169-1.50886 7.06399-2.85726 7.20514-2.99646.14114-.1392-.48069-1.50584-1.38186-3.03696-.90118-1.53113-1.63851-2.99504-1.63851-3.25313 0-.37628.88592-.50969 4.47075-.6733 4.57419-.20876 16.60653-1.61292 19.25415-2.24695.81059-.19411 2.3152-.36665 3.34356-.38341l1.86972-.0305.003-2.76373c0-1.52005.0946-3.52897.20692-4.46427l.20429-1.70055-7.10669-.0877-7.1072-.0877-.41821-2.43859c-2.05117-11.96065-3.34515-24.19379-3.49088-33.00219-.11146-6.73734-.53422-10.08813-2.31578-18.35523-.93043-4.3175-2.78564-10.05991-3.75873-11.6344-.67403-1.09062-.6741-1.09569-.30955-22.129401.65777-37.953463 1.37846-63.058633 1.86598-65.001055.25683-1.023322 1.36596-1.416529 16.21113-5.747235 5.18605-1.512901 10.67288-3.218751 12.19293-3.790781 1.52004-.572029 3.12952-1.045414 3.57659-1.051984.44708-.0066 6.08021 2.035952 12.51807 4.538908 6.43787 2.502963 13.60731 5.180671 15.93209 5.950459 2.32479.769795 4.58939 1.565351 5.03243 1.767911 1.14281.522488 2.19261 2.227951 2.99253 4.861591.87367 2.876277.84122 3.911555-1.35712 43.286261-2.15379 38.576566-5.47443 97.045026-5.73841 101.038716l-.20953 3.17016-2.4734-.001c-1.36034-.00073-7.29059-.21945-13.17828-.48548-5.88769-.26604-10.76925-.41938-10.84787-.34076-.0786.0786.11159 1.59211.42272 3.36329l.56565 3.22034 1.82846-1.10314c3.81365-2.30088 8.98085-3.08811 13.62961-2.07649 2.27659.49542 2.64912 1.24119.85249 1.70675-.55076.14271-1.25977.54502-1.57562.894-.55732.61586-.54221.63984.51419.81492 1.35338.22431 12.21328 1.47382 14.41932 1.65905 3.89163.32675 12.43877 1.16113 13.33093 1.30138.53649.0843 6.75488.2912 13.81866.4597 12.02733.2869 17.59495.60655 31.47401 1.80694 3.09375.26757 5.82822.4865 6.07656.4865.29391 0 .52108.53906.65081 1.54444.78851 6.11001 1.75862 10.46047 2.77827 12.45914.3414.66921 1.0272 1.52002 1.52395 1.89068 1.71358 1.27856 2.02048 1.7624 2.99101 4.71528 2.57163 7.82438 6.55329 28.01409 10.24424 51.94489l1.48663 9.63893v14.39468c0 7.91708-.10974 14.28521-.24386 14.15135-.13413-.13384-.32674-6.77898-.42803-14.76698l-.1838-14.52351-1.52248-9.42919c-4.5417-28.12811-8.59599-47.93386-10.80515-52.78437-.53058-1.165-1.21669-2.07997-1.87036-2.49426-.56784-.35987-1.36974-1.26583-1.78205-2.01324-.95951-1.73945-2.171-6.52341-2.6808-10.58611-.35255-2.80982-.4776-3.19119-1.08919-3.32251-.38003-.0816-4.56829-.44626-9.30727-.81037-4.73898-.36412-9.56739-.73796-10.72978-.83076-6.60795-.52756-14.34025-.77489-18.4241-.58933l-4.66118.2118-.0215 3.44481c-.0117 1.89464-.20082 4.70915-.42006 6.25447-.38904 2.7418-.38065 2.83057.34657 3.676.40984.4765.74393 1.18741.74237 1.5798 0 .3924-1.53959 2.83502-3.41783 5.42805-1.87822 2.59303-3.64743 5.04054-3.93155 5.43892-.49655.6963-.43494.82842 1.59214 3.41402 2.49279 3.17958 3.63632 4.29806 4.10086 4.01098.18689-.11551.4379-.94971.55785-1.8538.21508-1.62149.23134-1.64113 1.1977-1.44785 2.22767.44552 2.45975 1.90709.67419 4.24556-.93698 1.22711-1.08781 1.60444-.73158 1.83007.24682.15632.5585.28647.69263.28921.34598.007.30261 2.08409-.0637 3.04744-.30746.80864-.30735.80869.60936.28257.76796-.44075 1.12399-.46413 2.19255-.14398 3.27121.98008 5.6342 3.63314 5.6342 6.32586 0 1.41237 1.11421 2.86365 3.22742 4.20382 1.75286 1.11163 1.97347 1.13271 1.97987.18921.01-1.43193.47205-1.69432 3.20359-1.81837 2.25647-.10248 2.62616-.0408 2.90325.48468.52797 1.00116 1.36652 5.59503 1.36652 7.4863 0 2.12114-.41882 3.03272-1.39331 3.03272-.6975 0-.72014.10688-.72014 3.39887 0 3.25695.0322 3.41347.76796 3.74878.55363.25224.8896.24898 1.20369-.0117 1.48048-1.22868 2.91489 1.61125 2.67578 5.29769-.16238 2.50329-.76422 4.05566-2.14423 5.53062-.69698.74497-1.10816.89415-2.46434.89415-1.53956 0-1.71686-.0928-3.2719-1.71293-1.61405-1.6816-3.31205-4.68788-4.41209-7.81148-.34923-.99173-.99188-1.9377-1.7293-2.54554-.64545-.53203-1.78671-1.89998-2.53617-3.03987-.9279-1.41134-2.46102-2.98551-4.80548-4.93418-4.54123-3.77453-8.47866-7.56873-8.84894-8.527-.37389-.96765.14589-1.66746 1.23854-1.66746.5545 0 2.13113 1.1967 5.24764 3.98302 5.28136 4.72182 7.77737 6.84991 9.9561 8.48856 1.32884.99945 1.77913 1.17218 2.60115.99783 1.82078-.38617 2.22695-1.02937 2.03808-3.22735-.0922-1.07297-.36481-2.52647-.60581-3.22998-.38975-1.13784-.6633-1.37128-2.47666-2.11344-2.93817-1.20253-4.11802-2.2582-4.62864-4.14149-.23413-.8635-.68667-2.09596-1.0057-2.7388-.65185-1.31354-2.76734-3.31718-3.31101-3.13596-.68758.22919-.58789.84178.15409.94695.63312.0897.76617.32736.85191 1.52146.11614 1.61762-.56296 2.6492-1.74404 2.6492-1.41517 0-3.72136-3.60291-3.31089-5.17251.1297-.496.0472-.52854-.58419-.23055-.61065.28817-.75831.66599-.87142 2.22957-.0749 1.03542-.28691 2.03335-.47116 2.21759-.4146.41461-4.6223.79297-5.72912.51517-1.65817-.41618-1.4467-2.16042.2619-2.16042 2.17769 0 2.85347-.83201 3.24933-4.0005.23255-1.86097.24803-1.88368 1.15017-1.68553 1.01306.2225 1.70298-.50819 2.23654-2.36855.26149-.91172.21392-.99469-.67165-1.1718-.9554-.19108-3.70129-2.70119-6.37151-5.82441l-1.3314-1.55729-1.05805.64344c-.71301.4336-1.21191 1.09859-1.52984 2.03906l-.47175 1.39563 2.23241 2.04381c1.22781 1.12409 2.92741 2.50482 3.77685 3.06828.84944.56347 1.54444 1.21555 1.54444 1.44908 0 .66299-1.77393 1.41675-3.33424 1.41675-1.83521 0-4.01416-1.3582-5.61153-3.49784l-1.18659-1.58935-3.60963-.37742c-1.98529-.20758-3.64906-.33801-3.69722-.28984-.0482.0482-.38838 2.05762-.75602 4.46546-4.54312 29.75421-15.41866 62.19497-26.90439 80.25336-.60955.9584-1.06258 1.78824-1.00672 1.8441.0558.0558 18.4268.20855 40.82433.33932s40.72278.36172 40.72278.51321c0 .37099-81.96937.34761-82.55561-.0234-.36419-.23059.0408-1.13388 2.00198-4.46577 11.96959-20.33464 21.50745-49.03769 26.0582-78.4189.42477-2.74251.89877-5.10117 1.05331-5.24148.15451-.14031 1.15885-.1401 2.23183.00032 1.07298.14058 2.85288.26794 3.95532.28303l2.00448.0274 1.22164 1.66421c2.17557 2.96376 4.74018 4.32388 6.65633 3.53019l.95163-.39418-1.37952-.93217c-.75873-.5127-2.47178-1.93588-3.80677-3.16263l-2.4272-2.23045.61898-1.82105c.48622-1.43037.89112-1.99922 1.8874-2.6515.69763-.45676 1.43818-.82904 1.64565-.8273.20751.001 1.53198 1.33271 2.94335 2.95773 2.67242 3.07703 4.84683 4.91442 5.50394 4.65085.43313-.17374 2.21281-2.56422 2.56618-3.44693.15886-.39682.0379-.68211-.38504-.90849-.90985-.48694-.98454-.43113-.98454.73565 0 1.26197-.78415 2.51093-1.57646 2.51093-.31029 0-1.16278-.62184-1.89446-1.38187-1.75412-1.82205-4.98284-6.06219-4.98284-6.54369 0-.20902.41657-.8889.92572-1.51084 2.25341-2.75266 6.87775-9.51988 6.87775-10.06486 0-.32994-.46174-.98843-1.02606-1.46329-.9898-.83286-1.04631-.8425-1.59824-.27276-.31468.32484-.79011 1.12393-1.0565 1.77575-.54917 1.34376-.26028 1.90374.9821 1.90374.42555 0 .74783.1969.74783.4569 0 .56052-9.0543 11.57346-9.51513 11.57346-.18156 0-.50368-.2374-.71587-.52757-.63319-.86597-1.79935-.28708-1.79935.89322 0 1.45415-.65881 3.78867-1.19464 4.23339-.37194.30867-.79561.27763-1.99604-.14621-1.91244-.6752-4.97624-1.12687-9.97768-1.47093-3.92235-.26982-4.7146-.2208-4.7146.29174 0 .37376 2.75291 1.16931 5.03142 1.45399 1.15644.14449 1.91673.40939 2.03121.70772.466 1.21433-3.10721 20.13614-5.75834 30.49314-4.15096 16.21647-9.17504 30.16538-15.45836 42.91911-2.88017 5.84606-7.61921 14.03029-8.51944 14.71279-.29481.22355-1.12994.37197-1.85577.3298-.72585-.0422-6.06762-.11735-11.87057-.16716zm-27.88907-2.02536c-.26554-1.97974.50265-2.93316 2.36332-2.93316 1.2323 0 1.51917.12407 1.82166.78798.46499 1.02057.0882 3.11375-.56048 3.11375-.26575 0-.56742-.21947-.67036-.48771-.16251-.42347-1.093-.72293-1.093-.35174 0 .0748-.0888.36741-.19737.65029-.17636.45962.58243.51431 7.13491.51431h7.33224l-.67626-1.54444c-.37194-.84944-2.31988-5.05597-4.32872-9.34789-7.66428-16.37468-11.4554-25.57535-15.9769-38.77433-3.74586-10.9348-6.31756-19.77736-7.48002-25.71926l-.86807-4.43709.38227-9.4292c.40101-9.89199.78504-12.81659 2.11546-16.11034.69142-1.71183.7291-1.97427.26311-1.83293-.29913.0907-3.7628 1.35403-7.69706 2.80734-8.82283 3.25916-19.72864 6.92185-31.05132 10.42853-9.35542 2.89741-12.42729 4.11421-12.97627 5.13997-.57488 1.07416-.40906 2.39916.41154 3.2888l.76621.83065-2.68265 39.99281c-1.47543 21.99604-2.76278 40.98041-2.86071 42.1875l-.17809 2.19473 13.06815-.0104c10.3212-.008 13.18719-.10074 13.63446-.44032.31149-.23648.89373-1.1463 1.29392-2.02182.65643-1.43616.72822-2.10521.73427-6.84173.004-2.88749.11416-5.08221.24555-4.87718.16209.2529.24366.21593.25374-.11497.0401-1.31576.65068.99699 1.95201 7.39397l1.40495 6.9062 15.63302.0876c8.59816.0482 16.31411.12271 17.14651.16566l1.51352.0781-.17354-1.29372zm43.53039-2.60801c9.66807-16.02552 17.89027-37.86098 23.16243-61.51176 1.68906-7.57703 3.84994-19.85316 3.70612-21.05472-.0863-.72093-.32407-.83114-2.63035-1.21902-2.96424-.49856-4.4551-1.17494-4.4551-2.02124 0-1.36633.6684-1.47576 6.44473-1.05519 2.98268.21718 6.3741.61568 7.53649.88556 1.1624.26989 2.40282.52113 2.75651.5583.65898.0693.7717-.252 1.30439-3.71671.22324-1.45215 1.57295-2.21969 2.77349-1.5772.63367.33914.81851.25849 1.61437-.70435.49431-.59803 2.38507-2.8797 4.20165-5.07035 2.38575-2.87703 3.13745-3.98303 2.70702-3.98303-1.89884 0-1.78114-2.27451.26923-5.20231.64017-.91413 1.14499-4.04064 1.47215-9.11768l.22091-3.42763-8.40864-.7504c-4.62473-.41272-8.90386-.83076-9.50918-.92899-1.07112-.17382-1.09522-.15339-.89974.76401.88052 4.13257 2.06662 16.25857 1.68708 17.24764-.10847.2826-.4927.44203-.91935.38145-.70049-.0995-.74224-.27733-.94052-4.00583-.20428-3.84126-.99315-10.27513-1.61807-13.19664l-.31904-1.49142-5.24936-.57222c-5.08783-.55461-5.26302-.55374-5.69289.0283-.94394 1.27793-5.92879 11.52941-7.48575 15.39458-.90042 2.23537-2.54777 6.91745-3.66074 10.40463s-2.59882 7.65716-3.30191 9.26662c-4.86413 11.13494-6.71339 17.14293-10.95871 35.60335-3.62383 15.75795-14.84474 44.18229-19.56291 49.55599l-.94774 1.07942.49692 1.67335.49695 1.67336 11.72686-.0854 11.72687-.0853zm30.04327-89.71065c-.10057-.16272.12814-1.64662.50826-3.29756.57519-2.49808.61628-3.04394.24493-3.25343-.24538-.13844-1.39721-.96235-2.5596-1.83093-1.88821-1.41091-2.11344-1.69885-2.11344-2.70192 0-.92158.15442-1.17701.86183-1.42581.7308-.25699 1.10166-.12888 2.43859.8424 2.13401 1.55033 9.19372 6.2411 10.15316 6.74618 1.04527.55027 1.32916.0523 1.33553-2.34269.005-1.84403.0179-1.86958.94562-1.86958 1.36424 0 1.74014 1.61839.99722 4.29338-.52153 1.87782-1.71566 2.62572-3.93841 2.46668-1.48787-.10646-2.23105-.39104-3.90174-1.49404l-2.06376-1.36252-.62932 2.76285c-.56132 2.4644-.70852 2.76285-1.36268 2.76285-.40334 0-.81563-.13313-.91619-.29586zm11.33916-3.92629c.43924-.43923.67273-1.22382.7718-2.59326.0781-1.07992.0146-1.9635-.14092-1.9635-.15562 0-.28294.87267-.28294 1.93926 0 1.40498-.155 2.09426-.5626 2.50186-.53213.53214-.62594.53241-1.73211.005-.64323-.30674-3.28048-1.98125-5.86057-3.72116-6.36246-4.29056-6.21313-4.2069-6.67857-3.74147-.53653.53655-.0412 1.07292 2.8642 3.10146 1.30783.91313 2.37788 1.7797 2.37788 1.9257s.22751.26546.50557.26546c.27803 0 1.39292.60259 2.47744 1.33909 1.08455.73651 2.35678 1.46082 2.82719 1.60959 1.18343.37426 2.68316.0825 3.43363-.66794zm-82.16784 95.41398c.68202.17119.77586.0964.68481-.5455-.0693-.48853-.36276-.78031-.85496-.85009-.98151-.13912-1.68913.47663-1.68913 1.46989 0 .73873.0386.75765.53447.2618.34846-.34849.80949-.46544 1.32481-.3361zm12.25714-4.24493c-1.98696-6.0252-7.12925-19.59026-12.00646-31.67229-7.48129-18.53299-10.90496-28.17554-12.83375-36.14533-1.47421-6.09151-1.57367-7.43489-1.2958-17.50356.24409-8.84319.34244-9.76896 1.43395-13.49351.10479-.35765-.0352-.16553-.31123.42694-.97898 2.10163-1.45385 5.53248-1.96049 14.16364-.46535 7.92832-.46583 9.05866-.005 12.19893.97913 6.67665 3.84971 16.75644 8.80654 30.92369 3.94446 11.27369 8.01576 21.04955 14.69212 35.2782 1.51036 3.21894 3.12113 6.69757 3.57945 7.73033.45833 1.03275.88674 1.82429.95206 1.75897.0653-.0653-.40766-1.71501-1.05106-3.66601zm3.61333-2.26338c2.56797-5.08032 6.1243-14.43824 11.69022-30.76082l2.51217-7.36709-2.26938-4.17555c-7.04432-12.96132-18.02505-36.68752-20.7417-44.81691-1.90746-5.70785-2.15792-10.75153-.73846-14.86982l.64186-1.86229-.83256-1.38916c-.45791-.76403-.83393-1.22162-.83563-1.01687-.003.20476-3.33176 1.70613-7.40013 3.33638-8.12809 3.25705-8.19735 3.30626-9.49048 6.74229-1.18942 3.16044-1.46621 6.11121-1.47483 15.7232-.009 10.25945.004 10.36251 2.47104 18.98317 2.16917 7.58036 4.81399 14.69839 13.54514 36.45401 3.42865 8.54327 9.02448 23.39887 10.01491 26.5872.32053 1.0319.73804 1.8291.92777 1.77157.18975-.0575 1.08078-1.56017 1.98006-3.33931zm6.02643-10.89706c5.06735-11.99377 10.12859-26.84906 12.01205-35.25681 1.8808-8.39574 4.36526-17.84791 6.02113-22.90728.78734-2.40572 1.38404-4.42154 1.32597-4.47962-.15789-.15788-1.74573 4.4157-3.13023 9.01622-.84489 2.80749-1.38473 4.09682-1.74571 4.16944-.40213.0809-.5226.50777-.5226 1.85195 0 3.23998-4.13614 18.44102-8.22606 30.23225-3.02219 8.71299-5.8648 16.56837-7.88317 21.7847-.13838.35766-.15769.56751-.043.46632.11477-.10118 1.10097-2.29591 2.19157-4.87717zm93.8979-25.51171c1.87069-1.57409 2.76373-5.98866 1.71963-8.50066-.38495-.92611-.53737-1.01394-1.49089-.85921-.62679.10172-1.43617-.0236-1.97464-.30574l-.91249-.47811-.0286-3.93179-.0287-3.9318.97544-.0958c1.5087-.14813 1.72323-1.59648.85821-5.79413-.38152-1.85135-.87701-3.49163-1.1011-3.64505-.56129-.38431-3.90134.008-4.21046.49414-.13822.21753-.25354.71608-.25628 1.10789-.007 1.06134-.49422 1.17757-2.04991.48943-2.91329-1.2887-4.78051-3.62491-4.78525-5.98725-.004-1.71729-1.3421-3.33608-3.80214-4.59779-1.56418-.80223-2.52296-.67374-3.48256.46669-1.05409 1.25269-1.09359 2.76054-.1102 4.20463 1.07985 1.58569 1.79731 1.93424 2.37635 1.15445.77467-1.04323.58458-1.80051-.50676-2.01878-.75203-.15041-.97544-.37023-.97544-.95981 0-1.05541 1.28455-1.86877 2.32599-1.47281 1.67658.63743 3.75584 3.68964 4.33906 6.36942.29649 1.36237 1.93207 2.75103 4.38988 3.72714 2.06807.82134 2.1265.87773 2.72178 2.62727.33461.98336.62723 2.68624.65029 3.7842.0493 2.34407-.42266 3.06392-2.39612 3.65518-1.05751.31684-1.45155.30051-2.18949-.0907-1.33176-.70602-4.8194-3.56984-10.55466-8.66683-4.51499-4.01271-6.11457-5.13306-6.11457-4.28283 0 .43678 4.5713 4.76864 8.29119 7.85686 2.44912 2.03324 4.08996 3.70504 5.20515 5.30325.8957 1.28368 2.24017 2.77818 2.98771 3.32113.98858.71799 1.36461 1.22292 1.37904 1.85186.0353 1.53617 3.11544 7.19998 4.7198 8.67882 1.70792 1.57431 2.6408 1.69621 4.03066.52671zm-82.78962-12.6714 2.09396-8.45377-.62268-26.01091c-.34248-14.306-.64766-26.0359-.67819-26.06644-.0305-.0305-.45663-.15618-.94682-.27922-.74322-.18653-1.08615-.0289-2.06402.94901-1.30776 1.30775-2.0831 1.50221-2.0831.52241 0-.76213.0555-.74914-1.25207-.29333-.98554.34356-1.02398.42589-1.02443 2.19473-.00026 1.01077-.22484 13.9232-.499 28.69428l-.49855 26.85652 2.51903 5.40999c1.38544 2.9755 2.61865 5.30211 2.74045 5.17024.1218-.13186 1.16372-4.04394 2.31542-8.69351zm-4.626-12.19293c-1.4346-1.43459-.46707-4.55203 1.41276-4.55203 1.11937 0 1.98647 1.13541 1.98647 2.60117 0 2.26169-1.96225 3.38785-3.39923 1.95086zm2.21098-.71531c.2146-.2146.39018-.7706.39018-1.23555 0-1.65528-1.72193-2.27025-2.27601-.81287-.62958 1.65595.76428 3.16997 1.88583 2.04842zm-2.68026-18.86572c-1.04551-1.49267-.21892-3.50425 1.43993-3.50425 1.23048 0 1.95565.77359 1.95565 2.08628 0 1.96686-2.32969 2.93973-3.39558 1.41797zm2.20322-.59898c.54426-.77704.37472-1.7997-.34404-2.07552-1.10357-.42348-1.90073 1.45568-.99972 2.35667.54497.54499.80287.49102 1.34376-.28115zm-2.05908-15.58591c-1.27554-1.27555-.40016-3.90173 1.30057-3.90173.95853 0 1.95087 1.15773 1.95087 2.27601s-.99234 2.27601-1.95087 2.27601c-.35765 0-.94291-.29263-1.30057-.65029zm2.27601-.97543c.49117-.91777-.13985-2.02297-1.07873-1.88932-.72514.10324-1.10088 1.14935-.7455 2.07554.2621.68299 1.42245.56454 1.82423-.18622zm-5.58761 44.95126c-.0414-1.95677-.0974-2.31207-.17954-1.13801-.0846 1.2087-.25531 1.70701-.58491 1.70701-.38913 0-.37649.18658.0772 1.138.29848.62591.58874 1.13801.64503 1.13801.0563 0 .0753-1.28025.0422-2.84501zm-.45497-29.01917c.24781-13.85929.40438-25.24724.34793-25.30654-.0894-.094-8.68682 4.5293-12.8386 6.90401-.80473.46028-1.68289.83864-1.95142.8408-.26857.002-.84911-.6763-1.29017-1.50766l-.80187-1.51158-.49097 1.10515c-.35409.7971-.48493 2.19269-.46935 5.00687.0341 6.16604 1.27883 9.5884 10.28813 28.2876 2.67097 5.54371 5.24491 10.89369 5.71988 11.88884l.86356 1.80935.0862-1.15906c.0474-.63749.28892-12.49849.53672-26.35778zm-3.34932 23.84938c-.53981-1.04616-.98848-1.79562-.9971-1.66545-.024.36298 1.72005 3.82605 1.85759 3.68851.0665-.0665-.32068-.9769-.86049-2.02306zm19.29987-15.23304c.77368-1.96713 2.16368-5.18607 3.08885-7.15319.92516-1.96713 2.5637-6.21027 3.64123-9.4292 3.10282-9.26929 6.63321-17.36007 10.48757-24.03492.81791-1.41646 1.48711-2.62356 1.48711-2.68245 0-.0589-.43165-.10707-.95927-.10707-.57525 0-1.08666-.22762-1.27746-.56858-.26815-.4791-.42607-.31694-1.00362 1.03045-.69916 1.63109-1.62999 5.04437-2.29029 8.39833l-.36807 1.86958h-1.2452c-1.60192 0-7.7719-1.05571-12.40248-2.12213-1.98999-.45829-3.65769-.79013-3.706-.73743-.0483.0527.14621 10.50332.43227 23.22359l.52014 23.12776 1.09424-3.61907c.60184-1.9905 1.7273-5.22855 2.50098-7.19567zm-4.47002 4.96427c-.0723-.5844-.13305-.18465-.13487.88833-.003 1.07297.0574 1.55112.13155 1.06254.0742-.48857.0757-1.36647.003-1.95087zm55.29892-.19092c.0916-1.93139.15311-2.07409 1.02573-2.3783.91864-.32023 1.89969-2.01932 2.46246-4.26464.35219-1.4053-.60913-1.12663-1.12166.32514-.59459 1.68429-1.26601 2.35731-2.35173 2.35731-.85091 0-.92563.0977-.93219 1.21929-.0117 1.97619-1.03939 3.84875-2.34992 4.28126-.61615.20335-1.36207.27694-1.65762.16353-.30729-.11792-.53734-.0465-.53734.16688 0 .25816.82626.344 2.68245.27865l2.68244-.0944.0974-2.05468zm-66.02626-4.69207c-.0684-.76003-.12447-.13818-.12447 1.38186 0 1.52006.0561 2.14189.12447 1.38187.0685-.76002.0685-2.00371 0-2.76373zm16.98465-1.70701c0-.17883-.14183-.10567-.31519.16257-.17337.26825-.3152.63403-.3152.81286s.14183.10567.3152-.16257c.17336-.26824.31519-.63403.31519-.81286zm.97543-2.27601c0-.17883-.14183-.10567-.31519.16257-.17337.26824-.31519.63403-.31519.81286s.14182.10567.31519-.16257c.17336-.26825.31519-.63403.31519-.81286zm-7.55789-5.11521c-.0724-.5844-.13304-.18465-.13487.88833-.003 1.07297.0574 1.55112.13155 1.06254.0742-.48858.0757-1.36647.003-1.95087zm-10.07662-9.42643c-.0687-.76475-.12586-.21994-.12703 1.21071 0 1.43063.055 2.05634.12488 1.39045.0699-.66588.0708-1.8364.003-2.60116zm9.75148-4.55479c-.0723-.5844-.13305-.18466-.13487.88832-.003 1.07298.0574 1.55113.13156 1.06255.0742-.48858.0757-1.36648.003-1.95087zm-28.95817-2.60698c-.0902-.22354-.164-.0406-.164.40643 0 .44707.0738.62996.164.40643.0902-.22354.0902-.58933 0-.81286zm10.75709-5.29217c3.71136-2.06126 7.11374-3.83957 7.56082-3.95181.44707-.11223.88601-.29425.97543-.40448.66342-.81783 3.90173-1.35398 3.90173-.64599 0 .19473.45017-.0248 1.00038-.48771.63946-.53806 1.39236-.84177 2.08684-.84177 1.78189 0 2.10977.2632 2.16976 1.7418l.0547 1.34707.12756-1.21929c.0702-.67061.3016-1.21826.51435-1.21701.21274.001 1.55731.28219 2.98794.62432 6.80548 1.62746 14.1438 2.75486 14.1438 2.17292 0-.0697.28476-1.4963.63276-3.17015.78093-3.75596 1.74239-6.57163 2.77872-8.1376l.78968-1.1933-1.21975-.20608c-2.72094-.45969-7.52599.8975-10.54122 2.97738-1.17982.81382-1.32796.83416-4.55203.62491-4.27249-.27728-8.23116.2068-9.20986 1.12622-.64589.6068-.84699.63555-2.00932.28731-1.05951-.31744-1.66812-.29253-3.38736.13863-2.84193.71273-11.62415 2.07411-16.20073 2.51137-2.05653.19649-4.27419.45206-4.92815.56794l-1.18896.2107 3.25464 5.44618c1.79005 2.99539 3.31218 5.44616 3.38251 5.44616.0703 0 3.16444-1.68647 6.8758-3.74772zm75.81611.24293c.45777-3.59208.62613-9.0048.29057-9.34247-.62795-.63196-.91713.45796-.93349 3.51855-.01 1.82245-.19914 4.51847-.42092 5.99116-.3829 2.54288-.33019 2.87971.46736 2.98674.10522.0141.37362-1.40517.59648-3.15398zm-18.93312 1.6414c-.0824-.31635-.15532-.13624-.16195.40025-.007.53649.0608.79532.14989.57518.0891-.22012.0945-.65907.0121-.97543zm-.32836-3.39988c-.10379-.25938-.18085-.18234-.19645.19644-.014.34275.0628.5348.1708.42675.10804-.10804.11958-.38848.0256-.62319zm-47.80304-1.97119c-.0902-.22354-.164-.0406-.164.40643 0 .44708.0738.62997.164.40643s.0902-.58932 0-.81286zm47.47789-.62997c-.10378-.25938-.18084-.18233-.19645.19644-.014.34276.0628.53479.1708.42676.10805-.10805.11959-.38849.0257-.6232zm-.32514-2.27601c-.10378-.25938-.18085-.18234-.19645.19644-.014.34275.0628.5348.1708.42675.10804-.10804.11959-.38848.0256-.62319zm-.65029-3.90174c-.10379-.25938-.18084-.18233-.19645.19644-.014.34276.0628.53479.17079.42676.10806-.10804.11959-.38849.0257-.6232zm-50.70759.18967c-.10804-.10805-.38848-.11959-.6232-.0257-.25937.1038-.18235.18084.19645.19645.34274.0141.5348-.0627.42675-.17078zm1.79506-.34404c-.22353-.0902-.58932-.0902-.81286 0-.22353.0902-.0406.164.40643.164.44707 0 .62997-.0738.40643-.164zm2.84502-.43948c.34313-.22493.15035-.25781-.65029-.11089-1.40229.25732-1.66679.44219-.62321.43558.43219-.003 1.00526-.14885 1.2735-.32469zm2.52368-.54402c-.31088-.0814-.89613-.0843-1.30058-.007-.40448.0778-.15012.14436.5652.14797.71532.004 1.04621-.06.73538-.14141zm9.77534-1.40232c4.34816 0 4.35362-.00073 4.18572-.73158-.55984-2.43563-1.25227-7.13095-1.0774-7.30581.11393-.11393 6.1493.0447 13.41196.35249 7.26266.3078 13.2358.51677 13.27368.46439.0666-.0922 1.14154-18.90529 5.57879-97.638666 1.15905-20.565409 2.13412-39.73269 2.16684-42.593964.0545-4.764151-.004-5.361131-.69562-7.087875-1.19169-2.975697-1.66038-3.336727-6.38646-4.919121-4.51844-1.512871-12.35231-4.448425-22.58117-8.461731l-6.32393-2.481207-2.17373.805714c-1.95093.72314-5.63684 1.836805-20.13146 6.08251-2.4142.707165-5.43454 1.656564-6.71184 2.109793l-2.32234.824043-.19954 1.686769c-.48977 4.139803-1.15645 28.672571-1.81272 66.70682-.28866 16.729425-.27917 17.252945.33084 18.239945 1.70213 2.75408 3.60933 9.69955 5.19692 18.92547.80961 4.7048.97127 6.55372.99513 11.38006.0156 3.16943.13705 6.49416.26971 7.38831l.24122 1.62573.70908-1.51761c.38998-.83469.87155-2.72499 1.07015-4.20067.48755-3.62273.16741-15.28466-.508-18.50501-1.50981-7.19898-1.96629-21.52472-.93067-29.20997.72995-5.417215.834-32.299995.1468-37.932419-.59524-4.878553-1.83732-11.572886-3.00869-16.215386-.53564-2.122933-.90042-3.93337-.81058-4.023187.62063-.620636 1.1894.718762 2.40226 5.657074 2.94598 11.994908 3.32639 15.519608 3.53901 32.789603.11786 9.573182.0503 15.262638-.21428 18.045533-.95361 10.029812-.72741 18.743662.73012 28.125022.56234 3.61942.70764 5.98424.7093 11.54264.003 9.49886-.83419 14.1091-2.87307 15.82471-.81417.68508-.97557 1.04341-.90739 2.01477.26126 3.72297 2.70654 21.33306 3.17683 22.87849.15415.50657.85725.57133 7.06065.65028l6.88946.0877-.0346 4.73616-.0346 4.73615 1.64995-.42799c.96545-.25043 3.45615-.42798 6.00376-.42798zm-7.09671-17.73925c-2.91511-.79151-5.24988-2.10073-7.17727-4.02463-2.62031-2.61556-2.90391-3.66639-2.89506-10.72723.008-6.20121.22536-7.178 2.16595-9.72225 1.18063-1.5479 4.38172-3.5259 7.08003-4.37486 2.18152-.68636 2.82629-.72034 13.66957-.72034 12.4815 0 13.45803.11026 16.90753 1.90902 2.51024 1.30897 4.55638 3.35681 5.57321 5.57788.78184 1.70779.80359 1.95016.70563 7.86737-.0937 5.65686-.15692 6.21275-.86106 7.56843-1.42686 2.74715-4.06135 4.87753-7.72003 6.2428-1.83766.68573-2.46093.72206-13.79242.80377-9.71113.07-12.19276-.003-13.65608-.39996zm24.40846-.60547c4.54613-.81105 8.27259-3.23121 9.99098-6.48875.85799-1.62643.87877-1.80038.87877-7.35586 0-5.53199-.0244-5.73998-.88313-7.48824-1.0439-2.1255-2.02516-3.12178-4.59339-4.6637-3.21987-1.93314-4.96349-2.15443-16.97573-2.15443-8.60642 0-10.99282.097-12.59325.51167-3.97805 1.03082-6.9102 3.10504-8.53427 6.03714-.93678 1.69131-.96828 1.89196-1.0746 6.84561-.0847 3.948.007 5.50369.40474 6.87228 1.15475 3.97219 5.96836 7.3975 11.41001 8.11923 2.69958.35805 19.66273.17664 21.96987-.23495zm-20.75828-7.08863.089-5.61797 4.47844-.0905 4.47848-.0905-.089 5.61798-.089 5.61796-4.47845.0905-4.47847.0905zm8.17127 2.95066c.11491-1.0992.20891-3.36709.20891-5.03974v-3.04118h-3.69387-3.69388l-.20503 1.70701c-.27205 2.26474-.26785 7.88179.006 8.15572.1192.11922 1.78098.21676 3.69283.21676h3.4761l.20886-1.99857zm2.71649 2.43291c-.0915-.14947-.0864-2.79915.0114-5.88816l.17785-5.61639 5.39831.0889 5.39831.0889-.11744 5.52746c-.0646 3.0401-.18624 5.60062-.27032 5.69003-.26971.28677-10.42531.39141-10.59816.1092zm9.78471-.88299c.27205-.16813.38835-1.64631.38835-4.93543v-4.69541h-4.71459-4.71461v5.08216 5.08216l4.32625-.14673c2.37941-.0807 4.50098-.25473 4.7146-.38675zm-25.41386.0976c-2.29211-.93006-4.1733-2.3235-5.26657-3.90107-.82171-1.18573-.97443-1.74475-1.07369-3.93003l-.11572-2.54768h4.56728c2.512 0 4.63272.10974 4.71271.24386.08.13413.0679 2.62148-.027 5.52746-.19443 5.95982-.0501 5.72208-2.79709 4.60746zm2.06665-5.01389v-4.7146h-3.94199-3.94202l.144 1.73633c.19415 2.34105 1.13531 4.03554 3.05292 5.4964 1.34236 1.02262 3.48626 2.07007 4.44323 2.1708.13412.0141.24386-2.0959.24386-4.68893zm26.40956-.569.0897-4.95846 3.00759-.0935 3.00759-.0935v2.3255c0 1.90876-.15659 2.61321-.87382 3.931-.94783 1.74146-3.47906 3.8474-4.62438 3.8474-.68537 0-.69506-.0792-.60671-4.95846zm4.55183.43457c.62798-1.20205.90279-2.21172.90279-3.31672v-1.58859h-2.27601-2.27601l-.003 1.21929c0 .67061-.0982 2.67687-.21612 4.45836l-.21447 3.23908 1.58938-1.14165c1.04264-.74893 1.89992-1.73611 2.49213-2.86977zm-39.41515-9.46136c0-2.75134.63003-4.19168 2.61988-5.98939 1.50474-1.35946 4.15545-2.69016 5.67131-2.84708l.97543-.10099v5.52747 5.52745l-4.63331.0902-4.63331.0902v-2.29789zm8.56561-1.54041c.11546-1.74359.21069-3.94818.2116-4.89908 0-1.64147-.0353-1.71784-.72988-1.50966-3.0617.91764-5.79691 3.00798-6.79042 5.18944-.3258.71532-.59557 1.99557-.59947 2.84502l-.007 1.54444h3.8527 3.8527l.20991-3.17016zm2.65851 3.50605c-.10684-.17291-.0931-2.80659.0306-5.8526l.22478-5.53821h4.33976 4.33974v5.8526 5.8526h-4.37027c-2.46313 0-4.45503-.13719-4.56457-.31439zm8.28456-5.37563v-5.03975h-3.73917-3.73916v5.03975 5.03974h3.73916 3.73917zm2.74513 5.27111c-.0884-.2304-.1204-2.82749-.0711-5.77132l.0897-5.3524 4.55203.01c2.50361.005 4.95439.11789 5.44617.25005l.89415.24029v5.32077c0 5.24299-.0107 5.32364-.73158 5.51683-.40236.10783-2.82114.19805-5.37509.2005-3.49196.004-4.68339-.0995-4.80428-.41448zm10.0539-2.06505c.1137-.82969.20676-2.93419.20676-4.67668 0-3.79639.37463-3.55829-5.60875-3.5647l-4.1456-.004v4.87717 4.87717h4.67042 4.67041l.20676-1.50853zm2.71093-2.63707c.10212-2.63773.23826-4.85622.30255-4.92998.23611-.27098 1.74729.62525 3.07924 1.82619 1.81275 1.63444 2.55174 3.32777 2.56065 5.86752l.007 2.03216h-3.06765-3.06761l.18566-4.79589zm5.29748 3.08888c-.004-2.5149-1.27593-4.78469-3.61278-6.44867l-.93742-.66751v4.08645 4.08645h2.27601 2.27601l-.003-1.05672zm-11.54082-16.02743c-2.43874-2.00906-6.80323-2.63206-11.192-1.59758-1.19617.28196-2.20968.37041-2.373.20711-.41615-.41617 7.58582-17.74568 8.2535-17.87427.42724-.0823 1.14169 1.7295 3.65288 9.26323 2.92354 8.77076 3.47554 10.84543 2.87792 10.81678-.13413-.007-.68281-.3733-1.2193-.81527zm-2.38126-9.25252c-1.54733-4.64958-2.8956-8.45377-2.99617-8.45377-.14928 0-6.28645 13.19966-6.99185 15.03795-.18131.47245-.0648.49088 1.04284.16498.68582-.20179 2.71011-.37607 4.4984-.38731 3.02011-.019 3.39025.0513 5.20232.98752 1.07298.55437 1.97493 1.02965 2.00432 1.05617.0296.0265-1.21253-3.75597-2.75986-8.40554zm7.42371.28423c-4.78903-1.44921-8.1375-7.985-8.12651-15.8619.006-3.94336.5704-6.73864 1.9431-9.61488 1.97652-4.141401 4.81533-6.346492 8.1704-6.346492 4.29383 0 7.71984 3.429332 9.59638 9.605652.92588 3.04744.84672 9.94406-.15099 13.15448-2.1245 6.836-6.72916 10.48639-11.43238 9.06314zm4.82075-1.23226c1.67294-.85348 3.67092-3.10238 4.71278-5.30465 3.81932-8.07338 1.71514-20.06574-4.12078-23.485571-2.06845-1.212091-3.68666-1.352787-5.68279-.494089-7.6303 3.28247-9.6141 18.88403-3.41219 26.83483 2.13857 2.74164 5.84015 3.80796 8.50298 2.44948zm-34.01452-.571c-3.2797-1.16047-6.44066-5.90689-7.43327-11.16162-1.23197-6.5218.56494-13.96155 4.26603-17.662634 2.05485-2.054844 3.45977-2.658912 6.18416-2.658912 2.6507 0 4.44368.852392 6.43926 3.061268 2.77189 3.068148 4.11831 7.276098 4.11831 12.870828 0 5.78705-1.24234 9.64655-4.1441 12.87399-2.64901 2.94635-5.98942 3.89461-9.43039 2.67708zm6.10579-1.09427c2.84307-1.46023 5.39132-5.45237 6.34062-9.93324 2.42886-11.46504-5.03923-22.808079-12.50787-18.997851-4.17717 2.131023-6.86978 7.804251-6.86978 14.474291 0 10.46122 6.58951 17.76834 13.03703 14.4568zm9.51224-43.150822c-1.25597-6.393159-2.21876-11.733659-2.13955-11.867785.25335-.428988 9.85998-.294533 9.85998.137992 0 .448982-4.17641 21.949204-4.42593 22.784714-.0935.312949-.35916.569004-.59043.569004-.29351 0-1.11025-3.510828-2.70407-11.623925zm4.8192-.953961c1.0508-5.331995 1.91396-9.877428 1.91816-10.100962.006-.30399-1.02229-.406428-4.07859-.406428-3.73766 0-4.07214.04853-3.92137.568997.0907.312956 1.00694 4.917754 2.03615 10.232897 1.02921 5.315141 1.93064 9.604519 2.00322 9.531957.0726-.07257.99166-4.494474 2.04243-9.826461zm2.25094 11.786451c0-.721656 8.39049-17.416676 8.75316-17.416676.38936 0 5.54723 5.592713 5.54752 6.015181.00026.393785-13.2145 11.661336-13.85136 11.810335-.24711.05781-.44932-.126154-.44932-.40884zm8.2912-7.180038c2.50361-2.112475 4.66309-3.935146 4.79887-4.050402.13575-.115242-.75765-1.296836-1.98534-2.625762l-2.23214-2.416217-3.88328 7.722654c-3.7402 7.438198-3.83475 7.676392-2.56669 6.466618.7241-.690823 3.36496-2.984423 5.86858-5.096891zm-27.92672.372752c-2.97036-3.106323-5.40062-5.860394-5.40062-6.120169 0-.698424 3.82055-5.789799 4.34464-5.789799.28276 0 1.7317 3.143991 3.90506 8.473375 1.90053 4.660354 3.45551 8.610869 3.45551 8.778913 0 .960705-1.46256-.278638-6.30459-5.34232zm4.25452 2.315115c-.2382-.581195-1.51602-3.728436-2.83962-6.993864s-2.51064-5.899099-2.63784-5.852605c-.12716.04648-.95104 1.035585-1.83079 2.197982l-1.59954 2.113439 4.55384 4.795884c2.50465 2.63774 4.60636 4.795883 4.67044 4.795883.0641 0-.0783-.475525-.31649-1.056719zm23.0219 96.974413c.11052-.17883-.027-.32514-.30596-.32514-.27878 0-.5069.14631-.5069.32514s.13767.32515.30596.32515c.16827 0 .39639-.14632.5069-.32515zm-42.20928-40.3789c-.10378-.25939-.18084-.18234-.19645.19644-.014.34275.0628.53479.1708.42675.10804-.10804.11959-.38849.0257-.62319zm.12164-11.48168c-.19001-1.96713-.55135-4.89343-.80295-6.50289-1.15774-7.40616-1.36206-15.80667-.71174-29.263034.0691-1.430634.0676-2.015891-.003-1.300578-.071.71532-.36917 3.422152-.66255 6.015182-.84993 7.51208-.35164 18.11684 1.2986 27.6373.26349 1.52005.60214 4.66583.75255 6.99061.21774 3.36541.29402 3.79614.37424 2.11344.0555-1.16239-.0547-3.7229-.24474-5.69003zm-1.07844-44.788687c-.0635-1.117685-.11543-.203218-.11543 2.032151 0 2.235376.0519 3.149843.11543 2.032159.0635-1.117685.0635-2.946626 0-4.06431zm-.007-15.765046c-.0747-.494241-.13789-.167049-.14033.727101-.003.894151.0587 1.298532.13588.898623.0772-.399908.0792-1.131489.004-1.625724zm-.33636-6.324475c-.10378-.25938-.18084-.182338-.19645.196443-.014.342752.0628.534795.1708.426751.10804-.108043.11959-.388478.0257-.623194zm-.32514-3.901733c-.10379-.25938-.18085-.182338-.19646.196443-.014.342752.0628.534795.1708.426751.10805-.108043.11959-.388486.0257-.623194zm45.41075 249.754501c-1.38037-.88429-2.1932-2.67064-2.21128-4.85954-.0182-2.19562.38972-2.28705 1.76057-.39463.55528.7665 1.37334 1.55936 1.81795 1.76192.7092.32313.93118.25186 1.80877-.58074.55018-.52202 1.50032-1.93676 2.1114-3.14386.67474-1.33287 1.31547-2.19473 1.63157-2.19473.45215 0 .5028.43764.38579 3.33274-.14248 3.52545-.64568 5.07301-2.00631 6.1705-1.00844.81338-3.96559.76224-5.29846-.0917zm4.41527-.45764c1.13543-.58714 1.86175-2.31161 2.14231-5.08639l.21027-2.07926-.88462 1.46316c-2.29906 3.80261-4.12898 4.53301-6.19092 2.47108-1.01012-1.0101-1.10548-1.04472-1.10548-.40133 0 1.16896 1.12011 2.88319 2.29607 3.51384 1.33888.71808 2.31048.75076 3.53237.1189zm-4.32293-7.73465c-.56416-2.10518.43885-3.82045 2.23404-3.82045 1.80884 0 2.50371 1.27284 1.90811 3.4953-.24685.92117-.66999.92774-1.40352.0218l-.57469-.70969-.57154.87227c-.69728 1.06416-1.32994 1.12009-1.5924.14072zm2.55694-1.4652c.68349.13065.81471.0322.81471-.61205 0-.62412-.17031-.76776-.9104-.76776-1.06147 0-1.69075.52308-1.69075 1.4054 0 .5177.0835.5558.48586.22188.2672-.22178.85247-.33314 1.30058-.24747zm20.84659-54.39642c-4.60938-3.08299-8.00145-7.12678-8.00145-9.53886 0-1.16072 1.60282-2.79863 2.73872-2.79863.7423 0 .83786.13103.83786 1.14882 0 2.51755 2.67618 6.12443 7.00313 9.43861 1.852 1.41851 2.43271 2.04753 2.35997 2.55635-.0739.51709-.3694.69775-1.2638.77269-.95297.0798-1.62777-.21014-3.67437-1.57898zm4.0289.74624c0-.13596-1.02239-1.02689-2.27195-1.97986-3.86116-2.94464-6.35704-6.18824-6.98043-9.07171-.26126-1.20835-.38641-1.26209-1.20795-.51861-1.02964.9318-.75268 2.43878.8363 4.5507 2.47374 3.2879 9.62403 8.50309 9.62403 7.01948z" fill="#f2f2f2"/></svg>