<svg height="163.673" viewBox="0 0 598.672 163.673" width="598.672" xmlns="http://www.w3.org/2000/svg"><g fill="none" stroke="#f4f4f4" stroke-width="2.232499" transform="matrix(1.0548715 0 0 1.0548715 .750015 -3.198208)"><path d="m564.63672 11.431641c-4.1491.150156-7.3877 1.241866-10.58984 2.740234-3.20215 1.498368-6.26046 3.166105-9.1836 7.044922-3.27965 4.351933-4.68756 8.666-6.30859 14.1875-1.02822 3.502301-1.96155 7.446206-2.8125 11.697265-3.47969-4.98706-6.84051-9.535124-9.40039-12.46875-4.59939-5.270813-9.18998-9.299868-14.82618-10.912109-3.42713-.980335-6.49096-1.131252-9.58203-.933594-2.16211.138257-4.23737.31793-6.61718 1.175782-.41233-3.366518-.40155-6.211746-3.86914-9.347657-2.18022-1.97157-3.01372-1.755796-3.83594-1.96289-.82222-.207095-1.51796-.312249-2.25977-.400391-1.48362-.176284-3.10221-.25-4.88867-.25-3.78388 0-7.28421.484972-10.49609 1.644531-3.21189 1.15956-6.46087 3.01086-8.4375 6.759766-1.43558 2.72274-1.08535 3.355053-1.25 4.835938-.16466 1.480883-.28613 3.288448-.40235 5.683593-.23242 4.790293-.4234 11.886784-.625 22.296875-.1914 9.88289-.35493 17.254276-.56836 23.052735-3.80572-6.22828-8.1859-14.925408-15.46289-30.63086-2.55171-5.507199-4.62879-9.795609-6.28711-12.957031-.82915-1.580711-1.54561-2.873017-2.23632-3.984375-.69072-1.111357-.84449-1.858959-2.87305-3.486328-2.51482-2.017465-6.43576-3.003906-9.58008-3.003906-2.39269 0-5.27021.046458-8.38281.791015-1.5563.372279-3.2536.807945-5.25781 2.414063-2.00422 1.606117-3.93328 5.717534-3.26954 8.921875l.21875 1.068359.20508 1.839844c-2.11011-.553186-4.24916-.817282-6.40625-.884766-4.02417-.12589-8.11971.403171-12.16211 2.431641-4.0424 2.028463-8.38808 6.737784-8.75586 12.615234a8.9099783 8.9099783 0 0 0 .01953 1.345703c.27467 3.092393.51122 6.122298.72852 9.113282-4.99568-2.367078-9.97588-3.361339-14.25391-3.900391a10.516431 10.516431 0 0 0 -1.31445-.083984c-8.90261.000075-17.44481 3.20283-24.38672 8.791015-1.70634-3.096251-4.36314-5.412579-6.75976-6.716797-3.70407-2.01573-7.37451-2.719801-11.07618-2.898437-3.70164-.178636-7.43245.224765-11.20312 1.603515-1.00905.368963-2.05163.842642-3.08789 1.40625-.76844-.483304-1.54404-.983469-2.27734-1.298828-4.09636-1.761626-8.09826-2.154101-12.15625-1.939453-1.67112.088395-3.35163.297406-5.0293.652344-.13502-6.852254-.7591-14.313861-7.16602-19.748047-3.60238-3.566603-8.15262-5.292011-12.74609-5.572266-4.7155-.287698-9.77712 1.008245-13.95313 4.361329a9.7489938 9.7489938 0 0 0 -.6621.583984c.051-.049187-3.83462 3.244055-4.92383 7.753906-.99054 4.101283-.44405 7.700815.61133 12.691407.00356.319944-.02154.369671-.0293.65039-.32426.000207-.22471.037137-.59766.025391a9.7489938 9.7489938 0 0 0 -.54101-.001953c-7.40455.176879-14.1041 2.31992-19.67188 5.78125.15166-.717275.28502-1.433688.39063-2.144532a4.3134751 4.3134751 0 0 0 .0039-.015625c.12449-.859034.13677-1.731335.03906-2.59375-.53025-4.740525-2.39534-9.547587-6.08789-13.226562-3.73032-3.716609-8.79886-5.679106-14.05078-6.005859a4.3134751 4.3134751 0 0 0 -.04492-.001954c-.34374-.017848-.68749-.017227-1.03125 0-5.45837.232247-10.84064 1.853187-14.95898 5.607422-4.19394 3.823143-6.16528 9.172458-6.35938 14.367188-.02767.603373-.00194 1.207968.07813 1.80664a4.3134751 4.3134751 0 0 0 .00586.050782c.10574.725009.24772 1.444633.41601 2.158203-2.7703-1.077369-5.43929-1.775491-7.77344-2.544922a10.152499 10.152499 0 0 0 -.90429-.251953c-1.84962-.425338-3.7521-.686257-5.74805-.810547-1.99595-.124283-4.08348-.111407-6.30078.009765-6.6534.363611-14.22503 1.720602-21.26367 5.697266-.87862.4964-1.75198 1.059129-2.60742 1.681641-1.08052-1.339344-2.30125-2.55197-3.67579-3.597657-5.95106-4.527294-13.18031-5.763437-20.67187-5.976562-2.05963-.058598-4.24577-.047444-6.52539.050781-7.96051.177202-15.016121 2.382247-20.771486 6.119141-1.481195-8.130083-4.826065-14.640825-9.80664-19.277344-6.329868-5.892598-13.820802-8.341099-20.855469-10.738281-.037155-.007724-.074059-.016278-.111328-.023438-.306992-.101968-.61994-.184495-.9375-.246093-10.681846-3.307991-22.379774-3.424468-32.109375-3.728516-.410348-.026387-.593559-.026387-1.003906 0-.067083.006538-.134289.015092-.201172.023438-5.772461.530376-12.400017 1.55754-17.9082034 6.339843-5.5746114 4.839965-7.24774959 12.982317-5.2910156 20.855469-.0000107.007445-.0000107.014039 0 .021484 2.5967466 20.692697 2.5550452 44.770316-.4023438 65.691406.0466373-.32988.0353792-.27943-.0234374.13477-.046808.34782-.068612.69788-.0664063 1.04882-.2577133 2.84134.2552015 5.74297 1.8320313 8.35157 1.7069702 2.8239 4.1207127 4.57841 6.2519531 5.69336 4.1939371 2.19403 8.5224641 2.77546 12.5468751 2.94726 4.068213.17368 8.058904-.14902 11.701172-1.0039 1.817473-.42659 3.676591-1.02149 5.537109-2.00977 1.525533-.81034 4.702282-3.03222 6.029297-6.76563.487872 1.02569 1.105123 2.05799 1.875 3.08008.010189.01277.013165.03224.023437.04492.022008.03741.043757.07431.066407.11133-1.00684-1.30723-.967377-1.19303.134765.20117.488601.60699 1.068076 1.13575 1.71875 1.56446 1.242459 1.06217 2.488894 1.90153 3.326172 2.27734 1.452713.65205 2.941617 1.10658 4.44336 1.45117 2.89142.66348 5.993103 1.00959 9.199218 1.13868 3.205315.12905 6.503813.04071 9.669922-.42383 2.90624-.42641 6.751897-1.06604 10.226563-4.06446.762957-.65838 1.429485-1.37007 2.027343-2.11328.876771.65308 1.769456 1.28666 2.697266 1.87696.18606.12649.373954.25204.56836.36328a6.5348884 6.6930288 0 0 0 .357421.1914c4.798946 2.36032 9.363361 3.95014 14.138671 4.37696 6.1514.54981 11.92002-.96262 18.0293-3.38477 5.16407-2.02768 10.25245-4.31743 14.52734-7.67383.42236.33832.84599.66873 1.26563.97657 5.32495 3.90627 11.1594 6.17358 16.04687 7.82226a10.152499 10.152499 0 0 0 .66992.19922c12.43152 3.25733 23.31763.05018 30.30469-3.29102.75941-.30538 1.48242-.65289 2.17188-1.03515.86118.90936 1.81814 1.7165 2.86132 2.38867 4.47291 2.88207 9.40288 3.64887 13.84766 3.58984 4.44371-.05901 9.32441-.95208 13.6875-3.91601 1.59516-1.08363 3.19642-2.56276 4.4707-4.47461 6.11813 4.80373 13.70431 7.86385 22.01954 8.5293 4.74906.53998 9.21701-.45409 13.10546-2.03516 1.71557 1.01719 3.80815 2.01756 7.14844 2.01758a9.7489938 9.7489938 0 0 0 .32813-.00586c5.06234-.17032 10.45799-1.68951 14.35937-5.76367.57992-.6056 1.09602-1.25061 1.5625-1.91993 5.17491 4.06476 11.95934 6.61933 19.5625 7.18165a10.325046 10.325046 0 0 0 .76172.02929c3.68303.00001 6.59318-.69849 8.93359-1.48047 3.06076 1.6098 6.76471 2.16634 10.29688 1.97461 4.00499.01526 7.96836-.66318 11.5332-2.84961 1.49946-.91966 2.79222-2.10475 3.88281-3.40039 5.51261 3.84834 12.41602 6.09948 19.98047 6.88281a10.516431 10.516431 0 0 0 1.38086.05079c3.87746-.10972 7.11722-1.00523 9.98438-2.09375 2.14464 1.26148 4.63435 2.31248 7.64258 2.58984a10.516431 10.516431 0 0 0 1.38281.03516c3.98994-.15833 7.84654-1.60283 10.94922-3.81055 3.73815 1.95106 7.58689 2.62699 11.37109 2.64844 3.81248.02161 7.58325-.5981 11.26758-2.47071 3.68432-1.8726 7.82902-5.91886 8.37695-11.54882a8.9099783 8.9099783 0 0 0 -.00586-1.78321c-.92613-8.92638-2.09436-30.345464-1.59375-51.533201 3.18136 7.45259 6.84082 15.394442 10.72266 22.240235 4.36601 7.699636 9.91761 16.937386 14.69922 24.595706 2.3908 3.82915 4.5836 7.25549 6.36328 9.92578 1.77967 2.67029 2.29255 3.8822 4.5 6.05273.98486.96838 3.1427 2.90396 5.86523 3.50586 2.72254.60189 4.20633.26796 6.64453.0918 3.24474-.23446 6.62112-.85822 9.66602-1.6543 1.52245-.39804 2.94316-.83391 4.28516-1.35742s2.48089-.81696 4.33984-2.49805c2.21305-2.00138 1.92222-2.61708 2.16602-3.24609s.39089-1.13293.54101-1.68359c.30025-1.10132.5722-2.34321.87305-3.86329.60168-3.04013 1.2869-7.13353 2.04101-12.17382 1.16719-7.80107 2.1504-15.121083 2.96094-22.052738 1.63643 8.338338 3.2068 16.094918 4.30664 21.183598 2.07966 9.62193 2.79314 13.9787 4.53711 18.48242.87197 2.25187 2.63001 5.61708 6.16992 7.74609s6.14181 1.95477 6.88282 2.01953c2.91028.25437 3.56824-.04139 5.05273-.23828 1.48448-.19687 3.05772-.4689 4.65039-.81445 3.5625-.77297 7.10977-1.14025 11.28711-4.98242 4.17724-3.84209 5.00329-9.7242 4.99609-12.88477-.00233-1.02326-.05639-2.05711-.13476-3.09961 2.96043.72441 5.5217.43354 8.10547-.04101 2.42601-.44559 4.92653-1.21596 7.35547-2.7168.42949 1.44905.91517 2.84783 1.5332 4.24219.98041 2.2119 1.68746 4.73489 6.03515 7.5039 5.82026 3.70676 11.43655 2.99535 16.76563 2.02735 3.28285-.59634 6.23157-1.30604 9.45703-3.1836 3.22546-1.87754 7.3167-6.38878 7.6543-11.82226.19042-3.06553-.0622-2.19123-.11133-2.5625-.04912-.37129-.10128-.70738-.16406-1.10157-.12557-.78838-.2939-1.77415-.50977-3-.43171-2.4517-1.05003-5.83117-1.81445-9.933589-1.52883-8.204843-3.64256-19.284954-5.98047-31.300782-4.64085-23.851819-6.80012-35.222526-8.47656-41.794921-.83823-3.286198-1.06956-5.50096-3.80469-9.048829-1.36757-1.773934-3.92881-3.632263-5.90625-4.359375s-2.88261-.732029-2.88477-.732422c-1.46739-.267224-2.74395-.306089-3.91601-.263671zm-143.23242 33.914062c.01433.129292.10096.29785.01172 1.148438a7.3287215 7.3287215 0 0 0 -.01172-1.148438zm-.07227 1.892578c-.04203.417023-.11555.969212-.50781 1.742188a7.3287215 7.3287215 0 0 0 .50781-1.742188zm126.22852 17.363281c.92865.597066.53959.551247 0 0zm-15.13477 14.576172c-.00382.080148.18051.399755.10547 1.044922-.05014-.567266-.0991-1.178877-.10547-1.044922zm-358.28125 4.234375c.05162.025873.20809.268919.3457.472657-.29065-.283821-.44557-.522716-.3457-.472657zm-63.61328 4.53711c.01454.050088.03342.098568.04883.148437-.00049-.001513-.0054-.004368-.00586-.005859zm.28906.21289c.20103.339305.3864.623309.42188.728516.00045.004262-.00241.015111-.00196.019531-.19083-.238202-.33074-.358418-.4414-.542968.00465-.046105.01308-.136608.02148-.205079zm346.87891.740235c-.01958.099568-.04885.310966-.0625.357422-.02896.09852-.06214-.054336.0625-.357422z" stroke-width="2.355" transform="matrix(.94798276 0 0 .94798276 -.711001 3.031846)"/><path d="m23.915738 40.489671c-9.553732.877811-17.420375 4.10959-13.788056 15.608741 2.575483 20.523334 2.510756 44.011248-.4420688 64.805998-1.8500229 9.1274 22.8030458 7.68424 24.0179338 3.55001-.449183-7.03527-2.226039-11.12477 3.283017-15.13203 5.229921-2.25473 7.226067.1327 9.489145 2.03973 4.35478 5.7247 1.58672 9.55835 4.867713 13.70931 1.832865 2.89878 19.594173 3.97898 23.504303.60478 4.381006-3.78052 1.797991-9.66495-.737038-14.01456-3.415539-6.46122-10.792265-11.68619-10.94655-17.3841 1.009896-8.298862 12.68923-9.972068 13.250779-23.084816-.767588-19.076714-10.481952-22.837301-23.707831-27.344246-8.343307-2.748144-19.241173-3.060369-28.791347-3.358817zm16.410618 22.892139c7.051416.118444 8.625722 6.275896 8.583523 9.31419.25591 3.247557-.539997 11.071634-8.320151 11.111618-7.040745-.421826-8.290716-7.874132-8.246566-11.04119.160214-3.341549 1.501069-9.167338 7.983194-9.384618z" stroke-width="2.232499"/><g stroke-width="3.295934"><path d="m198.90625 137.46875c-2.57828-.0716-5.30651-.0292-8.15625.0937-28.32836.58421-40.21928 21.05446-41.75 47.28125 1.22617 18.55111 7.99972 27.55273 20.34375 35.15625 5.76058 2.76636 10.47802 4.28469 15.09375 4.6875 5.91641.51633 11.66514-.82377 19.21875-3.75 18.66254-7.15474 32.78406-17.65977 18.71875-31.40625-6.21999-2.801-13.81854 1.65359-32.03125 7.0625-4.97085 1.50653-8.84189-3.41916-1.25-5.5625 27.38-7.44887 38.79034-10.42806 39.28125-29.1875-.32361-18.11709-11.42077-23.87368-29.46875-24.375zm-6.8125 19.0625c4.11735-.21806 7.93126 1.28502 9.15625 5.09375 4.71827 11.89036-19.22889 20.01897-21.84375 7.4375-1.91509-7.04922 5.82525-12.16781 12.6875-12.53125z" transform="matrix(.67734952 0 0 .67734952 -25.59016 -24.499086)"/><path d="m267.3125 140.3125c-15.3985.84151-35.51152 7.23846-35.625 25.15625 1.55896 21.88225 34.93809 25.78667 36.5625 31.125-.50006 9.00788-25.67939-11.10555-31.375-6.125-10.20439 10.14289-6.38833 18.12153 1.625 24 5.32351 3.90524 12.48694 6.8775 18.59375 8.9375 13.35766 3.49999 25.8886-.25389 33.40625-3.96875 8.39372-3.27294 11.41308-14.17094 11.0625-23.28125-3.86056-18.00193-31.83682-22.03465-34.3125-28.71875.31085-10.60897 25.03514 12.83593 31.59375 5.5 12.30826-22.39115-3.55602-26.8764-18.625-31.84375-3.16983-.72894-7.77342-1.06175-12.90625-.78125z" transform="matrix(.67734952 0 0 .67734952 -24.235426 -24.499086)"/><path d="m323.3125 111.28125c-10.6165.44334-16.0078 5.91577-16.3125 14.375 1.42163 9.74741 6.52451 13.74902 16.3125 14.3125 9.5651-.69978 13.42442-3.91783 14.96875-14.3125-.91728-8.20423-5.94378-13.8135-14.96875-14.375zm-2.8125 33.46875c-7.8403.40004-15.59749 4.61781-14.5 11.4375 2.66429 16.49494 2.57594 38.25787-.96875 57.03125-4.10992 15.87299 34.56217 14.96683 29.5625 0-4.26239-17.03914-3.11196-36.01129.96875-57.03125.69224-8.41985-7.2222-11.83754-15.0625-11.4375z" transform="matrix(.67734952 0 0 .67734952 -22.880761 -24.499086)"/><path d="m404.59375 98.65625c-3.52981-.215362-7.2086.758205-10.15625 3.125-2.54267 2.45128-5.10381 2.90832-1.84375 17.78125.3944 11.13369 1.58844 16.11525-14.96875 15.59375-27.36095.65359-39.97091 22.87856-41.375 47.6875.3256 23.83872 16.3794 40.0078 39.6875 41.71875 8.15442.99936 12.23628-1.05413 18.125-5.25 2.37595 2.04009 5.79344 5.09373 8.84375 5.09375 9.68547-.32586 14.28138-5.26412 13.71875-14.1875-11.2245-25.90766 13.72332-95.16678-2.78125-107.5625-2.33479-2.39228-5.72019-3.784638-9.25-4zm-28.78125 65.8125c16.58914-.51274 14.88096 28.84785.375 29.6875-15.29117.2982-15.97506-29.22887-.375-29.6875z" transform="matrix(.67734952 0 0 .67734952 -21.526025 -24.499086)"/></g><path d="m265.1732 73.975759c-2.03723 20.035161-6.3072 51.249391 20.87232 53.259531 3.51633 0 6.96367-1.72462 10.31741-2.74373 1.86858 1.74816 2.21293 3.57407 7.53262 3.2354 11.1952.24963 9.49291-8.04969 9.30096-15.87368-2.91293-11.41709-1.83761-26.366161-.43865-39.119221-.52075-6.792354-17.37441-7.582461-20.53335-1.018018-2.16487 6.876603 2.84304 31.080179-3.30366 32.611729-5.61814-1.67245.14592-28.248252-1.08083-32.331394-.65013-7.129805-20.01064-6.886105-22.66682 1.979383z" stroke-width="2.232499"/><path d="m535.625 135.46875c-11.38768.00008-21.65912 4.71388-29.84375 13.6875-8.1991 8.93737-12.53127 20.35466-12.53125 33.03125.265 25.07963 9.29772 39.23274 34.8125 41.875 5.89792-.16689 11.3655-2.7404 16.5625-5.3125 2.71497 3.02362 5.67923 5.67565 9.875 6.0625 8.06066-.31988 12.70786-6.75693 13.3125-14.3125-2.44983-11.16272-4.32272-20.87144-4.9375-32.53125-.2751-7.67394.31392-15.32132.75-22.40625-.88518-13.71358-16.47312-18.64131-28-20.09375zm-5.5625 29.4375c15.98839.91287 14.81779 29.85985.15625 29.5625-14.69914-.24871-14.13421-28.90571-.15625-29.5625z" stroke-width="3.295934" transform="matrix(.67734952 0 0 .67734952 -18.816624 -24.499086)"/><path d="m585.25 102.5c-7.93215-.24815-16.01875 2.68299-16.4375 9.375 3.40499 38.33592 3.71089 71.51778 1.59375 94.4375l.0312 9.125c2.32226 12.64669 29.90028 11.97858 30.96875 1-1.8631-17.95716-4.2532-66.03963-.59375-104.25.15499-6.0126-7.63035-9.43935-15.5625-9.6875z" stroke-width="3.295934" transform="matrix(.67734952 0 0 .67734952 -18.816624 -24.499086)"/><path d="m482.03796 118.83321c-2.41569-10.0144-12.47378-67.641306-13.60547-76.601266-1.81898-7.970108 7.20815-12.392331 12.95199-9.596537 4.40227 2.314662 11.22016 10.590538 23.18923 28.148315 6.11908 8.976248 7.73057 10.551865 8.88373 8.686019.27243-.440802 1.57263-6.712735 2.88935-13.937627 2.70159-14.824032 5.40436-24.104578 8.40372-28.855846 2.81841-4.464629 9.11278-6.836567 12.79503-4.585691 1.42497.870998 4.02202 3.891713 7.85855 23.839105 7.34591 38.193891 14.42215 60.405458 12.21529 67.907818-1.40467 4.77528-13.62477 5.43828-16.06445 2.9632-4.16235-4.22273-3.16696-6.15709-4.73136-19.814-1.30661-11.406755-3.96021-25.216758-5.34563-27.819744-2.16237-4.062928-4.18404 3.487885-6.66417 24.890194-.73962 6.38231-1.64824 10.89108-2.33283 11.57566-1.58351 1.58354-7.50577 2.25367-8.99483 1.01783-.66156-.54905-4.53222-6.99654-8.60152-14.32777-8.10966-14.610512-10.60269-18.10203-11.96823-16.761564-1.10483 1.084582.15267 11.589423 2.37746 19.860784 4.90887 18.25037 8.18003 22.44453 7.47919 26.73597-.68543 4.19716-1.31498 5.6135-8.78071 7.89667-7.31206 1.21304-10.13257-4.40421-11.95434-11.22152z" stroke-width="2.232499"/><path d="m432.74158 123.95987c-8.1402-11.28251-11.4721-18.75445-19.67941-33.268913-10.83439-19.160451-22.7683-49.821678-22.7683-55.873517 0-3.802246 2.30499-5.301566 8.15058-5.301566 7.5587 0 6.57482-1.354125 20.50454 28.220348 10.20345 21.6631 13.07522 26.869543 17.57794 31.868425 2.36728 2.628133 3.16556 3.098073 3.75564 2.210991.94586-1.422007 1.6688-13.838885 2.45118-42.10031.5649-20.405665.75573-22.492424 2.33778-25.564128 1.89418-3.677889 4.71538-5.139042 9.92249-5.139042 2.36066 0 3.45558.503697 4.83013 2.221944 1.76339 2.204403 1.77364 2.40048 1.29984 24.845325-.26261 12.442867-.33131 29.545753-.86524 37.334327-1.4482 21.125986.47192 25.274876-4.19115 39.689336-5.56764 7.23008-18.84596 8.80322-23.32602.85678z" stroke-width="2.232499"/></g></svg>