<svg enable-background="new -0.003 -0.001 566.931 154.093" height="154.093" viewBox="-.003 -.001 566.931 154.093" width="566.931" xmlns="http://www.w3.org/2000/svg"><path d="m74.125 221.6875c-.09389.009-.187644.0196-.28125.0312-8.078833.74229-17.353532 2.18194-25.0625 8.875-7.801933 6.77376-10.144792 18.16865-7.40625 29.1875-.000015.0104-.000015.0208 0 .0312 3.63427 28.96041 3.576506 62.65744-.5625 91.9375.06527-.46169.05107-.39219-.03125.1875-.06551.48679-.09684.97758-.09375 1.46875-.360682 3.97658.355652 8.03664 2.5625 11.6875 2.388986 3.95219 5.767228 6.40833 8.75 7.96875 5.869614 3.07066 11.930146 3.88455 17.5625 4.125 5.693657.24307 11.277474-.2098 16.375-1.40625 2.54364-.59702 5.146117-1.42936 7.75-2.8125 2.135056-1.13411 6.58028-4.24367 8.4375-9.46875.6828 1.4355 1.54752 2.88203 2.625 4.3125.0143.0179.0169.0447.0312.0625.0308.0523.062.10444.0937.15625-1.40912-1.82954-1.355-1.67004.1875.28125.68382.84951 1.4956 1.5875 2.40625 2.1875 1.73888 1.48656 3.48444 2.66154 4.65625 3.1875 2.03314.91257 4.11699 1.54898 6.21875 2.03125 4.04668.92856 8.38789 1.41309 12.875 1.59375 4.48599.18062 9.10013.0564 13.53125-.59375 4.06742-.59678 9.44954-1.49108 14.3125-5.6875 7.13458-6.15668 8.93587-15.34752 7.75-22.4375-1.08244-6.47162-3.83431-11.47161-6-15.1875-3.65722-6.91843-8.18842-11.38451-11.09375-14.96875-1.1435-1.41071-1.74649-2.51826-2.25-3.4375.38192-.43686.91676-1.22375 5.0625-5.34375 5.40863-5.37507 12.87814-14.89626 13.46875-28.6875.0164-.38329.0164-.74171 0-1.125-.6596-16.39334-5.86512-29.14377-14.875-37.53125-8.85895-8.24697-19.34215-11.67628-29.1875-15.03125-.052-.0108-.10409-.0212-.15625-.0312-.42965-.14271-.86806-.25754-1.3125-.34375-14.94975-4.62969-31.320462-4.79322-44.9375-5.21875-.574301-.0369-.831949-.0369-1.40625 0z" transform="matrix(.67734952 0 0 .67734952 -26.944827 -118.33286)"/><path d="m199.24609 266.49219c-2.80109-.0778-5.77473-.064-8.875.0664-17.03728.37029-31.0402 7.38854-39.87109 18.55274-8.77932 11.09901-12.5087 25.21376-13.36914 39.91601-.0298.48829-.0306.9766 0 1.46485a8.8874119 8.8874119 0 0 0 .002.0312c1.40495 21.25585 11.45369 35.46949 25.79297 44.37695.25304.16797.5071.33471.77149.48242a8.8874119 8.8874119 0 0 0 .48632.25196c6.52654 3.13417 12.73608 5.24574 19.23047 5.8125 8.36587.73008 16.20899-1.27787 24.51758-4.49415 10.12066-3.87999 20.03414-8.47288 26.71875-17.0039 3.50461-4.47265 5.97139-10.55556 5.17383-17.22266-.64805-5.4173-3.28129-10.15174-6.85938-14.28125 4.49118-5.8124 7.08022-13.23914 7.29297-21.36914.005-.18791.004-.37654 0-.56445-.21144-11.59194-4.6002-21.92167-12.89648-28.08399-8.09341-6.01162-17.92676-7.65254-28.11524-7.93554zm-9.35742 39.47656c.0198.0665.0455.13105.0664.19727-.00067-.002-.007-.006-.008-.008l-.0586-.18945zm.39258.2832c.2734.45055.52597.8271.57422.9668.00062.006-.003.0215-.002.0273-.25954-.3163-.45107-.47759-.60157-.72265.006-.0612.0179-.18057.0293-.27149zm36.92773 13.31836.0332.0137c-.008-.004-.0169-.004-.0254-.008-.003-.001-.005-.005-.008-.006z" transform="matrix(.697049 0 0 .71391717 -28.290983 -132.03033)"/><path d="m275.35547 265.64453c-2.79343-.17394-5.71514-.15592-8.81836.0137-9.31175.50889-19.9069 2.40908-29.75781 7.97461-9.85092 5.56554-19.20849 16.98213-19.29883 31.2461a14.208904 14.208904 0 0 0 .0352 1.09961c.47697 6.69495 2.97976 12.70435 6.31641 17.54296-5.18593 6.54533-8.32384 14.54576-6.98242 22.42969 1.59478 9.37297 7.63489 15.35635 13.24609 19.47266 7.45252 5.46701 15.61678 8.6379 22.45703 10.94531a14.208904 14.208904 0 0 0 .93946.28125c17.39849 4.55879 32.63339.0687 42.41211-4.60742 8.47716-3.40895 13.80507-10.49917 16.54297-17.14453 2.7664-6.71457 3.55642-13.45031 3.3125-19.78906a14.208904 14.208904 0 0 0 -.30469-2.43165c-.99085-4.62034-2.85148-8.49313-5.12891-11.87304a14.208904 14.208904 0 0 0 .96875-1.52344c3.79348-6.90108 6.14252-13.49187 6.1582-20.53125.0157-7.03938-3.12713-14.09264-7.35937-18.54297-8.46448-8.90065-18.10204-10.66132-25.42773-13.07617a14.208904 14.208904 0 0 0 -1.26368-.35156c-2.58863-.59528-5.25344-.96082-8.04687-1.13477zm3.09765 32.20117c.0722.0362.29178.37697.48438.66211-.40678-.39722-.62416-.73217-.48438-.66211z" transform="matrix(.67734952 0 0 .67734952 -24.235426 -119.64034)"/><path d="m322.68164 235.41016c-7.63925.32504-15.17173 2.59342-20.93555 7.84765-5.86961 5.35067-8.62678 12.83715-8.89843 20.10742-.0387.84445-.005 1.69143.10742 2.5293a6.0369129 6.0369129 0 0 0 .01.0703c.64898 4.44968 2.13585 8.7841 4.49414 12.66407-4.01298 4.57933-6.5989 10.93601-5.44921 18.08007a6.0369129 6.0369129 0 0 0 0 .004c2.33714 14.46956 2.26615 35.34564-.91016 52.16797a6.0369129 6.0369129 0 0 0 -.0859 1.46875c-1.28521 9.08937 3.1029 17.4783 9.93555 21.88086 6.26004 4.0336 13.16018 5.10605 19.38086 5.02344 6.21918-.0826 13.0499-1.3323 19.15625-5.48047 3.19482-2.17032 6.4266-5.44724 8.27344-10.06055 1.64647-4.1128 1.64958-8.38459.76953-12.32422a6.0369129 6.0369129 0 0 0 -.17383-1.32226c-3.51022-14.03231-2.73695-30.9473 1.13086-50.875l.002-.01c.10107-.51829.17414-1.04173.2168-1.56836l-.002.006c.42406-5.15776-.97439-9.925-3.33203-13.93945 3.51634-4.76282 5.14786-10.34482 5.94336-15.69922a6.0369129 6.0369129 0 0 0 .004-.0215c.17422-1.20226.19143-2.42191.0547-3.6289v-.002c-.74214-6.63459-3.35164-13.36086-8.51953-18.50976-5.22076-5.20157-12.31572-7.94894-19.66602-8.40625a6.0369129 6.0369129 0 0 0 -.0625-.002c-.48108-.025-.96225-.0241-1.44336 0z" transform="matrix(.67734952 0 0 .67734952 -22.880761 -118.48314)"/><path d="m405.42383 224.91406c-6.59957-.40265-13.68283 1.41072-19.52735 6.10352a13.644179 13.644179 0 0 0 -.92773.8164c.0714-.0688-5.36622 4.53982-6.89063 10.85157-1.3863 5.73994-.62158 10.7791.85547 17.76367.005.44778-.0301.51728-.041.91016-.45382.00029-.31593.0516-.83789.0351a13.644179 13.644179 0 0 0 -.75586-.002c-17.32126.41377-31.92246 8.46931-40.89258 20.08594-8.97012 11.61662-12.95809 25.99333-13.77734 40.46875a13.644179 13.644179 0 0 0 -.0195.95703c.40625 29.74367 23.03788 52.73123 51.94921 55.04492 6.64657.75573 12.89972-.63683 18.3418-2.84961 2.40101 1.4236 5.33097 2.8242 10.00586 2.82422a13.644179 13.644179 0 0 0 .45898-.008c7.08499-.23837 14.63749-2.36638 20.09766-8.06836 5.46017-5.70199 7.21541-13.66555 6.77734-20.61328a13.644179 13.644179 0 0 0 -1.09765-4.56446c-1.19176-2.75073-2.20041-10.44681-1.74024-19.90625.46018-9.45944 1.95291-20.67886 3.34961-31.82031 1.39671-11.14145 2.73538-22.13887 2.55078-32.26758-.17637-9.67777-.97364-20.27217-10.04101-27.96289-5.0417-4.99163-11.40911-7.4066-17.83789-7.79883z" transform="matrix(.67734952 0 0 .67734952 -21.526025 -118.82228)"/><path d="m438.33008 260.53906c-5.68967.30096-11.45577 1.54955-17.0586 4.50586s-11.47749 8.23107-13.83203 16.08985a14.450391 14.450391 0 0 0 -.5332 2.68554c-1.47743 14.52955-4.32915 34.42173-.57227 53.53907 1.87845 9.55866 5.63014 19.34199 13.1836 27.18945s18.70758 12.82076 31.50976 13.76758a14.450391 14.450391 0 0 0 1.06641.0391c5.15457.00001 9.22643-.97786 12.50195-2.07227 4.28368 2.25299 9.46672 3.03201 14.41016 2.76368 5.60517.0214 11.15342-.92828 16.14258-3.98829 5.25406-3.22248 8.78526-8.71965 10.24023-13.35937 2.90995-9.27943 1.33182-16.0168 1.21289-20.86524a14.450391 14.450391 0 0 0 -.44531-3.21875c-3.34013-13.09129-2.28235-34.18088-.26172-52.60156a14.450391 14.450391 0 0 0 .043-2.67969c-.64459-8.40832-6.72027-14.59491-11.9043-17.41601-5.18402-2.82111-10.32129-3.80663-15.50195-4.05664s-10.40246.31256-15.67969 2.24219c-1.41222.51638-2.87001 1.17995-4.32031 1.96875-1.07547-.67641-2.1612-1.37505-3.1875-1.81641-5.73304-2.46548-11.33431-3.01721-17.01367-2.7168z" transform="matrix(.67734952 0 0 .67734952 -20.17136 -119.56922)"/><path d="m535.625 262.1582c-15.43971.00013-30.11209 6.87208-40.69727 18.4668-10.66747 11.63387-16.39455 26.9444-16.39453 42.96875a14.718244 14.718244 0 0 0 0 .15625c.15086 14.27714 2.72042 27.59775 11.07032 38.25586 8.34989 10.65811 21.69092 16.4908 36.94336 18.07031a14.718244 14.718244 0 0 0 1.93164.0723c5.42669-.15355 9.95993-1.4082 13.97265-2.93164 3.00153 1.7655 6.48711 3.23682 10.69727 3.625a14.718244 14.718244 0 0 0 1.93554.0508c7.82663-.31058 15.32412-4.11986 19.9961-9.51758 4.67197-5.39772 6.88737-11.89114 7.40234-18.32617a14.718244 14.718244 0 0 0 -.29492-4.32813c-2.3962-10.91838-4.04313-19.54806-4.60352-30.01562-.22354-6.53475.28747-13.63467.73047-20.83203a14.718244 14.718244 0 0 0 -.004-1.85157c-.79298-12.28513-9.22343-21.78492-17.36914-26.46093-8.14572-4.67601-16.48136-6.40568-23.47657-7.28711a14.718244 14.718244 0 0 0 -1.83974-.11529z" transform="matrix(.67734952 0 0 .67734952 -18.816624 -119.66635)"/><path d="m585.64062 231.53711c-5.63202-.17619-11.362.56536-17.01953 3.4043-5.65753 2.83893-11.73918 9.42852-12.2539 17.65429a12.469937 12.469937 0 0 0 .0254 1.88282c3.35472 37.76991 3.60329 70.47487 1.59765 92.1875a12.469937 12.469937 0 0 0 -.0527 1.18945l.0312 9.125a12.469937 12.469937 0 0 0 .20508 2.20898c1.37583 7.49259 6.8487 13.0345 12.11719 15.8125 5.26848 2.778 10.6955 3.73343 16.03125 3.76367 5.33574.0302 10.61314-.83818 15.76953-3.45898 5.15638-2.6208 10.95776-8.28271 11.72461-16.16211a12.469937 12.469937 0 0 0 -.008-2.49414c-1.74028-16.77342-4.09968-65.0641-.58398-101.77344a12.469937 12.469937 0 0 0 .0527-.86718c.21766-8.44359-5.75686-15.19387-11.10742-18.19922-5.35056-3.00536-10.89776-4.09726-16.5293-4.27344z" transform="matrix(.67734952 0 0 .67734952 -18.816624 -119.32801)"/><g transform="matrix(.11289158 0 0 .11289158 339.71236 -36.084938)"><path d="m1019.0938 464.28906c-28.55524 0-54.38106 3.82044-76.33989 11.74805-21.95884 7.92761-41.24381 20.03028-51.9336 40.30469-6.03968 11.45499-5.45358 17.11312-6.6914 28.24609-1.23783 11.13297-2.25725 25.82648-3.21485 45.5625-1.9152 39.47205-3.52236 98.94212-5.21289 186.23633-1.82542 94.25484-3.25092 165.06611-5.48633 216.20703-1.5056 34.44455-3.72075 59.65765-6.06054 76.58785-6.31165-7.7914-13.86161-17.473-22.19336-28.791-44.35053-60.2467-83.67168-133.64429-167.10938-313.72263-21.29309-45.95555-38.58138-81.62688-52.0332-107.27149-6.72591-12.8223-12.46437-23.11274-17.52539-31.25586-5.06103-8.14311-7.57732-13.46922-16.36328-20.51757-15.28035-12.25835-35.78966-17.58399-58.71094-17.58399-18.80606 0-41.56878.73242-62.32422 5.69727-10.37772 2.48242-20.55477 5.61613-30.50976 13.59375-9.95162 7.9749-18.28224 25.66461-15.16602 40.74804l2.18359 10.61329 10.95704 98.61328a26.806975 26.806975 0 0 0 7.8164 15.75195c1.74502 3.93172 3.56294 7.98634 6.85156 16.18359 8.89992 22.18401 22.32202 57.10754 38.75196 98.15039 32.85987 82.08572 77.67993 188.74118 125.06054 272.29888 36.30871 64.0317 82.77779 141.3766 122.67774 205.2812 19.94997 31.9523 38.23923 60.5146 52.8789 82.4805 14.63968 21.9659 22.51367 34.7635 33.24805 45.3183 8.02347 7.8891 18.2898 17.1784 32.38672 20.295 14.09692 3.1165 25.42725 1.5174 45.80664.045 24.30537-1.7563 51.29341-6.6891 74.87891-12.8555 11.79275-3.0832 22.66943-6.4593 32.1562-10.1601 9.4869-3.7009 17.129-6.5624 25.7618-14.3692 8.4429-7.6355 7.7759-10.6167 9.1054-14.0469 1.3296-3.4301 2.3481-6.8059 3.418-10.7304 2.1399-7.849 4.3367-17.7348 6.7715-30.0371 4.8696-24.6047 10.5787-58.6391 16.8613-100.6309 38.5688-257.7796 53.3312-452.11989 47.1524-625.85742-2.021-56.82817-4.1356-94.61235-7.4493-121.03126-3.3137-26.4189-5.37-43.5705-21.4531-58.11523-8.5345-7.71774-12.7386-7.39907-17.3965-8.57227-4.6579-1.17319-9.3494-1.91742-14.5976-2.54101-10.4964-1.24717-23.0492-1.87305-36.9531-1.87305zm-530.45318 249.10156c-.00084-.008.0894.46182.0723 1.56641a26.806975 26.806975 0 0 0 -.0723-1.56641zm-47.8789 15.96485c.17749.35495 1.05848 2.55191 1.32812 3.13867-1.47204-1.66823-1.14966-2.67243-1.32812-3.13867z"/><path d="m1003.166 535.64648c.085.36805.7077 1.46029 1.6465 2.875-.9706-2.47309-1.7888-3.49054-1.6465-2.875zm-14.06248 13.43946c-.18959-.18079-1.30818 2.28829-1.97657 5.12109 1.42221-3.15072 2.10773-4.99602 1.97657-5.12109zm19.95698 18.75c-9.4546.5515-17.62391 1.72965-23.68745 3.12109-.47233 6.64008-.95779 14.66884-1.41993 24.19336-1.80661 37.23422-3.42783 96.30343-5.11132 183.23438-1.82611 94.29005-3.23184 165.34821-5.56446 218.71289-2.33261 53.36464-3.53992 85.98854-13.57226 120.11914-5.01617 17.0653-10.8385 43.7602-48.73438 62.6191-18.94793 9.4295-43.3794 10.2546-59.63281 5.9844-16.2534-4.2702-26.2031-10.9916-33.86523-16.7598-30.64856-23.0727-39.94924-42.1899-58.58985-67.5117-50.8087-69.0196-93.49812-149.92713-177.63281-331.50974-19.70142-42.52034-35.45187-74.89859-47.32422-97.80664l1.89844 17.08985c3.36878 7.30154 6.23998 14.26505 9.94726 23.50585 9.47567 23.61912 22.65246 57.93402 38.78125 98.22461 32.2576 80.58119 76.51937 184.79084 119.02539 259.75197 35.25733 62.1776 81.29563 138.8264 120.44532 201.5293 19.57484 31.3514 37.48038 59.2985 51.21484 79.9062 4.93833 7.4097 10.09493 14.2577 14.5957 20.1387 1.29145-.071 2.15378-.06 3.56836-.1621 15.56801-1.1249 38.52443-5.1434 56.21875-9.7695.84231-.2203 1.48881-.4412 2.3086-.6641 4.30097-21.8605 9.78389-54.3191 15.83593-94.7695 38.01578-254.0836 51.95628-441.75293 46.08208-606.92581-1.4534-40.86551-3.0686-71.17801-4.7872-92.25195zm32.002.55078c2.1873.37539 3.6127.15906 4.3848.35351 2.0149.50751.7619.14064-1.5723-.13671-.6468-.0769-1.9912-.13999-2.8125-.2168zm-66.24805 6.09766c-.65121.42635-.66038.52236 0 0zm-1.29687 779.40042c-.25608.074-1.11621.6281-2.65235 1.832 1.78798-.8272 3.10241-1.9617 2.65235-1.832zm-25.57227 26.0097c-1.77192 3.5624-1.20012 5.0696-1.3789 6.127.0288-.1019.0326-.099.0625-.209.25983-.9531.94527-4.3844 1.3164-5.918z"/><path d="m1019.0938 418.66016c-32.78443 0-63.29012 4.15402-91.83403 14.45898-28.54392 10.30496-58.34842 26.9444-76.80079 61.94141-13.94242 26.4435-10.25161 31.64223-11.67968 44.48633-1.42808 12.84409-2.4598 28.16164-3.44141 48.39257-1.96323 40.46186-3.56417 100.10957-5.25781 187.56446-1.227 63.35532-2.35144 112.45308-3.57422 155.4414-27.66579-49.45011-60.90198-116.94584-110.25391-223.45898-21.4696-46.33651-38.95144-82.45452-53.02539-109.28516-7.03697-13.41532-13.14758-24.44092-19.17968-34.14648-6.03211-9.70556-6.94183-16.28159-26.56446-32.02344-22.94937-18.41066-59.76712-27.62109-87.26367-27.62109-20.49562 0-45.11322.29298-72.93945 6.94922-13.91312 3.32811-29.44044 7.14747-48.42774 22.36328-18.98729 15.2158-37.65253 55.00796-31.31054 85.625l1.74414 8.47656 10.72461 96.51758a72.440593 72.440593 0 0 0 13.09179 33.32031c-.0397-.23926-.11754-.49141-.14258-.71289.14269.33106.31366.75737.47657 1.13672a72.440593 72.440593 0 0 0 12.44726 13.09179c-5.50231-3.3777-8.8194-6.24085-10.55859-8.57812 1.11863 2.66477 1.03819 2.34544 2.35547 5.62891 8.64526 21.54925 22.17514 56.7455 38.73828 98.12109 33.12627 82.75118 78.19379 190.48769 127.73047 277.84769 36.77374 64.8518 83.43227 142.5014 123.66406 206.9375 20.1159 32.218 38.57517 61.0563 53.61523 83.623 15.04007 22.5667 18.23975 31.913 39.22461 52.5469a72.440593 72.440593 0 0 0 .002 0c8.34761 8.2078 28.91513 26.6502 54.52734 32.3125s38.44125 2.4834 58.94531 1.0019c28.16998-2.0354 56.93965-7.373 83.13086-14.2207 13.09559-3.4238 25.36889-7.1806 37.19729-11.7949s21.9856-6.9405 39.7851-23.0371c21.7655-19.6839 18.7725-25.5354 21.045-31.3984 2.2725-5.8631 3.5759-10.3752 4.8964-15.2188 2.641-9.6871 4.9548-20.2702 7.5098-33.1797 5.1099-25.819 10.8784-60.3089 17.2266-102.7383 38.8134-259.4144 53.9385-456.70466 47.625-634.23042-2.0368-57.27122-4.075-95.60153-7.7735-125.08789-3.6984-29.48636-2.4179-55.79813-36.123-86.2793a72.440593 72.440593 0 0 0 0-.002c-21.3746-19.32914-29.2461-17.05802-36.8554-18.97461-7.6094-1.91658-13.8224-2.82874-20.3594-3.60547-13.0741-1.55346-26.9902-2.1914-42.3359-2.1914zm-485.10161 289.70312c.16381 1.4776 1.08328 3.29881.0332 12.57422a72.440593 72.440593 0 0 0 -.0332-12.57422zm-.54492 17.71289c-.52375 4.90217-.86972 12.03386-7.45118 22.8125a72.440593 72.440593 0 0 0 7.45118-22.8125zm283.97851 346.27343c-.14542.8471-.41196 2.6998-.47266 2.9063-.0843.2868-.10173-.8941.47266-2.9063z"/><path d="m1725.9297 367.51367c-34.8412 1.26091-62.0443 10.43536-88.9336 23.01758s-52.5688 26.57886-77.1152 59.15039a95.245394 95.245394 0 0 0 0 .002c-27.5402 36.54442-39.3663 72.78088-52.9786 119.14649-8.6342 29.40982-16.4597 62.5292-23.6054 98.22656-29.2199-41.87777-57.4492-80.06863-78.9453-104.70312a95.245394 95.245394 0 0 0 0-.002c-38.6224-44.26052-77.1752-78.09436-124.5039-91.63281-28.7786-8.23215-54.4946-9.50159-80.4512-7.8418-25.9566 1.6598-50.2992 3.78012-82.9844 22.70117-5.5338 3.20347-35.9127 20.02017-51.8535 53.28126-15.9408 33.26108-13.233 57.44599-11.4024 80.12109 3.6614 45.35019 15.492 105.12 38.6817 231.13086 22.8663 124.25348 55.4733 290.15747 73.3262 372.75777 17.4635 80.7981 23.4472 117.3724 38.0918 155.1914 7.3222 18.9096 22.0907 47.1651 51.8164 65.043 29.7256 17.8779 51.5686 16.4152 57.791 16.959 24.4385 2.136 29.964-.3487 42.4297-2.002 12.4656-1.6532 25.6825-3.9322 39.0566-6.8339 29.9153-6.4908 59.6991-9.5722 94.7774-41.836 35.0775-32.2631 42.0135-81.6609 41.9531-108.2011-.02-8.5926-.4689-17.2712-1.127-26.0254 24.8596 6.0831 46.3698 3.649 68.0664-.336 20.3719-3.7417 41.3692-10.2173 61.7657-22.8203 3.6066 12.1681 7.6793 23.9104 12.8691 35.6192 8.2328 18.574 14.1767 39.7614 50.6855 63.0136a95.245394 95.245394 0 0 0 0 0c48.8743 31.1267 96.0236 25.1599 140.7734 17.0313 27.567-5.0076 52.3407-10.97 79.4258-26.7364 27.0851-15.7663 61.4268-53.6528 64.2617-99.2793a95.245394 95.245394 0 0 0 0 0c1.599-25.7421-.521-18.3979-.9336-21.5156-.4125-3.1178-.8458-5.936-1.373-9.2461-1.0544-6.6203-2.4686-14.9054-4.2813-25.1992-3.6252-20.5877-8.8094-48.9532-15.2285-83.4024-12.838-68.8984-30.5905-161.95512-50.2226-262.85545-38.9705-200.29052-57.1021-295.77261-71.1797-350.96289-7.0388-27.59514-8.9854-46.19192-31.9531-75.98438-11.4839-14.89623-32.9965-30.49775-49.6016-36.60351-16.6051-6.10577-24.1987-6.13928-24.2168-6.14258-12.3221-2.24396-23.0407-2.58471-32.8828-2.22852zm-143.3985 446.49219c7.7982 5.01373 4.5311 4.62897 0 0zm16.8809 94.38867c.01.0257.5412 2.04835.6094 2.28516-.4628-1.41852-.63-2.34061-.6094-2.28516zm-143.9726 28.01563c-.032.67302 1.5109 3.35774.8808 8.77539-.421-4.7635-.8273-9.90025-.8808-8.77539z" transform="translate(0 57.256923)"/></g><g fill="#76bf00"><path d="m23.915738 38.489671c-9.553732.877811-17.420375 4.10959-13.788056 15.608741 2.575483 20.523334 2.510756 44.011248-.4420688 64.805998-1.8500229 9.1274 22.8030458 7.68424 24.0179338 3.55001-.449183-7.03527-2.226039-11.12477 3.283017-15.13203 5.229921-2.25473 7.226067.1327 9.489145 2.03973 4.35478 5.7247 1.58672 9.55835 4.867713 13.70931 1.832865 2.89878 19.594173 3.97898 23.504303.60478 4.381006-3.78052 1.797991-9.66495-.737038-14.01456-3.415539-6.46122-10.792265-11.68619-10.94655-17.3841 1.009896-8.298862 12.68923-9.972068 13.250779-23.084816-.767588-19.076714-10.481952-22.837301-23.707831-27.344246-8.343307-2.748144-19.241173-3.060369-28.791347-3.358817zm16.410618 22.892139c7.051416.118444 8.625722 6.275896 8.583523 9.31419.25591 3.247557-.539997 11.071634-8.320151 11.111618-7.040745-.421826-8.290716-7.874132-8.246566-11.04119.160214-3.341549 1.501069-9.167338 7.983194-9.384618z"/><path d="m198.90625 137.46875c-2.57828-.0716-5.30651-.0292-8.15625.0937-28.32836.58421-40.21928 21.05446-41.75 47.28125 1.22617 18.55111 7.99972 27.55273 20.34375 35.15625 5.76058 2.76636 10.47802 4.28469 15.09375 4.6875 5.91641.51633 11.66514-.82377 19.21875-3.75 18.66254-7.15474 32.78406-17.65977 18.71875-31.40625-6.21999-2.801-13.81854 1.65359-32.03125 7.0625-4.97085 1.50653-8.84189-3.41916-1.25-5.5625 27.38-7.44887 38.79034-10.42806 39.28125-29.1875-.32361-18.11709-11.42077-23.87368-29.46875-24.375zm-6.8125 19.0625c4.11735-.21806 7.93126 1.28502 9.15625 5.09375 4.71827 11.89036-19.22889 20.01897-21.84375 7.4375-1.91509-7.04922 5.82525-12.16781 12.6875-12.53125z" transform="matrix(.67734952 0 0 .67734952 -25.59016 -24.499086)"/><path d="m267.3125 140.3125c-15.3985.84151-35.51152 7.23846-35.625 25.15625 1.55896 21.88225 34.93809 25.78667 36.5625 31.125-.50006 9.00788-25.67939-11.10555-31.375-6.125-10.20439 10.14289-6.38833 18.12153 1.625 24 5.32351 3.90524 12.48694 6.8775 18.59375 8.9375 13.35766 3.49999 25.8886-.25389 33.40625-3.96875 8.39372-3.27294 11.41308-14.17094 11.0625-23.28125-3.86056-18.00193-31.83682-22.03465-34.3125-28.71875.31085-10.60897 25.03514 12.83593 31.59375 5.5 12.30826-22.39115-3.55602-26.8764-18.625-31.84375-3.16983-.72894-7.77342-1.06175-12.90625-.78125z" transform="matrix(.67734952 0 0 .67734952 -24.235426 -24.499086)"/><path d="m323.3125 111.28125c-10.6165.44334-16.0078 5.91577-16.3125 14.375 1.42163 9.74741 6.52451 13.74902 16.3125 14.3125 9.5651-.69978 13.42442-3.91783 14.96875-14.3125-.91728-8.20423-5.94378-13.8135-14.96875-14.375zm-2.8125 33.46875c-7.8403.40004-15.59749 4.61781-14.5 11.4375 2.66429 16.49494 2.57594 38.25787-.96875 57.03125-4.10992 15.87299 34.56217 14.96683 29.5625 0-4.26239-17.03914-3.11196-36.01129.96875-57.03125.69224-8.41985-7.2222-11.83754-15.0625-11.4375z" transform="matrix(.67734952 0 0 .67734952 -22.880761 -24.499086)"/><path d="m404.59375 98.65625c-3.52981-.215362-7.2086.758205-10.15625 3.125-2.54267 2.45128-5.10381 2.90832-1.84375 17.78125.3944 11.13369 1.58844 16.11525-14.96875 15.59375-27.36095.65359-39.97091 22.87856-41.375 47.6875.3256 23.83872 16.3794 40.0078 39.6875 41.71875 8.15442.99936 12.23628-1.05413 18.125-5.25 2.37595 2.04009 5.79344 5.09373 8.84375 5.09375 9.68547-.32586 14.28138-5.26412 13.71875-14.1875-11.2245-25.90766 13.72332-95.16678-2.78125-107.5625-2.33479-2.39228-5.72019-3.784638-9.25-4zm-28.78125 65.8125c16.58914-.51274 14.88096 28.84785.375 29.6875-15.29117.2982-15.97506-29.22887-.375-29.6875z" transform="matrix(.67734952 0 0 .67734952 -21.526025 -24.499086)"/><path d="m265.1732 71.975759c-2.03723 20.035161-6.3072 51.249391 20.87232 53.259531 3.51633 0 6.96367-1.72462 10.31741-2.74373 1.86858 1.74816 2.21293 3.57407 7.53262 3.2354 11.1952.24963 9.49291-8.04969 9.30096-15.87368-2.91293-11.41709-1.83761-26.366161-.43865-39.119221-.52075-6.792354-17.37441-7.582461-20.53335-1.018018-2.16487 6.876603 2.84304 31.080179-3.30366 32.611729-5.61814-1.67245.14592-28.248252-1.08083-32.331394-.65013-7.129805-20.01064-6.886105-22.66682 1.979383z"/><path d="m535.625 135.46875c-11.38768.00008-21.65912 4.71388-29.84375 13.6875-8.1991 8.93737-12.53127 20.35466-12.53125 33.03125.265 25.07963 9.29772 39.23274 34.8125 41.875 5.89792-.16689 11.3655-2.7404 16.5625-5.3125 2.71497 3.02362 5.67923 5.67565 9.875 6.0625 8.06066-.31988 12.70786-6.75693 13.3125-14.3125-2.44983-11.16272-4.32272-20.87144-4.9375-32.53125-.2751-7.67394.31392-15.32132.75-22.40625-.88518-13.71358-16.47312-18.64131-28-20.09375zm-5.5625 29.4375c15.98839.91287 14.81779 29.85985.15625 29.5625-14.69914-.24871-14.13421-28.90571-.15625-29.5625z" transform="matrix(.67734952 0 0 .67734952 -18.816624 -24.499086)"/></g><path d="m585.25 102.5c-7.93215-.24815-16.01875 2.68299-16.4375 9.375 3.40499 38.33592 3.71089 71.51778 1.59375 94.4375l.0312 9.125c2.32226 12.64669 29.90028 11.97858 30.96875 1-1.8631-17.95716-4.2532-66.03963-.59375-104.25.15499-6.0126-7.63035-9.43935-15.5625-9.6875z" fill="#71b900" transform="matrix(.67734952 0 0 .67734952 -18.816624 -24.499086)"/><path d="m482.03796 116.83321c-2.41569-10.0144-12.47378-67.641306-13.60547-76.601266-1.81898-7.970108 7.20815-12.392331 12.95199-9.596537 4.40227 2.314662 11.22016 10.590538 23.18923 28.148315 6.11908 8.976248 7.73057 10.551865 8.88373 8.686019.27243-.440802 1.57263-6.712735 2.88935-13.937627 2.70159-14.824032 5.40436-24.104578 8.40372-28.855846 2.81841-4.464629 9.11278-6.836567 12.79503-4.585691 1.42497.870998 4.02202 3.891713 7.85855 23.839105 7.34591 38.193891 14.42215 60.405458 12.21529 67.907818-1.40467 4.77528-13.62477 5.43828-16.06445 2.9632-4.16235-4.22273-3.16696-6.15709-4.73136-19.814-1.30661-11.406755-3.96021-25.216758-5.34563-27.819744-2.16237-4.062928-4.18404 3.487885-6.66417 24.890194-.73962 6.38231-1.64824 10.89108-2.33283 11.57566-1.58351 1.58354-7.50577 2.25367-8.99483 1.01783-.66156-.54905-4.53222-6.99654-8.60152-14.32777-8.10966-14.610512-10.60269-18.10203-11.96823-16.761564-1.10483 1.084582.15267 11.589423 2.37746 19.860784 4.90887 18.25037 8.18003 22.44453 7.47919 26.73597-.68543 4.19716-1.31498 5.6135-8.78071 7.89667-7.31206 1.21304-10.13257-4.40421-11.95434-11.22152z" fill="#c87137"/><path d="m432.74158 121.95987c-8.1402-11.28251-11.4721-18.75445-19.67941-33.268913-10.83439-19.160451-22.7683-49.821678-22.7683-55.873517 0-3.802246 2.30499-5.301566 8.15058-5.301566 7.5587 0 6.57482-1.354125 20.50454 28.220348 10.20345 21.6631 13.07522 26.869543 17.57794 31.868425 2.36728 2.628133 3.16556 3.098073 3.75564 2.210991.94586-1.422007 1.6688-13.838885 2.45118-42.10031.5649-20.405665.75573-22.492424 2.33778-25.564128 1.89418-3.677889 4.71538-5.139042 9.92249-5.139042 2.36066 0 3.45558.503697 4.83013 2.221944 1.76339 2.204403 1.77364 2.40048 1.29984 24.845325-.26261 12.442867-.33131 29.545753-.86524 37.334327-1.4482 21.125986.47192 25.274876-4.19115 39.689336-5.56764 7.23008-18.84596 8.80322-23.32602.85678z" fill="#c87137"/></svg>