<svg height="350.99329" viewBox="0 0 158.45508 92.866976" width="598.88538" xmlns="http://www.w3.org/2000/svg"><g fill="#fff" transform="matrix(1.0767869 0 0 1.0767869 42.285545 -274.253402)"><path d="m-4.6386701 263.82031c-2.5214825 0-4.5605469 2.03905-4.5605469 4.56055v5.74023 1.67188 52.05078c0 2.19516 1.7755492 3.97266 3.9707032 3.97266h79.0722658c2.195174 0 3.972656-1.7775 3.972656-3.97266v-53.72266c0-2.19516-1.777481-3.97265-3.972656-3.97265h-49.027344-1.060547c-1.181533 0-3.070121-.80679-3.759765-3.13282-.390656-1.31764-1.347453-2.12387-2.265625-2.58789-.918173-.46402-1.773508-.60546-2.166016-.60546-5.456165.00032-15.39443826-.002-19.9101563-.002zm0 .58789c4.41490855 0 14.6664671.002 20.2031251.002.221904 0 1.077879.12534 1.900391.54101.822511.41568 1.633532 1.10177 1.96875 2.23242.762148 2.57056 2.874327 3.55274 4.322265 3.55274h1.060547 49.027344c1.879849 0 3.384766 1.50493 3.384766 3.38476v53.72266c0 1.87984-1.504916 3.38477-3.384766 3.38477h-79.0722658c-1.8798266 0-3.3847656-1.50493-3.3847656-3.38477v-52.05078-1.67188-5.74023c0-2.20618 1.7684479-3.97266 3.9746093-3.97266z"/><path d="m-4.4707013 274.22266c-2.6150163 0-4.7304688 2.11544-4.7304688 4.73046v7.34571 31.83789 4.97851h.5878907v-4.97851-31.83789-7.34571c0-2.29969 1.8428966-4.14257 4.1425781-4.14257h77.5566413c2.299703 0 4.142578 1.84288 4.142578 4.14257v7.34571 31.83789 4.97851h.58789v-4.97851-31.83789-7.34571c0-2.61502-2.115432-4.73046-4.730468-4.73046z"/><path d="m-9.0214826 324.76172v.11523 2.19727h86.6582036v-2.3125zm.2285156.22851h86.201172v1.85547h-86.201172z"/><path d="m-9.0214826 326.8457v.11524 1.92187h86.6582036v-2.03711zm.2285156.22852h86.201172v1.58008h-86.201172z"/><path d="m18.021484 279.61328c-2.238366 0-4.050781 1.81241-4.050781 4.05078v32.57227c0 2.23837 1.812415 4.04883 4.050781 4.04883h32.572266c2.238366 0 4.050781-1.81048 4.050781-4.04883v-32.57227c0-2.23835-1.812415-4.05078-4.050781-4.05078zm0 .60938h32.572266c1.91175 0 3.441406 1.52964 3.441406 3.4414v32.57227c0 1.91176-1.529656 3.4414-3.441406 3.4414h-32.572266c-1.911749 0-3.441406-1.52965-3.441406-3.4414v-32.57227c0-1.91175 1.529657-3.4414 3.441406-3.4414zm.625 4.06445v.30469 31.01953h31.324219v-31.32422zm.607422.60937h30.107422v30.10743h-30.107422z"/><path d="m44.347656 289.08398-12.628906 14.13086-6.359375-6.5957-.21875.21484-3.763672 3.68164 11.076172 10.74805 16.171875-18.375zm.04883.85743 3.371094 3-15.349609 17.43945-10.169922-9.86719 3.099609-3.02929 6.388672 6.625z" fill-rule="evenodd"/></g></svg>