<svg height="68" viewBox="0 0 135.46666 17.991667" width="512" xmlns="http://www.w3.org/2000/svg" xmlns:xlink="http://www.w3.org/1999/xlink"><radialGradient id="a" cx="55.191422" cy="275.03064" gradientTransform="matrix(1.7165681 0 0 .63375969 -12.066408 101.11051)" gradientUnits="userSpaceOnUse" r="39.814793"><stop offset="0" stop-color="#ffcf64"/><stop offset="1" stop-color="#d09236"/></radialGradient><linearGradient id="b" gradientTransform="matrix(.4339873 0 0 .43663341 17.718153 261.21601)" gradientUnits="userSpaceOnUse" x1="17.803938" x2="17.803938" y1="17.98328" y2="46.172852"><stop offset="0"/><stop offset=".00658632" stop-color="#c5bb8f"/><stop offset=".0176123" stop-color="#fbe38c"/><stop offset="1" stop-color="#fffbb1" stop-opacity="0"/></linearGradient><g fill="#fbe01b" stroke-width=".511011" transform="translate(-15.591072 -266.7455)"><path d="m48.425781 171.73242c-.167543-.00056-.32844.0655-.447265.1836l-3.445313 3.44531c-.118113.11882-.184159.27972-.183594.44726v20.67774c-.000565.16754.06548.32844.183594.44726l3.445313 3.44532c.118826.11811.279724.18416.447265.18359h20.677735c.348289-.0003.630557-.28257.630859-.63086v-6.89258c-.000302-.34829-.28257-.63056-.630859-.63086h-16.601563v-12.52148h13.154297c.238748.00015.457162-.13438.564453-.34766l3.447266-6.89258c.210149-.41978-.09501-.91394-.564453-.91406zm27.191407 0c-.167543-.00056-.328441.0655-.447266.1836l-3.445313 3.44531c-.118113.11882-.184158.27972-.183593.44726v20.67774c-.000565.16754.06548.32844.183593.44726l3.445313 3.44532c.118826.11811.279724.18416.447266.18359h17.230468c.167542.00057.32844-.0655.447266-.18359l3.447266-3.44532c.118113-.11882.184158-.27972.183593-.44726v-20.67774c.000565-.16754-.06548-.32844-.183593-.44726l-3.447266-3.44531c-.118825-.11812-.279723-.18416-.447266-.1836zm23.746093 0c-.348289.0003-.630557.28257-.630859.63086v27.56836c.000302.34829.28257.63056.630859.63086h20.677739c.23875.00015.45716-.13438.56445-.34766l3.44531-6.89257c.21016-.41978-.095-.91396-.56445-.91407h-16.59961v-20.04492c-.0003-.34829-.28257-.63056-.63086-.63086zm27.191409 0c-.34829.0003-.63056.28257-.63086.63086v27.56836c.0003.34829.28257.63056.63086.63086h20.67773c.23875.00015.45717-.13438.56446-.34766l3.44531-6.89257c.21016-.41979-.095-.91396-.56446-.91407h-16.59961v-20.04492c-.0003-.34829-.28256-.63055-.63085-.63086zm27.19336 0c-.34829.0003-.63056.28257-.63086.63086v27.56836c.0003.34829.28257.63056.63086.63086h20.67578c.34829-.0003.63056-.28257.63086-.63086v-6.89258c-.0003-.34829-.28257-.63056-.63086-.63086h-13.15235v-2.18359h13.15235c.34829-.0003.63056-.28257.63086-.63086v-6.89258c-.0003-.34829-.28257-.63056-.63086-.63086h-13.15235v-2.18359h13.15235c.34829-.0003.63056-.28257.63086-.63086v-6.89258c-.0003-.34829-.28257-.63056-.63086-.63086zm27.1914 0c-.16754-.00056-.32844.0655-.44726.1836l-3.44531 3.44531c-.11812.11882-.18416.27972-.1836.44726v20.67774c-.00056.16754.0655.32844.1836.44726l3.44531 3.44532c.11882.11811.27972.18416.44726.18359h20.67578c.34829-.0003.63056-.28257.63086-.63086v-6.89258c-.0003-.34829-.28257-.63056-.63086-.63086h-16.59961v-12.52148h13.1543c.23875.00015.45717-.13438.56446-.34766l3.44531-6.89258c.21015-.41978-.095-.91395-.56446-.91406zm23.7461 0c-.34829.0003-.63056.28257-.63086.63086v6.89258c.0003.34829.28257.63056.63086.63086h7.98437v20.04492c.0003.34829.28257.63056.63086.63086h6.89258c.34829-.0003.63056-.28257.63086-.63086v-20.04492h7.98437c.34829-.0003.63056-.28257.63086-.63086v-6.89258c-.0003-.34829-.28257-.63056-.63086-.63086zm27.1914 0c-.34829.0003-.63056.28257-.63086.63086v27.56836c.0003.34829.28257.63056.63086.63086h6.89258c.34829-.0003.63056-.28257.63086-.63086v-27.56836c-.0003-.34829-.28257-.63056-.63086-.63086zm13.40821 0c-.16754-.00057-.32844.0655-.44727.1836l-3.44727 3.44531c-.11811.11882-.18416.27972-.18359.44726v20.67774c-.00057.16754.0655.32844.18359.44726l3.44727 3.44532c.11883.11811.27973.18416.44727.18359h17.23046c.16754.00057.32844-.0655.44727-.18359l3.44531-3.44532c.11812-.11882.18416-.27972.1836-.44726v-20.67774c.00056-.16754-.0655-.32844-.1836-.44726l-3.44531-3.44531c-.11883-.11812-.27973-.18417-.44727-.1836zm23.74609 0c-.34829.0003-.63056.28257-.63086.63086v27.56836c.0003.34829.28257.63056.63086.63086h6.89063c.34829-.00031.63055-.28257.63085-.63086v-14.55664l7.41993 14.83984c.10729.21328.3257.34781.56445.34766h8.61523c.34829-.0003.63056-.28257.63086-.63086v-27.56836c-.0003-.34829-.28257-.63056-.63086-.63086h-6.89062c-.34829.0003-.63056.28257-.63086.63086v14.55664l-7.41992-14.83984c-.10729-.21328-.32571-.34781-.56446-.34766zm30.63672 0c-.16754-.00057-.32844.0655-.44727.1836l-3.44531 3.44531c-.11811.11882-.18416.27972-.18359.44726v10.33985c-.00057.16754.0655.32844.18359.44726l3.44531 3.44532c.11883.11811.27973.18416.44727.18359h13.1543v2.18359h-16.59961c-.34829.0003-.63056.28257-.63086.63086v6.89258c.0003.34829.28257.63056.63086.63086h17.23046c.16754.00057.32844-.0655.44727-.18359l6.89258-6.89258c.11811-.11883.18416-.27973.18359-.44727v-10.33789c-.0003-.34829-.28257-.63056-.63086-.63086h-16.59961v-2.18359h13.25841c.34829-.0003.48398-.3129.63086-.63086l3.3412-6.89258c.0892-.20916.0292-.35252-.0493-.45765-.11502-.15409-.37455-.17303-.58158-.17321zm-219.972658 8.1543h9.076172v12.52148h-9.076172zm169.666018 0h9.07617v12.52148h-9.07617z" fill="#000" transform="matrix(.47432925132 0 0 .47722135878 -3.32857821679 186.9077866654)"/><path d="m19.651726 269.16323-1.634213 1.64418v9.86786l1.634213 1.64416h9.808053v-3.28928h-8.173842v-6.57763h6.538703l1.635139-3.28929zm12.897676 0-1.634212 1.64418v9.86786l1.634212 1.64416h8.172916l1.63514-1.64416v-9.86786l-1.63514-1.64418zm11.263468 0v13.1562h9.808056l1.63421-3.28928h-8.172916v-9.86692zm12.89768 0v13.1562h9.808052l1.634216-3.28928h-8.172916v-9.86692zm12.898605 0v13.1562h9.807128v-3.28928h-6.537774v-1.64416h6.537774v-3.28928h-6.537774v-1.64419h6.537774v-3.28929zm12.897677 0-1.634213 1.64418v9.86786l1.634213 1.64416h9.80713v-3.28928h-8.172916v-6.57763h6.538701l1.634215-3.28929zm11.263469 0v3.28929h4.086454v9.86691h3.269355v-9.86691h4.08646v-3.28929zm12.897679 0v13.1562h3.26935v-13.1562zm6.35991 0-1.63514 1.64418v9.86786l1.63514 1.64416h8.17291l1.63421-1.64416v-9.86786l-1.63421-1.64418zm11.26346 0v13.1562h3.26843v-8.22272l4.08646 8.22272h4.08646v-13.1562h-3.26843v8.22276l-4.08646-8.22276zm14.53189 0-1.63421 1.64418v4.9344l1.63421 1.64418h6.53871v1.64416h-8.17292v3.28928h8.17292l3.26935-3.28928v-4.93344h-8.17292v-1.64419h6.53966l1.63326-3.28929zm-104.638696 3.28929h4.903561v6.57763h-4.903561zm80.477556 0h4.90356v6.57763h-4.90356z" fill="url(#a)"/><path d="m19.651601 269.16326-1.634234 1.6442v9.86775l1.634234 1.64419h.07798l-1.518108-1.52736v-9.86774l1.634233-1.6442h9.55535l.05849-.11684zm12.89756 0-1.634234 1.6442v9.86775l1.634234 1.64419h.07798l-1.518108-1.52736v-9.86774l1.634233-1.6442h8.094881l-.116124-.11684zm11.263326 0v13.15614h.194108v-13.0393h3.075207v-.11684zm12.89756 0v13.15614h.194108v-13.0393h3.075207v-.11684zm12.899256 0v13.15614h.193259v-13.0393h9.613838v-.11684zm12.89756 0-1.634236 1.6442v9.86775l1.634236 1.64419h.07713l-1.518102-1.52736v-9.86774l1.634231-1.6442h9.556196l.05764-.11684zm11.263325 0v3.28925h.194109v-3.17241h11.248073v-.11684zm12.897562 0v13.15614h.19411v-13.0393h3.0752v-.11684zm6.35978 0-1.63509 1.6442v9.86775l1.63509 1.64419h.078l-1.51896-1.52736v-9.86774l1.63509-1.6442h8.09487l-.11612-.11684zm11.26333 0v13.15614h.1941v-13.0393h3.95081l-.0585-.11684zm8.17286 0v7.94895l.1941.39058v-8.22269h3.07436v-.11684zm6.35977 0-1.63423 1.6442v4.9343l1.63423 1.6442h.0771l-1.51811-1.52737v-4.93429l1.63424-1.6442h9.55534l.0593-.11684zm-99.7357 3.40609v6.46081h-4.709441v.11683h4.903548v-6.57764zm58.768831 0v9.75005h.194109v-9.75005zm21.708689 0v6.46081h-4.70944v.11683h4.90355v-6.57764zm-46.493431 1.52736v.11683h6.344521v-.11683zm67.579951 0v.11683h7.97961v-.11683zm-12.8984.11683v.27375l3.89232 7.83211h.13647zm17.60869 3.28925v1.52737h-8.17286v3.28924h.19326v-3.17241h8.17286v-1.6442zm-123.882178 1.52737v.11683h7.979602v-.11683zm25.795967 0v.11683h7.921116l.05764-.11683zm12.897561 0v.11683h7.921964l.05764-.11683zm12.898409 0v.11683h6.344521v-.11683zm11.262479 0v.11683h7.979603v-.11683z" fill="url(#b)"/></g></svg>