<?xml version="1.0" encoding="UTF-8" standalone="no"?>
<svg
   xmlns:dc="http://purl.org/dc/elements/1.1/"
   xmlns:cc="http://creativecommons.org/ns#"
   xmlns:rdf="http://www.w3.org/1999/02/22-rdf-syntax-ns#"
   xmlns:svg="http://www.w3.org/2000/svg"
   xmlns="http://www.w3.org/2000/svg"
   xmlns:xlink="http://www.w3.org/1999/xlink"
   xmlns:sodipodi="http://sodipodi.sourceforge.net/DTD/sodipodi-0.dtd"
   xmlns:inkscape="http://www.inkscape.org/namespaces/inkscape"
   width="512"
   height="68"
   viewBox="0 0 135.46666 17.991667"
   version="1.1"
   id="svg9136"
   inkscape:version="1.0.2 (e86c8708, 2021-01-15)"
   sodipodi:docname="system.svg"
   inkscape:export-filename="D:\EMU\artwork\svg\ES Custom Logos\custom systems\Collections_udb_new.png"
   inkscape:export-xdpi="380.91953"
   inkscape:export-ydpi="380.91953">
  <defs
     id="defs9130">
    <linearGradient
       inkscape:collect="always"
       id="linearGradient4559">
      <stop
         style="stop-color:#000000;stop-opacity:1"
         offset="0"
         id="stop4555" />
      <stop
         id="stop4563"
         offset="0.00658632"
         style="stop-color:#c5bb8f;stop-opacity:1" />
      <stop
         style="stop-color:#fbe38c;stop-opacity:1"
         offset="0.0176123"
         id="stop4565" />
      <stop
         style="stop-color:#fffbb1;stop-opacity:0;"
         offset="1"
         id="stop4557" />
    </linearGradient>
    <linearGradient
       inkscape:collect="always"
       id="linearGradient4549">
      <stop
         style="stop-color:#ffcf64;stop-opacity:1"
         offset="0"
         id="stop4545" />
      <stop
         style="stop-color:#d09236;stop-opacity:1"
         offset="1"
         id="stop4547" />
    </linearGradient>
    <radialGradient
       inkscape:collect="always"
       xlink:href="#linearGradient4549"
       id="radialGradient4553"
       cx="55.191422"
       cy="275.03064"
       fx="55.191422"
       fy="275.03064"
       r="39.814793"
       gradientTransform="matrix(1.7165681,0,0,0.63375969,-12.066408,101.11051)"
       gradientUnits="userSpaceOnUse" />
    <linearGradient
       inkscape:collect="always"
       xlink:href="#linearGradient4559"
       id="linearGradient4561"
       x1="17.803938"
       y1="17.98328"
       x2="17.803938"
       y2="46.172852"
       gradientUnits="userSpaceOnUse"
       gradientTransform="matrix(0.4339873,0,0,0.43663341,17.718153,261.21601)" />
  </defs>
  <sodipodi:namedview
     id="base"
     pagecolor="#ffffff"
     bordercolor="#666666"
     borderopacity="1.0"
     inkscape:pageopacity="0.0"
     inkscape:pageshadow="2"
     inkscape:zoom="1"
     inkscape:cx="130.19944"
     inkscape:cy="58.54873"
     inkscape:document-units="px"
     inkscape:current-layer="text4594"
     showgrid="false"
     units="px"
     inkscape:window-width="1163"
     inkscape:window-height="694"
     inkscape:window-x="13"
     inkscape:window-y="65"
     inkscape:window-maximized="0"
     fit-margin-top="0"
     fit-margin-left="0"
     fit-margin-right="0"
     fit-margin-bottom="0"
     inkscape:snap-global="true"
     inkscape:document-rotation="0" />
  <metadata
     id="metadata9133">
    <rdf:RDF>
      <cc:Work
         rdf:about="">
        <dc:format>image/svg+xml</dc:format>
        <dc:type
           rdf:resource="http://purl.org/dc/dcmitype/StillImage" />
        <dc:title></dc:title>
      </cc:Work>
    </rdf:RDF>
  </metadata>
  <g
     inkscape:label="Layer 1"
     inkscape:groupmode="layer"
     id="layer1"
     transform="translate(-15.591072,-266.7455)">
    <g
       aria-label="All Games"
       style="font-style:normal;font-variant:normal;font-weight:normal;font-stretch:normal;font-size:20.4405px;line-height:12.7753px;font-family:'namco regular';-inkscape-font-specification:'namco regular, ';letter-spacing:0px;word-spacing:0px;fill:#fbe01b;fill-opacity:1;stroke:none;stroke-width:0.511011px;stroke-linecap:butt;stroke-linejoin:miter;stroke-opacity:1"
       id="text4594">
      <g
         style="font-style:normal;font-variant:normal;font-weight:normal;font-stretch:normal;font-size:medium;line-height:4.55891px;font-family:'namco regular';-inkscape-font-specification:'namco regular, ';letter-spacing:0px;word-spacing:0px;fill:#000000;fill-opacity:1;stroke:none;stroke-width:0.182356px;stroke-linecap:butt;stroke-linejoin:miter;stroke-opacity:1"
         id="g5800"
         transform="matrix(1.7927405,0,0,1.8036713,-31.358603,-247.9958)">
        <path
           inkscape:connector-curvature="0"
           id="path5798"
           d="m 48.425781,171.73242 c -0.167543,-5.6e-4 -0.32844,0.0655 -0.447265,0.1836 l -3.445313,3.44531 c -0.118113,0.11882 -0.184159,0.27972 -0.183594,0.44726 v 20.67774 c -5.65e-4,0.16754 0.06548,0.32844 0.183594,0.44726 l 3.445313,3.44532 c 0.118826,0.11811 0.279724,0.18416 0.447265,0.18359 h 20.677735 c 0.348289,-3e-4 0.630557,-0.28257 0.630859,-0.63086 v -6.89258 c -3.02e-4,-0.34829 -0.28257,-0.63056 -0.630859,-0.63086 H 52.501953 V 179.88672 H 65.65625 c 0.238748,1.5e-4 0.457162,-0.13438 0.564453,-0.34766 l 3.447266,-6.89258 c 0.210149,-0.41978 -0.09501,-0.91394 -0.564453,-0.91406 z m 27.191407,0 c -0.167543,-5.6e-4 -0.328441,0.0655 -0.447266,0.1836 l -3.445313,3.44531 c -0.118113,0.11882 -0.184158,0.27972 -0.183593,0.44726 v 20.67774 c -5.65e-4,0.16754 0.06548,0.32844 0.183593,0.44726 l 3.445313,3.44532 c 0.118826,0.11811 0.279724,0.18416 0.447266,0.18359 h 17.230468 c 0.167542,5.7e-4 0.32844,-0.0655 0.447266,-0.18359 l 3.447266,-3.44532 c 0.118113,-0.11882 0.184158,-0.27972 0.183593,-0.44726 v -20.67774 c 5.65e-4,-0.16754 -0.06548,-0.32844 -0.183593,-0.44726 l -3.447266,-3.44531 c -0.118825,-0.11812 -0.279723,-0.18416 -0.447266,-0.1836 z m 23.746093,0 c -0.348289,3e-4 -0.630557,0.28257 -0.630859,0.63086 v 27.56836 c 3.02e-4,0.34829 0.28257,0.63056 0.630859,0.63086 h 20.677739 c 0.23875,1.5e-4 0.45716,-0.13438 0.56445,-0.34766 l 3.44531,-6.89257 c 0.21016,-0.41978 -0.095,-0.91396 -0.56445,-0.91407 h -16.59961 v -20.04492 c -3e-4,-0.34829 -0.28257,-0.63056 -0.63086,-0.63086 z m 27.191409,0 c -0.34829,3e-4 -0.63056,0.28257 -0.63086,0.63086 v 27.56836 c 3e-4,0.34829 0.28257,0.63056 0.63086,0.63086 h 20.67773 c 0.23875,1.5e-4 0.45717,-0.13438 0.56446,-0.34766 l 3.44531,-6.89257 c 0.21016,-0.41979 -0.095,-0.91396 -0.56446,-0.91407 h -16.59961 v -20.04492 c -3e-4,-0.34829 -0.28256,-0.63055 -0.63085,-0.63086 z m 27.19336,0 c -0.34829,3e-4 -0.63056,0.28257 -0.63086,0.63086 v 27.56836 c 3e-4,0.34829 0.28257,0.63056 0.63086,0.63086 h 20.67578 c 0.34829,-3e-4 0.63056,-0.28257 0.63086,-0.63086 v -6.89258 c -3e-4,-0.34829 -0.28257,-0.63056 -0.63086,-0.63086 h -13.15235 v -2.18359 h 13.15235 c 0.34829,-3e-4 0.63056,-0.28257 0.63086,-0.63086 v -6.89258 c -3e-4,-0.34829 -0.28257,-0.63056 -0.63086,-0.63086 h -13.15235 v -2.18359 h 13.15235 c 0.34829,-3e-4 0.63056,-0.28257 0.63086,-0.63086 v -6.89258 c -3e-4,-0.34829 -0.28257,-0.63056 -0.63086,-0.63086 z m 27.1914,0 c -0.16754,-5.6e-4 -0.32844,0.0655 -0.44726,0.1836 l -3.44531,3.44531 c -0.11812,0.11882 -0.18416,0.27972 -0.1836,0.44726 v 20.67774 c -5.6e-4,0.16754 0.0655,0.32844 0.1836,0.44726 l 3.44531,3.44532 c 0.11882,0.11811 0.27972,0.18416 0.44726,0.18359 h 20.67578 c 0.34829,-3e-4 0.63056,-0.28257 0.63086,-0.63086 v -6.89258 c -3e-4,-0.34829 -0.28257,-0.63056 -0.63086,-0.63086 h -16.59961 v -12.52148 h 13.1543 c 0.23875,1.5e-4 0.45717,-0.13438 0.56446,-0.34766 l 3.44531,-6.89258 c 0.21015,-0.41978 -0.095,-0.91395 -0.56446,-0.91406 z m 23.7461,0 c -0.34829,3e-4 -0.63056,0.28257 -0.63086,0.63086 v 6.89258 c 3e-4,0.34829 0.28257,0.63056 0.63086,0.63086 h 7.98437 v 20.04492 c 3e-4,0.34829 0.28257,0.63056 0.63086,0.63086 h 6.89258 c 0.34829,-3e-4 0.63056,-0.28257 0.63086,-0.63086 v -20.04492 h 7.98437 c 0.34829,-3e-4 0.63056,-0.28257 0.63086,-0.63086 v -6.89258 c -3e-4,-0.34829 -0.28257,-0.63056 -0.63086,-0.63086 z m 27.1914,0 c -0.34829,3e-4 -0.63056,0.28257 -0.63086,0.63086 v 27.56836 c 3e-4,0.34829 0.28257,0.63056 0.63086,0.63086 h 6.89258 c 0.34829,-3e-4 0.63056,-0.28257 0.63086,-0.63086 v -27.56836 c -3e-4,-0.34829 -0.28257,-0.63056 -0.63086,-0.63086 z m 13.40821,0 c -0.16754,-5.7e-4 -0.32844,0.0655 -0.44727,0.1836 l -3.44727,3.44531 c -0.11811,0.11882 -0.18416,0.27972 -0.18359,0.44726 v 20.67774 c -5.7e-4,0.16754 0.0655,0.32844 0.18359,0.44726 l 3.44727,3.44532 c 0.11883,0.11811 0.27973,0.18416 0.44727,0.18359 h 17.23046 c 0.16754,5.7e-4 0.32844,-0.0655 0.44727,-0.18359 l 3.44531,-3.44532 c 0.11812,-0.11882 0.18416,-0.27972 0.1836,-0.44726 v -20.67774 c 5.6e-4,-0.16754 -0.0655,-0.32844 -0.1836,-0.44726 l -3.44531,-3.44531 c -0.11883,-0.11812 -0.27973,-0.18417 -0.44727,-0.1836 z m 23.74609,0 c -0.34829,3e-4 -0.63056,0.28257 -0.63086,0.63086 v 27.56836 c 3e-4,0.34829 0.28257,0.63056 0.63086,0.63086 h 6.89063 c 0.34829,-3.1e-4 0.63055,-0.28257 0.63085,-0.63086 V 185.375 l 7.41993,14.83984 c 0.10729,0.21328 0.3257,0.34781 0.56445,0.34766 h 8.61523 c 0.34829,-3e-4 0.63056,-0.28257 0.63086,-0.63086 v -27.56836 c -3e-4,-0.34829 -0.28257,-0.63056 -0.63086,-0.63086 h -6.89062 c -0.34829,3e-4 -0.63056,0.28257 -0.63086,0.63086 v 14.55664 l -7.41992,-14.83984 c -0.10729,-0.21328 -0.32571,-0.34781 -0.56446,-0.34766 z m 30.63672,0 c -0.16754,-5.7e-4 -0.32844,0.0655 -0.44727,0.1836 l -3.44531,3.44531 c -0.11811,0.11882 -0.18416,0.27972 -0.18359,0.44726 v 10.33985 c -5.7e-4,0.16754 0.0655,0.32844 0.18359,0.44726 l 3.44531,3.44532 c 0.11883,0.11811 0.27973,0.18416 0.44727,0.18359 h 13.1543 v 2.18359 h -16.59961 c -0.34829,3e-4 -0.63056,0.28257 -0.63086,0.63086 v 6.89258 c 3e-4,0.34829 0.28257,0.63056 0.63086,0.63086 h 17.23046 c 0.16754,5.7e-4 0.32844,-0.0655 0.44727,-0.18359 l 6.89258,-6.89258 c 0.11811,-0.11883 0.18416,-0.27973 0.18359,-0.44727 v -10.33789 c -3e-4,-0.34829 -0.28257,-0.63056 -0.63086,-0.63086 h -16.59961 v -2.18359 h 13.25841 c 0.34829,-3e-4 0.48398,-0.3129 0.63086,-0.63086 l 3.3412,-6.89258 c 0.0892,-0.20916 0.0292,-0.35252 -0.0493,-0.45765 -0.11502,-0.15409 -0.37455,-0.17303 -0.58158,-0.17321 z m -219.972658,8.1543 h 9.076172 v 12.52148 h -9.076172 z m 169.666018,0 h 9.07617 v 12.52148 h -9.07617 z"
           style="font-style:normal;font-variant:normal;font-weight:normal;font-stretch:normal;line-height:8.95085px;font-family:Guardians;-inkscape-font-specification:Guardians;text-align:center;text-anchor:middle;stroke-width:0.689221px"
           transform="matrix(0.26458333,0,0,0.26458333,15.635294,241.12131)"
           sodipodi:nodetypes="cccccccccccccccccccccccccccccccccccccccccccccccccccccccccccccccccccccccccccccccccccccccccccccccccccccccccccccccccccccccccccccccccccccccccccccccccccccccccccccccccccccccccccccccccccccccccscccccccccccc" />
      </g>
      <path
         id="path5742"
         style="font-style:normal;font-variant:normal;font-weight:normal;font-stretch:normal;font-size:medium;line-height:8.95085px;font-family:Guardians;-inkscape-font-specification:Guardians;text-align:center;letter-spacing:0px;word-spacing:0px;text-anchor:middle;fill:url(#radialGradient4553);fill-opacity:1;stroke:none;stroke-width:0.327913px;stroke-linecap:butt;stroke-linejoin:miter;stroke-opacity:1"
         d="m 19.651726,269.16323 -1.634213,1.64418 v 9.86786 l 1.634213,1.64416 h 9.808053 v -3.28928 h -8.173842 v -6.57763 h 6.538703 l 1.635139,-3.28929 z m 12.897676,0 -1.634212,1.64418 v 9.86786 l 1.634212,1.64416 h 8.172916 l 1.63514,-1.64416 v -9.86786 l -1.63514,-1.64418 z m 11.263468,0 v 13.1562 h 9.808056 l 1.63421,-3.28928 H 47.08222 v -9.86692 z m 12.89768,0 v 13.1562 h 9.808052 l 1.634216,-3.28928 h -8.172916 v -9.86692 z m 12.898605,0 v 13.1562 h 9.807128 v -3.28928 h -6.537774 v -1.64416 h 6.537774 v -3.28928 h -6.537774 v -1.64419 h 6.537774 v -3.28929 z m 12.897677,0 -1.634213,1.64418 v 9.86786 l 1.634213,1.64416 h 9.80713 v -3.28928 h -8.172916 v -6.57763 h 6.538701 l 1.634215,-3.28929 z m 11.263469,0 v 3.28929 h 4.086454 v 9.86691 h 3.269355 v -9.86691 h 4.08646 v -3.28929 z m 12.897679,0 v 13.1562 h 3.26935 v -13.1562 z m 6.35991,0 -1.63514,1.64418 v 9.86786 l 1.63514,1.64416 h 8.17291 l 1.63421,-1.64416 v -9.86786 l -1.63421,-1.64418 z m 11.26346,0 v 13.1562 h 3.26843 v -8.22272 l 4.08646,8.22272 h 4.08646 v -13.1562 h -3.26843 v 8.22276 l -4.08646,-8.22276 z m 14.53189,0 -1.63421,1.64418 v 4.9344 l 1.63421,1.64418 h 6.53871 v 1.64416 h -8.17292 v 3.28928 h 8.17292 l 3.26935,-3.28928 v -4.93344 h -8.17292 v -1.64419 h 6.53966 l 1.63326,-3.28929 z m -104.638696,3.28929 h 4.903561 v 6.57763 h -4.903561 z m 80.477556,0 h 4.90356 v 6.57763 h -4.90356 z"
         inkscape:connector-curvature="0"
         sodipodi:nodetypes="cccccccccccccccccccccccccccccccccccccccccccccccccccccccccccccccccccccccccccccccccccccccccccccccccccccccccccccccccccccc" />
      <g
         style="font-style:normal;font-variant:normal;font-weight:normal;font-stretch:normal;font-size:medium;line-height:4.55891px;font-family:'namco regular';-inkscape-font-specification:'namco regular, ';letter-spacing:0px;word-spacing:0px;fill:#3aaae2;fill-opacity:1;stroke:none;stroke-width:0.182356px;stroke-linecap:butt;stroke-linejoin:miter;stroke-opacity:1"
         transform="matrix(1.7927405,0,0,1.8036713,-31.841053,-247.69974)"
         id="g5777" />
      <g
         style="font-style:normal;font-variant:normal;font-weight:normal;font-stretch:normal;font-size:medium;line-height:4.55891px;font-family:'namco regular';-inkscape-font-specification:'namco regular, ';letter-spacing:0px;word-spacing:0px;fill:#000000;fill-opacity:1;stroke:none;stroke-width:0.182356px;stroke-linecap:butt;stroke-linejoin:miter;stroke-opacity:1"
         id="g5796"
         transform="matrix(1.7927405,0,0,1.8036713,-31.841053,-247.69974)" />
      <path
         style="font-style:normal;font-variant:normal;font-weight:normal;font-stretch:normal;font-size:medium;line-height:8.95085px;font-family:Guardians;-inkscape-font-specification:Guardians;text-align:center;letter-spacing:0px;word-spacing:0px;text-anchor:middle;fill:url(#linearGradient4561);fill-opacity:1;stroke:none;stroke-width:0.327913px;stroke-linecap:butt;stroke-linejoin:miter;stroke-opacity:1"
         d="m 19.651601,269.16326 -1.634234,1.6442 v 9.86775 l 1.634234,1.64419 h 0.07798 l -1.518108,-1.52736 v -9.86774 l 1.634233,-1.6442 h 9.55535 l 0.05849,-0.11684 z m 12.89756,0 -1.634234,1.6442 v 9.86775 l 1.634234,1.64419 h 0.07798 l -1.518108,-1.52736 v -9.86774 l 1.634233,-1.6442 h 8.094881 l -0.116124,-0.11684 z m 11.263326,0 v 13.15614 h 0.194108 v -13.0393 h 3.075207 v -0.11684 z m 12.89756,0 v 13.15614 h 0.194108 v -13.0393 h 3.075207 v -0.11684 z m 12.899256,0 v 13.15614 h 0.193259 V 269.2801 H 79.4164 v -0.11684 z m 12.89756,0 -1.634236,1.6442 v 9.86775 l 1.634236,1.64419 h 0.07713 l -1.518102,-1.52736 v -9.86774 l 1.634231,-1.6442 h 9.556196 l 0.05764,-0.11684 z m 11.263325,0 v 3.28925 h 0.194109 v -3.17241 h 11.248073 v -0.11684 z m 12.897562,0 v 13.15614 h 0.19411 v -13.0393 h 3.0752 v -0.11684 z m 6.35978,0 -1.63509,1.6442 v 9.86775 l 1.63509,1.64419 h 0.078 l -1.51896,-1.52736 v -9.86774 l 1.63509,-1.6442 h 8.09487 l -0.11612,-0.11684 z m 11.26333,0 v 13.15614 h 0.1941 v -13.0393 h 3.95081 l -0.0585,-0.11684 z m 8.17286,0 v 7.94895 l 0.1941,0.39058 v -8.22269 h 3.07436 v -0.11684 z m 6.35977,0 -1.63423,1.6442 v 4.9343 l 1.63423,1.6442 h 0.0771 l -1.51811,-1.52737 v -4.93429 l 1.63424,-1.6442 h 9.55534 l 0.0593,-0.11684 z m -99.7357,3.40609 v 6.46081 h -4.709441 v 0.11683 h 4.903548 v -6.57764 z m 58.768831,0 v 9.75005 h 0.194109 v -9.75005 z m 21.708689,0 v 6.46081 h -4.70944 v 0.11683 h 4.90355 v -6.57764 z m -46.493431,1.52736 v 0.11683 H 79.4164 v -0.11683 z m 67.579951,0 v 0.11683 h 7.97961 v -0.11683 z m -12.8984,0.11683 v 0.27375 l 3.89232,7.83211 h 0.13647 z m 17.60869,3.28925 v 1.52737 h -8.17286 v 3.28924 h 0.19326 v -3.17241 h 8.17286 v -1.6442 z m -123.882178,1.52737 v 0.11683 h 7.979602 v -0.11683 z m 25.795967,0 v 0.11683 h 7.921116 l 0.05764,-0.11683 z m 12.897561,0 v 0.11683 h 7.921964 l 0.05764,-0.11683 z m 12.898409,0 v 0.11683 H 79.4164 v -0.11683 z m 11.262479,0 v 0.11683 h 7.979603 v -0.11683 z"
         id="path4538"
         inkscape:connector-curvature="0"
         sodipodi:nodetypes="cccccccccccccccccccccccccccccccccccccccccccccccccccccccccccccccccccccccccccccccccccccccccccccccccccccccccccccccccccccccccccccccccccccccccccccccccccccccccccccccccccccccccccc" />
    </g>
  </g>
</svg>
