<?xml version="1.0" encoding="UTF-8" standalone="no"?>
<svg
   xmlns:dc="http://purl.org/dc/elements/1.1/"
   xmlns:cc="http://creativecommons.org/ns#"
   xmlns:rdf="http://www.w3.org/1999/02/22-rdf-syntax-ns#"
   xmlns:svg="http://www.w3.org/2000/svg"
   xmlns="http://www.w3.org/2000/svg"
   xmlns:sodipodi="http://sodipodi.sourceforge.net/DTD/sodipodi-0.dtd"
   xmlns:inkscape="http://www.inkscape.org/namespaces/inkscape"
   version="1.1"
   id="TEXT"
   x="0px"
   y="0px"
   width="512"
   height="222"
   viewBox="-54.704 -17.335 512 221.99999"
   enable-background="new -54.704 -17.335 641.883 266.225"
   xml:space="preserve"
   sodipodi:docname="system.svg"
   inkscape:version="1.0.2 (e86c8708, 2021-01-15)"><metadata
   id="metadata7712"><rdf:RDF><cc:Work
       rdf:about=""><dc:format>image/svg+xml</dc:format><dc:type
         rdf:resource="http://purl.org/dc/dcmitype/StillImage" /><dc:title></dc:title></cc:Work></rdf:RDF></metadata><defs
   id="defs7710" /><sodipodi:namedview
   pagecolor="#ffffff"
   bordercolor="#666666"
   borderopacity="1"
   objecttolerance="10"
   gridtolerance="10"
   guidetolerance="10"
   inkscape:pageopacity="0"
   inkscape:pageshadow="2"
   inkscape:window-width="1244"
   inkscape:window-height="736"
   id="namedview7708"
   showgrid="false"
   inkscape:zoom="1"
   inkscape:cx="320.9415"
   inkscape:cy="133.1125"
   inkscape:window-x="0"
   inkscape:window-y="23"
   inkscape:window-maximized="0"
   inkscape:current-layer="TEXT" />



<g
   id="g7763"
   transform="matrix(0.77272409,0,0,0.77378158,-4.4329026,4.0785031)"><g
     id="g7634">
	
		<linearGradient
   id="SVGID_1_"
   gradientUnits="userSpaceOnUse"
   x1="-387.70309"
   y1="422.88211"
   x2="-387.70309"
   y2="243.8304"
   gradientTransform="matrix(1,0,0,-1,654,409.2251)">
		<stop
   offset="0.0051"
   style="stop-color:#CBECFC"
   id="stop7616" />
		<stop
   offset="0.401"
   style="stop-color:#BBE3F7"
   id="stop7618" />
		<stop
   offset="0.5431"
   style="stop-color:#2793C8"
   id="stop7620" />
		<stop
   offset="1"
   style="stop-color:#1E8EC5"
   id="stop7622" />
	</linearGradient>
	<polygon
   fill="url(#SVGID_1_)"
   points="236.423,-13.657 138.214,84.724 138.214,-13.657 78.131,44.724 78.131,-13.657 -51.036,113.391 -3.703,113.391 54.464,53.224 54.464,113.391 106.381,61.474 106.381,113.391 57.673,162.099 106.964,162.099 204.151,64.912 204.151,113.391 256.964,113.391 315.798,54.558 315.798,113.391 366.381,62.808 366.381,113.391 488.631,113.391 520.631,81.391 428.963,81.391 449.463,61.891 480.297,61.891 510.713,31.474 482.631,31.474 503.338,12.766 557.963,12.766 583.629,-13.657 487.356,-13.657 398.413,77.391 398.413,-13.657 341.528,44.391 341.528,-13.657 236.423,91.724 "
   id="polygon7625"
   style="fill:url(#SVGID_1_)" />
	<linearGradient
   id="SVGID_2_"
   gradientUnits="userSpaceOnUse"
   x1="266.23779"
   y1="-17.7209"
   x2="266.23779"
   y2="163.6125">
		<stop
   offset="0"
   style="stop-color:#2A76A0"
   id="stop7627" />
		<stop
   offset="1"
   style="stop-color:#223756"
   id="stop7629" />
	</linearGradient>
	<path
   fill="url(#SVGID_2_)"
   d="m 54.048,163.599 50.833,-50.83 V 65.095 L 52.964,117.009 52.962,56.934 -3.066,114.89 H -54.704 L 79.631,-17.239 v 58.412 l 60.083,-58.38 v 98.302 l 98.209,-98.378 -0.002,105.377 105.105,-105.381 v 58.002 l 56.887,-58.05 v 91.042 l 86.811,-88.866 h 96.908 v 1.502 -1.502 h 3.549 L 558.599,14.264 H 503.915 L 486.53,29.972 h 27.807 L 480.918,63.39 450.063,63.388 432.713,79.892 H 524.25 L 489.252,114.89 H 364.879 V 66.429 l -50.583,50.583 V 58.179 L 257.584,114.89 H 202.65 l -0.002,-46.355 -95.063,95.064 z m 53.833,-49.588 -46.585,46.586 h 45.046 l 99.309,-99.312 v 50.602 h 50.69 l 60.957,-60.954 v 58.833 L 367.88,59.188 v 52.702 h 120.129 l 28.998,-29 h -91.795 l 23.65,-22.5 h 30.813 l 27.416,-27.417 h -28.357 l 24.025,-21.707 h 54.568 l 22.752,-23.422 -92.094,-0.003 -91.074,93.229 V -9.982 l -56.887,58.05 V -10.03 L 234.921,95.353 V -10.03 L 136.713,88.352 V -10.109 L 76.631,48.269 V -10.079 L -47.371,111.887 H -4.338 L 55.965,49.511 v 60.257 l 51.917,-51.914 z"
   id="path7632"
   style="fill:url(#SVGID_2_)" />
</g><g
     id="g7649">
	<g
   id="g7638">
		<path
   fill="#e2e2e2"
   d="m 186.131,157.056 v -47.333 l -65.833,64 h 48.999 v 22.334 h 16.834 v -22.334 h 18.833 l 17.834,-16.667 z m -16.834,0 h -9.999 l 9.999,-10.999 z"
   id="path7636" />
	</g>
	<g
   id="g7647">
		<linearGradient
   id="SVGID_3_"
   gradientUnits="userSpaceOnUse"
   x1="171.582"
   y1="106.7791"
   x2="171.582"
   y2="197.1125">
			<stop
   offset="0.0051"
   style="stop-color:#9CA3A6"
   id="stop7640" />
			<stop
   offset="1"
   style="stop-color:#454547"
   id="stop7642" />
		</linearGradient>
		<path
   fill="url(#SVGID_3_)"
   d="m 168.296,197.057 v -22.334 h -50.464 l 69.299,-67.368 v 48.7 h 38.201 l -19.975,18.668 -18.226,-0.002 v 22.336 z m -45.535,-24.336 h 47.536 v 22.335 h 14.833 v -22.335 h 19.438 l 15.692,-14.666 h -34.13 v -0.999 h 1.001 -1.001 v 0.999 h -1 v -45.966 z m 34.275,-14.666 13.262,-14.586 v 13.587 0.999 z m 12.261,-0.999 v -1.001 z m -7.738,-1.001 h 6.737 v -7.413 z"
   id="path7645"
   style="fill:url(#SVGID_3_)" />
	</g>
</g><g
     id="g7677">
	<g
   id="g7675">
		<g
   id="g7662">
			
				<linearGradient
   id="SVGID_4_"
   gradientUnits="userSpaceOnUse"
   x1="-429.7236"
   y1="284.8176"
   x2="-429.7236"
   y2="154.6304"
   gradientTransform="matrix(1,0,0,-1,654,409.2251)">
				<stop
   offset="0.0051"
   style="stop-color:#CBECFC"
   id="stop7651" />
				<stop
   offset="0.401"
   style="stop-color:#BBE3F7"
   id="stop7653" />
				<stop
   offset="0.5431"
   style="stop-color:#2793C8"
   id="stop7655" />
				<stop
   offset="1"
   style="stop-color:#1E8EC5"
   id="stop7657" />
			</linearGradient>
			<polygon
   fill="url(#SVGID_4_)"
   points="285.339,127.265 285.339,217.39 263.464,217.39 263.464,183.39 201.214,247.39 163.214,247.39 "
   id="polygon7660"
   style="fill:url(#SVGID_4_)" />
		</g>
		<g
   id="g7673">
			<g
   id="g7671">
				<linearGradient
   id="SVGID_5_"
   gradientUnits="userSpaceOnUse"
   x1="223.1924"
   y1="122.2791"
   x2="223.1924"
   y2="219.6125">
					<stop
   offset="0"
   style="stop-color:#2A76A0"
   id="stop7664" />
					<stop
   offset="1"
   style="stop-color:#223756"
   id="stop7666" />
				</linearGradient>
				<path
   fill="url(#SVGID_5_)"
   d="m 163.215,248.89 v -1.5 l 1.05,1.068 -1.05,-1.068 v 1.5 h -3.667 L 286.837,123.681 v 95.208 h -24.873 v -31.807 l -60.118,61.808 z m 3.661,-3 33.701,-0.002 64.384,-66.194 v 36.195 h 18.877 v -85.046 z"
   id="path7669"
   style="fill:url(#SVGID_5_)" />
			</g>
		</g>
	</g>
</g><g
     id="g7705">
	<g
   id="g7703">
		<g
   id="g7690">
			
				<linearGradient
   id="SVGID_6_"
   gradientUnits="userSpaceOnUse"
   x1="-296.2861"
   y1="284.83521"
   x2="-296.2861"
   y2="153.83521"
   gradientTransform="matrix(1,0,0,-1,654,409.2251)">
				<stop
   offset="0.0051"
   style="stop-color:#CBECFC"
   id="stop7679" />
				<stop
   offset="0.401"
   style="stop-color:#BBE3F7"
   id="stop7681" />
				<stop
   offset="0.5431"
   style="stop-color:#2793C8"
   id="stop7683" />
				<stop
   offset="1"
   style="stop-color:#1E8EC5"
   id="stop7685" />
			</linearGradient>
			<polygon
   fill="url(#SVGID_6_)"
   points="328.213,147.14 328.213,200.39 314.464,200.39 314.464,127.265 295.964,147.14 295.964,217.39 419.463,217.39 400.963,200.39 347.463,200.39 347.463,127.265 "
   id="polygon7688"
   style="fill:url(#SVGID_6_)" />
		</g>
		<g
   id="g7701">
			<g
   id="g7699">
				<linearGradient
   id="SVGID_7_"
   gradientUnits="userSpaceOnUse"
   x1="358.88919"
   y1="122.2791"
   x2="358.88919"
   y2="219.6125">
					<stop
   offset="0"
   style="stop-color:#2A76A0"
   id="stop7692" />
					<stop
   offset="1"
   style="stop-color:#223756"
   id="stop7694" />
				</linearGradient>
				<path
   fill="url(#SVGID_7_)"
   d="m 294.464,218.889 v -72.342 l 18.899,-20.307 2.6,-2.789 v 75.437 h 10.75 v -52.357 l 22.248,-22.97 v 75.329 h 52.586 l 21.768,19.999 z m 2.998,-71.16 v 68.16 h 118.15 l -15.234,-14.001 h -54.414 l -0.002,-70.919 -16.248,16.777 v 54.142 h -16.75 v -70.813 z"
   id="path7697"
   style="fill:url(#SVGID_7_)" />
			</g>
		</g>
	</g>
</g></g>
</svg>
