<svg height="547.747" viewBox="0 0 1249.503 547.747" width="1249.503" xmlns="http://www.w3.org/2000/svg"><g stroke="#000" stroke-width="8.2842"><path d="m377.885 24.065h187.8c42.346 0 74.632 3.245 96.858 9.727 29.846 8.812 55.419 24.455 76.712 46.922 21.293 22.477 37.493 49.992 48.605 82.537 11.104 32.555 16.661 72.69 16.661 120.417 0 41.938-5.214 78.09-15.626 108.434-12.73 37.075-30.898 67.078-54.494 90.008-17.825 17.383-41.892 30.937-72.209 40.663-22.681 7.185-52.998 10.771-90.951 10.771h-193.356zm102.961 86.393v336.694h76.75c28.708 0 49.428-1.618 62.168-4.854 16.67-4.161 30.501-11.206 41.504-21.146 10.993-9.938 19.962-26.294 26.914-49.066 6.943-22.772 10.42-53.811 10.42-93.105s-3.477-69.464-10.42-90.507c-6.952-21.034-16.679-37.446-29.18-49.234-12.5-11.789-28.356-19.768-47.57-23.928-14.358-3.236-42.493-4.854-84.395-4.854z" fill="#db1f26"/><path d="m769.093 436.428c20.46 12.277 43.885 18.416 70.275 18.416 41.145 0 74.919-14.812 101.307-44.444 26.388-29.624 39.59-74.077 39.59-133.343 0-58.563-12.852-102.249-38.535-131.068-25.695-28.81-59.813-43.224-102.361-43.224s-76.851 14.59-102.887 43.751c-26.045 29.161-39.063 73.143-39.063 131.937 0 7.829.246 15.401.734 22.717-1.523 32.752-4.481 119.343-66.845 137.545-26.542-41.889-39.809-94.147-39.809-156.776 0-52.044 7.767-95.731 23.309-131.059 11.594-26.018 27.423-49.373 47.485-70.056 20.063-20.673 42.032-36.012 65.923-46.007 31.769-13.48 68.419-20.221 109.934-20.221 75.14 0 135.264 23.355 180.374 70.064 45.102 46.71 67.661 111.652 67.661 194.837 0 82.5-22.384 147.045-67.144 193.635-44.767 46.589-104.597 69.879-179.506 69.879-54.562 0-101.082-11.999-139.559-35.997 30.383-15.889 56.714-46.855 69.117-70.586z" fill="#8461a9"/><path d="m979.436 301.87c-37.618-11.827-65.13-25.587-82.54-41.27-31.213-28.117-46.812-62.391-46.812-102.832 0-26.027 7.342-50.371 22.023-73.032 14.684-22.652 35.837-39.914 63.473-51.767 27.627-11.853 60.985-17.779 100.067-17.779 63.814 0 111.846 14.136 144.104 42.41 32.249 28.274 49.188 66.015 50.814 113.215l-102.96 3.551c-4.383-26.277-13.786-45.175-28.209-56.695-14.425-11.511-36.059-17.271-64.896-17.271-.691 0-1.379.004-2.063.01-28.787.28-51.408 6.443-67.854 18.482-10.854 7.915-16.272 18.491-16.272 31.75 0 12.103 5.086 22.458 15.265 31.056.309.261.627.521.957.782 17.212 42.91 17.624 86.991 14.903 119.39zm102.742-79.924c37.871 9.975 66.763 20.219 86.665 30.73 23.946 12.648 42.678 29.947 56.213 51.877 13.536 21.941 20.305 49.041 20.305 81.309 0 29.253-8.109 56.648-24.326 82.186s-39.155 44.509-68.807 56.926-66.598 18.631-110.848 18.631c-64.406 0-113.862-14.913-148.376-44.74-34.523-29.827-55.143-73.301-61.854-130.412l100.002-9.469c6.02 33.591 18.233 58.259 36.65 74.014s43.261 23.623 74.53 23.623c33.119 0 58.082-7.008 74.872-21.043 16.791-14.026 25.195-30.429 25.195-49.207 0-12.056-3.533-22.31-10.578-30.778-7.054-8.461-19.36-15.819-36.927-22.088-2.98-1.037-6.903-2.272-11.771-3.71 4.344-34.236 4.443-68.853-.945-107.849z" fill="#fdc20f"/><g fill="#c0bfbf"><path d="m302.11 537.997h-292.972v-88.531l199.844-53.158-199.844-52.56v-88.73h292.972v54.957h-230.621l230.621 58.155v56.955l-230.621 57.955h230.621z"/><path d="m206.784 242.356-5.596-57.555c19.319-3.463 33.508-10.492 42.567-21.083 9.062-10.592 13.589-24.88 13.589-42.867 0-19.051-4.028-33.405-12.091-43.066-8.059-9.658-17.486-14.489-28.278-14.489-6.926 0-12.821 2.033-17.686 6.095-4.862 4.066-9.093 11.16-12.69 21.284-2.398 6.929-6.66 22.716-12.79 47.363-7.859 31.71-17.518 53.958-28.977 66.748-16.119 17.986-35.772 26.979-58.954 26.979-14.92 0-28.877-4.228-41.868-12.69-12.99-8.459-22.882-20.649-29.677-36.572-6.795-15.918-10.192-35.138-10.192-57.655 0-36.771 8.063-64.45 24.181-83.036 16.122-18.585 37.639-28.343 64.55-29.277l2.598 59.154c-15.054 2.532-25.88 7.962-32.475 16.287-6.595 8.328-9.892 20.818-9.892 37.471 0 17.187 3.531 30.645 10.591 40.368 4.531 6.264 10.592 9.393 18.186 9.393 6.929 0 12.859-2.929 17.786-8.793 6.264-7.459 12.79-25.58 19.585-54.357 6.794-28.778 13.823-50.061 21.083-63.851 7.263-13.789 17.187-24.581 29.777-32.375s28.146-11.691 46.664-11.691c16.787 0 32.509 4.665 47.163 13.989 14.658 9.327 25.549 22.517 32.675 39.569 7.125 17.056 10.691 38.305 10.691 63.75 0 37.04-8.559 65.483-25.68 85.333-17.116 19.856-42.065 31.712-74.84 35.574z"/></g></g></svg>