<svg enable-background="new 0 0 566.929 129.21" height="129.21" viewBox="0 0 566.929 129.21" width="566.929" xmlns="http://www.w3.org/2000/svg"><path d="m291.876 68.978 4.205-9.665-5.256-.042-2.709 6.27-4.288-3.842c3.194-3.114 3.6-3.842 3.76-6.835.162-2.992-2.547-6.672-7.603-6.672-5.055 0-7.076 4.165-7.076 6.916 0 2.75 1.496 4.447 3.356 6.227-3.114 2.063-5.581 3.962-5.581 9.988 0 4.61 4.084 8.654 9.907 8.654s8.331-4.65 9.098-6.309c1.941 1.777 6.35 5.781 6.35 5.781l3.194-3.518zm-11.645-16.014c1.227 0 2.507.701 2.507 2.225 0 1.778-2.467 3.234-2.467 3.234-2.035-1.685-2.547-1.981-2.547-3.437 0-1.457 1.388-2.022 2.507-2.022zm.323 22.241c-1.941 0-5.176-.564-5.176-4.164s1.375-4.389 4.569-6.471c0 0 5.054 4.569 6.146 5.499-1.535 4.327-3.597 5.136-5.539 5.136z"/><path d="m277.696 42.962 20.973-31.542h5.177v21.783l14.665-21.729h5.285v31.488h-5.285v-21.783l-14.665 21.891h-5.229v-21.998l-14.558 21.89z"/><path d="m328.326 43.016v-31.542h16.228v5.338h-10.89v8.034h10.89v5.392h-10.945v7.44h10.891v5.338z"/><path d="m270.795 11.474-20.974 31.65h6.471l4.475-6.902h10.137v6.902h5.229v-31.65zm.054 19.303h-6.416l6.416-9.651z"/><path d="m270.31 83.774-20.974 31.649h6.47l4.475-6.901h10.137v6.901h5.23v-31.649zm.054 19.304h-6.416l6.416-9.652z"/><path d="m253.336 27.68h-16.509v5.146l10.705.048c-1.858 4.143-6.019 7.029-10.854 7.029-6.566 0-11.889-5.323-11.889-11.889s5.323-11.889 11.889-11.889c4.078 0 7.675 2.053 9.817 5.181l5.436-.005c-2.582-5.857-8.439-9.947-15.252-9.947-9.201 0-16.661 7.459-16.661 16.661s7.459 16.661 16.661 16.661 16.661-7.459 16.661-16.661c-.001-.113-.002-.224-.004-.335z"/><path d="m236.827 27.649h16.795v5.257h-16.795z" fill="none"/><path d="m240.952 21.341h16.283v3.316h-16.283z" fill="none"/><path d="m318.919 106.932c-2.096 2.429-5.197 3.966-8.656 3.966-6.313 0-11.432-5.117-11.432-11.432 0-6.313 5.117-11.43 11.432-11.43 3.324 0 6.316 1.42 8.404 3.686l6.119-.002c-2.779-5.238-8.289-8.805-14.633-8.805-9.142 0-16.552 7.41-16.552 16.551 0 9.144 7.41 16.554 16.552 16.554 6.459 0 12.053-3.698 14.779-9.091z"/><path d="m220.274 83.884v31.597h5.446l14.396-21.565v21.511h5.5l20.812-31.488h-6.524l-14.342 21.783v-21.728h-5.392l-14.45 21.782v-21.892z"/><path d="m277.535 83.833h17.468v5.336h-6.091v26.151h-5.393v-26.097h-6.038z"/><path d="m326.437 83.884v31.598h5.34v-13.426h9.758v13.319h5.445v-31.436h-5.338v12.727h-9.865v-12.727z"/><path d="m347.888 1.961h-130.366c-4.734 0-8.573 3.838-8.573 8.573v106.346c0 4.734 3.838 8.572 8.573 8.572h130.366c4.734 0 8.572-3.838 8.572-8.572v-106.346c0-4.734-3.837-8.573-8.572-8.573zm7.039 114.693c0 4.109-3.332 7.441-7.439 7.441h-129.565c-4.109 0-7.441-3.332-7.441-7.441v-105.893c0-4.109 3.332-7.441 7.441-7.441h129.565c4.107 0 7.439 3.332 7.439 7.441z"/></svg>