<svg enable-background="new 0 0 566.929 129.21" height="90" viewBox="0 0 511.99999 89.999995" width="512" xmlns="http://www.w3.org/2000/svg"><g transform="matrix(.88966854 0 0 .88631246 5.376369 -11.464308)"><path d="m288.25 73.605 6.785-15.589-8.479-.067-4.37 10.112-6.916-6.197c5.153-5.023 5.807-6.196 6.067-11.025.261-4.825-4.11-10.762-12.264-10.762s-11.415 6.719-11.415 11.156c0 4.435 2.414 7.174 5.415 10.044-5.022 3.328-9.002 6.393-9.002 16.111 0 7.438 6.589 13.961 15.981 13.961 9.393 0 13.438-7.504 14.676-10.176 3.132 2.868 10.242 9.326 10.242 9.326l5.154-5.673zm-18.784-25.832c1.978 0 4.044 1.131 4.044 3.589 0 2.869-3.979 5.217-3.979 5.217-3.282-2.718-4.109-3.195-4.109-5.544-.001-2.349 2.238-3.262 4.044-3.262zm.521 35.878c-3.131 0-8.349-.913-8.349-6.72 0-5.805 2.217-7.076 7.371-10.438 0 0 8.153 7.373 9.915 8.872-2.478 6.98-5.805 8.286-8.937 8.286z"/><path d="m187.071 90.125v-35.137l-23.657 35.311h-8.436v-35.484l-23.482 35.31h-10.264l33.833-50.878h8.349v35.135l23.657-35.049h8.524v50.792z"/><path d="m229.08 69.6h-17.657v12.002h17.569v8.61h-26.091v-50.879h26.179v8.611h-17.568v12.959h17.568z"/><path d="m110.1 39.333-33.833 51.054h10.438l7.217-11.135h16.352v11.135h8.436v-51.054zm.087 31.137h-10.35l10.35-15.569z"/><path d="m81.937 65.474h-26.63v8.3l17.268.078c-2.997 6.684-9.709 11.339-17.507 11.339-10.592 0-19.178-8.587-19.178-19.18 0-10.591 8.586-19.177 19.178-19.177 6.578 0 12.38 3.312 15.835 8.356l8.769-.008c-4.165-9.449-13.614-16.046-24.604-16.046-14.842 0-26.875 12.033-26.875 26.875 0 14.844 12.033 26.875 26.875 26.875s26.875-12.031 26.875-26.875c0-.179-.003-.359-.006-.537z"/><path d="m55.306999 65.424004h27.091999v8.479h-27.091999z" fill="none"/><path d="m61.959999 55.25h26.266001v5.349h-26.266001z" fill="none"/><path d="m401.653 37.884-33.831 51.053h10.436l7.219-11.135h16.35v11.135h8.437v-51.053zm.087 31.135h-10.348l10.348-15.567z"/><path d="m480.065 75.239c-3.382 3.919-8.384 6.397-13.965 6.397-10.184 0-18.438-8.254-18.438-18.438 0-10.183 8.255-18.439 18.438-18.439 5.364 0 10.19 2.291 13.56 5.945l9.868-.003c-4.483-8.45-13.371-14.203-23.602-14.203-14.747 0-26.7 11.953-26.7 26.7 0 14.748 11.953 26.701 26.7 26.701 10.416 0 19.44-5.966 23.842-14.664z"/><path d="m384.868 38.149-23.135 35.139v-35.052h-8.697l-23.31 35.138v-35.311h-8.783v50.967h8.783l23.223-34.789v34.701h8.871l33.571-50.793z"/><path d="m413.221 46.674.088-8.696h28.176v8.608h-9.826v42.183h-8.699v-42.095z"/><path d="m525.33 38.149h-8.61v20.527h-15.918v-20.527l-8.61-.086v50.969h8.61v-21.657h15.742v21.482h8.786z"/><path d="m551.888 21.961h-540.366c-4.734 0-8.573 3.838-8.573 8.573v66.346c0 4.735 3.838 8.573 8.573 8.573h540.366c4.734 0 8.572-3.838 8.572-8.573v-66.346c0-4.734-3.837-8.573-8.572-8.573zm7.039 74.693c0 4.109-3.331 7.441-7.44 7.441h-539.564c-4.109 0-7.441-3.332-7.441-7.441v-65.893c0-4.109 3.332-7.441 7.441-7.441h539.564c4.109 0 7.44 3.332 7.44 7.441z"/></g></svg>