<svg enable-background="new 0 0 567.429 113.032" height="113.032" viewBox="0 0 567.429 113.032" width="567.429" xmlns="http://www.w3.org/2000/svg"><path d="m165.884 28.918v28.77 28.77h5.039 5.039v-25.682-25.681h6.186c4.461 0 6.475.12 7.233.437 1.496.625 3.036 2.529 3.667 4.521.331 1.047.604 3.313.701 5.831.2 5.154-.398 8.356-1.971 10.433-1.641 2.168-2.645 2.51-7.284 2.51h-3.982v3.119 3.127l6.257-.121 6.258-.121 2.214-1.047c4.045-1.908 6.982-5.811 8.167-10.84.662-2.808.652-9.086-.021-12.099-.646-2.896-1.991-5.813-3.504-7.579-.633-.738-1.857-1.797-2.712-2.347-2.933-1.882-4.062-2.001-18.356-2.001zm44.535 0v28.77 28.77h5.038 5.039v-28.77-28.77h-5.039zm126.372 0c-4.514.001-9.158.16-10.32.346-2.623.418-5.682 1.805-7.416 3.372-1.748 1.579-3.236 3.949-4.043 6.44-.502 1.548-.66 2.959-.68 5.933-.029 4.103.316 5.851 1.727 8.614.916 1.798 3.361 4.393 5.039 5.363 1.949 1.13 4.441 1.728 8.727 2.072 3.26.264 4.02.426 5.08 1.129.834.551 1.564 1.453 2.184 2.711.869 1.771.918 2.142.914 5.953-.004 3.801-.057 4.176-.896 5.771-.566 1.084-1.385 2.032-2.242 2.602l-1.354.895-8.563.103-8.553.092v3.077 3.068h9.73c5.92 0 10.412-.146 11.459-.367 3.984-.838 7.299-3.42 8.908-6.938 1.355-2.963 1.834-6.008 1.656-10.576-.188-4.816-.9-7.44-2.824-10.32-2.391-3.575-5.064-4.801-11.855-5.423-2.512-.23-5.086-.635-5.719-.904-1.398-.592-2.705-2.082-3.281-3.738-.568-1.633-.561-6.361.021-8.359.57-1.973 2.305-3.79 4.135-4.338.883-.266 3.852-.396 8.848-.396h7.527v-3.09-3.09h-8.209zm115.806 0v4.227 4.226h5.039 5.039v-4.226-4.227h-5.039zm-96.902 6.502.104 20.723c.09 20.398.105 20.754.803 22.604.391 1.033 1.227 2.58 1.857 3.443 1.293 1.76 2.973 2.994 5.1 3.738 1.023.359 2.762.498 6.064.51l4.633.02v-3.088-3.088h-3.027c-2.881 0-3.07-.039-3.891-.895-.508-.529-1.006-1.563-1.207-2.52-.221-1.033-.313-6.406-.256-14.791l.092-13.165 5.445-.092 5.445-.092v-3.076-3.08h-5.527-5.525v-3.576-3.575h-5.049zm69.596 0v20.469c0 19.797.023 20.54.672 22.512.771 2.348 2.338 4.672 4.043 5.973.65.498 1.939 1.166 2.863 1.482 1.289.445 2.73.582 6.156.59l4.469.01v-3.088-3.088h-2.885c-2.41 0-3.02-.104-3.727-.662-.467-.365-.996-1.205-1.18-1.867-.205-.74-.336-6.584-.336-15.106v-13.897h5.537 5.537l-.094-3.007-.092-3.008-5.445-.09-5.441-.093v-3.565-3.565h-5.039zm-8.889 7.069-10.758.174c-11.568.178-12.766.32-16.162 2.042-3.799 1.925-6.447 5.663-7.648 10.788-.502 2.138-.59 3.979-.59 12.109 0 9.23.027 9.661.742 11.428 1.441 3.561 3.586 5.76 6.674 6.826 1.361.471 2.781.58 7.457.588l5.771.012v-3.09-3.088h-4.043c-3.828 0-4.088-.047-4.998-.813-.602-.506-1.092-1.35-1.32-2.256-.453-1.793-.475-15.937-.031-19.361.631-4.865 1.727-7.146 4.014-8.371.787-.42 2.146-.57 5.975-.67l4.957-.132v18.896 18.885h5.201 5.201v-12.141c0-6.674-.104-16.566-.225-21.982zm-152.672.011-10.808.162c-11.746.181-13.433.396-16.64 2.113-3.725 1.994-6.385 5.936-7.508 11.123-.713 3.295-1.047 16.791-.498 20.054.48 2.846 1.811 5.713 3.404 7.334 1.172 1.192 3.117 2.368 4.743 2.864.447.138 3.481.259 6.745.272l5.932.031v-3.088-3.085h-4.154c-4.686 0-5.303-.221-6.186-2.234-.395-.897-.549-2.662-.65-7.416-.146-6.756.324-14.086 1.056-16.52.657-2.185 1.881-3.863 3.321-4.57 1.052-.516 2.019-.613 6.125-.62l4.875-.011.082 18.773.082 18.771h5.039 5.039v-21.98zm10.85.071c-2.928 0-5.319.037-5.313.082.004.045 3.346 9.857 7.426 21.811l7.416 21.738-4.176 10.77c-2.295 5.927-4.175 10.818-4.175 10.869 0 .05 1.993.05 4.429 0l4.43-.092 12.951-32.508c7.127-17.879 12.963-32.542 12.963-32.588.002-.045-2.102-.082-4.684-.082-3.404 0-4.766.113-4.947.408-.137.223-2.627 6.543-5.525 14.049-2.897 7.504-5.397 13.688-5.565 13.744-.17.057-2.472-6.266-5.108-14.049l-4.796-14.152zm178.017 0v21.942 21.942h5.039 5.039v-21.942-21.942h-5.039zm60.951.162-.094 21.861h.012l-.092 21.861h5.211 5.201v-18.884-18.895l4.957.133c5.262.137 6.141.356 7.619 1.939 1.158 1.24 1.986 3.499 2.355 6.439.191 1.539.348 8.603.348 16.01v13.259h5.037 5.037l-.01-12.922c-.002-13.705-.242-16.957-1.563-20.673-1.797-5.053-5.104-8.049-10.482-9.508-1.779-.483-3.68-.567-12.811-.59zm-25.478.092c-2.842 0-5.674.357-7.709 1.057-2.709.932-4.41 2.023-6.117 3.921-1.852 2.06-3.193 4.849-3.98 8.259-.48 2.09-.596 3.845-.566 8.938.025 5.359.133 6.729.711 8.849.979 3.596 2.26 6.017 4.205 7.985 1.916 1.938 4.748 3.422 7.936 4.146 1.434.324 3.422.427 6.461.345 5.238-.14 7.73-.814 10.787-2.904 2.563-1.752 4.5-4.517 5.598-7.996 1.57-4.967 1.846-13.156.641-19.199-.586-2.936-2.01-6.119-3.598-8.056-1.492-1.821-3.936-3.418-6.551-4.287-2.115-.701-4.976-1.058-7.818-1.058zm.123 6.054c1.475 0 2.953.285 4.113.873 1.514.768 2.465 2.104 3.291 4.632.541 1.653.676 3.158.803 8.625.166 7.141-.162 10.506-1.27 13.043-.781 1.793-2.045 3.186-3.434 3.779-.594.254-2.156.446-3.605.446-2.055 0-2.844-.146-3.992-.75-.902-.478-1.773-1.295-2.336-2.205-1.469-2.37-1.953-5.479-1.973-12.483-.016-6.668.328-9.348 1.557-12.06.416-.92 1.256-2.043 1.879-2.52 1.184-.903 3.07-1.38 4.967-1.38z"/><path d="m275.653 108.839c-.027-.013-.044-.013-.063-.013-.047 0-.119.003-.438-.19-.115-.083-.386-.333-.395-.796.019-.298.036-.231.042-.285.006-.025.01-.038.015-.049.006-.025.015-.046.023-.069.017-.047.038-.108.068-.185.057-.155.14-.374.246-.654.212-.561.52-1.362.9-2.348.756-1.972 1.8-4.678 2.949-7.642l4.043-10.431-7.298-21.392c-3.998-11.717-7.258-21.279-7.436-21.841 0-.001-.001-.002-.001-.004-.1-.251-.02-.687.161-.899.06-.08.124-.136.178-.176.068-.056.128-.09.18-.114.076-.039.121-.049.159-.063.089-.026.123-.03.159-.036.063-.009.106-.011.155-.015.096-.008.206-.013.348-.017.282-.01.677-.019 1.163-.027.97-.015 2.301-.023 3.768-.023v1 1c-1.539-.002-2.976.011-3.939.027.05.148.104.308.161.48.378 1.112.923 2.717 1.597 4.691 1.346 3.952 3.203 9.395 5.243 15.37l7.533 22.082-4.308 11.109c-1.574 4.065-2.979 7.717-3.678 9.546.781-.002 1.832-.014 2.979-.036l3.768-.078 12.704-31.894c5.879-14.741 10.888-27.327 12.45-31.276-.837-.014-1.983-.022-3.24-.022-2.263-.007-3.658.066-4.186.157-.082.202-.2.493-.348.857-.298.737-.712 1.781-1.21 3.052-1.002 2.543-2.348 5.999-3.798 9.749-2.107 5.46-4.003 10.215-4.956 12.454-.345.783-.478 1.138-.707 1.49-.085.062-.018.161-.516.389l-.151.051h-.167-.005c-.704-.087-.696-.334-.798-.385-.068-.085-.098-.136-.127-.187-.058-.1-.098-.188-.149-.299-.1-.215-.218-.501-.364-.866-.289-.729-.676-1.765-1.141-3.042-.93-2.554-2.16-6.068-3.472-9.949l-4.566-13.472h-4.608v-1-1h6.042l5.026 14.831c1.229 3.627 2.386 6.94 3.284 9.429.335.933.645 1.769.905 2.453.232-.561.503-1.222.806-1.967 1.004-2.483 2.352-5.903 3.799-9.65 2.539-6.574 4.76-12.224 5.377-13.712.106-.244.11-.285.231-.501.365-.51.689-.535.977-.633.302-.074.63-.119 1.057-.155.845-.068 2.051-.096 3.766-.096 2.427.004 4.281.021 4.782.081.007.003.013.005.018.006.013.001.025.003.037.004h.003c.029-.001.07-.003.208.061.028.012.055.024.081.035.008.005.016.011.023.016.028.015.06.031.093.049.023.017.058.042.097.076.081.062.16.146.224.285.058.113.103.256.113.437.002.011.003.021.004.032-.001.007-.001.014-.002.021 0 .051-.006.111-.02.175-.012.094-.02.097-.024.098-.002.007-.005.015-.007.022v.002c-.005.017-.009.025-.011.034-.007.017-.013.032-.02.049-.013.034-.029.079-.053.138-.045.117-.112.287-.199.507-.172.442-.429 1.087-.758 1.919-.66 1.66-1.611 4.057-2.787 7.009-2.35 5.907-5.592 14.043-9.153 22.982l-13.199 33.129-5.094.105c-1.225.023-2.335.036-3.148.036-.713-.003-1.104 0-1.405-.036zm13.343-38.64c0 .001 0 .001 0 0zm21.381-26.558c.093.016.278.029.486-.047-.105.038-.219.057-.334.057-.064 0-.129-.006-.192-.019.013.003.027.006.04.009zm59.242 43.796c-3.335-.02-5.111-.13-6.392-.566-2.299-.799-4.173-2.174-5.576-4.091-.709-.979-1.543-2.525-1.986-3.681-.38-.977-.604-1.807-.692-4.663-.104-2.904-.13-8.088-.174-18.289l-.104-20.723-.004-1.004h6.064 6.048v4.577 2.577h4.527 6.524v4.078 4.061l-6.427.108-4.469.075-.085 12.19c-.015 1.612-.019 3.118-.017 4.504-.011 5.731.114 9.521.251 10.072.148.774.639 1.733.95 2.033.429.425.396.403.676.486.306.078 1.061.105 2.494.102h4.026v4.088 4.091zm-12.822-31.298c.045 10.197.072 15.389.175 18.225.112 2.883.246 3.156.563 4.028.339.911 1.176 2.458 1.729 3.205 1.183 1.604 2.668 2.698 4.625 3.386.765.282 2.465.45 5.735.455l3.63.015v-2.083-2.091l-2.026.003c-1.45-.005-2.229.002-2.942-.153-.741-.15-1.278-.62-1.671-1.051-.704-.758-1.21-1.865-1.465-3.001-.221-1.121-.284-4.646-.292-10.488-.003-1.389.002-2.899.017-4.52l.098-14.141 6.421-.108 4.464-.076v-2.094l-.002-2.078h-4.525-6.525v-4.577-2.577h-4.05-4.056zm-1.103-19.72v-1zm83.327 51.025c-3.435-.009-5.005-.137-6.477-.644-1.059-.369-2.348-1.031-3.147-1.633-1.915-1.475-3.541-3.916-4.386-6.454-.353-1.049-.55-1.951-.628-4.854-.089-2.938-.094-8.071-.094-17.971v-20.469-1h6.039 6.039v4.566 2.581l4.458.077 6.397.104.123 3.963.125 4.038h-6.567-4.538v12.896c0 4.256.031 7.842.091 10.448.045 2.554.172 4.355.208 4.39.087.409.62 1.216.837 1.35.275.204.358.255.778.342.417.074 1.139.106 2.329.106h3.882v4.088 4.089zm-12.731-31.556c0 9.896.006 15.034.093 17.911.094 2.907.231 3.364.529 4.289.698 2.155 2.205 4.362 3.701 5.489.499.394 1.788 1.068 2.582 1.333 1.102.383 2.415.527 5.83.535l3.469.007v-2.085-2.089h-1.885c-1.221-.002-2.008-.021-2.677-.138-.664-.106-1.239-.386-1.668-.736-.72-.599-1.246-1.474-1.526-2.388-.168-.707-.208-2.197-.28-4.881-.06-2.63-.092-6.228-.092-10.492v-14.895h6.538 4.504l-.062-1.977-.063-2.055-4.491-.074-6.423-.11v-4.547-2.566h-4.04-4.039zm-1-19.469v-1zm-29.176 51.025c-4.668-.011-6.211-.106-7.782-.644-3.372-1.148-5.777-3.651-7.274-7.396-.373-.899-.621-1.696-.709-3.227-.1-1.545-.105-3.959-.105-8.577 0-8.115.083-10.051.617-12.337 1.242-5.33 4.059-9.372 8.168-11.452 1.718-.879 3.08-1.424 5.345-1.7 2.266-.283 5.467-.359 11.255-.45l10.758-.174.993-.015.237 10.836c.124 5.429.226 15.321.226 22.005v13.139h-6.2-6.203v-19.881-17.87l-3.929.106c-3.81.081-5.124.299-5.529.552-1.868 1.008-2.849 2.8-3.494 7.618-.204 1.53-.316 5.748-.314 9.791-.013 4.25.146 8.604.323 9.195.176.723.601 1.414.995 1.736.461.363.423.365.922.472.509.087 1.525.108 3.435.106h5.041v4.088 4.091zm11.326-19.873v17.884h4.201 4.2v-11.14c.002-6.665-.102-16.559-.223-21.961l-.194-8.85-9.765.158c-5.78.089-8.962.172-11.038.435-2.074.27-3.01.656-4.689 1.499-3.485 1.772-5.967 5.205-7.125 10.125-.47 1.989-.565 3.736-.565 11.88 0 4.612.009 7.03.103 8.448.104 1.433.227 1.736.568 2.604 1.387 3.377 3.27 5.271 6.073 6.257 1.152.403 2.447.527 7.132.533l4.77.009v-2.087-2.089h-3.041c-1.924-.002-2.951-.004-3.756-.132-.814-.11-1.438-.514-1.889-.917-.807-.689-1.363-1.685-1.646-2.773-.29-1.255-.371-5.292-.384-9.687.002-4.104.1-8.263.331-10.051.615-4.909 1.827-7.681 4.534-9.123 1.167-.586 2.572-.668 6.419-.788l5.983-.159v19.925zm7.962-25.06 1-.021zm-100.009 44.946v-4.067-4.067l9.541-.102 8.269-.1 1.105-.732c.68-.445 1.42-1.284 1.91-2.233.414-.794.557-1.109.66-1.744.103-.642.121-1.667.123-3.528-.006-.148-.002-.275-.004-.371-.027-3.577-.021-3.503-.809-5.173-.567-1.15-1.201-1.9-1.839-2.318-.87-.566-1.301-.688-4.607-.966-4.335-.351-6.994-.959-9.146-2.203-1.935-1.152-4.352-3.721-5.431-5.773-1.422-2.745-1.854-4.795-1.838-8.616 0-.153.002-.308.004-.461.016-2.989.181-4.56.727-6.234.863-2.655 2.422-5.147 4.323-6.873 1.951-1.743 5.091-3.152 7.931-3.617 1.346-.208 5.914-.354 10.478-.359v1-1-.002l1-.002v.004h8.208l.002 4.088v4.088h-8.528c-4.936-.013-8.024.163-8.561.354-1.431.399-3.017 2.033-3.463 3.662-.246.821-.407 2.509-.4 4.097-.011 1.541.156 3.095.364 3.653.47 1.397 1.665 2.715 2.729 3.146.29.155 2.999.624 5.419.828 6.817.573 10.076 2.012 12.596 5.865 2.038 3.022 2.814 5.958 2.991 10.841.021.608.035 1.199.035 1.772.003 3.723-.536 6.546-1.78 9.254-1.751 3.823-5.334 6.6-9.611 7.5-1.314.261-5.689.38-11.666.389zm11.233-57.207c-2.407.37-5.384 1.734-6.903 3.127-1.592 1.433-3.012 3.681-3.761 6.007-.459 1.42-.609 2.672-.633 5.635-.002.151-.002.299-.002.442.017 3.744.324 5.13 1.621 7.707.752 1.541 3.227 4.163 4.648 4.952 1.747 1.013 4.071 1.601 8.307 1.94 3.211.248 4.301.452 5.551 1.291 1.031.684 1.857 1.738 2.53 3.103.896 1.763 1.042 2.639 1.013 6.057 0 .121 0 .219.002.34-.002 1.905-.011 2.969-.146 3.862-.134.904-.438 1.571-.862 2.371-.643 1.221-1.541 2.278-2.577 2.972l-1.6 1.056-8.858.108-7.563.08v2.089 2.067h8.73c5.862.009 10.473-.165 11.254-.346 3.689-.775 6.735-3.163 8.204-6.375 1.108-2.435 1.597-4.877 1.601-8.422 0-.54-.015-1.108-.034-1.7-.199-4.755-.847-7.066-2.657-9.803-2.263-3.298-4.35-4.311-11.114-4.982-2.604-.254-5.044-.596-6.018-.98-1.734-.753-3.154-2.414-3.836-4.328-.354-1.055-.469-2.624-.478-4.311.006-1.724.14-3.46.483-4.655.696-2.322 2.579-4.322 4.806-5.018 1.231-.341 4.08-.424 9.137-.439h6.527v-2.089-2.089h-8.165c-4.161.021-8.298.18-9.207.331zm-83.462 57.17c-1.643-.007-3.227-.038-4.464-.09-1.287-.063-2.023-.082-2.569-.225-1.827-.569-3.833-1.781-5.164-3.12-1.794-1.845-3.154-4.834-3.677-7.869-.212-1.273-.287-3.602-.289-6.353.006-5.234.291-11.702.794-14.078 1.166-5.396 3.972-9.626 8.015-11.793 1.643-.89 3.084-1.45 5.461-1.743 2.384-.301 5.755-.397 11.634-.488l9.822-.146v-.015h.987.013.002v1-1l.007 1h.992v21.972 22.979h-6.039-6.037l-.085-19.766-.079-17.775-3.878.009c-4.137.006-4.897.123-5.685.518-1.083.514-2.212 1.959-2.804 3.961-.58 1.859-1.053 7.824-1.042 13.725 0 .83.008 1.662.028 2.484.084 4.725.299 6.503.566 7.036.457.979.571 1.119 1.089 1.333.569.221 1.857.313 4.182.304h5.154v4.086 4.091zm11.404-19.743.077 17.775h4.046 4.037v-20.98-20.958l-9.792.148c-5.865.089-9.212.191-11.411.474-2.204.286-3.209.694-4.772 1.522-3.407 1.821-5.922 5.474-7.002 10.452-.431 1.94-.756 8.548-.75 13.655-.002 2.687.091 5.041.261 6.02.435 2.657 1.738 5.402 3.131 6.801 1.011 1.043 2.89 2.181 4.317 2.607v-.001c.023.003.066.009.121.016.108.015.263.029.452.044.378.03.892.058 1.494.081 1.208.049 2.772.083 4.394.091l4.929.025v-2.082-2.087h-3.154c-2.362-.01-3.727-.029-4.858-.422-1.183-.399-1.817-1.376-2.244-2.409-.522-1.263-.616-3.015-.734-7.797-.02-.838-.028-1.683-.028-2.528.011-6.056.418-11.897 1.125-14.302.722-2.369 2.04-4.279 3.84-5.179 1.316-.637 2.488-.713 6.561-.722l5.874-.013zm-39.111 19.78h-6.039v-29.769-28.771-1h6.039 6.039v29.77 29.769h-6.039zm-4.038-29.769v27.769h4.038 4.039v-27.769-27.771h-4.039-4.038zm-1-27.771v-1zm-39.496 57.54h-6.039v-29.769-28.771-1h13.931c7.153 0 11.008.025 13.547.299 2.526.257 3.857.883 5.349 1.859.97.632 2.195 1.689 2.931 2.539 1.662 1.955 3.034 4.967 3.721 8.011.365 1.658.533 4.045.535 6.423-.004 2.324-.159 4.587-.518 6.124-1.238 5.271-4.354 9.458-8.711 11.513l-2.409 1.138-6.472.126-7.276.142v-4.146-4.12h4.982c2.297.005 3.632-.102 4.44-.388.796-.283 1.248-.686 2.046-1.724 1.174-1.541 1.809-3.991 1.806-8.007 0-.564-.013-1.161-.036-1.785-.089-2.454-.382-4.727-.656-5.568-.52-1.732-2.01-3.483-3.101-3.899-.331-.187-2.439-.384-6.846-.361h-5.186v24.683 26.68h-6.038zm-4.04-29.769v27.769h4.04 4.038v-24.68-26.682h7.187c4.515.023 6.436.066 7.618.514 1.904.834 3.492 2.891 4.235 5.144.386 1.252.641 3.511.747 6.094.025.647.039 1.268.039 1.862-.004 4.192-.631 7.111-2.212 9.212-.843 1.129-1.711 1.98-2.989 2.409-1.263.427-2.751.492-5.092.497h-2.982v2.12 2.105l5.239-.1 6.043-.118 2.021-.956c3.731-1.759 6.489-5.376 7.621-10.163.295-1.24.467-3.449.465-5.666 0-2.269-.176-4.6-.488-5.988-.605-2.747-1.925-5.568-3.288-7.145-.529-.628-1.753-1.689-2.492-2.157-1.441-.904-2.14-1.28-4.485-1.554-2.335-.254-6.19-.291-13.331-.289h-11.932v27.772zm-.999-27.771v-1zm378.219 57.537h-6.039v-14.258c.005-7.367-.161-14.506-.339-15.886-.344-2.821-1.172-4.918-2.094-5.879-.713-.741-1.027-.985-1.908-1.225-.887-.231-2.39-.333-5.007-.397l-3.929-.106v17.868 19.883h-6.203-6.217l.093-21.861h-.013l.101-22.865.004-.998 11.724.032c9.123.028 11.08.094 13.071.626 5.616 1.49 9.306 4.82 11.161 10.138 1.39 3.92 1.619 7.323 1.621 21.006l.011 13.922zm-15.334-39.644c2.646.072 4.212.148 5.447.456 1.246.299 2.109.955 2.876 1.8 1.395 1.516 2.223 3.938 2.617 6.996.206 1.698.353 8.688.354 16.134v12.259h4.039 4.035l-.011-11.921c0-13.728-.252-16.828-1.502-20.339-1.736-4.789-4.662-7.448-9.803-8.877-1.568-.433-3.411-.537-12.552-.556l-9.728-.027-.087 19.859h.013l-.094 21.861h4.209 4.201v-17.884-19.923zm-15.224-4.078.002-1zm-55.908 43.722h-6.041v-22.942-21.941-1h6.041 6.038v22.941 22.941h-6.038zm-4.04-22.942-.002 20.942h4.042 4.037v-20.942-20.942h-4.037-4.04zm-1-20.942v-1zm29.729 43.383c-3.35-.762-6.339-2.313-8.425-4.417-2.089-2.107-3.458-4.733-4.458-8.425-.611-2.229-.726-3.768-.747-9.1-.006-.49-.006-.947-.006-1.371 0-4.076.14-5.818.598-7.803.815-3.534 2.219-6.487 4.212-8.703 1.794-2.01 3.726-3.243 6.535-4.199 2.201-.753 5.105-1.108 8.035-1.112v1.002 1c-2.756-.004-5.515.354-7.385 1.002-2.607.908-4.078 1.857-5.7 3.645-1.71 1.902-2.99 4.53-3.748 7.813-.412 1.797-.546 3.292-.548 7.355 0 .424.002.872.007 1.354.029 5.378.131 6.58.677 8.592.955 3.498 2.148 5.715 3.95 7.544 1.747 1.772 4.419 3.19 7.444 3.874 1.004.228 2.4.346 4.402.346.554 0 1.157-.01 1.813-.025 5.192-.159 7.323-.755 10.251-2.731 2.348-1.604 4.162-4.165 5.206-7.472.868-2.738 1.344-6.654 1.342-10.59 0-2.828-.242-5.672-.728-8.111-.544-2.768-1.944-5.869-3.391-7.618-1.331-1.637-3.646-3.165-6.092-3.972-1.957-.651-4.746-1.008-7.501-1.006v-1-1.002c2.927.004 5.86.361 8.129 1.108 2.787.932 5.358 2.598 7.01 4.602 1.729 2.125 3.178 5.392 3.806 8.497.518 2.604.767 5.561.767 8.501-.003 4.099-.476 8.148-1.434 11.192-1.152 3.653-3.211 6.623-5.987 8.521-3.187 2.203-6.041 2.957-11.329 3.078-.666.015-1.284.025-1.861.025-2.079.001-3.603-.114-4.844-.394zm1.305-6.542c-1.081-.577-2.051-1.492-2.72-2.563-1.641-2.666-2.1-5.984-2.122-13.004 0-.142 0-.286-.003-.431-.002-6.368.354-9.204 1.647-12.046.514-1.095 1.344-2.235 2.185-2.904 1.462-1.097 3.511-1.575 5.574-1.583v1 1c-1.73-.011-3.456.465-4.36 1.174-.407.287-1.257 1.393-1.575 2.14-1.116 2.458-1.467 4.87-1.471 11.22 0 .136.002.273.002.423.017 6.985.526 9.885 1.825 11.959.455.749 1.228 1.469 1.949 1.847 1.027.521 1.478.619 3.527.635 1.333.017 2.946-.224 3.212-.365 1.074-.448 2.216-1.649 2.91-3.259.839-1.921 1.227-4.485 1.225-9.486 0-.955-.011-1.997-.038-3.135-.127-5.48-.266-6.856-.754-8.337-.811-2.435-1.583-3.424-2.791-4.05-.972-.495-2.315-.769-3.661-.764v-1-1c1.603.002 3.213.299 4.565.98 1.817.911 2.948 2.594 3.789 5.213.595 1.826.724 3.458.852 8.911.025 1.152.038 2.21.038 3.182-.003 5.08-.376 7.939-1.391 10.284-.868 1.975-2.254 3.561-3.957 4.299-.921.367-2.433.51-3.999.526-.081.001-.16.001-.239.001-1.909-.002-2.998-.206-4.219-.867zm-25.994-42.041h-6.041v-5.226-4.227-1h6.041 6.038v5.226 5.226h-6.038zm-4.04-5.226v3.226h4.04 4.037v-3.226l-.002-3.227h-4.035-4.04zm-1-3.227v-1z" fill="#e5e5e5"/><path d="m559.435 83.913h.77v-2.836h1.756c.48 0 .795.078.939.232.139.148.229.492.268 1.031l.068.836c.012.16.027.293.055.4.021.114.063.228.117.334h.807v-.209c-.064-.058-.107-.125-.135-.205-.037-.095-.064-.211-.072-.351l-.07-.972c-.047-.473-.109-.797-.189-.973-.117-.264-.322-.422-.611-.477.311-.07.555-.244.742-.525.189-.285.283-.633.283-1.039 0-.334-.068-.625-.207-.871-.145-.274-.352-.486-.617-.635-.217-.119-.477-.197-.777-.234-.199-.022-.508-.035-.914-.035h-2.209v6.527h-.004zm.772-3.538v-2.289h1.557c.305 0 .523.009.662.022.205.033.369.093.488.175.146.096.256.219.328.368.08.158.121.334.121.526 0 .433-.121.738-.367.921-.246.185-.648.274-1.207.274z"/><path d="m560.436 84.912h-1-.002v-1 1-1h-.229-.768v-7.527h3.209c.429 0 .757.013 1.035.043.399.049.785.157 1.144.354.428.234.787.604 1 1.017.236.419.338.894.336 1.361.002.557-.134 1.12-.451 1.595-.013.021-.026.041-.041.061.164.395.204.75.265 1.287l.07.963.21.188v.449 1.208h-2.417l-.279-.543c-.093-.183-.168-.383-.197-.544-.051-.211-.068-.39-.081-.565l-.07-.845c-.007-.135-.021-.246-.034-.332-.05-.004-.108-.006-.174-.006h-.757v2.837h-.769zm.77-5.539.582-.001c.226 0 .396-.019.5-.042.029-.007.05-.012.065-.016.005-.03.009-.075.009-.136-.001-.032-.004-.049-.009-.063-.015-.005-.035-.011-.027-.011-.08-.009-.28-.02-.563-.02h-.557zm-1.772 4.539v1z" fill="#e5e5e5"/><path d="m555.467 80.648c0-3.486 2.807-6.316 6.286-6.355.023-.002.047-.003.07-.003 3.508.002 6.354 2.846 6.355 6.358h-.002c0 3.51-2.844 6.355-6.354 6.355-3.51 0-6.355-2.843-6.355-6.355zm2 0c.004 2.407 1.948 4.352 4.356 4.356 2.403-.005 4.35-1.953 4.354-4.356-.005-2.365-1.885-4.283-4.227-4.354h-.128c-2.406.003-4.351 1.948-4.355 4.354zm3.952-4.442c.126.053.22.072.294.079-.088-.01-.173-.031-.255-.063-.059-.023-.115-.052-.17-.086-.013-.008-.025-.017-.038-.025.06.042.119.074.169.095zm-.47-.431c-.002-.003-.003-.005-.005-.008.002.003.003.005.005.008zm-.012-.021c-.002-.004-.003-.007-.005-.01.002.004.003.006.005.01zm-.113-.466c0-.114.021-.227.059-.333-.031.078-.062.186-.059.333z" fill="#e5e5e5"/><g transform="translate(-61.6856 -312.868)"><path d="m142.207 336.374-.099 89.525-23.986-7.801v-105.23l30.618 8.096c19.599 5.267 31.592 15.507 31.398 33.45-.195 20.873-9.849 29.257-28.667 23.796v-41.154c-.002-4.976-9.264-5.267-9.264-.682z" fill="#de0029"/><path d="m107.102 400.738-11.311 3.805c-7.314 2.537-13.554-3.412-6.826-5.854l5.46-1.947-20.575-6.537c-6.338 2.148-12.288 6.73-11.896 13.168.39 6.533 15.309 8.096 26.815 9.947 10.726 1.754 20.477.779 29.351-2.342v-6.73zm35.2 25.162 20.965-7.313-21.16-6.729v13.558z" fill="#f3c202"/><path d="m198.08 406.299.389-.099c9.167-3.218 13.067-7.707 12.092-11.898-1.56-7.021-12.773-10.826-30.033-12.094-12.384-.877-24.572 1.854-36.468 5.947l-1.95.686 21.355 6.633 12.48-4.197c13.067-2.436 18.333 1.854 5.755 5.854l-6.242 2.146zm-79.958-31.013-9.459 3.217 9.459 2.926z" fill="#326db3"/><path d="m163.268 418.585 34.812-12.286-22.624-7.022-33.348 11.41v1.17zm-45.146-21.552-11.019 3.705 11.019 3.512zm23.985 5.755v-13.945l21.355 6.631zm-47.682-6.046 23.696-8.485v-6.826l-9.459-2.927-34.324 11.605c-.097 0-.292.096-.487.096z" fill="#00aa9e"/></g></svg>