<svg enable-background="new -1 -1 568.929 116.145" height="96" viewBox="-1 -1 511.99998 96" width="512" xmlns="http://www.w3.org/2000/svg" xmlns:xlink="http://www.w3.org/1999/xlink"><linearGradient id="a" gradientUnits="userSpaceOnUse" x1="247.53511" x2="247.53511" y1="35.299999" y2="37.400002"><stop offset="0" stop-color="#f1f3f2"/><stop offset=".89827329" stop-color="#a4b5d3"/><stop offset="1" stop-color="#5878b5"/></linearGradient><linearGradient id="b"><stop offset="0" stop-color="#f1f3f2"/><stop offset=".19374025" stop-color="#a4b5d3"/><stop offset=".58584905" stop-color="#f1f3f2"/><stop offset=".60000002" stop-color="#5878b5"/><stop offset="1" stop-color="#f1f3f2"/></linearGradient><linearGradient id="c" gradientUnits="userSpaceOnUse" x1="300" x2="300" xlink:href="#b" y1="40" y2="100"/><linearGradient id="d" gradientUnits="userSpaceOnUse" x1="300" x2="300" xlink:href="#b" y1="40" y2="104"/><g transform="matrix(.88529696 0 0 .88789354 1.696193 -4.740707)"><path d="m80.845923 102.645c-8.14433-.16056-16.222299-.40327-24.296417-1.4824-7.281478-.97318-14.8871-1.968383-21.953584-3.976324-5.352447-1.520897-9.920738-3.389586-15.678999-6.47059-6.739498-3.604806-12.4312952-10.005909-12.4259289-16.020485.0066083-7.406599 6.6478429-11.239707 12.9464899-14.831454 4.945762-2.549754 10.467637-4.4693 15.820083-5.990197 7.066483-2.007941 14.210939-3.055841 21.492417-4.029029 8.074118-1.079127 15.949419-1.351458 24.09375-1.512024 7.752525-.15284 15.867674.156211 23.619636.335248 5.97815.13807 11.80754.411092 17.78661.321002 8.84283-.133243 17.74569-.462029 26.56825-1.075113 5.28482-.367245 10.67321-.850806 15.932-1.490578 5.97272-.726627 12.78913-1.803636 17.85445-2.784232s8.37715-1.99919 12.50694-3.204078c4.06979-1.187383 8.21027-2.499148 12.14203-4.08482 2.46949-.99594 4.74029-2.099318 7.06034-3.406093 1.7942-1.010592 3.62697-2.209149 5.3917-3.270368 1.6605-.99854 3.21451-2.018189 4.9551-2.869481 3.96915-1.941247 7.97939-3.878325 12.12484-5.407314 5.5279-2.038885 11.10413-3.620421 16.8706-4.829798 5.85725-1.228417 11.85225-1.819195 17.8125-2.359375 3.01308-.273076 14.65425-.484441 14.65425-.484441s11.64118.211232 14.65426.484308c5.96025.54018 11.95525 1.130958 17.8125 2.359375 5.76647 1.209377 11.3427 2.790913 16.8706 4.829798 4.14545 1.528989 8.15569 3.466067 12.12484 5.407314 1.74059.851292 3.2946 1.870941 4.9551 2.869481 1.76473 1.061219 3.5975 2.259776 5.3917 3.270368 2.32005 1.306775 4.59085 2.410153 7.06034 3.406093 3.93176 1.585672 8.07224 2.897437 12.14203 4.08482 4.12979 1.204888 7.44162 2.223482 12.50694 3.204078s11.88173 2.057605 17.85445 2.784232c5.25879.639772 10.64718 1.123333 15.932 1.490578 8.82256.613084 17.72542.94187 26.56825 1.075113 5.97907.09009 11.80846-.182932 17.78661-.321002 7.75196-.179037 15.86711-.488088 23.61964-.335248 8.14433.160566 16.01963.432897 24.09375 1.512024 7.28147.973188 14.42593 2.021088 21.49241 4.029029 5.35245 1.520897 10.87432 3.440443 15.82009 5.990197 6.29864 3.591747 12.93988 7.424855 12.94649 14.831454.005 6.014576-5.68644 12.415679-12.42593 16.020485-5.75826 3.081004-10.32656 4.949693-15.679 6.47059-7.06649 2.007941-14.67211 3.003147-21.95359 3.976327-8.07411 1.07913-16.15208 1.32184-24.29641 1.4824-69.96652.40245-205.27707.00006-205.27707.00006s-135.31054.40252-205.277057.00007z" stroke="#000" transform="matrix(-1 0 0 1 572.24597 .000133)"/><path d="m267.74385 54.865137c-5.60991-.349635-11.21451-.887685-16.77685-1.696156-2.8859-.419458-5.7396-1.040223-8.59467-1.634344-1.83534-.381922-3.68074-.733225-5.48543-1.240577-3.41283-.959443-6.8536-1.925699-10.07628-3.402952-3.76096-1.723998-7.27686-3.970005-10.68426-6.316626-.84887-.584599-1.39888-1.780508-2.41931-1.925588-.83892-.119273-1.56076.661139-2.35138.965978-4.64364 1.790443-9.27398 3.648862-14.04465 5.066527-6.0934 1.810729-12.31441 3.199905-18.56156 4.375223-6.17752 1.162218-12.42064 1.981913-18.67204 2.639626-7.27192.765085-14.57923 1.183109-21.88366 1.517055-6.14075.280744-12.2901.347799-18.43696.408629-8.35557.08269-16.71242-.15384-25.06787-.05936-7.95241.08992-15.92415-.04343-23.85133.59597-7.27036.586423-14.57099 1.333936-21.67991 2.966529-5.47871 1.258208-10.18966 2.44919-16.03164 5.232614-5.39476 2.570344-12.53603 7.183906-12.57333 13.279678-.0369 6.033074 7.02992 10.325743 12.28218 13.294446 2.78054 1.571633 11.34289 4.252061 17.22364 5.630986 6.78285 1.59045 13.74211 2.402608 20.68214 3.01294 8.30136.73006 16.65595.64104 24.98836.76926 68.15245 1.04879 226.3988.18266 226.3988.18266 75.969.30454 123.47344.30453 155.13932-.18278 8.33241-.12823 16.687-.0392 24.98836-.76927 6.94005-.610329 13.89931-1.422487 20.68216-3.012937 5.88075-1.378925 14.4431-4.059353 17.22364-5.630986 5.25226-2.968703 12.31908-7.261372 12.28218-13.294446-.0373-6.095772-7.17857-10.709334-12.57333-13.279678-5.84198-2.783424-10.55293-3.974406-16.03164-5.232614-7.10892-1.632593-14.40955-2.380106-21.67993-2.966529-7.92718-.6394-15.89892-.50605-23.85133-.59597-8.35545-.09448-16.7123.14205-25.06787.05936-6.14686-.06083-12.29621-.127885-18.43696-.408629-7.30443-.333946-14.61174-.75197-21.88366-1.517055-6.2514-.657713-12.49452-1.477408-18.67204-2.639626-6.24715-1.175318-12.46816-2.564494-18.56156-4.375223-4.77067-1.417665-9.40101-3.276084-14.04465-5.066527-.79062-.304839-1.51246-1.085251-2.35138-.965978-1.02043.14508-1.57044 1.340989-2.41931 1.925588-3.4074 2.346621-6.9233 4.592628-10.68426 6.316626-3.22268 1.477253-6.66345 2.443509-10.07628 3.402952-1.80469.507352-3.65009.858655-5.48543 1.240577-2.85507.594121-5.70877 1.214886-8.59467 1.634344-5.56234.808471-11.16694 1.346521-16.77685 1.696156-19.69734.352689-13.48716.284297-19.69305.284297-7.08216 0-11.85837.08711-17.81545-.28417z" fill="url(#c)"/><ellipse cx="249.43192" cy="36.418709" fill="url(#a)" rx="22.362251" ry="1.06066" transform="matrix(2.5123083 0 0 12.447432 -338.25953 -417.48436)"/><g stroke="#000"><path d="m95.999987 93.267161c-8.33241-.12822-17.342017.037474-25.972723-.680872-5.388792-.448517-10.832498-.892983-16.063848-2.261639-5.349949-1.399685-11.055398-2.679573-15.455871-6.028738-2.88297-2.194205-6.504675-5.213842-6.504675-8.707678 0-2.245211 1.766588-4.245439 3.427041-5.72529 4.403755-3.924772 10.472051-5.606619 16.12615-7.2883 6.491064-1.930617 13.330171-2.523131 20.076737-3.110533 8.0934-.704666 16.414779-.397135 24.367189-.487055"/><path d="m476 93.266999c8.33241-.12822 17.42039.04021 26.09012-.680872 5.38882-.4482 10.8325-.892983 16.06385-2.261639 5.34995-1.399685 11.0554-2.679573 15.45587-6.028738 2.88297-2.194205 6.50468-5.213842 6.50468-8.707679 0-2.245211-1.76659-4.245439-3.42704-5.72529-4.40376-3.924772-10.47206-5.606619-16.12615-7.2883-6.49107-1.930617-13.33014-2.523454-20.07674-3.110533-8.13241-.707671-16.53218-.397135-24.48459-.487055"/><path d="m93.119621 59.096634h383.19397v34.050732h-383.19397z" stroke-width="1.23927"/></g><path d="m307.96972 29.321023-5.39708 16.382281h2.66486l5.40844-15.819013c.19678-.723124.78939-1.250952 1.48569-1.250952.70462 0 1.29648.527828 1.49401 1.250952l4.57212 13.381201h-7.17416v2.437058h10.67534l-5.39784-16.382281c-.51768-1.80668-2.18956-3.126251-4.17023-3.126251-1.9731-.000754-3.64196 1.318817-4.16115 3.127005zm3.16211 10.173513.94455-2.794474.98465 2.794474zm-.39129-8.021481-4.83398 14.230249h3.11594l2.00035-5.898103v2.787687h6.27804l-3.72822-11.119833c-.18922-.619067-.75382-2.399357-1.41759-2.399357-.66678 0-1.23138 1.779536-1.41454 2.399357zm-17.06615-2.175407h9.34252v-2.661762h-9.5658c-2.57934 0-4.67127 2.089445-4.67127 4.65997v9.754265c0 2.570524 2.09193 4.653937 4.67127 4.653937h9.5658v-12.419044h-7.56243v2.438566h4.88999v7.3157h-6.67008c-1.23141 0-2.22212-.991563-2.22212-2.215371v-9.312398c-.002-1.220791.99071-2.213863 2.22212-2.213863zm1.77934 7.092503v2.662517h1.55532v.665064h-1.55532c-.36784 0-.6683-.2986-.6683-.665064v-5.7669c0-.366464.29971-.665818.6683-.665818h7.56243v-2.657238h-8.67425c-1.23138 0-2.22891.992317-2.22891 2.215371v7.981517c0 1.223053.99753 2.21537 2.22891 2.21537h5.33958v-5.985573zm-17.12823-7.092503h9.34254v-2.661762h-9.56731c-2.57934 0-4.66976 2.089445-4.66976 4.65997v9.645683c0 2.56977 2.09042 4.659215 4.66976 4.659215h9.56731v-2.662516h-9.34254c-1.22684 0-2.22361-.990809-2.22361-2.21537v-9.209849c0-1.222299.99677-2.215371 2.22361-2.215371zm7.33764 6.426686v-2.438566h-6.22658c0-.366464.29896-.665818.6683-.665818h7.56242v-2.657238h-8.67424c-1.22685 0-2.2221.992317-2.2221 2.215371v3.546251zm0 .889013v2.438567h-6.22658c0 .36571.29896.665064.6683.665064h7.56242v2.65573h-8.67424c-1.22685 0-2.2221-.990809-2.2221-2.215371v-3.546252l8.8922.0023zm-22.85906 3.323057h-5.60977v2.437812h8.56299.10973c1.60679-.05731 2.89117-1.377632 2.89117-2.990524 0-1.650595-1.3419-2.995049-3.0009-2.995049h-3.37479c-1.36459-.517271-2.52333-1.865496-2.52333-3.437669 0-2.020074 1.86714-3.655588 3.89399-3.655588h8.34575v-2.660254h-8.68029c-3.43685 0-6.22507 2.782408-6.22507 6.208014 0 3.430883 3.0115 6.208768 6.4491 6.208768v-.02865l.0174.02865h1.98673c.24219 0 .4435.195297.4435.441868 0 .245817-.20283.441868-.4435.441868h-2.84272v.000754zm3.67978-7.535125h5.61581v-2.438567h-8.56449-.11504c-1.60678.05731-2.88965 1.377632-2.88965 2.990524 0 1.65738 1.34644 2.995802 3.00698 2.995802h3.37477c1.3646.521796 2.51728 1.864741 2.51728 3.436916 0 2.020828-1.86563 3.656342-3.89474 3.656342h-8.33895v2.661762h8.67272c3.43987 0 6.23188-2.77713 6.23188-6.20726 0-3.425606-3.01149-6.208768-6.45062-6.208768v.03469l-.022-.03393h-1.98219c-.24824 0-.4435-.195296-.4435-.441867 0-.240539.19526-.441868.4435-.441868l2.83818-.0038z"/><path d="m415.40625 63.96875 4.375 6.5625h11.96875l-4.375-6.5625zm36.34375 0-4.375 6.5625h11.96875l4.375-6.5625zm-381.34375.5625v6h53.1875 5.3125c0-3.278391-2.37294-5.945022-5.3125-6zm64.59375 0v6h38.5v-6zm49.375 0c-2.9681.0185-5.375 2.698675-5.375 6h5.375 5.4375 34.6875v-6h-40.09375zm50.875 0c-2.95384.03683-5.34375 2.710142-5.34375 6h5.34375 5.4375 26.75 5.5625c0-3.312793-2.42391-6-5.40625-6-.0546 0-.10201-.0018-.15625 0zm63.0625 0v6h39.65625 5.34375c0-3.288518-2.39158-5.961041-5.34375-6zm57.0625 0v.03125c-2.78079.243975-4.96875 2.817137-4.96875 5.96875h4.96875 5.8125 19.84375 2.5625 8.78125 2.03125c0-3.289858-2.38991-5.963171-5.34375-6zm45.4375 0v6h10.78125v-6zm67.09375 0v6h38.5v-6zm-422.15625 5.21875c-3.838379 0-6.9375 3.099122-6.9375 6.9375s3.099121 6.96875 6.9375 6.96875 6.9375-3.130372 6.9375-6.96875-3.099121-6.9375-6.9375-6.9375zm482.3125 0c-3.83838 0-6.96875 3.099122-6.96875 6.9375s3.13037 6.96875 6.96875 6.96875 6.9375-3.130372 6.9375-6.96875-3.09912-6.9375-6.9375-6.9375zm-457.65625 2.78125v17.8125h10.6875v-17.8125zm23.78125 0v17.8125h10.71875v-17.8125zm23.8125 0v17.8125h10.8125v-17.8125zm17 0v11.40625c.14555 3.56252 3.41342 6.40625 7.40625 6.40625h31.09375v-6h-25.3125c-1.32548 0-2.375-1.080766-2.375-2.40625v-1.5h25.8125v-5.5h-23.4375c-1.32548 0-2.375-1.080766-2.375-2.40625h-1zm44 0v11.59375h.0312c.23451 3.26741 3.08636 5.885767 6.6875 6.1875v.03125h31.5938v-.03125c4.01545-.260001 7.1875-3.573915 7.1875-7.65625 0-4.252592-3.43491-7.71875-7.6875-7.71875-.0414 0-.0837-.000652-.125 0h-18.46875v5.5h13.34375c1.0803 0 1.9375.88845 1.9375 1.96875s-.8572 1.9375-1.9375 1.9375h-19.8125c-1.0803 0-1.9375-.8572-1.9375-1.9375v-9.875zm50.90625 0v17.8125h10.78125v-17.8125zm32.28125 0v5.3125h-19.59375v7h19.59375v5.5h10.8125v-17.8125zm36.125 0v17.8125h10.78125v-17.8125zm34.1875 0v9.875c0 1.0803-.8572 1.9375-1.9375 1.9375h-19.96875v6h25.9375v-.03125c3.78969-.288621 6.78125-3.138668 6.78125-6.625v-11.15625zm17.90625 0v17.8125h10.78125v-17.8125zm33.1875 0v3.375c0 .02059.00062.04207 0 .0625-.032 1.048019-.88113 1.875-1.9375 1.875h-2.375-15.6875v7h15.0625l5.46875 5.5h12.90625l-7.4375-7.46875c2.81667-1.143672 4.8125-3.901043 4.8125-7.125v-3.21875h-.71875zm17.21875 0v17.8125h10.78125v-17.8125zm20.28125 0 11.875 17.8125h1.21875 10.75 1.21875l11.875-17.8125h-11.96875l-6.5 9.75-6.5-9.75zm46.8125 0v11.40625c.14555 3.56252 3.41342 6.40625 7.40625 6.40625h31.09375v-6h-25.3125c-1.32548 0-2.40625-1.080766-2.40625-2.40625v-1.5h25.8125v-5.5h-23.40625c-1.32548 0-2.40625-1.080766-2.40625-2.40625z" fill="url(#d)" transform="translate(-1.000016 -1)"/></g></svg>