<?xml version="1.0" encoding="UTF-8" standalone="no"?>
<svg
   xmlns:dc="http://purl.org/dc/elements/1.1/"
   xmlns:cc="http://creativecommons.org/ns#"
   xmlns:rdf="http://www.w3.org/1999/02/22-rdf-syntax-ns#"
   xmlns:svg="http://www.w3.org/2000/svg"
   xmlns="http://www.w3.org/2000/svg"
   xmlns:sodipodi="http://sodipodi.sourceforge.net/DTD/sodipodi-0.dtd"
   xmlns:inkscape="http://www.inkscape.org/namespaces/inkscape"
   version="1.1"
   id="Layer_3"
   x="0px"
   y="0px"
   width="512"
   height="202"
   viewBox="187.964 0 512 202"
   enable-background="new 187.964 0 169.5 67.609"
   xml:space="preserve"
   sodipodi:docname="system.svg"
   inkscape:version="1.0.2 (e86c8708, 2021-01-15)"><metadata
   id="metadata1939"><rdf:RDF><cc:Work
       rdf:about=""><dc:format>image/svg+xml</dc:format><dc:type
         rdf:resource="http://purl.org/dc/dcmitype/StillImage" /><dc:title></dc:title></cc:Work></rdf:RDF></metadata><defs
   id="defs1937" /><sodipodi:namedview
   pagecolor="#ffffff"
   bordercolor="#666666"
   borderopacity="1"
   objecttolerance="10"
   gridtolerance="10"
   guidetolerance="10"
   inkscape:pageopacity="0"
   inkscape:pageshadow="2"
   inkscape:window-width="1156"
   inkscape:window-height="789"
   id="namedview1935"
   showgrid="false"
   inkscape:zoom="1"
   inkscape:cx="84.75"
   inkscape:cy="33.804501"
   inkscape:window-x="0"
   inkscape:window-y="23"
   inkscape:window-maximized="0"
   inkscape:current-layer="Layer_3" />






























































































<g
   id="g2044"
   transform="matrix(3.0749773,0,0,3.0696108,-396.59336,-4.5976841)"><rect
     x="192.703"
     y="4.1040001"
     width="161.302"
     height="60.594002"
     id="rect1728" /><rect
     x="194.132"
     y="5.4320002"
     fill="#1f0200"
     width="48.983002"
     height="57.877998"
     id="rect1730" /><g
     id="g1738">
	<path
   fill="#f9f8e1"
   d="m 265.563,28.495 c 0,5.628 -4.411,8.442 -13.232,8.442 -1.531,0 -3.916,-0.042 -7.155,-0.127 0.176,-4.271 0.265,-9.086 0.265,-14.446 0,-5.147 -0.088,-9.538 -0.265,-13.173 h 3.293 c 0.624,0 1.67,-0.021 3.14,-0.063 1.47,-0.042 2.619,-0.064 3.445,-0.064 6.003,0 9.004,2.037 9.004,6.109 0,3.14 -1.538,5.218 -4.614,6.236 v 0.318 c 1.639,0.269 3.069,0.937 4.289,2.004 1.22,1.07 1.83,2.657 1.83,4.764 z M 258.591,16.85 c 0,-2.531 -1.518,-3.797 -4.553,-3.797 -1.396,0 -2.636,0.106 -3.719,0.318 0.148,1.429 0.223,3.882 0.223,7.361 0.515,0.028 1.057,0.042 1.626,0.042 4.282,-0.001 6.423,-1.308 6.423,-3.924 z m 1.484,11.879 c 0,-2.814 -2.364,-4.222 -7.094,-4.222 -0.935,0 -1.741,0.036 -2.418,0.106 0,2.956 0.061,5.678 0.183,8.167 0.46,0.114 1.151,0.17 2.073,0.17 2.507,0 4.343,-0.314 5.508,-0.944 1.165,-0.63 1.748,-1.722 1.748,-3.277 z"
   id="path1732" />
	<path
   fill="#f9f8e1"
   d="m 290.442,28.495 c 0,5.628 -4.411,8.442 -13.232,8.442 -1.531,0 -3.916,-0.042 -7.154,-0.127 0.176,-4.271 0.264,-9.086 0.264,-14.446 0,-5.147 -0.088,-9.538 -0.264,-13.173 h 3.292 c 0.623,0 1.67,-0.021 3.14,-0.063 1.471,-0.042 2.619,-0.064 3.445,-0.064 6.003,0 9.004,2.037 9.004,6.109 0,3.14 -1.537,5.218 -4.613,6.236 v 0.318 c 1.64,0.269 3.069,0.937 4.289,2.004 1.219,1.07 1.829,2.657 1.829,4.764 z M 283.47,16.85 c 0,-2.531 -1.518,-3.797 -4.553,-3.797 -1.396,0 -2.636,0.106 -3.72,0.318 0.149,1.429 0.224,3.882 0.224,7.361 0.515,0.028 1.057,0.042 1.626,0.042 4.282,-0.001 6.423,-1.308 6.423,-3.924 z m 1.484,11.879 c 0,-2.814 -2.365,-4.222 -7.093,-4.222 -0.935,0 -1.742,0.036 -2.419,0.106 0,2.956 0.061,5.678 0.183,8.167 0.46,0.114 1.151,0.17 2.073,0.17 2.507,0 4.343,-0.314 5.508,-0.944 1.165,-0.63 1.748,-1.722 1.748,-3.277 z"
   id="path1734" />
	<path
   fill="#f9f8e1"
   d="m 313.877,31.783 -0.346,4.879 c -1.925,0.48 -3.821,0.721 -5.691,0.721 -4.647,0 -8.188,-1.339 -10.62,-4.02 -2.433,-2.68 -3.648,-5.936 -3.648,-9.769 0,-3.973 1.291,-7.431 3.872,-10.373 2.581,-2.941 6.122,-4.412 10.62,-4.412 1.653,0 3.219,0.198 4.695,0.594 l -0.711,4.9 c -1.6,-0.538 -3.131,-0.806 -4.594,-0.806 -2.751,0 -4.797,0.909 -6.139,2.726 -1.342,1.817 -2.012,4.027 -2.012,6.629 0,2.659 0.795,4.964 2.389,6.915 1.592,1.952 3.824,2.928 6.696,2.928 1.682,0 3.511,-0.303 5.489,-0.912 z"
   id="path1736" />
</g><g
     id="g1750">
	<path
   fill="#f9f8e1"
   d="m 250.922,50.963 -3.193,-9.094 c -0.018,-0.041 -0.054,-0.081 -0.126,-0.081 -0.072,0 -0.161,0.054 -0.161,0.136 v 9.039 h -1.489 v -9.962 h 2.745 l 2.798,7.736 c 0.036,0.081 0.09,0.122 0.162,0.122 0.108,0 0.198,-0.055 0.215,-0.136 L 254.6,41 h 2.781 v 9.962 h -1.489 v -8.984 c 0,-0.082 -0.072,-0.123 -0.126,-0.123 -0.072,0 -0.144,0.027 -0.179,0.096 l -3.157,9.012 z"
   id="path1740" />
	<path
   fill="#f9f8e1"
   d="m 261.057,50.081 h 1.112 V 41.91 h -1.112 v -0.909 h 4.144 v 0.909 h -1.166 v 8.171 h 1.166 v 0.882 h -4.144 z"
   id="path1742" />
	<path
   fill="#f9f8e1"
   d="m 274.42,43.893 c -0.144,-0.965 -0.753,-1.833 -2.188,-1.833 -1.31,0 -1.866,0.773 -2.152,1.303 -0.484,0.896 -0.539,2.28 -0.539,2.39 0,2.185 0.521,4.315 2.691,4.315 1.041,0 1.579,-0.569 1.74,-0.76 0.358,-0.462 0.43,-1.032 0.466,-1.357 l 1.794,0.244 c -0.072,0.787 -0.448,1.642 -1.237,2.239 -1.13,0.855 -2.422,0.855 -2.924,0.855 -1.077,0 -4.323,-0.421 -4.323,-5.212 0,-2.294 0.771,-5.198 4.484,-5.198 0.843,0 1.938,0.189 2.745,0.814 0.897,0.691 1.076,1.479 1.166,1.954 z"
   id="path1744" />
	<path
   fill="#f9f8e1"
   d="m 279.73,41.001 h 4.054 c 3.678,0 4.467,1.683 4.467,2.701 0,1.872 -1.632,2.375 -2.816,2.659 l 3.444,4.602 h -2.152 l -3.122,-4.424 h -2.027 v 4.424 h -1.848 z m 1.83,1.167 v 3.299 c 1.004,0.014 2.296,0.014 2.977,-0.096 0.719,-0.122 1.848,-0.407 1.848,-1.52 0,-1.168 -1.039,-1.684 -3.013,-1.684 h -1.812 z"
   id="path1746" />
	<path
   fill="#f9f8e1"
   d="m 298.959,43.268 c 0.395,0.882 0.502,2.049 0.502,2.742 0,2.375 -0.879,5.252 -4.431,5.252 -3.229,0 -4.449,-2.457 -4.449,-5.117 0,-1.52 0.324,-2.904 1.077,-3.813 1.095,-1.33 2.403,-1.479 3.372,-1.479 2.225,-0.001 3.391,1.22 3.929,2.415 z m -3.892,-1.222 c -1.13,0 -1.829,0.597 -2.206,1.534 -0.252,0.597 -0.395,1.479 -0.395,2.523 0,1.264 0.232,3.923 2.529,3.923 1.865,0 2.582,-1.452 2.582,-3.977 10e-4,-1.316 -0.16,-4.003 -2.51,-4.003 z"
   id="path1748" />
</g><circle
     fill="#f9f8e1"
     cx="199.287"
     cy="10.039"
     r="1.863"
     id="circle1752" /><circle
     fill="#f9f8e1"
     cx="204.20399"
     cy="10.039"
     r="1.863"
     id="circle1754" /><circle
     fill="#f9f8e1"
     cx="209.121"
     cy="10.039"
     r="1.863"
     id="circle1756" /><circle
     fill="#f9f8e1"
     cx="214.039"
     cy="10.039"
     r="1.863"
     id="circle1758" /><circle
     fill="#f9f8e1"
     cx="218.95599"
     cy="10.039"
     r="1.863"
     id="circle1760" /><circle
     fill="#f9f8e1"
     cx="223.873"
     cy="10.039"
     r="1.863"
     id="circle1762" /><circle
     fill="#f9f8e1"
     cx="228.78999"
     cy="10.039"
     r="1.863"
     id="circle1764" /><circle
     fill="#f9f8e1"
     cx="233.707"
     cy="10.039"
     r="1.863"
     id="circle1766" /><circle
     fill="#f9f8e1"
     cx="238.62399"
     cy="10.039"
     r="1.863"
     id="circle1768" /><circle
     fill="#f9f8e1"
     cx="201.713"
     cy="12.854"
     r="1.863"
     id="circle1770" /><circle
     fill="#f9f8e1"
     cx="216.465"
     cy="12.854"
     r="1.863"
     id="circle1772" /><circle
     fill="#f9f8e1"
     cx="221.382"
     cy="12.854"
     r="1.863"
     id="circle1774" /><circle
     fill="#f9f8e1"
     cx="236.133"
     cy="12.854"
     r="1.863"
     id="circle1776" /><circle
     fill="#f9f8e1"
     cx="199.287"
     cy="15.584"
     r="1.863"
     id="circle1778" /><circle
     fill="#f9f8e1"
     cx="209.121"
     cy="15.584"
     r="1.863"
     id="circle1780" /><circle
     fill="#f9f8e1"
     cx="218.95599"
     cy="15.584"
     r="1.863"
     id="circle1782" /><circle
     fill="#f9f8e1"
     cx="228.78999"
     cy="15.584"
     r="1.863"
     id="circle1784" /><circle
     fill="#f9f8e1"
     cx="238.62399"
     cy="15.584"
     r="1.863"
     id="circle1786" /><circle
     fill="#f9f8e1"
     cx="206.63"
     cy="18.4"
     r="1.863"
     id="circle1788" /><circle
     fill="#f9f8e1"
     cx="211.548"
     cy="18.4"
     r="1.863"
     id="circle1790" /><circle
     fill="#f9f8e1"
     cx="226.299"
     cy="18.4"
     r="1.863"
     id="circle1792" /><circle
     fill="#f9f8e1"
     cx="231.216"
     cy="18.4"
     r="1.863"
     id="circle1794" /><circle
     fill="#f9f8e1"
     cx="199.287"
     cy="20.999001"
     r="1.863"
     id="circle1796" /><circle
     fill="#f9f8e1"
     cx="209.121"
     cy="20.999001"
     r="1.863"
     id="circle1798" /><circle
     fill="#f9f8e1"
     cx="228.78999"
     cy="20.999001"
     r="1.863"
     id="circle1800" /><circle
     fill="#f9f8e1"
     cx="238.62399"
     cy="20.999001"
     r="1.863"
     id="circle1802" /><circle
     fill="#f9f8e1"
     cx="201.713"
     cy="23.815001"
     r="1.863"
     id="circle1804" /><circle
     fill="#f9f8e1"
     cx="216.465"
     cy="23.815001"
     r="1.863"
     id="circle1806" /><circle
     fill="#f9f8e1"
     cx="221.382"
     cy="23.815001"
     r="1.863"
     id="circle1808" /><circle
     fill="#f9f8e1"
     cx="236.133"
     cy="23.815001"
     r="1.863"
     id="circle1810" /><circle
     fill="#f9f8e1"
     cx="199.287"
     cy="26.544001"
     r="1.863"
     id="circle1812" /><circle
     fill="#f9f8e1"
     cx="204.20399"
     cy="26.544001"
     r="1.863"
     id="circle1814" /><circle
     fill="#f9f8e1"
     cx="218.95599"
     cy="26.544001"
     r="1.863"
     id="circle1816" /><circle
     fill="#f9f8e1"
     cx="233.707"
     cy="26.544001"
     r="1.863"
     id="circle1818" /><circle
     fill="#f9f8e1"
     cx="238.62399"
     cy="26.544001"
     r="1.863"
     id="circle1820" /><circle
     fill="#f9f8e1"
     cx="201.713"
     cy="29.360001"
     r="1.863"
     id="circle1822" /><circle
     fill="#f9f8e1"
     cx="206.63"
     cy="29.360001"
     r="1.863"
     id="circle1824" /><circle
     fill="#f9f8e1"
     cx="211.548"
     cy="29.360001"
     r="1.863"
     id="circle1826" /><circle
     fill="#f9f8e1"
     cx="216.465"
     cy="29.360001"
     r="1.863"
     id="circle1828" /><circle
     fill="#f9f8e1"
     cx="221.382"
     cy="29.360001"
     r="1.863"
     id="circle1830" /><circle
     fill="#f9f8e1"
     cx="226.299"
     cy="29.360001"
     r="1.863"
     id="circle1832" /><circle
     fill="#f9f8e1"
     cx="231.216"
     cy="29.360001"
     r="1.863"
     id="circle1834" /><circle
     fill="#f9f8e1"
     cx="199.287"
     cy="32.220001"
     r="1.863"
     id="circle1836" /><circle
     fill="#f9f8e1"
     cx="204.20399"
     cy="32.220001"
     r="1.863"
     id="circle1838" /><circle
     fill="#f9f8e1"
     cx="209.121"
     cy="32.220001"
     r="1.863"
     id="circle1840" /><circle
     fill="#f9f8e1"
     cx="214.039"
     cy="32.220001"
     r="1.863"
     id="circle1842" /><circle
     fill="#f9f8e1"
     cx="218.95599"
     cy="32.220001"
     r="1.863"
     id="circle1844" /><circle
     fill="#f9f8e1"
     cx="238.62399"
     cy="32.220001"
     r="1.863"
     id="circle1846" /><circle
     fill="#f9f8e1"
     cx="201.713"
     cy="35.035999"
     r="1.863"
     id="circle1848" /><circle
     fill="#f9f8e1"
     cx="206.63"
     cy="35.035999"
     r="1.863"
     id="circle1850" /><circle
     fill="#f9f8e1"
     cx="211.548"
     cy="35.035999"
     r="1.863"
     id="circle1852" /><circle
     fill="#f9f8e1"
     cx="216.465"
     cy="35.035999"
     r="1.863"
     id="circle1854" /><circle
     fill="#f9f8e1"
     cx="221.382"
     cy="35.035999"
     r="1.863"
     id="circle1856" /><circle
     fill="#f9f8e1"
     cx="204.20399"
     cy="37.764999"
     r="1.863"
     id="circle1858" /><circle
     fill="#f9f8e1"
     cx="209.121"
     cy="37.764999"
     r="1.863"
     id="circle1860" /><circle
     fill="#f9f8e1"
     cx="214.039"
     cy="37.764999"
     r="1.863"
     id="circle1862" /><circle
     fill="#f9f8e1"
     cx="218.95599"
     cy="37.764999"
     r="1.863"
     id="circle1864" /><circle
     fill="#f9f8e1"
     cx="238.62399"
     cy="37.764999"
     r="1.863"
     id="circle1866" /><circle
     fill="#f9f8e1"
     cx="206.63"
     cy="40.581001"
     r="1.863"
     id="circle1868" /><circle
     fill="#f9f8e1"
     cx="211.548"
     cy="40.581001"
     r="1.863"
     id="circle1870" /><circle
     fill="#f9f8e1"
     cx="216.465"
     cy="40.581001"
     r="1.863"
     id="circle1872" /><circle
     fill="#f9f8e1"
     cx="221.382"
     cy="40.581001"
     r="1.863"
     id="circle1874" /><circle
     fill="#f9f8e1"
     cx="209.121"
     cy="43.181"
     r="1.863"
     id="circle1876" /><circle
     fill="#f9f8e1"
     cx="214.039"
     cy="43.181"
     r="1.863"
     id="circle1878" /><circle
     fill="#f9f8e1"
     cx="218.95599"
     cy="43.181"
     r="1.863"
     id="circle1880" /><circle
     fill="#f9f8e1"
     cx="223.873"
     cy="43.181"
     r="1.863"
     id="circle1882" /><circle
     fill="#f9f8e1"
     cx="238.62399"
     cy="43.181"
     r="1.863"
     id="circle1884" /><circle
     fill="#f9f8e1"
     cx="211.548"
     cy="45.995998"
     r="1.863"
     id="circle1886" /><circle
     fill="#f9f8e1"
     cx="216.465"
     cy="45.995998"
     r="1.863"
     id="circle1888" /><circle
     fill="#f9f8e1"
     cx="221.382"
     cy="45.995998"
     r="1.863"
     id="circle1890" /><circle
     fill="#f9f8e1"
     cx="226.299"
     cy="45.995998"
     r="1.863"
     id="circle1892" /><circle
     fill="#f9f8e1"
     cx="214.039"
     cy="48.726002"
     r="1.863"
     id="circle1894" /><circle
     fill="#f9f8e1"
     cx="218.95599"
     cy="48.726002"
     r="1.863"
     id="circle1896" /><circle
     fill="#f9f8e1"
     cx="223.873"
     cy="48.726002"
     r="1.863"
     id="circle1898" /><circle
     fill="#f9f8e1"
     cx="228.78999"
     cy="48.726002"
     r="1.863"
     id="circle1900" /><circle
     fill="#f9f8e1"
     cx="238.62399"
     cy="48.726002"
     r="1.863"
     id="circle1902" /><circle
     fill="#f9f8e1"
     cx="216.465"
     cy="51.541"
     r="1.863"
     id="circle1904" /><circle
     fill="#f9f8e1"
     cx="226.299"
     cy="51.541"
     r="1.863"
     id="circle1906" /><circle
     fill="#f9f8e1"
     cx="231.216"
     cy="51.541"
     r="1.863"
     id="circle1908" /><circle
     fill="#f9f8e1"
     cx="214.039"
     cy="54.285"
     r="1.863"
     id="circle1910" /><circle
     fill="#f9f8e1"
     cx="223.873"
     cy="54.285"
     r="1.863"
     id="circle1912" /><circle
     fill="#f9f8e1"
     cx="233.707"
     cy="54.285"
     r="1.863"
     id="circle1914" /><circle
     fill="#f9f8e1"
     cx="238.62399"
     cy="54.285"
     r="1.863"
     id="circle1916" /><circle
     fill="#f9f8e1"
     cx="201.713"
     cy="57.102001"
     r="1.863"
     id="circle1918" /><circle
     fill="#f9f8e1"
     cx="206.63"
     cy="57.102001"
     r="1.863"
     id="circle1920" /><circle
     fill="#f9f8e1"
     cx="211.548"
     cy="57.102001"
     r="1.863"
     id="circle1922" /><circle
     fill="#f9f8e1"
     cx="216.465"
     cy="57.102001"
     r="1.863"
     id="circle1924" /><circle
     fill="#f9f8e1"
     cx="221.382"
     cy="57.102001"
     r="1.863"
     id="circle1926" /><circle
     fill="#f9f8e1"
     cx="226.299"
     cy="57.102001"
     r="1.863"
     id="circle1928" /><circle
     fill="#f9f8e1"
     cx="236.133"
     cy="57.102001"
     r="1.863"
     id="circle1930" /><circle
     fill="#f9f8e1"
     cx="238.62399"
     cy="59.830002"
     r="1.863"
     id="circle1932" /></g>
</svg>
