<svg enable-background="new -8.038 -8.624 584 140" height="140" viewBox="-8.038 -8.624 584 140" width="584" xmlns="http://www.w3.org/2000/svg" xmlns:xlink="http://www.w3.org/1999/xlink"><linearGradient id="a"><stop offset=".0051" stop-color="#ff6f0d"/><stop offset=".3807" stop-color="#f00"/><stop offset="1" stop-color="#a80000"/></linearGradient><linearGradient id="b" gradientUnits="userSpaceOnUse" x1="218.2256" x2="218.2256" xlink:href="#a" y1="-2.624" y2="127.376"/><linearGradient id="c" gradientUnits="userSpaceOnUse" x1="352.207" x2="352.207" xlink:href="#a" y1="-2.624" y2="127.376"/><linearGradient id="d" gradientUnits="userSpaceOnUse" x1="284.5957" x2="284.5957" xlink:href="#a" y1="-2.624" y2="127.376"/><linearGradient id="e" gradientUnits="userSpaceOnUse" x1="446.3906" x2="446.3906" xlink:href="#a" y1="-2.624" y2="127.376"/><linearGradient id="f" gradientUnits="userSpaceOnUse" x1="503.8672" x2="503.8672" xlink:href="#a" y1="-2.624" y2="127.376"/><linearGradient id="g" gradientUnits="userSpaceOnUse" x1="31.7056" x2="31.7056" xlink:href="#a" y1="-2.624" y2="127.376"/><linearGradient id="h" gradientUnits="userSpaceOnUse" x1="75.6128" x2="75.6128" xlink:href="#a" y1="-2.624" y2="127.376"/><linearGradient id="i" gradientUnits="userSpaceOnUse" x1="119.5562" x2="119.5561" xlink:href="#a" y1="-2.624" y2="127.376"/><linearGradient id="j" gradientUnits="userSpaceOnUse" x1="75.6133" x2="75.6133" xlink:href="#a" y1="-2.624" y2="127.376"/><linearGradient id="k" gradientUnits="userSpaceOnUse" x1="548.4268" x2="548.4268" xlink:href="#a" y1="-2.624" y2="127.376"/><linearGradient id="l" gradientUnits="userSpaceOnUse" x1="548.7998" x2="548.7998" xlink:href="#a" y1="-2.624" y2="127.376"/><linearGradient id="m" gradientUnits="userSpaceOnUse" x1="548.8018" x2="548.8018" xlink:href="#a" y1="-2.624" y2="127.376"/><path d="m207.014 5.277c4.724-6.043 14.501-7.076 20.297-2.006 2.37 1.996 4.031 4.75 4.88 7.715 10.73 36.92 21.508 73.822 32.223 110.746-6.332.006-12.667-.012-18.999.006-2.987-10.18-5.903-20.377-8.852-30.565-12.246-.024-24.485-.006-36.73-.012-2.998 10.184-5.958 20.379-8.901 30.582-6.298-.021-12.596-.005-18.895-.011 10.194-35.221 20.4-70.438 30.643-105.647 1.218-3.681 1.678-7.798 4.334-10.808m11.179 22.625c-4.49 15.295-8.889 30.619-13.354 45.922 8.9.043 17.796.016 26.692.016-4.453-15.313-8.884-30.625-13.338-45.938z" fill="url(#b)"/><path d="m190.926 123.24c-2.73-.011-5.46-.013-8.193-.011-2.436-.002-4.87-.002-7.304-.002-1.131 0-2.262.002-3.389.002l-2.001.003.558-1.919c10.193-35.221 20.399-70.439 30.659-105.701 1.174-3.433 1.591-7.781 4.585-11.272 3.019-3.839 7.757-5.809 12.455-5.813 3.579 0 7.188 1.152 9.98 3.596 2.626 2.214 4.433 5.226 5.355 8.443 10.73 36.919 21.508 73.819 32.223 110.745l.557 1.918h-1.997c-.984 0-1.964 0-2.948 0-3.103 0-6.206-.004-9.307-.004-2.25 0-4.495.002-6.738.011l-1.129.004-.317-1.081c-2.884-9.827-5.7-19.665-8.542-29.491-4.855-.009-9.708-.013-14.562-.011-5.156-.002-10.31-.002-15.465 0-1.485-.001-2.969 0-4.453.001-2.887 9.823-5.743 19.656-8.581 29.499l-.315 1.087zm-8.193-3.011c2.357 0 4.714.003 7.071.01 2.84-9.844 5.696-19.678 8.589-29.503l.317-1.075h1.121c1.858-.004 3.718-.004 5.576-.004h15.465c5.229 0 10.461.004 15.693.015l1.125.002.313 1.081c2.845 9.83 5.658 19.665 8.534 29.479 1.874-.007 3.749-.008 5.622-.008 3.103.002 6.206.006 9.307.006h.949c-10.53-36.283-21.123-72.546-31.667-108.832-.774-2.708-2.291-5.204-4.426-7-2.196-1.924-5.082-2.871-8.027-2.871-3.874-.004-7.753 1.655-10.101 4.671l-1.173-.917 1.117.985c-2.274 2.521-2.78 6.378-4.019 10.235-10.057 34.568-20.078 69.146-30.087 103.726h1.396zm22.099-44.906-1.991-.012.557-1.908c4.464-15.299 8.864-30.624 13.354-45.924l1.446-4.924 1.434 4.926c4.456 15.314 8.887 30.626 13.34 45.938l.557 1.92h-1.999c-4.98-.002-9.961.007-14.946.007-3.917.001-7.834-.004-11.752-.023zm11.752-2.976c4.314 0 8.631-.006 12.948-.008-3.788-13.028-7.56-26.055-11.345-39.083-3.805 13.015-7.555 26.05-11.351 39.076 3.249.012 6.497.015 9.748.015zm.168-44.026 1.44-.418z" fill="#470000"/><path d="m340.411 6.072c3.301-4.787 9.681-7.109 15.296-5.631 5.142 1.184 9.075 5.615 10.434 10.604 10.72 36.893 21.477 73.772 32.194 110.666-6.342.049-12.679 0-19.021.024-2.948-10.188-5.864-20.387-8.834-30.575-12.226.006-24.447-.021-36.672.01-2.922 10.195-5.935 20.367-8.855 30.563-6.293.006-12.581-.006-18.874.006 10.188-35.414 20.497-70.797 30.768-106.187 1.076-3.195 1.492-6.718 3.564-9.48m-1.543 67.768c8.863.013 17.722.007 26.584.007-4.409-15.347-8.89-30.671-13.284-46.015-4.426 15.338-8.894 30.662-13.3 46.008z" fill="url(#c)"/><path d="m377.873 122.15c-2.847-9.83-5.659-19.667-8.519-29.492-.929 0-1.858 0-2.785 0-6.264 0-12.523-.009-18.783-.006-4.282-.002-8.565.001-12.848.013-2.826 9.84-5.729 19.653-8.545 29.48l-.311 1.085-1.129.002c-1.428 0-2.853 0-4.28 0-2.544 0-5.086-.004-7.628-.004-2.32 0-4.644.002-6.964.01l-1.998.002.553-1.916c10.188-35.418 20.499-70.802 30.787-106.251 1.029-2.962 1.414-6.658 3.751-9.852 2.953-4.266 7.984-6.714 13.072-6.723 1.284 0 2.575.157 3.795.48 5.792 1.357 10.05 6.213 11.537 11.647 10.722 36.892 21.477 73.771 32.196 110.666l.552 1.903-1.982.015c-2.348.02-4.695.021-7.037.021-2.567 0-5.128-.007-7.686-.007-1.435 0-2.869.002-4.3.011l-1.135.006zm-57.199-1.916h3.147c2.825-9.841 5.729-19.653 8.544-29.48l.311-1.082 1.128-.002c4.66-.015 9.322-.021 13.982-.021 6.262 0 12.523.008 18.783.011 1.304-.003 2.606 0 3.91 0h1.126l.314 1.08c2.865 9.83 5.679 19.665 8.52 29.488 1.062-.004 2.122-.005 3.183-.005 2.564 0 5.125.008 7.686.008 1.678 0 3.355-.002 5.031-.009-10.534-36.259-21.104-72.5-31.646-108.784-1.222-4.519-4.831-8.524-9.37-9.548-1.003-.265-2.037-.392-3.075-.392-4.12-.008-8.287 2.046-10.602 5.424v.002l-1.235-.852 1.2.9c-1.776 2.316-2.225 5.645-3.323 8.998-10.086 34.751-20.208 69.495-30.214 104.264 1.658-.003 3.316-.004 4.973-.004 2.543-.001 5.085.004 7.627.004zm44.778-44.888c-4.258 0-8.51 0-12.762 0-4.607 0-9.216-.003-13.824-.007l-1.989-.002.549-1.912c4.405-15.348 8.874-30.674 13.301-46.01l1.445-5.008 1.437 5.013c4.394 15.338 8.874 30.662 13.284 46.013l.553 1.914h-1.994zm-12.762-3.001h10.768c-3.748-13.034-7.547-26.055-11.296-39.091-3.768 13.032-7.556 26.053-11.304 39.087 3.945.004 7.888.004 11.832.004z" fill="#470000"/><path d="m250.237.256h68.719v18.533c-8.437.006-16.865-.01-25.296.006 0 34.313.006 68.627-.005 102.938-6.039 0-12.083 0-18.122 0 0-34.312-.005-68.625.005-102.938-8.436-.016-16.866 0-25.301-.006 0-6.178-.005-12.351 0-18.533z" fill="url(#d)"/><path d="m293.655 123.232c-6.04 0-12.083 0-18.123 0h-1.5v-1.5c0-17.555-.002-35.11-.002-52.666 0-16.259 0-32.518.005-48.775-2.514-.004-5.029-.005-7.543-.005-4 0-8 .002-12.002.002-1.417 0-2.836 0-4.253 0l-1.501.002v-1.501c0-4.118-.002-8.234-.002-12.354 0-2.059 0-4.12.002-6.181l.002-1.498h1.498 68.72 1.5v1.5c-.003 6.181-.003 12.354 0 18.533v1.5h-1.5c-1.421.002-2.842.002-4.261.002-4.002 0-8.002-.004-12-.004-2.513 0-5.025.001-7.536.005v52.209c0 16.41-.004 32.819-.004 49.231v1.5zm-1.502-3c.003-15.912.007-31.821.007-47.731 0-17.901 0-35.805 0-53.707v-1.496l1.495-.004c3.014-.008 6.028-.008 9.04-.008 4 0 8 .002 12 .004.92-.001 1.84-.001 2.759-.002 0-5.178 0-10.354 0-15.534-21.906 0-43.81 0-65.72 0-.001 1.56-.001 3.12-.001 4.679 0 3.619.002 7.235.002 10.854h2.755c4 0 8-.002 12.002-.002 3.016 0 6.032.002 9.048.008l1.498.002v1.498c-.008 16.756-.008 33.514-.008 50.272 0 17.053.002 34.111.002 51.166 2.52-.001 5.04-.001 7.561-.001 2.52.001 5.041.001 7.56.002z" fill="#470000"/><path d="m418.475 1.01c1.74-.602 3.599-.807 5.437-.764 7.223.025 14.446.006 21.667.01 12.164.225 23.773 7.771 29.037 18.719 3.646 7.109 4.021 15.377 3.102 23.176-.634 8.164-4.058 16.328-10.334 21.741-3.313 2.952-7.443 4.743-10.992 7.375-1.947 1.481-2.047 4.364-1.039 6.428 9.586 14.799 19.552 29.367 29.34 44.039-7.158.012-14.316-.017-21.476.012-9.37-14.074-18.643-28.219-27.976-42.313-2.743-4.013-3.489-9.324-1.846-13.902 1.281-3.512 4.351-6.08 7.769-7.406 6.524-2.49 12.958-6.4 16.572-12.559 2.749-4.627 2.605-10.336 1.37-15.4-1.45-6.574-7.855-11.746-14.625-11.52-4.682.031-9.359-.021-14.033.021-2.116-.049-4.107 1.791-4.08 3.934-.022 33.047.011 66.096-.01 99.141-6.088-.012-12.168 0-18.256-.006-.012-35.576.012-71.154-.012-106.73.038-6.236 4.473-12.104 10.385-13.996z" fill="url(#e)"/><path d="m461.967 122.575c-9.374-14.079-18.648-28.226-27.966-42.296-1.949-2.854-2.973-6.274-2.975-9.7.002-1.88.31-3.766.958-5.564 1.481-4.026 4.905-6.839 8.644-8.293 6.356-2.418 12.471-6.196 15.816-11.923 1.425-2.396 2.004-5.16 2.004-8.038 0-2.08-.308-4.208-.809-6.272-1.229-5.721-6.896-10.388-12.732-10.35-.133 0-.255 0-.418.006-1.209.008-2.414.01-3.617.01-1.982 0-3.959-.008-5.932-.006-1.496-.002-2.991.002-4.479.017h-.038-.027c-.029-.002-.031-.002-.031-.002-.599-.004-1.256.274-1.738.744-.463.443-.735 1.006-.761 1.557v.137c-.006 9.164-.008 18.327-.008 27.49 0 15.309.002 30.618.002 45.928 0 8.573 0 17.147-.002 25.723v1.502l-1.505-.004c-2.248-.004-4.494-.007-6.74-.007-2.461 0-4.918 0-7.377 0-1.378 0-2.756.003-4.134.003h-1.5v-1.501c-.004-8.059-.006-16.118-.006-24.18 0-14.376 0-28.752.002-43.126-.002-13.141-.005-26.283-.009-39.435.069-6.935 4.869-13.279 11.404-15.405 1.784-.615 3.639-.85 5.449-.85.165 0 .335.002.473.006 2.983.011 5.967.013 8.952.013 3.515 0 7.031-.004 10.55-.004.723 0 1.443 0 2.188.002 12.766.252 24.829 8.095 30.345 19.534 2.727 5.32 3.689 11.19 3.689 16.982 0 2.375-.164 4.737-.428 6.996-.661 8.493-4.21 17.024-10.832 22.742-3.563 3.154-7.743 4.954-11.081 7.45-.712.538-1.07 1.419-1.078 2.497-.002.68.159 1.396.439 1.996 9.557 14.753 19.501 29.291 29.279 43.947l1.555 2.328-2.8.004c-1.363.003-2.723 0-4.081 0-3.214 0-6.425-.006-9.636-.006-2.585 0-5.17.004-7.754.017l-.809.005zm-1.405-92.764c.538 2.221.886 4.575.886 6.949.002 3.272-.66 6.601-2.419 9.563-3.886 6.599-10.639 10.643-17.324 13.198-3.105 1.203-5.819 3.524-6.9 6.517-.522 1.445-.777 2.988-.775 4.541-.002 2.827.854 5.676 2.461 8.023 9.188 13.873 18.312 27.791 27.527 41.638 2.321-.013 4.643-.014 6.96-.014 3.216 0 6.427.008 9.636.006h1.273c-9.281-13.876-18.704-27.69-27.795-41.723l-.046-.072-.042-.084c-.508-1.045-.782-2.212-.784-3.396-.006-1.753.643-3.651 2.278-4.896 3.744-2.756 7.823-4.538 10.905-7.307 5.914-5.088 9.214-12.884 9.823-20.777.259-2.221.413-4.469.413-6.705 0-5.465-.913-10.847-3.376-15.646-4.995-10.423-16.152-17.671-27.688-17.87-.721-.002-1.438-.004-2.158-.002-3.515-.002-7.031.004-10.55.004-2.987 0-5.973-.002-9.003-.013-.135-.004-.274-.006-.422-.006-1.555 0-3.08.204-4.479.687l-.488-1.416.457 1.428c-5.275 1.663-9.336 7.048-9.343 12.564.005 13.143.007 26.285.007 39.426v43.126c0 7.56.002 15.118.004 22.68.878-.001 1.757-.002 2.636-.002h7.377c1.748 0 3.496.003 5.244.006.002-8.073.002-16.146.002-24.22 0-15.31-.002-30.619-.002-45.928 0-9.139.002-18.279.011-27.418-.002-.028-.002-.053-.002-.072-.002-.046 0-.046-.002-.046.061-3.034 2.583-5.348 5.501-5.39.055 0 .096 0 .124.001 1.483-.016 2.969-.019 4.452-.019 1.979 0 3.957.006 5.932.006 1.199 0 2.399-.002 3.54-.008.177-.008.341-.008.495-.008 7.382.037 14.05 5.555 15.654 12.675z" fill="#470000"/><path d="m494.262.256h19.21c-.006 40.496.013 80.986-.012 121.481-6.396-.018-12.796 0-19.198-.006 0-40.496 0-80.985 0-121.475z" fill="url(#f)"/><path d="m513.454 123.236c-2.269-.007-4.539-.011-6.809-.009-3.135-.002-6.271 0-9.407 0-.993 0-1.985.002-2.977.002l-1.501.002v-1.5c0-40.498 0-80.986 0-121.476v-1.5h1.501 19.209 1.501v1.5c-.002 6.147-.004 12.294-.004 18.44v51.147c0 17.296 0 34.595-.009 51.895v1.503zm-1.494-3.004c.008-16.798.008-33.594.008-50.39 0-17.048 0-34.097 0-51.147 0-5.647.002-11.295.002-16.941-5.406 0-10.808 0-16.209 0v118.475c.492-.001.984-.002 1.478-.002 3.135 0 6.272-.002 9.407 0h1.207c1.369.001 2.738.002 4.107.005z" fill="#470000"/><path d="m54.173.008c3.076-.01 6.153 0 9.229-.008.013 7.234 0 14.469.005 21.701.032 6.039-.139 12.076-.389 18.107-.412 8.711-.957 17.439-2.4 26.05-.991 5.937-3.044 11.662-5.592 17.099-4.156 8.76-10.686 16.172-18.027 22.405-6.567 5.779-14.405 9.986-22.649 12.835-4.664 1.604-9.463 2.844-14.35 3.532.005-6.065.005-12.137 0-18.203 5.883-.883 11.538-2.971 16.791-5.729 6.233-3.295 11.844-7.729 16.566-12.953 4.877-5.395 8.764-11.641 11.714-18.272 3.474-7.625 5.333-15.861 6.597-24.109 1.584-10.482 2.244-21.088 2.489-31.684.035-3.591.005-7.183.016-10.771z" fill="url(#g)"/><path d="m-1.5 121.727c.002-3.032.002-6.067.002-9.1 0-3.035-.002-6.07-.002-9.101v-1.293l1.276-.19c5.678-.852 11.18-2.877 16.313-5.572 6.069-3.209 11.544-7.534 16.153-12.634 4.758-5.262 8.565-11.371 11.463-17.888 3.389-7.437 5.229-15.536 6.48-23.712 1.57-10.395 2.229-20.937 2.473-31.475.013-1.421.017-2.844.015-4.271.002-1.547-.004-3.101-.004-4.655 0-.613 0-1.226.004-1.837l.008-1.487 1.487-.004c1.259-.004 2.517-.006 3.776-.006h2.171c1.094 0 2.188-.002 3.286-.002l1.498-.002.002 1.5c.004 2.612.006 5.225.006 7.836 0 3.269-.002 6.538-.002 9.805 0 1.354 0 2.708.002 4.056.002.487.002.974.004 1.46-.002 5.583-.166 11.155-.396 16.724-.412 8.727-.959 17.514-2.417 26.227-1.021 6.115-3.126 11.968-5.717 17.494-4.278 9.015-10.96 16.578-18.391 22.89-6.743 5.931-14.753 10.224-23.151 13.128-4.74 1.628-9.63 2.894-14.629 3.598l-1.713.24zm3.004-9.1c-.002 2.45-.002 4.901-.003 7.352 4.189-.704 8.32-1.811 12.357-3.201 8.091-2.794 15.756-6.916 22.169-12.559 7.229-6.139 13.61-13.401 17.639-21.898 2.509-5.353 4.51-10.952 5.471-16.711 1.427-8.507 1.97-17.176 2.382-25.864.228-5.537.39-11.068.39-16.591 0-.484 0-.965-.002-1.45-.004-1.357-.004-2.712-.004-4.066 0-3.267.004-6.536.004-9.805 0-2.11-.001-4.222-.004-6.333-.596 0-1.191 0-1.788 0-.723 0-1.448 0-2.171.002-.76-.001-1.519-.001-2.276 0v.333c0 1.548.006 3.099.006 4.655 0 1.432-.004 2.865-.017 4.321-.247 10.635-.909 21.303-2.506 31.876-1.276 8.317-3.157 16.69-6.709 24.491-3.008 6.76-6.975 13.142-11.974 18.669-4.834 5.349-10.581 9.893-16.98 13.275-4.992 2.622-10.364 4.664-15.987 5.673.001 2.608.001 5.219.003 7.831z" fill="#470000"/><path d="m67.116.02c5.662-.037 11.328-.006 16.992-.016.002 40.574.002 81.149 0 121.728-5.65.012-11.303-.027-16.953.021-.072-12.938-.01-25.879-.03-38.815-.007-27.643.011-55.28-.009-82.918z" fill="url(#h)"/><path d="m65.655 121.76c-.029-5.106-.037-10.214-.037-15.316 0-5.862.008-11.722.008-17.578 0-1.979 0-3.956 0-5.929-.002-5.019-.004-10.036-.004-15.055 0-11.903.002-23.805.002-35.706 0-10.717-.002-21.438-.008-32.155l1.5-.002.01 1.5-.01-1.5-1.5.002v-1.492l1.49-.01c2.27-.015 4.539-.019 6.807-.019 2.519 0 5.036.004 7.55.004.882 0 1.763-.002 2.646-.002h1.5v1.5c.002 20.288.002 40.576.002 60.864 0 20.288-.002 40.576-.002 60.865v1.498l-1.498.002c-.81 0-1.62 0-2.43.002-2.554-.002-5.104-.01-7.65-.01-2.289 0-4.578.006-6.861.028l-1.506.015zm2.968-89.584c0 11.903-.002 23.803 0 35.706-.002 5.019 0 10.036.002 15.053v5.931c0 5.86-.008 11.718-.008 17.578 0 4.599.007 9.197.029 13.796 1.795-.013 3.59-.017 5.383-.017 2.554 0 5.104.009 7.65.009h.928c0-19.792.002-39.58.002-59.366 0-19.788-.001-39.576-.002-59.362-.381 0-.763 0-1.146 0-2.519 0-5.036-.004-7.55-.004-1.767 0-3.532.002-5.296.01.006 10.223.008 20.446.008 30.666z" fill="#470000"/><path d="m87.888.004c3.06-.002 6.118-.008 9.176.002-.099 12.371.322 24.766 1.797 37.057 1.207 9.547 2.909 19.164 6.711 28.059 3.604 8.605 8.801 16.604 15.572 23.051 6.466 6.166 14.302 10.906 22.815 13.635 2.375.76 4.805 1.355 7.274 1.715-.003 6.064-.006 12.129 0 18.191-4.852-.658-9.61-1.908-14.24-3.482-5.514-1.918-10.847-4.401-15.745-7.588-3.576-2.301-6.828-5.053-9.952-7.924-5.149-4.748-9.758-10.146-13.219-16.256-2.708-4.758-4.683-9.9-6.23-15.145-1.418-5.271-2.023-10.717-2.573-16.135-1.064-11.709-1.462-23.477-1.386-35.23 0-6.649-.002-13.302 0-19.95z" fill="url(#i)"/><path d="m151.031 123.199c-4.974-.674-9.825-1.952-14.532-3.553-5.609-1.952-11.053-4.483-16.064-7.743-3.685-2.372-7-5.182-10.156-8.081-5.237-4.831-9.952-10.343-13.506-16.618-2.782-4.889-4.795-10.14-6.374-15.496-1.458-5.42-2.065-10.946-2.618-16.388-.986-10.836-1.402-21.715-1.402-32.579 0-.934.002-1.866.01-2.788 0-4.433-.002-8.868-.002-13.301 0-2.216 0-4.435.002-6.649v-1.498l1.498-.002c1.757-.002 3.513-.004 5.27-.004 1.303 0 2.606 0 3.913.006l1.506.006-.012 1.506c-.008 1.123-.015 2.246-.013 3.366-.002 11.207.466 22.405 1.798 33.49 1.199 9.5 2.89 18.977 6.608 27.668 3.534 8.438 8.622 16.26 15.223 22.544 6.306 6.014 13.95 10.638 22.236 13.293 2.31.737 4.661 1.313 7.033 1.659l1.284.187v1.297c-.002 3.501-.004 7.002-.004 10.503 0 2.563 0 5.125.004 7.687l.004 1.72zm-61.645-116.547c0 4.433.002 8.868.002 13.313-.008.922-.01 1.848-.01 2.776 0 10.787.414 21.575 1.388 32.291.549 5.409 1.15 10.773 2.521 15.861 1.522 5.168 3.461 10.202 6.097 14.83 3.364 5.942 7.87 11.226 12.928 15.89 3.093 2.845 6.281 5.537 9.754 7.772 4.779 3.109 10.001 5.544 15.41 7.425 4.015 1.364 8.108 2.475 12.255 3.159-.002-1.983-.002-3.965-.002-5.945 0-3.076.002-6.151.003-9.228-2.119-.376-4.197-.911-6.23-1.562-8.74-2.803-16.767-7.66-23.392-13.979-6.943-6.609-12.247-14.784-15.917-23.546-3.891-9.108-5.605-18.865-6.822-28.469-1.351-11.252-1.823-22.569-1.823-33.858 0-.628.002-1.255.005-1.883-.798-.001-1.597-.002-2.397-.002-1.256 0-2.512.001-3.769.002-.001 1.718-.001 3.435-.001 5.153z" fill="#470000"/><path d="m54.173.008c-.01 3.588.02 7.18-.016 10.77-.245 10.596-.904 21.201-2.489 31.684-1.264 8.248-3.124 16.484-6.597 24.109-2.95 6.635-6.837 12.879-11.714 18.272-4.722 5.228-10.333 9.658-16.566 12.953-5.253 2.764-10.908 4.85-16.791 5.73.005 6.066.005 12.138 0 18.203 4.887-.688 9.686-1.928 14.35-3.532 8.244-2.849 16.082-7.056 22.649-12.834 7.341-6.234 13.871-13.646 18.027-22.406 2.547-5.437 4.601-11.162 5.592-17.099 1.443-8.61 1.989-17.339 2.4-26.05.25-6.031.421-12.068.389-18.107-.005-7.232.008-14.467-.005-21.701-3.077.008-6.153-.002-9.229.008" fill="url(#g)"/><path d="m-1.5 121.729c0-3.034.002-6.069.002-9.102 0-3.033 0-6.068-.002-9.101l-.002-1.295 1.278-.19c5.68-.85 11.18-2.871 16.313-5.57 6.069-3.209 11.544-7.532 16.153-12.634 4.756-5.26 8.563-11.368 11.461-17.888 3.389-7.437 5.229-15.536 6.48-23.712 1.572-10.395 2.229-20.937 2.473-31.475.013-1.438.015-2.875.015-4.317 0-1.587-.002-3.174-.002-4.765-.002-.559 0-1.119.002-1.68v.002l1.501.004-.007-1.5c1.259-.006 2.519-.006 3.776-.006.727 0 1.45.002 2.173 0 1.094 0 2.189 0 3.283-.002l1.5-.004.003 1.503c.004 2.612.004 5.225.004 7.836v9.807c0 1.353 0 2.706.002 4.056.002.484.002.969.004 1.458-.002 5.583-.164 11.155-.396 16.724-.412 8.727-.959 17.517-2.417 26.227-1.021 6.115-3.128 11.968-5.717 17.494-4.278 9.015-10.96 16.578-18.391 22.89-6.743 5.931-14.753 10.224-23.151 13.128-4.74 1.628-9.63 2.894-14.629 3.598l-1.711.24zm3.004-9.102c-.002 2.451-.002 4.901-.003 7.352 4.189-.704 8.32-1.811 12.357-3.201 8.091-2.794 15.756-6.916 22.169-12.559 7.229-6.139 13.61-13.401 17.639-21.898 2.509-5.353 4.51-10.952 5.471-16.711 1.427-8.507 1.972-17.176 2.382-25.864.228-5.535.39-11.066.39-16.591 0-.482 0-.965-.002-1.452-.002-1.354-.002-2.707-.002-4.062 0-3.269 0-6.538 0-9.807 0-2.111 0-4.222-.002-6.332-.596.001-1.192.001-1.788.001-.727 0-1.45-.002-2.173-.002-.758 0-1.516.001-2.272.002v.178c0 1.585.002 3.174.004 4.765-.002 1.446-.004 2.894-.017 4.367-.247 10.635-.909 21.303-2.506 31.876-1.276 8.317-3.157 16.69-6.709 24.491-3.008 6.762-6.975 13.142-11.971 18.669-4.837 5.353-10.583 9.893-16.982 13.275-4.992 2.624-10.365 4.668-15.987 5.675 0 2.609 0 5.218.002 7.828z" fill="#470000"/><path d="m67.116.02c.02 27.641.002 55.275.01 82.917.02 12.938-.042 25.879.03 38.815 5.65-.051 11.302-.012 16.953-.021.002-40.574.002-81.15 0-121.728-5.665.011-11.331-.021-16.993.017" fill="url(#j)"/><path d="m65.656 121.759c-.031-5.106-.037-10.212-.037-15.316 0-5.86.01-11.72.01-17.576 0-1.977 0-3.952-.004-5.931-.002-5.702-.004-11.399-.004-17.096 0-11.061.004-22.121.004-33.18 0-10.878-.002-21.757-.008-32.638l1.499-.002-.011-1.5c2.254-.017 4.513-.02 6.766-.02 2.559 0 5.117.006 7.671.006.855 0 1.711 0 2.564-.002l1.501-.002v1.502c0 20.288.002 40.575.002 60.865 0 20.286 0 40.574-.002 60.864v1.503l-1.504-.006c-.613 0-1.226 0-1.843 0-2.699 0-5.396-.006-8.089-.006-2.336 0-4.671.006-7.001.026l-1.506.015zm2.968-89.099c0 11.06-.002 22.119-.002 33.18 0 5.696 0 11.394.002 17.094.004 1.977.004 3.954.004 5.933 0 5.858-.01 11.719-.01 17.576 0 4.602.007 9.198.029 13.797 1.842-.012 3.683-.016 5.524-.016 2.699 0 5.394.007 8.089.007.116 0 .232 0 .348-.001 0-19.787 0-39.575 0-59.361 0-19.788 0-39.576 0-59.364-.355 0-.711 0-1.066 0-2.559 0-5.117-.006-7.671-.006-1.753 0-3.505.002-5.254.011.005 10.386.007 20.768.007 31.15zm-3.007-32.64v.002z" fill="#470000"/><path d="m87.888.004c-.002 6.648 0 13.301 0 19.949-.076 11.754.322 23.521 1.386 35.23.55 5.418 1.155 10.863 2.573 16.134 1.547 5.244 3.522 10.388 6.23 15.146 3.46 6.109 8.07 11.509 13.219 16.256 3.124 2.871 6.376 5.623 9.952 7.923 4.898 3.188 10.231 5.672 15.745 7.59 4.63 1.574 9.388 2.824 14.24 3.481-.006-6.063-.003-12.127 0-18.19-2.47-.359-4.899-.955-7.274-1.715-8.513-2.729-16.35-7.47-22.815-13.636-6.771-6.446-11.967-14.444-15.572-23.051-3.802-8.895-5.504-18.512-6.711-28.061-1.475-12.289-1.896-24.684-1.797-37.055-3.057-.009-6.116-.003-9.176-.001" fill="url(#i)"/><path d="m151.031 123.198c-4.974-.673-9.823-1.951-14.532-3.551-5.609-1.951-11.053-4.484-16.062-7.745-3.688-2.372-7.002-5.183-10.159-8.081-5.237-4.83-9.952-10.343-13.504-16.617-2.784-4.891-4.795-10.143-6.376-15.499-1.456-5.419-2.065-10.943-2.618-16.387-.986-10.836-1.402-21.714-1.402-32.579 0-.932.004-1.864.01-2.786 0-4.433-.002-8.868-.002-13.301 0-2.216 0-4.433.002-6.649l1.5.001-.002-1.5c1.827-.002 3.654-.004 5.483-.004 1.232 0 2.467.002 3.7.006l1.508.004-.012 1.508c-.01 1.121-.015 2.243-.015 3.366 0 11.207.468 22.405 1.798 33.488 1.199 9.5 2.89 18.977 6.608 27.669 3.534 8.438 8.624 16.263 15.223 22.546 6.304 6.014 13.95 10.637 22.238 13.293 2.308.737 4.657 1.313 7.033 1.659l1.284.187-.002 1.299c-.002 3.498-.004 6.999-.004 10.5 0 2.561.002 5.123.004 7.688l.004 1.72zm-61.646-116.546c0 4.433.002 8.868.002 13.312-.006.926-.01 1.852-.008 2.776-.002 10.788.412 21.575 1.388 32.292.547 5.409 1.15 10.772 2.519 15.861 1.525 5.167 3.461 10.202 6.097 14.83 3.364 5.941 7.87 11.228 12.928 15.891 3.092 2.844 6.283 5.537 9.754 7.771 4.779 3.109 10.001 5.545 15.41 7.426 4.015 1.365 8.107 2.475 12.255 3.159-.001-1.981-.003-3.964-.003-5.945 0-3.074 0-6.149.003-9.226-2.119-.378-4.197-.913-6.23-1.563-8.74-2.803-16.767-7.66-23.392-13.979-6.943-6.61-12.247-14.784-15.917-23.547-3.891-9.108-5.605-18.865-6.822-28.472-1.347-11.246-1.819-22.565-1.819-33.855 0-.628.001-1.255.004-1.883-.729-.001-1.457-.001-2.186 0-1.327-.001-2.654 0-3.982.001 0 1.717-.001 3.434-.001 5.151z" fill="#470000"/><path d="m562.213 99.303h3.963v22.449l-18.669-15.213c-1.751-1.431-3.919-3.09-6.225-3.09-3.642 0-6.638 3.229-6.638 6.821 0 3.552 2.856 6.455 6.358 6.687v4.334c-6.177-.69-10.324-4.703-10.324-11.021 0-5.897 4.38-10.971 10.418-10.971 2.582 0 5.164.969 7.146 2.58l13.969 11.434z" fill="url(#k)"/><path d="m546.557 107.7c-1.71-1.436-3.716-2.802-5.274-2.751-1.37-.002-2.646.606-3.604 1.6-.953.994-1.538 2.345-1.534 3.721-.015 2.723 2.223 5.014 4.956 5.19l1.4.091v7.416l-1.666-.186c-6.745-.659-11.733-5.473-11.658-12.512.013-6.622 4.977-12.465 11.92-12.469 2.957.002 5.843 1.091 8.096 2.918l11.519 9.428v-10.844-1.499h6.964v27.107zm-5.46-6.9c-5.137.009-8.896 4.297-8.919 9.47.068 5.018 2.733 8.118 7.326 9.226v-1.257c-3.606-.87-6.35-4.077-6.36-7.969.023-4.414 3.582-8.281 8.139-8.321 3.05.049 5.381 2.002 7.172 3.427l16.22 13.22v-17.793h-.962v15.677l-16.415-13.437c-1.712-1.395-3.985-2.242-6.184-2.242-.007-.001-.011-.001-.017-.001z" fill="#470000"/><path d="m532.8 79.433 12.538 9.266.095-.092c-.509-1.017-.829-2.166-.829-3.412 0-5.715 5.302-10.049 10.879-10.049 6.36 0 11.434 5.164 11.434 11.479 0 5.992-4.979 11.572-11.108 11.572-3.506 0-6.454-1.752-9.176-3.779l-15.949-11.85zm23.143-.14c-4.334 0-7.47 3.688-7.47 7.375 0 3.781 3.458 7.377 7.236 7.377 4.013 0 7.332-3.41 7.332-7.377.003-3.873-3.227-7.375-7.098-7.375z" fill="url(#l)"/><path d="m545.736 95.62-17.1-12.704 2.919-4.323.877-1.296 10.671 7.886c.06-6.704 6.072-11.529 12.378-11.538 7.195 0 12.919 5.846 12.933 12.979-.026 6.797-5.531 13.021-12.606 13.072-4.037-.008-7.281-2.002-10.072-4.076zm-13.01-13.404 14.802 10.998c2.651 1.979 5.302 3.489 8.28 3.48 2.6.002 4.99-1.183 6.758-3.063 1.766-1.881 2.853-4.432 2.849-7.008-.002-5.496-4.408-9.968-9.933-9.979-2.399-.002-4.788.946-6.535 2.501-1.75 1.564-2.842 3.666-2.844 6.049 0 .986.251 1.901.67 2.739l.493.983-1.799 1.742-12.302-9.093zm14.247 4.452c.015-4.508 3.737-8.841 8.971-8.877v1.502 1.5c-1.733.002-3.201.725-4.278 1.842-1.074 1.114-1.697 2.616-1.693 4.033-.006 1.426.677 2.934 1.776 4.059 1.098 1.13 2.558 1.823 3.961 1.817 3.124-.007 5.793-2.716 5.833-5.816-.001-.021-.002-.042-.002-.063.002-1.515-.643-3.011-1.687-4.105-1.045-1.098-2.438-1.769-3.91-1.766v-1.5-1.5c4.785.047 8.547 4.156 8.596 8.831.001.014.002.029.003.044-.02 4.808-3.952 8.852-8.833 8.875-4.73-.081-8.667-4.202-8.737-8.876z" fill="#470000"/><path d="m530.68 56.256c0 9.955 8.162 18.054 18.195 18.054 9.953 0 18.049-8.099 18.049-18.054 0-10.242-7.96-18.268-18.121-18.268-10.162 0-18.123 8.026-18.123 18.268zm18.196-14c7.854 0 14.003 6.248 14.003 14.223 0 7.479-6.281 13.563-14.003 13.563-7.801 0-14.147-6.084-14.147-13.563 0-8.11 6.082-14.223 14.147-14.223z" fill="url(#m)"/><path d="m529.179 56.255c-.003-5.512 2.15-10.469 5.686-14.03 3.531-3.565 8.459-5.739 13.938-5.737 5.478-.002 10.402 2.172 13.937 5.737 3.533 3.561 5.686 8.518 5.684 14.03-.002 10.785-8.765 19.552-19.548 19.554-10.856-.002-19.693-8.758-19.697-19.554zm19.696 16.555c9.12-.018 16.531-7.431 16.546-16.555-.017-9.443-7.275-16.753-16.618-16.768-9.348.015-16.605 7.324-16.623 16.768.015 9.115 7.482 16.537 16.695 16.555zm-15.648-16.332c-.002-4.431 1.674-8.388 4.486-11.211 2.809-2.827 6.75-4.514 11.162-4.512v1.5 1.5c-7.277.036-12.61 5.391-12.648 12.723.013 6.596 5.631 12.06 12.648 12.064 6.927-.002 12.491-5.454 12.502-12.064-.019-7.186-5.474-12.708-12.502-12.723v-1.5-1.5c4.329-.002 8.227 1.731 11.016 4.569 2.793 2.833 4.488 6.777 4.486 11.153-.007 8.347-6.986 15.048-15.502 15.063-8.584-.014-15.636-6.702-15.648-15.062z" fill="#470000"/><path d="m530.68 18.299c0 9.953 8.162 18.051 18.195 18.051 9.953 0 18.049-8.098 18.049-18.051 0-10.244-7.96-18.27-18.121-18.27-10.162 0-18.123 8.026-18.123 18.27zm18.196-14.002c7.854 0 14.003 6.246 14.003 14.223 0 7.479-6.281 13.563-14.003 13.563-7.801 0-14.147-6.084-14.147-13.563 0-8.108 6.082-14.223 14.147-14.223z" fill="url(#m)"/><path d="m529.179 18.299c-.003-5.514 2.15-10.473 5.686-14.034 3.531-3.565 8.459-5.739 13.938-5.737 5.478-.002 10.402 2.172 13.937 5.737 3.533 3.562 5.686 8.52 5.684 14.034-.002 10.783-8.765 19.548-19.548 19.55-10.856-.002-19.693-8.758-19.697-19.55zm19.696 16.551c9.12-.017 16.531-7.428 16.546-16.55-.017-9.447-7.275-16.757-16.618-16.772-9.348.015-16.605 7.325-16.623 16.772h-.002c.017 9.111 7.484 16.533 16.697 16.55zm-15.648-16.329c-.002-4.431 1.674-8.388 4.486-11.211 2.809-2.827 6.748-4.516 11.162-4.514v1.502 1.5c-7.277.034-12.61 5.391-12.648 12.724.013 6.597 5.631 12.06 12.648 12.062 6.927-.002 12.491-5.453 12.505-12.062-.021-7.19-5.477-12.711-12.505-12.724v-1.5-1.503c4.327-.002 8.227 1.731 11.016 4.569 2.793 2.833 4.488 6.778 4.486 11.156-.007 8.348-6.986 15.046-15.502 15.062-8.584-.015-15.636-6.703-15.648-15.061z" fill="#470000"/></svg>