<svg height="93.294" viewBox="0 0 593.703 93.294" width="593.7" xmlns="http://www.w3.org/2000/svg"><g fill="#f4f4f4"><path d="m13.562 1.7188c-7.477 0-13.562 6.085-13.562 13.562v64.438c0 7.4775 6.085 13.562 13.562 13.562 7.4766 0 13.562-6.085 13.562-13.562v-64.438c0-7.4774-6.085-13.562-13.562-13.562zm0 2c6.3965 0 11.562 5.1659 11.562 11.562v64.438c0 6.3965-5.1671 11.562-11.562 11.562-6.396 0-11.562-5.166-11.562-11.562v-64.438c0-6.3963 5.166-11.562 11.562-11.562z"/><path d="m135.38 2c-7.4775 0-13.562 6.085-13.562 13.562v64.156c0 7.4775 6.085 13.562 13.562 13.562 7.4766 0 13.562-6.085 13.562-13.562v-19.25h49.25c7.4775 0 13.562-6.0841 13.562-13.562 0-7.4775-6.085-13.562-13.562-13.562h-49.25v-4.2188h49.25c7.4774 0 13.562-6.0841 13.562-13.562 0-7.478-6.09-13.563-13.56-13.563h-62.81zm0 2h62.812c6.3965 0 11.562 5.166 11.562 11.562 0 6.3976-5.1659 11.562-11.562 11.562h-50.25-1v1 6.2188 1h1 50.25c6.3965 0 11.562 5.166 11.562 11.562 0 6.3976-5.166 11.562-11.562 11.562h-50.25v1h-1v1 19.25c0 6.3965-5.1671 11.562-11.562 11.562-6.3965 0-11.562-5.166-11.562-11.562v-64.156c-.01-6.395 5.16-11.561 11.56-11.561z"/><path d="m36.344 2c-3.5074 0-6.375 2.8666-6.375 6.375v71.344c0 7.4775 6.085 13.562 13.562 13.562 7.4775 0 13.562-6.085 13.562-13.562v-45.469c0-2.4859 1.6671-4.375 4.0938-4.375h26.375c2.4266 0 4.2812 1.9315 4.2812 4.375v45.469c0 7.4774 6.0841 13.562 13.562 13.562 7.4775 0 13.562-6.0851 13.562-13.562v-64.156c.01-7.4789-6.08-13.563-13.55-13.563h-69.062zm0 2h69.062c6.3955 0 11.562 5.1649 11.562 11.562v64.156c0 6.3966-5.166 11.562-11.562 11.562-6.3976 0-11.562-5.1659-11.562-11.562v-45.469c0-3.4905-2.7739-6.375-6.2812-6.375h-26.375c-3.5074 0-6.0938 2.9269-6.0938 6.375v45.469c0 6.3965-5.166 11.562-11.562 11.562-6.3965 0-11.562-5.166-11.562-11.562v-71.344c0-2.4276 1.9484-4.375 4.375-4.375z"/><path d="m241.56 2c-15.584 0-28.219 12.666-28.219 28.25v32.688c0 15.583 12.634 28.25 28.219 28.25h32.688c15.584 0 28.25-12.667 28.25-28.25v-32.688c0-15.584-12.67-28.25-28.25-28.25zm0 2h32.688c14.504 0 26.25 11.746 26.25 26.25v32.688c0 14.503-11.746 26.25-26.25 26.25h-32.688c-14.504 0-26.219-11.747-26.219-26.25v-32.688c0-14.504 11.72-26.25 26.22-26.25z"/><path d="m245.22 27.125c-4.3016 0-7.8125 3.511-7.8125 7.8125v24.75c0 4.3015 3.5109 7.8125 7.8125 7.8125h24.719c4.3016 0 7.8125-3.511 7.8125-7.8125v-24.75c0-4.3015-3.5109-7.8125-7.8125-7.8125zm0 2h24.719c3.2204 0 5.8125 2.592 5.8125 5.8125v24.75c0 3.2205-2.5921 5.8125-5.8125 5.8125h-24.719c-3.2204 0-5.8125-2.592-5.8125-5.8125v-24.75c0-3.2205 2.5921-5.8125 5.8125-5.8125z"/><path d="m421.34 2c-15.58 0-28.22 12.666-28.22 28.25v32.688c0 15.583 12.633 28.25 28.219 28.25h32.719c15.585 0 28.219-12.667 28.219-28.25v-32.688c0-15.584-12.63-28.25-28.22-28.25h-32.719zm0 2h32.719c14.505 0 26.219 11.746 26.219 26.25v32.688c0 14.503-11.714 26.25-26.219 26.25h-32.719c-14.505 0-26.219-11.747-26.219-26.25v-32.688c0-14.504 11.72-26.25 26.22-26.25z"/><path d="m425 27.125c-4.3016 0-7.8125 3.511-7.8125 7.8125v24.75c0 4.3015 3.5109 7.8125 7.8125 7.8125h24.719c4.3016 0 7.8125-3.5109 7.8125-7.8125v-24.75c0-4.3016-3.5109-7.8125-7.8125-7.8125l-24.72-.001zm0 2h24.719c3.2204 0 5.8125 2.5921 5.8125 5.8125v24.75c0 3.2204-2.5921 5.8125-5.8125 5.8125h-24.72c-3.2204 0-5.8125-2.592-5.8125-5.8125v-24.75c0-3.2205 2.5921-5.8125 5.8125-5.8125z"/><path d="m332.25 2.1562c-15.584 0-28.219 12.666-28.219 28.25v32.688c0 15.242 12.105 27.647 27.219 28.188v.09375h1 48.469c7.4783 0 13.562-6.0842 13.562-13.562 0-7.4774-6.0841-13.562-13.562-13.562l-43.812.03125c-3.2205 0-5.8125-2.5921-5.8125-5.8125v-23.375c0-3.2204 2.592-5.8125 5.8125-5.8125h43.812c7.4784 0 13.562-6.0851 13.562-13.562 0-7.4774-6.0841-13.562-13.562-13.562h-48.469zm0 2h48.469c6.3976 0 11.562 5.1659 11.562 11.562 0 6.3966-5.1649 11.562-11.562 11.562h-43.812c-4.3015 0-7.8125 3.5109-7.8125 7.8125v23.375c0 4.3016 3.511 7.8125 7.8125 7.8125l43.81-.03c6.3976 0 11.562 5.1659 11.562 11.562 0 6.3977-5.1648 11.562-11.562 11.562h-47.469-1c-14.502 0-26.219-11.778-26.219-26.281v-32.688c0-14.504 11.715-26.25 26.219-26.25z"/><path d="m489.22 2c-2.1484 0-3.9062 1.7565-3.9062 3.9062v73.812c0 7.4775 6.0859 13.562 13.562 13.562 7.4784 0 13.562-6.0851 13.562-13.562v-50.594c0-1.313 1.1282-2.4062 2.4688-2.4062 1.3392 0 2.5625 1.1209 2.5625 2.4062v50.594c0 7.4775 6.085 13.562 13.562 13.562 7.4775 0 13.562-6.0851 13.562-13.562v-50.938c0-1.0316 1.2236-2.0625 2.375-2.0625.58754 0 1.0909.2336 1.4688.625.22069.22879.40329.50288.5.8125v.03125l18.188 52.469c.003.0092-.003.02202 0 .03125 1.6509 5.6331 6.8789 9.7188 13.031 9.7188 7.4784 0 13.531-6.0851 13.531-13.562 0-1.0509-.11823-2.0482-.34375-3.0312v-.0625-.03125l-21.312-63.094v-.03125-.03125c-1.99-5.0211-6.91-8.563-12.62-8.563h-70.188zm0 2h70.188c4.8898 0 9.0557 3.0371 10.75 7.3125h.0312l21.219 62.938c.19248.839.28125 1.6946.28125 2.5938 0 6.3966-5.1337 11.562-11.531 11.562-5.2715 0-9.7269-3.5039-11.125-8.3125v-.03125-.03125l-18.188-52.469c-.003-.0087.003-.02259 0-.03125-.19248-.60193-.54159-1.1509-.96875-1.5938-.73815-.7646-1.7638-1.2188-2.9062-1.2188-2.2326 0-4.375 1.7101-4.375 4.0625v50.938c0 6.3966-5.166 11.562-11.562 11.562-6.3965 0-11.562-5.166-11.562-11.562v-50.594c0-2.4747-2.1417-4.4062-4.5625-4.4062-2.4215 0-4.4688 1.9592-4.4688 4.4062v50.594c0 6.3966-5.1649 11.562-11.562 11.562-6.3954 0-11.562-5.166-11.562-11.562v-73.812c-.02-1.07.82-1.908 1.89-1.908z"/></g><g fill="#fff" stroke="#f4f4f4"><path d="m574.5 8.076v-5.598h-2v-1.14h5.355v1.14h-1.995v5.599h-1.36z"/><path d="m578.71 8.076v-6.739h2.036l1.223 4.597 1.209-4.597h2.041v6.739h-1.265v-5.305l-1.338 5.305h-1.31l-1.333-5.305v5.305h-1.266z"/></g></svg>