<?xml version="1.0" encoding="UTF-8" standalone="no"?>
<svg
   xmlns:ns="&amp;ns_sfw;"
   xmlns:dc="http://purl.org/dc/elements/1.1/"
   xmlns:cc="http://creativecommons.org/ns#"
   xmlns:rdf="http://www.w3.org/1999/02/22-rdf-syntax-ns#"
   xmlns:svg="http://www.w3.org/2000/svg"
   xmlns="http://www.w3.org/2000/svg"
   xmlns:sodipodi="http://sodipodi.sourceforge.net/DTD/sodipodi-0.dtd"
   xmlns:inkscape="http://www.inkscape.org/namespaces/inkscape"
   version="1.2"
   id="Ebene_1"
   x="0px"
   y="0px"
   width="512"
   height="94"
   viewBox="0 0 511.99999 93.999998"
   xml:space="preserve"
   sodipodi:docname="system.svg"
   inkscape:version="1.0.2 (e86c8708, 2021-01-15)"><defs
   id="defs11881" /><sodipodi:namedview
   pagecolor="#ffffff"
   bordercolor="#666666"
   borderopacity="1"
   objecttolerance="10"
   gridtolerance="10"
   guidetolerance="10"
   inkscape:pageopacity="0"
   inkscape:pageshadow="2"
   inkscape:window-width="1103"
   inkscape:window-height="693"
   id="namedview11879"
   showgrid="false"
   inkscape:zoom="1"
   inkscape:cx="283.46451"
   inkscape:cy="49.220501"
   inkscape:window-x="0"
   inkscape:window-y="23"
   inkscape:window-maximized="0"
   inkscape:current-layer="Ebene_1" />
<metadata
   id="metadata11853">
	<ns:sfw>
		<ns:slices />
		<ns:sliceSourceBounds
   x="677.036"
   y="490.276"
   width="566.927"
   height="89.618"
   bottomLeftOrigin="true" />
	</ns:sfw>
<rdf:RDF><cc:Work
     rdf:about=""><dc:format>image/svg+xml</dc:format><dc:type
       rdf:resource="http://purl.org/dc/dcmitype/StillImage" /><dc:title></dc:title></cc:Work></rdf:RDF></metadata>
<g
   id="g11895"
   transform="matrix(0.87489218,0,0,0.87036087,8.0000005,0.31819474)"><g
     id="Ebene_1_1_">
	<g
   id="g11857">
		<path
   fill="#707070"
   d="m 12,98.442 c -6.627,0 -12,-5.373 -12,-12 V 31.906 c 0,-6.628 5.373,-12 12,-12 6.627,0 12,5.371 12,12 v 54.535 c 0,6.628 -5.373,12.001 -12,12.001 z"
   id="path11855" />
	</g>
	<path
   fill="#707070"
   d="m 174.735,48.034 h -36.223 v -6.528 h 36.223 c 5.964,0 10.799,-4.835 10.799,-10.799 0,-5.965 -4.835,-10.8 -10.799,-10.8 h -49.423 c -5.965,0 -10.8,4.835 -10.8,10.8 0,0.203 0,55.735 0,55.735 0,6.627 5.373,12 12,12 6.627,0 12,-5.373 12,-12 v -16.81 h 36.223 c 5.964,0 10.799,-4.835 10.799,-10.8 0.001,-5.963 -4.834,-10.798 -10.799,-10.798 z"
   id="path11859" />
	<path
   fill="#707070"
   d="m 540.859,82.934 -15.535,-54.18 c -0.918,-3.207 -3.068,-5.724 -5.787,-7.194 -1.66,-1.041 -3.619,-1.652 -5.723,-1.652 h -57 c -0.373,0 -0.742,0.019 -1.105,0.056 -6.107,0.56 -10.895,5.688 -10.895,11.944 v 54.535 c 0,6.627 5.371,12 12,12 6.627,0 12,-5.373 12,-12 V 41.506 h 5.314 v 44.938 c 0,6.627 5.373,12 12,12 6.625,0 11.998,-5.373 11.998,-12 V 41.506 h 6.041 l 13.766,48.002 c 1.5,5.233 6.271,8.644 11.457,8.644 1.088,0 2.193,-0.149 3.293,-0.465 6.33,-1.819 9.992,-8.422 8.176,-14.753 z"
   id="path11861" />
	<path
   fill="#707070"
   d="m 250.508,19.907 h -40.751 c -11.338,0 -20.615,9.276 -20.615,20.614 v 37.306 c 0,11.338 9.277,20.614 20.615,20.614 h 40.751 c 11.339,0 20.615,-9.276 20.615,-20.614 V 40.522 c 0,-11.338 -9.276,-20.615 -20.615,-20.615 z m -2.65,53.848 c 0,1.32 -1.08,2.4 -2.4,2.4 h -30.652 c -1.32,0 -2.4,-1.08 -2.4,-2.4 V 44.593 c 0,-1.318 1.08,-2.398 2.4,-2.398 h 30.652 c 1.32,0 2.4,1.08 2.4,2.398 z"
   id="path11863" />
	<path
   fill="#707070"
   d="M 419.322,19.907 H 378.57 c -11.336,0 -20.615,9.276 -20.615,20.614 v 37.306 c 0,11.338 9.279,20.614 20.615,20.614 h 40.752 c 11.338,0 20.613,-9.276 20.613,-20.614 V 40.522 c 0,-11.338 -9.275,-20.615 -20.613,-20.615 z m -2.651,53.848 c 0,1.32 -1.08,2.4 -2.398,2.4 h -30.652 c -1.32,0 -2.4,-1.08 -2.4,-2.4 V 44.593 c 0,-1.318 1.08,-2.398 2.4,-2.398 h 30.652 c 1.318,0 2.398,1.08 2.398,2.398 z"
   id="path11865" />
	<path
   fill="#707070"
   d="M 105.464,19.907 H 34.742 c -3.005,0 -5.441,2.436 -5.441,5.44 v 61.095 c 0,6.627 5.373,12 12,12 6.627,0 11.861,-5.373 11.861,-12 V 44.583 c 0,-1.318 1.08,-2.398 2.4,-2.398 h 28.855 c 1.32,0 2.488,1.08 2.488,2.398 v 41.858 c 0,6.627 5.373,12 12,12 6.627,0 12,-5.373 12,-12 V 40.986 25.348 c 0,-3.005 -2.436,-5.441 -5.441,-5.441 z"
   id="path11867" />
	<path
   fill="#707070"
   d="m 345.042,76.156 h -42.9 c -1.32,0 -2.4,-1.08 -2.4,-2.4 V 44.593 c 0,-1.318 1.08,-2.398 2.4,-2.398 h 42.9 c 6.152,0 11.145,-4.988 11.145,-11.145 0,-6.153 -4.99,-11.144 -11.145,-11.144 h -15.545 -30.555 -2.564 c -11.279,0 -20.507,9.228 -20.507,20.507 v 37.521 c 0,11.276 9.228,20.507 20.507,20.507 h 2.564 30.555 15.545 c 6.152,0 11.145,-4.988 11.145,-11.146 0,-6.154 -4.99,-11.139 -11.145,-11.139 z"
   id="path11869" />
	<g
   id="g11875">
		<path
   fill="#707070"
   d="m 541.027,11.729 h -4.131 V 8.826 h 11.752 v 2.903 h -4.176 v 12.387 h -3.445 z"
   id="path11871" />
		<path
   fill="#707070"
   d="m 563.324,18.263 c -0.07,-1.84 -0.139,-4.038 -0.139,-6.285 h -0.045 c -0.5,1.951 -1.135,4.129 -1.725,5.921 l -1.859,5.967 h -2.701 l -1.633,-5.898 c -0.5,-1.813 -0.998,-3.97 -1.385,-5.987 h -0.045 c -0.066,2.063 -0.158,4.424 -0.248,6.33 l -0.297,5.809 h -3.197 l 0.977,-15.29 h 4.604 l 1.496,5.127 c 0.5,1.747 0.955,3.651 1.295,5.444 h 0.09 c 0.408,-1.771 0.936,-3.768 1.451,-5.489 l 1.611,-5.082 h 4.539 l 0.814,15.29 h -3.355 z"
   id="path11873" />
	</g>
</g></g>
</svg>
