<svg enable-background="new 0 0 566.93 72.714" height="72.714" viewBox="0 0 566.93 72.714" width="566.93" xmlns="http://www.w3.org/2000/svg" xmlns:xlink="http://www.w3.org/1999/xlink"><linearGradient id="a"><stop offset="0" stop-color="#b830b0"/><stop offset="1" stop-color="#0547ff"/></linearGradient><linearGradient id="b" gradientUnits="userSpaceOnUse" x1="129.5347" x2="129.5347" xlink:href="#a" y1=".3569" y2="71.3569"/><linearGradient id="c" gradientUnits="userSpaceOnUse" x1="209.063" x2="209.063" xlink:href="#a" y1=".3569" y2="71.3569"/><linearGradient id="d" gradientUnits="userSpaceOnUse" x1="168.9297" x2="168.9297" xlink:href="#a" y1=".3569" y2="71.3569"/><linearGradient id="e" gradientUnits="userSpaceOnUse" x1="264.9678" x2="264.9678" xlink:href="#a" y1=".3569" y2="71.3569"/><linearGradient id="f" gradientUnits="userSpaceOnUse" x1="299.0859" x2="299.0859" xlink:href="#a" y1=".3569" y2="71.3569"/><linearGradient id="g" gradientUnits="userSpaceOnUse" x1="18.8188" x2="18.8188" xlink:href="#a" y1=".3569" y2="71.3569"/><linearGradient id="h" gradientUnits="userSpaceOnUse" x1="44.8804" x2="44.8804" xlink:href="#a" y1=".3569" y2="71.3569"/><linearGradient id="i" gradientUnits="userSpaceOnUse" x1="70.9634" x2="70.9634" xlink:href="#a" y1=".3569" y2="71.3569"/><linearGradient id="j" gradientUnits="userSpaceOnUse" x1="70.9653" x2="70.9653" xlink:href="#a" y1=".3569" y2="71.3569"/><linearGradient id="k" gradientUnits="userSpaceOnUse" x1="418.3008" x2="418.3008" xlink:href="#a" y1=".3569" y2="71.3569"/><linearGradient id="l" gradientUnits="userSpaceOnUse" x1="473.707" x2="473.707" xlink:href="#a" y1=".3569" y2="71.3569"/><linearGradient id="m" gradientUnits="userSpaceOnUse" x1="534.8711" x2="534.8711" xlink:href="#a" y1=".3569" y2="71.3569"/><linearGradient id="n" gradientUnits="userSpaceOnUse" x1="368.1953" x2="368.1953" xlink:href="#a" y1=".3569" y2="71.3569"/><path d="m122.879 3.133c2.804-3.588 8.608-4.201 12.048-1.191 1.407 1.187 2.393 2.82 2.897 4.579 6.369 21.915 12.767 43.82 19.127 65.736-3.758.005-7.52-.006-11.277.005-1.773-6.042-3.504-12.097-5.254-18.146-7.269-.017-14.534-.004-21.802-.007-1.779 6.045-3.536 12.097-5.284 18.153-3.738-.014-7.477-.004-11.216-.008 6.051-20.904 12.109-41.812 18.189-62.709.722-2.183.994-4.625 2.572-6.412m6.635 13.429c-2.665 9.08-5.276 18.176-7.926 27.259 5.283.024 10.563.009 15.844.009-2.644-9.09-5.274-18.179-7.918-27.268z" fill="url(#b)"/><path d="m202.062 3.604c1.959-2.842 5.746-4.22 9.08-3.343 3.051.703 5.387 3.333 6.192 6.294 6.362 21.899 12.748 43.791 19.11 65.69-3.765.026-7.526 0-11.29.016-1.75-6.049-3.481-12.104-5.245-18.15-7.256.004-14.511-.013-21.767.006-1.734 6.053-3.523 12.092-5.257 18.143-3.735.004-7.469-.004-11.203.004 6.048-21.021 12.167-42.024 18.263-63.029.638-1.9.886-3.992 2.117-5.631m-.916 40.228c5.261.006 10.519.002 15.779.002-2.617-9.107-5.276-18.204-7.885-27.313-2.628 9.105-5.279 18.201-7.894 27.311z" fill="url(#c)"/><path d="m148.535.152h40.791v11c-5.007.004-10.011-.006-15.016.004 0 20.366.003 40.736-.003 61.101-3.584 0-7.172 0-10.757 0 0-20.364-.004-40.734.002-61.101-5.006-.01-10.01 0-15.019-.004.002-3.667-.002-7.332.002-11z" fill="url(#d)"/><path d="m248.398.599c1.034-.356 2.136-.479 3.227-.452 4.287.016 8.575.003 12.861.006 7.22.132 14.112 4.612 17.236 11.11 2.163 4.22 2.387 9.127 1.841 13.756-.376 4.847-2.408 9.692-6.134 12.904-1.969 1.755-4.42 2.816-6.525 4.377-1.157.882-1.214 2.594-.617 3.816 5.69 8.783 11.606 17.432 17.416 26.141-4.249.008-8.498-.01-12.747.008-5.562-8.354-11.065-16.75-16.604-25.116-1.628-2.381-2.071-5.534-1.097-8.252.762-2.083 2.582-3.609 4.611-4.396 3.873-1.478 7.691-3.8 9.836-7.453 1.632-2.747 1.548-6.137.813-9.143-.86-3.902-4.663-6.973-8.681-6.838-2.778.02-5.556-.014-8.33.013-1.256-.028-2.438 1.063-2.422 2.335-.013 19.615.006 39.232-.006 58.848-3.613-.008-7.223 0-10.836-.004-.007-21.117.006-42.236-.007-63.354.024-3.7 2.655-7.182 6.165-8.306z" fill="url(#e)"/><path d="m293.384.152h11.402c-.003 24.037.007 48.071-.007 72.109-3.797-.01-7.596 0-11.396-.004.001-24.037.001-48.071.001-72.105z" fill="url(#f)"/><path d="m32.154.005c1.826-.006 3.652 0 5.479-.004.008 4.294 0 8.589.003 12.882.019 3.584-.082 7.167-.231 10.748-.244 5.17-.568 10.352-1.425 15.462-.588 3.521-1.807 6.922-3.319 10.146-2.467 5.2-6.343 9.602-10.7 13.303-3.898 3.43-8.551 5.928-13.444 7.617-2.768.952-5.617 1.688-8.518 2.098.003-3.603.003-7.203 0-10.805 3.492-.524 6.849-1.766 9.967-3.402 3.7-1.955 7.03-4.588 9.833-7.688 2.895-3.202 5.202-6.907 6.953-10.847 2.062-4.526 3.166-9.415 3.916-14.311.94-6.224 1.332-12.517 1.478-18.808.02-2.13.002-4.261.008-6.391z" fill="url(#g)"/><path d="m39.837.011c3.361-.021 6.724-.003 10.086-.009.001 24.085.001 48.169 0 72.253-3.354.007-6.709-.018-10.063.014-.042-7.68-.006-15.361-.018-23.041-.003-16.406.007-32.809-.005-49.217z" fill="url(#h)"/><path d="m52.167.003c1.816-.001 3.632-.005 5.447.001-.059 7.344.191 14.699 1.066 21.996.717 5.666 1.727 11.376 3.983 16.653 2.14 5.109 5.224 9.856 9.243 13.685 3.838 3.658 8.49 6.474 13.543 8.094 1.41.449 2.852.805 4.318 1.018-.002 3.602-.003 7.2 0 10.801-2.88-.393-5.704-1.135-8.453-2.067-3.273-1.14-6.438-2.614-9.346-4.505-2.123-1.364-4.053-2.998-5.907-4.703-3.057-2.818-5.792-6.021-7.847-9.648-1.607-2.822-2.78-5.877-3.698-8.988-.842-3.129-1.201-6.361-1.528-9.578-.632-6.95-.868-13.936-.823-20.911.002-3.955.001-7.903.002-11.848z" fill="url(#i)"/><path d="m32.154.005c-.006 2.131.012 4.262-.009 6.393-.145 6.29-.537 12.584-1.477 18.808-.75 4.896-1.854 9.784-3.916 14.311-1.751 3.938-4.059 7.646-6.953 10.848-2.803 3.102-6.134 5.732-9.833 7.688-3.118 1.639-6.475 2.878-9.967 3.4.003 3.604.003 7.205 0 10.807 2.901-.409 5.75-1.145 8.518-2.098 4.894-1.689 9.546-4.188 13.444-7.617 4.357-3.701 8.233-8.103 10.7-13.303 1.512-3.227 2.731-6.625 3.319-10.146.857-5.111 1.181-10.292 1.425-15.462.149-3.581.25-7.164.231-10.748-.003-4.293.005-8.588-.003-12.882-1.827.001-3.653-.005-5.479.001" fill="url(#g)"/><path d="m39.837.011c.012 16.407.001 32.813.006 49.217.012 7.68-.025 15.361.018 23.041 3.354-.029 6.709-.007 10.063-.014.001-24.084.001-48.168 0-72.253-3.363.006-6.726-.014-10.087.009" fill="url(#h)"/><path d="m52.167.003c-.001 3.945 0 7.895 0 11.842-.045 6.978.191 13.961.823 20.911.327 3.216.686 6.449 1.528 9.578.918 3.111 2.091 6.166 3.698 8.988 2.054 3.627 4.79 6.83 7.847 9.648 1.854 1.705 3.785 3.339 5.907 4.703 2.907 1.891 6.073 3.365 9.346 4.504 2.749.936 5.573 1.678 8.453 2.068-.003-3.601-.002-7.199 0-10.801-1.466-.213-2.908-.566-4.318-1.018-5.053-1.62-9.705-4.436-13.543-8.094-4.019-3.826-7.103-8.574-9.243-13.685-2.257-5.277-3.267-10.987-3.983-16.653-.875-7.295-1.125-14.65-1.066-21.994-1.817-.002-3.632.002-5.449.003" fill="url(#j)"/><path d="m437.874 34.488c5.281-3.112 8.575-8.381 8.575-14.23 0-13.813-14.59-20.104-28.146-20.104-13.558 0-28.146 6.291-28.146 20.104 0 5.851 3.293 11.118 8.574 14.23-7.511 3.479-11.714 9.403-11.714 16.784 0 13.913 15.737 21.192 31.283 21.192s31.283-7.279 31.283-21.192c.004-7.381-4.199-13.308-11.709-16.784zm-19.57-8.756c-3.458 0-6.271-2.23-6.271-4.974s2.813-4.975 6.271-4.975c3.455 0 6.27 2.231 6.27 4.975-.001 2.744-2.813 4.974-6.27 4.974zm0 17.725c3.848 0 6.979 2.567 6.979 5.728 0 3.065-3.131 5.56-6.979 5.56-3.85 0-6.979-2.492-6.979-5.56 0-3.161 3.13-5.728 6.979-5.728z" fill="url(#k)"/><path d="m498.233 11.921c-5.774-7.698-14.257-11.769-24.529-11.769s-18.755 4.069-24.529 11.769c-4.854 6.476-7.528 15.181-7.528 24.513 0 18.058 9.912 36.28 32.06 36.28s32.062-18.223 32.062-36.28c-.004-9.333-2.679-18.038-7.536-24.513zm-24.529 39.309c-7.721 0-8.566-10.037-8.566-14.881 0-4.798.848-14.714 8.566-14.714 7.721 0 8.565 9.916 8.565 14.714.002 4.844-.844 14.881-8.565 14.881z" fill="url(#l)"/><path d="m559.396 11.921c-5.772-7.698-14.256-11.769-24.527-11.769-10.272 0-18.755 4.069-24.529 11.769-4.854 6.476-7.53 15.181-7.53 24.513 0 18.058 9.914 36.28 32.062 36.28 22.146 0 32.061-18.223 32.061-36.28-.004-9.333-2.679-18.038-7.537-24.513zm-24.527 39.309c-7.722 0-8.567-10.037-8.567-14.881 0-4.798.848-14.714 8.567-14.714s8.565 9.916 8.565 14.714c.002 4.844-.845 14.881-8.565 14.881z" fill="url(#m)"/><path d="m336.516 1.165v22.016h30.147l-22.491 49.205h25.464l30.24-71.221z" fill="url(#n)"/></svg>