<?xml version="1.0" encoding="UTF-8" standalone="no"?>
<svg
   xmlns:dc="http://purl.org/dc/elements/1.1/"
   xmlns:cc="http://creativecommons.org/ns#"
   xmlns:rdf="http://www.w3.org/1999/02/22-rdf-syntax-ns#"
   xmlns:svg="http://www.w3.org/2000/svg"
   xmlns="http://www.w3.org/2000/svg"
   xmlns:sodipodi="http://sodipodi.sourceforge.net/DTD/sodipodi-0.dtd"
   xmlns:inkscape="http://www.inkscape.org/namespaces/inkscape"
   version="1.1"
   id="Layer_3"
   x="0px"
   y="0px"
   width="512"
   height="162"
   viewBox="0 0 511.99999 162"
   enable-background="new 0 0 566.924 121.752"
   xml:space="preserve"
   sodipodi:docname="system.svg"
   inkscape:version="1.0.2 (e86c8708, 2021-01-15)"><metadata
   id="metadata8710"><rdf:RDF><cc:Work
       rdf:about=""><dc:format>image/svg+xml</dc:format><dc:type
         rdf:resource="http://purl.org/dc/dcmitype/StillImage" /><dc:title></dc:title></cc:Work></rdf:RDF></metadata><defs
   id="defs8708" /><sodipodi:namedview
   pagecolor="#ffffff"
   bordercolor="#666666"
   borderopacity="1"
   objecttolerance="10"
   gridtolerance="10"
   guidetolerance="10"
   inkscape:pageopacity="0"
   inkscape:pageshadow="2"
   inkscape:window-width="1148"
   inkscape:window-height="709"
   id="namedview8706"
   showgrid="false"
   inkscape:zoom="1"
   inkscape:cx="283.46201"
   inkscape:cy="60.875999"
   inkscape:window-x="0"
   inkscape:window-y="23"
   inkscape:window-maximized="0"
   inkscape:current-layer="Layer_3" />
<g
   id="g8752"
   transform="matrix(1.2576033,0,0,1.2586098,-98.848491,4.1322944)"><g
     id="g8703">
	<g
   id="g8701">
		<g
   id="g8646">
			<g
   id="g8644">
				
					<linearGradient
   id="SVGID_1_"
   gradientUnits="userSpaceOnUse"
   x1="-8.1710997"
   y1="2.5585999"
   x2="-8.1710997"
   y2="118.2725"
   gradientTransform="translate(155)">
					<stop
   offset="0"
   style="stop-color:#B2B2B4"
   id="stop8629" />
					<stop
   offset="0.3516"
   style="stop-color:#B2B2B4"
   id="stop8631" />
					<stop
   offset="0.3571"
   style="stop-color:#9BA29A"
   id="stop8633" />
					<stop
   offset="0.6758"
   style="stop-color:#9BA29A"
   id="stop8635" />
					<stop
   offset="0.6813"
   style="stop-color:#717274"
   id="stop8637" />
					<stop
   offset="1"
   style="stop-color:#717274"
   id="stop8639" />
				</linearGradient>
				<path
   fill="url(#SVGID_1_)"
   d="m 146.829,3.073 c -38.667,0 -61.867,30.933 -61.867,58 0,27.067 19.333,58 61.867,58 34.8,0 61.867,-30.933 61.867,-58 0,-27.067 -23.2,-58 -61.867,-58 z m 0,96.666 c -19.333,0 -30.933,-11.599 -30.933,-38.666 0,-27.067 11.6,-38.667 30.933,-38.667 19.333,0 30.934,11.601 30.934,38.667 -0.001,27.068 -11.601,38.666 -30.934,38.666 z"
   id="path8642"
   style="fill:url(#SVGID_1_)" />
			</g>
		</g>
		<g
   id="g8663">
			<linearGradient
   id="SVGID_2_"
   gradientUnits="userSpaceOnUse"
   x1="427.1633"
   y1="2.5585999"
   x2="427.1633"
   y2="118.2725">
				<stop
   offset="0"
   style="stop-color:#B2B2B4"
   id="stop8648" />
				<stop
   offset="0.3516"
   style="stop-color:#B2B2B4"
   id="stop8650" />
				<stop
   offset="0.3571"
   style="stop-color:#9BA29A"
   id="stop8652" />
				<stop
   offset="0.6758"
   style="stop-color:#9BA29A"
   id="stop8654" />
				<stop
   offset="0.6813"
   style="stop-color:#717274"
   id="stop8656" />
				<stop
   offset="1"
   style="stop-color:#717274"
   id="stop8658" />
			</linearGradient>
			<path
   fill="url(#SVGID_2_)"
   d="m 444.564,119.073 c -42.534,0 -69.601,-23.2 -69.601,-58 0,-34.8 23.2,-58 61.866,-58 19.334,0 34.801,11.599 42.534,23.2 -3.866,7.733 -19.333,19.334 -19.333,19.334 -3.867,0 -7.734,-3.868 -7.734,-3.868 0,-7.733 3.867,-19.333 -15.467,-19.333 -19.332,0 -30.934,7.733 -30.934,38.667 0,23.2 19.334,38.666 38.668,38.666 3.866,0 11.6,0 11.6,0 3.867,-3.866 7.733,-7.733 7.733,-11.599 7.733,0 7.733,0 7.733,0 v 30.933 c 10e-4,0 -11.598,0 -27.065,0 z"
   id="path8661"
   style="fill:url(#SVGID_2_)" />
		</g>
		<g
   id="g8682">
			<g
   id="g8680">
				
					<linearGradient
   id="SVGID_3_"
   gradientUnits="userSpaceOnUse"
   x1="113.6296"
   y1="2.5585999"
   x2="113.6296"
   y2="118.2725"
   gradientTransform="translate(155)">
					<stop
   offset="0"
   style="stop-color:#B2B2B4"
   id="stop8665" />
					<stop
   offset="0.3516"
   style="stop-color:#B2B2B4"
   id="stop8667" />
					<stop
   offset="0.3571"
   style="stop-color:#9BA29A"
   id="stop8669" />
					<stop
   offset="0.6758"
   style="stop-color:#9BA29A"
   id="stop8671" />
					<stop
   offset="0.6813"
   style="stop-color:#717274"
   id="stop8673" />
					<stop
   offset="1"
   style="stop-color:#717274"
   id="stop8675" />
				</linearGradient>
				<path
   fill="url(#SVGID_3_)"
   d="m 313.096,107.473 c -3.866,-3.866 -23.2,-38.666 -27.066,-42.533 11.601,0 27.066,-11.6 27.066,-30.933 0,-19.334 -15.466,-30.933 -30.933,-30.933 -15.467,0 -46.401,0 -65.734,0 v 7.733 c 7.733,0 7.733,11.599 7.733,11.599 0,0 0,77.333 0,81.201 0,3.866 -3.867,7.733 -7.733,7.733 v 7.733 h 41.083 c 0,0 0,-2.416 0,-7.733 -5.317,0 -6.283,-3.867 -6.283,-7.733 0,-3.867 0,-27.066 0,-34.8 3.866,0 7.733,0 11.6,3.866 3.867,3.867 11.6,27.066 15.466,34.8 3.868,7.733 7.734,11.601 11.6,11.601 3.867,0 15.467,0 23.2,0 7.733,0 7.733,-7.733 7.733,-7.733 0,0 -3.866,-10e-4 -7.732,-3.868 z m -46.4,-54.133 c -7.733,0 -15.466,0 -15.466,0 0,-15.466 0,-30.934 0,-30.934 0,0 7.733,0 15.466,0 7.733,0 15.467,3.867 15.467,15.468 0,11.599 -7.734,15.466 -15.467,15.466 z"
   id="path8678"
   style="fill:url(#SVGID_3_)" />
			</g>
		</g>
		<g
   id="g8699">
			<linearGradient
   id="SVGID_4_"
   gradientUnits="userSpaceOnUse"
   x1="347.8967"
   y1="2.5590999"
   x2="347.8967"
   y2="118.2728">
				<stop
   offset="0"
   style="stop-color:#B2B2B4"
   id="stop8684" />
				<stop
   offset="0.3516"
   style="stop-color:#B2B2B4"
   id="stop8686" />
				<stop
   offset="0.3571"
   style="stop-color:#9BA29A"
   id="stop8688" />
				<stop
   offset="0.6758"
   style="stop-color:#9BA29A"
   id="stop8690" />
				<stop
   offset="0.6813"
   style="stop-color:#717274"
   id="stop8692" />
				<stop
   offset="1"
   style="stop-color:#717274"
   id="stop8694" />
			</linearGradient>
			<path
   fill="url(#SVGID_4_)"
   d="m 363.363,103.606 c 0,3.867 3.867,7.733 7.734,7.733 v 7.733 h -46.4 v -7.733 c 3.867,0 7.733,-3.866 7.733,-7.733 V 18.54 c 0,-3.867 -3.866,-7.733 -7.733,-7.733 V 3.073 h 46.4 v 7.733 c -3.867,0 -7.734,3.866 -7.734,7.733 z"
   id="path8697"
   style="fill:url(#SVGID_4_)" />
		</g>
	</g>
</g></g>
</svg>
