<svg height="413.53125" viewBox="0 0 512.34375 413.53124" width="512.34375" xmlns="http://www.w3.org/2000/svg"><g fill="#f4f4f4"><path d="m0-.00000297v1 52.34374997.75l.6875.21875 348.125 110.843753.15625.0625h.15625 162.21875 1v-1-65.656253c0-54.450057-46.61806-98.56249997-104.0625-98.56249997h-407.28125zm2 1.99999997h406.28125c56.42156 0 102.0625 43.254557 102.0625 96.5625v64.656253h-161.03125l-347.3125-110.593753z"/><path d="m324.6875 175.84375v1 103.5 1h1 185.375 1v-1-103.5-1h-1-185.375zm2 2h183.375v101.5h-183.375z"/><path d="m169.59375 116.25v1.34375 203.75l-60.03125 30.78125-.53125.28125v.59375 59.53125 1h1 244.34375 1v-1-115.875-1h-1-44.28125v-134.875-.71875l-.71875-.21875-138.5-43.1875zm2 2.71875 136.5 42.5625v135.125 1h1 44.28125v113.875h-242.34375v-57.90625l60-30.78125.5625-.28125v-.625z"/></g></svg>