<?xml version="1.0" encoding="UTF-8" standalone="no"?>
<svg
   xmlns:dc="http://purl.org/dc/elements/1.1/"
   xmlns:cc="http://creativecommons.org/ns#"
   xmlns:rdf="http://www.w3.org/1999/02/22-rdf-syntax-ns#"
   xmlns:svg="http://www.w3.org/2000/svg"
   xmlns="http://www.w3.org/2000/svg"
   xmlns:sodipodi="http://sodipodi.sourceforge.net/DTD/sodipodi-0.dtd"
   xmlns:inkscape="http://www.inkscape.org/namespaces/inkscape"
   version="1.2"
   id="Ebene_1"
   x="0px"
   y="0px"
   width="512"
   height="140"
   viewBox="0 -13.883 511.99999 140"
   xml:space="preserve"
   sodipodi:docname="system.svg"
   inkscape:version="1.0.2 (e86c8708, 2021-01-15)"><metadata
   id="metadata11391"><rdf:RDF><cc:Work
       rdf:about=""><dc:format>image/svg+xml</dc:format><dc:type
         rdf:resource="http://purl.org/dc/dcmitype/StillImage" /><dc:title></dc:title></cc:Work></rdf:RDF></metadata><defs
   id="defs11389" /><sodipodi:namedview
   pagecolor="#ffffff"
   bordercolor="#666666"
   borderopacity="1"
   objecttolerance="10"
   gridtolerance="10"
   guidetolerance="10"
   inkscape:pageopacity="0"
   inkscape:pageshadow="2"
   inkscape:window-width="1188"
   inkscape:window-height="711"
   id="namedview11387"
   showgrid="false"
   inkscape:zoom="1"
   inkscape:cx="283.46451"
   inkscape:cy="85.039497"
   inkscape:window-x="0"
   inkscape:window-y="23"
   inkscape:window-maximized="0"
   inkscape:current-layer="Ebene_1" />






<g
   id="g11400"
   transform="matrix(0.8748891,0,0,0.87130814,7.9999987,-5.8830001)"><path
     fill="#5b5b5b"
     d="m 240.575,77.262 c -14.877,14.885 -14.877,39.008 0,53.895 14.885,14.877 39.008,14.877 53.893,0 12.871,-12.871 14.605,-32.656 5.219,-47.393 l -20.5,20.5 c -0.016,2.971 -1.151,5.934 -3.414,8.193 -4.557,4.551 -11.945,4.551 -16.502,0 -4.55,-4.557 -4.55,-11.941 0,-16.5 4.557,-4.551 11.945,-4.551 16.502,0 l 0.35,0.371 18.705,-18.703 -0.355,-0.364 C 279.583,62.385 255.46,62.385 240.575,77.262 Z"
     id="path11372" /><path
     fill="#494949"
     d="m 92.1,142.161 92.101,-104.84 h -38.433 l -58.87,59.936 c -1.797,1.828 -4.713,1.828 -6.509,0 -1.796,-1.825 -1.796,-4.797 0,-6.633 L 132.75,37.322 H 0 Z"
     id="path11374" /><path
     fill="#5b5b5b"
     d="m 503.134,104.038 -31.893,37.5 h 26.061 l 24.832,-25.281 c 1.439,-1.463 3.771,-1.463 5.211,0 1.438,1.461 1.438,3.834 0,5.306 l -19.621,19.979 h 59.205 L 535.036,104.04 566.929,66.541 h -26.061 l -24.832,25.282 c -1.439,1.471 -3.771,1.471 -5.211,0 -1.439,-1.462 -1.439,-3.832 0,-5.304 L 530.446,66.54 h -59.205 z"
     id="path11376" /><path
     fill="#5b5b5b"
     d="m 356.339,66.539 v 75 h 23.938 V 92.793 h 18.15 l 22.326,-26.254 h -26.061 l -24.84,25.282 c -1.432,1.471 -3.766,1.471 -5.201,0 -1.439,-1.462 -1.439,-3.833 0,-5.304 L 384.27,66.538 Z"
     id="path11378" /><path
     fill="#5b5b5b"
     d="m 338.494,66.857 h 14.465 L 376.852,42.166 H 338.498 V 0 l -58.351,66.857 h 25.519 l 17.473,-16.23 c 1.439,-1.462 3.773,-1.462 5.203,0 1.438,1.472 1.438,3.842 0,5.306 L 314.56,69.969 v 71.571 h 23.938 V 66.857 Z"
     id="path11380" /><path
     fill="#5b5b5b"
     d="m 158.919,77.262 c -14.877,14.885 -14.877,39.008 0,53.895 14.885,14.877 39.008,14.877 53.893,0 12.871,-12.871 14.605,-32.656 5.218,-47.393 l -20.5,20.5 c -0.016,2.971 -1.151,5.934 -3.414,8.193 -3.741,3.733 -9.379,4.401 -13.796,2.018 l 34.747,-34.747 c -0.599,-0.715 -4.425,-4.512 -5.576,-5.42 -14.954,-11.852 -36.753,-10.865 -50.572,2.954 z m 16.175,31.442 c -1.765,-4.229 -0.925,-9.301 2.52,-12.744 3.445,-3.444 8.516,-4.287 12.746,-2.521 z"
     id="path11382" /><path
     fill="#5b5b5b"
     d="m 418.664,77.262 c -14.877,14.885 -14.877,39.008 0,53.895 14.887,14.877 39.01,14.877 53.895,0 12.871,-12.871 14.605,-32.656 5.223,-47.393 l -20.5,20.5 c -0.02,2.971 -1.15,5.934 -3.414,8.193 -3.74,3.733 -9.379,4.401 -13.795,2.018 l 34.746,-34.747 c -0.604,-0.715 -4.43,-4.512 -5.576,-5.42 -14.96,-11.852 -36.759,-10.865 -50.579,2.954 z m 16.175,31.442 c -1.766,-4.229 -0.926,-9.301 2.52,-12.744 3.445,-3.444 8.518,-4.287 12.746,-2.521 z"
     id="path11384" /></g>
</svg>
