<svg enable-background="new 0 0 765 228" height="154" viewBox="0 0 512 154" width="512" xmlns="http://www.w3.org/2000/svg"><g fill="#fff" transform="matrix(.65660201 0 0 .65985673 4.632947 .147248)"><path d="m37.021 93.462 74.419 127.575h100.997l-74.418-127.575zm15.948 7.974h77.076l63.558 108.971h-77.077z"/><path d="m63.627 161.848-58.499 59.189h93.023zm-3.128 16.664 21.706 34.552h-55.814z"/><path d="m183.299 152.606 58.499-59.18h-93.023zm3.128-16.655-21.706-34.551h55.814z"/><path d="m257.842 176.527c-.142-.188-.443 1.444-.903 4.882s-.718 5.997-.762 7.663c.479 3.562 1.692 3.589 3.659 5.387 1.64 1.01 3.039.726 6.981 1.169 3.942.452 27.411.46 31.38.018 3.96-.434 7.274-.975 9.436-2.399 4.217-2.649 7.079-6.46 8.576-16.753 1.072-5.556 1.542-6.983 1.417-9.604-.16-3.51-1.949-5.866-5.369-7.053-3.419-1.188-8.407-.611-13.953-.611h-10.95c-11.775 0-18.906.052-22.432 2.488-4.014 2.684-5.609 6.255-7.08 14.813zm84.191-41.008h-16.673c.558-4.015.407-6.698.293-9.152-.115-2.499-.373-4.688-1.507-5.493-2.374-2.046-12.048-1.861-22.343-1.861h-9.63c-10.241 0-16.23-.062-19.34 2.242-4.022 3.128-6.449 7.91-7.291 14.344l-2.712 11.063s1.807-2.709 5.865-3.144c7.124-.771 18.986-.054 23.442-.054 10.861.187 19.836-.451 25.675.505 5.838.966 12.19 2.224 15.229 5.521 2.685 2.754 4.155 6.981 4.421 12.676.177 3.757-.567 9.898-2.224 18.402-.93 4.103-2.011 7.806-3.25 11.091-1.232 3.297-2.934 6.353-5.113 9.171-2.17 2.817-4.757 7.699-7.76 9.329-4.74 2.418-10.817 2.259-16.311 2.905-5.492.647-14.299 0-23.025 0-7.788 0-15.69.178-21.36-.496-5.679-.673-10.356-2.313-14.033-4.917-4.492-3.269-7.017-8.674-7.557-16.204-.027-3.89.408-8.309 1.302-13.28l9.294-48.771c1.763-10.676 5.031-19.003 12.802-23.964 4.323-2.693 9.568-4.474 15.734-5.342 6.174-.876 16.354-1.311 25.24-1.311h13.66c9.285 0 11.872 1.24 18.383 3.712 6.512 2.471 9.941 7.406 10.286 14.804.106 2.16-.399 11.782-1.497 18.224z"/><path d="m406.094 114.37c-10.957 0-20.934.497-24.61 1.488-3.588 1.002-5.839.913-7.46 3.482-1.613 2.569-2.64 5.264-3.083 8.088-.443 2.818-.842 6.609-1.188 11.359.346 2.853 1.258 4.818 2.738 5.881 2.834 1.79 12.765 1.95 25.665 1.95 11.553 0 20.174-.239 24.692-2.197 1.912-.753 3.561-2.454 4.942-5.094 1.392-2.649 2.233-4.581 3.216-9.567.55-3.021.79-5.573.746-7.673-.063-2.668-.887-4.44-2.474-5.325-1.744-.957-4.411-1.595-7.999-1.914-3.597-.319-8.655-.478-15.185-.478zm27.969 39.566c6.866 2.817 6.866 9.444 7.044 17.072.027 1.073.283 6.875-.07 8.887-.354 2.001-.239 3.544-.362 4.189-1.517 6.999-2.012 10.083-4.378 14.219-2.365 4.147-3.756 7.115-7.884 9.33-3.598 2.038-8.16 3.455-13.68 4.244-5.527.787-15.212 1.187-23.742 1.187h-11.021c-9.542 0-17.001-.346-22.388-1.036-5.378-.692-8.549-3.172-11.713-6.068-2.985-2.605-5.819-8.931-6.307-15.026.159-2.844.665-4.297 1.506-9.656 1.107-4.952 1.373-8.939 2.25-11.597.877-2.65 2.631-5.769 4.562-8.204 1.923-2.428 4.767-4.209 8.134-6.131 2.073-1.188 2.693-1.639.576-3.411-2.33-1.939-2.951-3.757-3.606-6.131-.337-.743-.514-7.973-.549-8.212 1.028-16.505 5.351-24.913 13.086-31.265 4.544-3.898 6.546-6.21 16.628-6.928 5.174-.417 19.357-.62 26.604-.62 9.994 0 19.712.213 23.85.638 3.632.531 6.786 1.311 9.479 2.33 2.695 1.027 2.419 2.773 4.474 5.245 1.8 2.277 2.757 5.891 2.872 10.835.078 3.41-.144 6.964-.673 10.675-.523 3.704-1.49 7.273-2.898 10.721-1.399 3.445-3.217 6.192-5.448 8.258-2.801 3.048-2.409 5.182-6.114 6.396-.796.267-1.221.08-1.204-.044.007-.101.326-.163.972.103zm-39.148 7.362c-7.044 0-14.247-.026-18.047.398-3.801.426-6.911 1.241-9.347 2.437-2.242 1.011-4.04 2.836-5.404 5.476-1.374 2.648-2.578 6.334-3.632 11.057-.896 5.475-.78 6.563-.948 8.159.337 2.906.948 4.615 3.145 5.581 2.206.966 5.377 2.65 9.745 2.836 3.331.361 12.022.54 20.75.54 9.063 0 16.168.629 21.085-1.205 2.319-1.02 4.88-1.302 6.352-3.925 1.479-2.614 2.116-5.324 3.242-10.374.896-3.862 1.32-6.892 1.267-9.089-.061-2.499-.761-7.063-2.118-8.365-1.123-1.266-3.632-2.205-7.512-2.825-3.882-.63-10.66-.701-18.578-.701z"/><path d="m490.462 213.063c-9.938 0-20.481-.63-26.321-1.887-5.838-1.258-10.081-3.465-12.748-6.627-3.294-3.704-2.685-8.993-3.146-16.23.195-5.794.922-11.597 1.852-17.055l6.018-31.609c1.257-6.777 3.038-12.909 5.349-18.401 2.305-5.484 5.555-10.056 9.737-13.706 2.393-2.312 5.537-4.137 9.427-5.493 3.881-1.347 8.311-2.232 13.271-2.649 4.952-.416 11.047-.629 18.268-.629 5.458 0 10.365.186 14.715.558 4.36.372 8.177 1.046 11.465 2.029 3.287.983 6.078 2.455 8.362 4.403 4.147 3.766 6.317 9.693 6.504 17.78.08 3.261-.417 8.859-1.479 16.798l-6.139 31.752c-3.322 18.048-7.293 29.892-17.215 35.545-4.031 2.232-8.877 3.692-14.556 4.385-5.68.691-15.238 1.036-23.364 1.036zm18.826-97.921c-7.574 0-12.995.141-16.256.425-3.26.274-6.068.877-8.426 1.808-1.808.734-3.429 1.798-4.873 3.171-1.436 1.383-2.87 3.695-4.297 6.929-1.425 3.241-2.676 4.952-3.738 10.428l-6.804 36.102c-.779 5.342-1.267 7.024-1.453 10.365.205 2.995.699 5.183 1.506 6.573.806 1.391 2.003 2.498 3.571 3.322 2.001 1.037 4.553 1.701 7.663 1.994 3.109.292 8.24.442 15.388.442 8.691 0 15.149-.266 19.402-.779 4.253-.522 7.477-1.72 9.675-3.579 4.058-3.649 6.396-9.107 8.788-20.475l6.289-33.284c.914-6.361 1.329-8.522 1.26-11.801-.106-4.545-.266-6.921-2.24-8.318-1.898-1.437-4.557-2.348-7.967-2.739-3.419-.39-9.239-.584-17.488-.584z"/><path d="m594.117 213.063c-9.939 0-20.482-.63-26.322-1.887-5.837-1.258-10.08-3.465-12.747-6.627-3.295-3.704-2.685-8.993-3.146-16.23.196-5.794.922-11.597 1.853-17.055l6.017-31.609c1.257-6.777 3.038-12.909 5.35-18.401 2.304-5.484 5.555-10.056 9.737-13.706 2.392-2.312 5.537-4.137 9.426-5.493 3.881-1.347 8.311-2.232 13.271-2.649 4.953-.416 11.047-.629 18.268-.629 5.458 0 10.366.186 14.716.558 4.359.372 8.176 1.046 11.465 2.029 3.286.983 6.077 2.455 8.361 4.403 4.148 3.766 6.318 9.693 6.505 17.78.08 3.261-.418 8.859-1.48 16.798l-6.139 31.752c-3.322 18.048-7.292 29.892-17.214 35.545-4.032 2.232-8.877 3.692-14.557 4.385-5.68.691-15.239 1.036-23.364 1.036zm18.826-97.921c-7.575 0-12.996.141-16.257.425-3.26.274-6.068.877-8.426 1.808-1.808.734-3.429 1.798-4.872 3.171-1.436 1.383-2.87 3.695-4.298 6.929-1.424 3.241-2.675 4.952-3.737 10.428l-6.805 36.102c-.779 5.342-1.267 7.024-1.453 10.365.205 2.995.699 5.183 1.507 6.573.806 1.391 2.002 2.498 3.571 3.322 2 1.037 4.553 1.701 7.662 1.994 3.109.292 8.24.442 15.389.442 8.691 0 15.148-.266 19.402-.779 4.252-.522 7.476-1.72 9.675-3.579 4.057-3.649 6.395-9.107 8.787-20.475l6.29-33.284c.913-6.361 1.329-8.522 1.259-11.801-.106-4.545-.266-6.921-2.24-8.318-1.898-1.437-4.556-2.348-7.967-2.739-3.417-.39-9.239-.584-17.487-.584z"/><path d="m697.771 213.063c-9.939 0-20.482-.63-26.321-1.887-5.838-1.258-10.081-3.465-12.748-6.627-3.295-3.704-2.685-8.993-3.146-16.23.195-5.794.922-11.597 1.852-17.055l6.017-31.609c1.258-6.777 3.038-12.909 5.35-18.401 2.305-5.484 5.555-10.056 9.737-13.706 2.393-2.312 5.537-4.137 9.427-5.493 3.881-1.347 8.311-2.232 13.271-2.649 4.952-.416 11.046-.629 18.268-.629 5.458 0 10.365.186 14.715.558 4.36.372 8.177 1.046 11.465 2.029 3.286.983 6.077 2.455 8.362 4.403 4.147 3.766 6.317 9.693 6.504 17.78.08 3.261-.417 8.859-1.479 16.798l-6.139 31.752c-3.322 18.048-7.293 29.892-17.215 35.545-4.031 2.232-8.877 3.692-14.557 4.385-5.679.691-15.238 1.036-23.363 1.036zm18.827-97.921c-7.574 0-12.996.141-16.257.425-3.26.274-6.067.877-8.425 1.808-1.809.734-3.43 1.798-4.873 3.171-1.436 1.383-2.87 3.695-4.298 6.929-1.424 3.241-2.675 4.952-3.737 10.428l-6.805 36.102c-.779 5.342-1.266 7.024-1.452 10.365.205 2.995.699 5.183 1.506 6.573.806 1.391 2.003 2.498 3.571 3.322 2.001 1.037 4.553 1.701 7.663 1.994 3.108.292 8.24.442 15.388.442 8.691 0 15.149-.266 19.402-.779 4.253-.522 7.477-1.72 9.675-3.579 4.058-3.649 6.396-9.107 8.787-20.475l6.29-33.284c.914-6.361 1.329-8.522 1.26-11.801-.107-4.545-.266-6.921-2.241-8.318-1.897-1.437-4.556-2.348-7.966-2.739-3.419-.39-9.24-.584-17.488-.584z"/><path d="m336.318 72.51v-58.207h-19.933v22.326h-38.273v-22.326h-19.934v58.207h19.934v-23.123h38.273v23.123z"/><path d="m381.368 26.867 12.605 20.925h-25.221zm19.82 32.885 7.689 12.757h23.123l-35.083-58.207h-7.974-15.15l-35.083 58.208h15.149l7.69-12.757h39.639z"/><path d="m518.113 14.303v58.207h19.136v-21.077c6.316 1.285 13.511 1.94 21.13 1.94 25.319 0 36.863-9.107 37.076-20.333.247-13.466-14.946-21.129-40.266-21.129-6.574 0-8.878.274-17.94.797s-19.136 1.595-19.136 1.595zm19.136 9.205s4.669-.549 8.878-.824c4.198-.266 5.315-.213 8.361-.213 11.749 0 18.756 3.739 18.641 10.649-.097 5.758-5.457 10.436-17.205 10.436-3.534 0-8.859-.496-12.448-1-3.588-.497-6.227-1.639-6.227-1.639z"/><path d="m434.392 14.303v58.207h19.136v-49.002s4.67-.549 8.878-.824c4.199-.266 5.315-.213 8.362-.213 11.749 0 19.552 3.739 19.438 10.649-.099 5.758-6.255 8.841-18.003 8.841-3.534 0-7.886-.487-11.473-.983-.194-.027-4.013 6.167-4.013 6.167l28.704 25.364h28.704l-25.348-21.812c15.868-2.658 23.744-9.869 23.753-17.657.019-15.113-15.017-21.431-41.063-21.129-6.573.08-8.878.274-17.94.797s-19.135 1.595-19.135 1.595z"/><path d="m245.421 31.845s6.68-12.262 6.379-12.758c-.301-.495-13.484-7.477-39.867-7.176-40.886.461-40.664 17.542-40.664 17.542s-4.085 15.875 27.695 19.136c19.499 1.994 33.39 5.253 33.311 9.993-.08 4.75-8.266 4.465-11.934 4.165-31.902-2.587-43.304-11.526-43.304-11.526l-6.92 14.334s15.397 9.639 47.398 9.346c32.036-.292 36.421-7.894 37.005-18.126.726-12.74-17.072-17.754-17.072-17.754s-9.763-2.144-19.917-3.596c-11.667-1.675-23.823-3.543-22.308-8.151 0-.159 3.447-6.759 27.907-2.17 11.891 2.223 22.291 6.741 22.291 6.741z"/></g></svg>