<?xml version="1.0" encoding="UTF-8" standalone="no"?>
<svg
   xmlns:dc="http://purl.org/dc/elements/1.1/"
   xmlns:cc="http://creativecommons.org/ns#"
   xmlns:rdf="http://www.w3.org/1999/02/22-rdf-syntax-ns#"
   xmlns:svg="http://www.w3.org/2000/svg"
   xmlns="http://www.w3.org/2000/svg"
   xmlns:sodipodi="http://sodipodi.sourceforge.net/DTD/sodipodi-0.dtd"
   xmlns:inkscape="http://www.inkscape.org/namespaces/inkscape"
   version="1.1"
   id="Layer_2"
   x="0px"
   y="0px"
   width="512"
   height="154"
   viewBox="0 0 512 154"
   enable-background="new 0 0 765 228"
   xml:space="preserve"
   sodipodi:docname="system.svg"
   inkscape:version="1.0.2 (e86c8708, 2021-01-15)"><metadata
   id="metadata11776"><rdf:RDF><cc:Work
       rdf:about=""><dc:format>image/svg+xml</dc:format><dc:type
         rdf:resource="http://purl.org/dc/dcmitype/StillImage" /><dc:title></dc:title></cc:Work></rdf:RDF></metadata><defs
   id="defs11774" /><sodipodi:namedview
   pagecolor="#ffffff"
   bordercolor="#666666"
   borderopacity="1"
   objecttolerance="10"
   gridtolerance="10"
   guidetolerance="10"
   inkscape:pageopacity="0"
   inkscape:pageshadow="2"
   inkscape:window-width="1240"
   inkscape:window-height="667"
   id="namedview11772"
   showgrid="false"
   inkscape:zoom="1"
   inkscape:cx="382.5"
   inkscape:cy="114"
   inkscape:window-x="0"
   inkscape:window-y="23"
   inkscape:window-maximized="0"
   inkscape:current-layer="Layer_2" />

<g
   id="g11795"
   transform="matrix(0.65660201,0,0,0.65985673,4.6329465,0.14724784)"><g
     id="g11757">
	<g
   id="g11743">
		<path
   d="M 37.021,93.462 111.44,221.037 H 212.437 L 138.019,93.462 Z m 15.948,7.974 h 77.076 l 63.558,108.971 h -77.077 z"
   id="path11737" />
		<path
   d="M 63.627,161.848 5.128,221.037 h 93.023 z m -3.128,16.664 21.706,34.552 H 26.391 Z"
   id="path11739" />
		<path
   d="m 183.299,152.606 58.499,-59.18 h -93.023 z m 3.128,-16.655 -21.706,-34.551 h 55.814 z"
   id="path11741" />
	</g>
	<g
   id="g11755">
		<path
   d="m 257.842,176.527 c -0.142,-0.188 -0.443,1.444 -0.903,4.882 -0.46,3.438 -0.718,5.997 -0.762,7.663 0.479,3.562 1.692,3.589 3.659,5.387 1.64,1.01 3.039,0.726 6.981,1.169 3.942,0.452 27.411,0.46 31.38,0.018 3.96,-0.434 7.274,-0.975 9.436,-2.399 4.217,-2.649 7.079,-6.46 8.576,-16.753 1.072,-5.556 1.542,-6.983 1.417,-9.604 -0.16,-3.51 -1.949,-5.866 -5.369,-7.053 -3.419,-1.188 -8.407,-0.611 -13.953,-0.611 h -10.95 c -11.775,0 -18.906,0.052 -22.432,2.488 -4.014,2.684 -5.609,6.255 -7.08,14.813 z m 84.191,-41.008 H 325.36 c 0.558,-4.015 0.407,-6.698 0.293,-9.152 -0.115,-2.499 -0.373,-4.688 -1.507,-5.493 -2.374,-2.046 -12.048,-1.861 -22.343,-1.861 h -9.63 c -10.241,0 -16.23,-0.062 -19.34,2.242 -4.022,3.128 -6.449,7.91 -7.291,14.344 l -2.712,11.063 c 0,0 1.807,-2.709 5.865,-3.144 7.124,-0.771 18.986,-0.054 23.442,-0.054 10.861,0.187 19.836,-0.451 25.675,0.505 5.838,0.966 12.19,2.224 15.229,5.521 2.685,2.754 4.155,6.981 4.421,12.676 0.177,3.757 -0.567,9.898 -2.224,18.402 -0.93,4.103 -2.011,7.806 -3.25,11.091 -1.232,3.297 -2.934,6.353 -5.113,9.171 -2.17,2.817 -4.757,7.699 -7.76,9.329 -4.74,2.418 -10.817,2.259 -16.311,2.905 -5.492,0.647 -14.299,0 -23.025,0 -7.788,0 -15.69,0.178 -21.36,-0.496 -5.679,-0.673 -10.356,-2.313 -14.033,-4.917 -4.492,-3.269 -7.017,-8.674 -7.557,-16.204 -0.027,-3.89 0.408,-8.309 1.302,-13.28 l 9.294,-48.771 c 1.763,-10.676 5.031,-19.003 12.802,-23.964 4.323,-2.693 9.568,-4.474 15.734,-5.342 6.174,-0.876 16.354,-1.311 25.24,-1.311 h 13.66 c 9.285,0 11.872,1.24 18.383,3.712 6.512,2.471 9.941,7.406 10.286,14.804 0.106,2.16 -0.399,11.782 -1.497,18.224 z"
   id="path11745" />
		<path
   d="m 406.094,114.37 c -10.957,0 -20.934,0.497 -24.61,1.488 -3.588,1.002 -5.839,0.913 -7.46,3.482 -1.613,2.569 -2.64,5.264 -3.083,8.088 -0.443,2.818 -0.842,6.609 -1.188,11.359 0.346,2.853 1.258,4.818 2.738,5.881 2.834,1.79 12.765,1.95 25.665,1.95 11.553,0 20.174,-0.239 24.692,-2.197 1.912,-0.753 3.561,-2.454 4.942,-5.094 1.392,-2.649 2.233,-4.581 3.216,-9.567 0.55,-3.021 0.79,-5.573 0.746,-7.673 -0.063,-2.668 -0.887,-4.44 -2.474,-5.325 -1.744,-0.957 -4.411,-1.595 -7.999,-1.914 -3.597,-0.319 -8.655,-0.478 -15.185,-0.478 z m 27.969,39.566 c 6.866,2.817 6.866,9.444 7.044,17.072 0.027,1.073 0.283,6.875 -0.07,8.887 -0.354,2.001 -0.239,3.544 -0.362,4.189 -1.517,6.999 -2.012,10.083 -4.378,14.219 -2.365,4.147 -3.756,7.115 -7.884,9.33 -3.598,2.038 -8.16,3.455 -13.68,4.244 -5.527,0.787 -15.212,1.187 -23.742,1.187 H 379.97 c -9.542,0 -17.001,-0.346 -22.388,-1.036 -5.378,-0.692 -8.549,-3.172 -11.713,-6.068 -2.985,-2.605 -5.819,-8.931 -6.307,-15.026 0.159,-2.844 0.665,-4.297 1.506,-9.656 1.107,-4.952 1.373,-8.939 2.25,-11.597 0.877,-2.65 2.631,-5.769 4.562,-8.204 1.923,-2.428 4.767,-4.209 8.134,-6.131 2.073,-1.188 2.693,-1.639 0.576,-3.411 -2.33,-1.939 -2.951,-3.757 -3.606,-6.131 -0.337,-0.743 -0.514,-7.973 -0.549,-8.212 1.028,-16.505 5.351,-24.913 13.086,-31.265 4.544,-3.898 6.546,-6.21 16.628,-6.928 5.174,-0.417 19.357,-0.62 26.604,-0.62 9.994,0 19.712,0.213 23.85,0.638 3.632,0.531 6.786,1.311 9.479,2.33 2.695,1.027 2.419,2.773 4.474,5.245 1.8,2.277 2.757,5.891 2.872,10.835 0.078,3.41 -0.144,6.964 -0.673,10.675 -0.523,3.704 -1.49,7.273 -2.898,10.721 -1.399,3.445 -3.217,6.192 -5.448,8.258 -2.801,3.048 -2.409,5.182 -6.114,6.396 -0.796,0.267 -1.221,0.08 -1.204,-0.044 0.007,-0.101 0.326,-0.163 0.972,0.103 z m -39.148,7.362 c -7.044,0 -14.247,-0.026 -18.047,0.398 -3.801,0.426 -6.911,1.241 -9.347,2.437 -2.242,1.011 -4.04,2.836 -5.404,5.476 -1.374,2.648 -2.578,6.334 -3.632,11.057 -0.896,5.475 -0.78,6.563 -0.948,8.159 0.337,2.906 0.948,4.615 3.145,5.581 2.206,0.966 5.377,2.65 9.745,2.836 3.331,0.361 12.022,0.54 20.75,0.54 9.063,0 16.168,0.629 21.085,-1.205 2.319,-1.02 4.88,-1.302 6.352,-3.925 1.479,-2.614 2.116,-5.324 3.242,-10.374 0.896,-3.862 1.32,-6.892 1.267,-9.089 -0.061,-2.499 -0.761,-7.063 -2.118,-8.365 -1.123,-1.266 -3.632,-2.205 -7.512,-2.825 -3.882,-0.63 -10.66,-0.701 -18.578,-0.701 z"
   id="path11747" />
		<path
   d="m 490.462,213.063 c -9.938,0 -20.481,-0.63 -26.321,-1.887 -5.838,-1.258 -10.081,-3.465 -12.748,-6.627 -3.294,-3.704 -2.685,-8.993 -3.146,-16.23 0.195,-5.794 0.922,-11.597 1.852,-17.055 l 6.018,-31.609 c 1.257,-6.777 3.038,-12.909 5.349,-18.401 2.305,-5.484 5.555,-10.056 9.737,-13.706 2.393,-2.312 5.537,-4.137 9.427,-5.493 3.881,-1.347 8.311,-2.232 13.271,-2.649 4.952,-0.416 11.047,-0.629 18.268,-0.629 5.458,0 10.365,0.186 14.715,0.558 4.36,0.372 8.177,1.046 11.465,2.029 3.287,0.983 6.078,2.455 8.362,4.403 4.147,3.766 6.317,9.693 6.504,17.78 0.08,3.261 -0.417,8.859 -1.479,16.798 l -6.139,31.752 c -3.322,18.048 -7.293,29.892 -17.215,35.545 -4.031,2.232 -8.877,3.692 -14.556,4.385 -5.68,0.691 -15.238,1.036 -23.364,1.036 z m 18.826,-97.921 c -7.574,0 -12.995,0.141 -16.256,0.425 -3.26,0.274 -6.068,0.877 -8.426,1.808 -1.808,0.734 -3.429,1.798 -4.873,3.171 -1.436,1.383 -2.87,3.695 -4.297,6.929 -1.425,3.241 -2.676,4.952 -3.738,10.428 l -6.804,36.102 c -0.779,5.342 -1.267,7.024 -1.453,10.365 0.205,2.995 0.699,5.183 1.506,6.573 0.806,1.391 2.003,2.498 3.571,3.322 2.001,1.037 4.553,1.701 7.663,1.994 3.109,0.292 8.24,0.442 15.388,0.442 8.691,0 15.149,-0.266 19.402,-0.779 4.253,-0.522 7.477,-1.72 9.675,-3.579 4.058,-3.649 6.396,-9.107 8.788,-20.475 l 6.289,-33.284 c 0.914,-6.361 1.329,-8.522 1.26,-11.801 -0.106,-4.545 -0.266,-6.921 -2.24,-8.318 -1.898,-1.437 -4.557,-2.348 -7.967,-2.739 -3.419,-0.39 -9.239,-0.584 -17.488,-0.584 z"
   id="path11749" />
		<path
   d="m 594.117,213.063 c -9.939,0 -20.482,-0.63 -26.322,-1.887 -5.837,-1.258 -10.08,-3.465 -12.747,-6.627 -3.295,-3.704 -2.685,-8.993 -3.146,-16.23 0.196,-5.794 0.922,-11.597 1.853,-17.055 l 6.017,-31.609 c 1.257,-6.777 3.038,-12.909 5.35,-18.401 2.304,-5.484 5.555,-10.056 9.737,-13.706 2.392,-2.312 5.537,-4.137 9.426,-5.493 3.881,-1.347 8.311,-2.232 13.271,-2.649 4.953,-0.416 11.047,-0.629 18.268,-0.629 5.458,0 10.366,0.186 14.716,0.558 4.359,0.372 8.176,1.046 11.465,2.029 3.286,0.983 6.077,2.455 8.361,4.403 4.148,3.766 6.318,9.693 6.505,17.78 0.08,3.261 -0.418,8.859 -1.48,16.798 l -6.139,31.752 c -3.322,18.048 -7.292,29.892 -17.214,35.545 -4.032,2.232 -8.877,3.692 -14.557,4.385 -5.68,0.691 -15.239,1.036 -23.364,1.036 z m 18.826,-97.921 c -7.575,0 -12.996,0.141 -16.257,0.425 -3.26,0.274 -6.068,0.877 -8.426,1.808 -1.808,0.734 -3.429,1.798 -4.872,3.171 -1.436,1.383 -2.87,3.695 -4.298,6.929 -1.424,3.241 -2.675,4.952 -3.737,10.428 l -6.805,36.102 c -0.779,5.342 -1.267,7.024 -1.453,10.365 0.205,2.995 0.699,5.183 1.507,6.573 0.806,1.391 2.002,2.498 3.571,3.322 2,1.037 4.553,1.701 7.662,1.994 3.109,0.292 8.24,0.442 15.389,0.442 8.691,0 15.148,-0.266 19.402,-0.779 4.252,-0.522 7.476,-1.72 9.675,-3.579 4.057,-3.649 6.395,-9.107 8.787,-20.475 l 6.29,-33.284 c 0.913,-6.361 1.329,-8.522 1.259,-11.801 -0.106,-4.545 -0.266,-6.921 -2.24,-8.318 -1.898,-1.437 -4.556,-2.348 -7.967,-2.739 -3.417,-0.39 -9.239,-0.584 -17.487,-0.584 z"
   id="path11751" />
		<path
   d="m 697.771,213.063 c -9.939,0 -20.482,-0.63 -26.321,-1.887 -5.838,-1.258 -10.081,-3.465 -12.748,-6.627 -3.295,-3.704 -2.685,-8.993 -3.146,-16.23 0.195,-5.794 0.922,-11.597 1.852,-17.055 l 6.017,-31.609 c 1.258,-6.777 3.038,-12.909 5.35,-18.401 2.305,-5.484 5.555,-10.056 9.737,-13.706 2.393,-2.312 5.537,-4.137 9.427,-5.493 3.881,-1.347 8.311,-2.232 13.271,-2.649 4.952,-0.416 11.046,-0.629 18.268,-0.629 5.458,0 10.365,0.186 14.715,0.558 4.36,0.372 8.177,1.046 11.465,2.029 3.286,0.983 6.077,2.455 8.362,4.403 4.147,3.766 6.317,9.693 6.504,17.78 0.08,3.261 -0.417,8.859 -1.479,16.798 l -6.139,31.752 c -3.322,18.048 -7.293,29.892 -17.215,35.545 -4.031,2.232 -8.877,3.692 -14.557,4.385 -5.679,0.691 -15.238,1.036 -23.363,1.036 z m 18.827,-97.921 c -7.574,0 -12.996,0.141 -16.257,0.425 -3.26,0.274 -6.067,0.877 -8.425,1.808 -1.809,0.734 -3.43,1.798 -4.873,3.171 -1.436,1.383 -2.87,3.695 -4.298,6.929 -1.424,3.241 -2.675,4.952 -3.737,10.428 l -6.805,36.102 c -0.779,5.342 -1.266,7.024 -1.452,10.365 0.205,2.995 0.699,5.183 1.506,6.573 0.806,1.391 2.003,2.498 3.571,3.322 2.001,1.037 4.553,1.701 7.663,1.994 3.108,0.292 8.24,0.442 15.388,0.442 8.691,0 15.149,-0.266 19.402,-0.779 4.253,-0.522 7.477,-1.72 9.675,-3.579 4.058,-3.649 6.396,-9.107 8.787,-20.475 l 6.29,-33.284 c 0.914,-6.361 1.329,-8.522 1.26,-11.801 -0.107,-4.545 -0.266,-6.921 -2.241,-8.318 -1.897,-1.437 -4.556,-2.348 -7.966,-2.739 -3.419,-0.39 -9.24,-0.584 -17.488,-0.584 z"
   id="path11753" />
	</g>
</g><g
     id="g11769">
	<polygon
   points="336.318,72.51 336.318,14.303 316.385,14.303 316.385,36.629 278.112,36.629 278.112,14.303 258.178,14.303 258.178,72.51 278.112,72.51 278.112,49.387 316.385,49.387 316.385,72.51 "
   id="polygon11759" />
	<path
   d="m 381.368,26.867 12.605,20.925 h -25.221 z m 19.82,32.885 7.689,12.757 H 432 L 396.917,14.302 h -7.974 -15.15 L 338.71,72.51 h 15.149 l 7.69,-12.757 h 39.639 z"
   id="path11761" />
	<path
   d="M 518.113,14.303 V 72.51 h 19.136 V 51.433 c 6.316,1.285 13.511,1.94 21.13,1.94 25.319,0 36.863,-9.107 37.076,-20.333 0.247,-13.466 -14.946,-21.129 -40.266,-21.129 -6.574,0 -8.878,0.274 -17.94,0.797 -9.062,0.523 -19.136,1.595 -19.136,1.595 z m 19.136,9.205 c 0,0 4.669,-0.549 8.878,-0.824 4.198,-0.266 5.315,-0.213 8.361,-0.213 11.749,0 18.756,3.739 18.641,10.649 -0.097,5.758 -5.457,10.436 -17.205,10.436 -3.534,0 -8.859,-0.496 -12.448,-1 -3.588,-0.497 -6.227,-1.639 -6.227,-1.639 z"
   id="path11763" />
	<path
   d="M 434.392,14.303 V 72.51 h 19.136 V 23.508 c 0,0 4.67,-0.549 8.878,-0.824 4.199,-0.266 5.315,-0.213 8.362,-0.213 11.749,0 19.552,3.739 19.438,10.649 -0.099,5.758 -6.255,8.841 -18.003,8.841 -3.534,0 -7.886,-0.487 -11.473,-0.983 -0.194,-0.027 -4.013,6.167 -4.013,6.167 l 28.704,25.364 h 28.704 L 488.777,50.697 c 15.868,-2.658 23.744,-9.869 23.753,-17.657 0.019,-15.113 -15.017,-21.431 -41.063,-21.129 -6.573,0.08 -8.878,0.274 -17.94,0.797 -9.062,0.523 -19.135,1.595 -19.135,1.595 z"
   id="path11765" />
	<path
   d="m 245.421,31.845 c 0,0 6.68,-12.262 6.379,-12.758 -0.301,-0.495 -13.484,-7.477 -39.867,-7.176 -40.886,0.461 -40.664,17.542 -40.664,17.542 0,0 -4.085,15.875 27.695,19.136 19.499,1.994 33.39,5.253 33.311,9.993 -0.08,4.75 -8.266,4.465 -11.934,4.165 C 188.439,60.16 177.037,51.221 177.037,51.221 l -6.92,14.334 c 0,0 15.397,9.639 47.398,9.346 32.036,-0.292 36.421,-7.894 37.005,-18.126 0.726,-12.74 -17.072,-17.754 -17.072,-17.754 0,0 -9.763,-2.144 -19.917,-3.596 -11.667,-1.675 -23.823,-3.543 -22.308,-8.151 0,-0.159 3.447,-6.759 27.907,-2.17 11.891,2.223 22.291,6.741 22.291,6.741 z"
   id="path11767" />
</g></g>
</svg>
