<svg enable-background="new -0.501 0 341.155 127.229" height="127.229" viewBox="-.501 0 341.155 127.229" width="341.155" xmlns="http://www.w3.org/2000/svg"><g fill="#f00"><path d="m277.724 70.452h-215.148c-19.423 0-35.228-15.803-35.228-35.227s15.806-35.225 35.228-35.225h215.146c19.426 0 35.229 15.802 35.229 35.226-.001 19.423-15.802 35.226-35.227 35.226zm-215.148-62.119c-14.829 0-26.895 12.064-26.895 26.895 0 14.828 12.065 26.894 26.895 26.894h215.146c14.827 0 26.896-12.065 26.896-26.894 0-14.83-12.067-26.895-26.896-26.895z"/><path d="m90.208 51.562v-32.515h-9.779v22.735l-14.423-22.735h-10.512v32.515h9.779v-23.469l15.155 23.469z"/><path d="m106.099 51.562v-22.002h-9.778v22.002z"/><path d="m106.099 24.914v-5.867h-9.778v5.867z"/><path d="m140.324 51.562v-15.159c0-3.178-6.112-7.578-9.289-7.578h-2.935c-2.199 0-4.645 1.956-6.845 2.934v-2.199h-9.779v22.002h9.779v-15.159c0-1.467 3.422-3.178 4.89-3.178 1.467 0 4.155 1.711 4.155 3.178v15.158z"/><path d="m222.144 52.319v-15.157c0-3.179-6.109-7.578-9.293-7.578h-2.932c-2.201 0-4.646 1.956-6.848 2.933v-2.199h-9.777v22.002h9.777v-15.158c0-1.466 3.424-3.179 4.891-3.179s4.154 1.713 4.154 3.179v15.157z"/><path d="m156.215 51.562v-22.002h5.134v-2.934h-5.134v-4.645h-10.021v4.645h-5.135v2.934h5.135v22.002z"/><path d="m175.038 28.826c-7.822 0-14.422 5.378-14.422 11.979 0 6.846 6.6 12.223 14.422 12.223 6.846 0 12.469-3.911 13.936-9.045h-10.021v2.934c0 2.445-1.709 3.18-3.91 3.18-2.2 0-3.668-.734-3.668-3.18v-6.111h18.093c-.004-6.601-6.36-11.98-14.43-11.98zm0 2.2c2.201 0 3.912 1.467 3.912 3.912v2.199h-7.578v-2.199c0-2.445 1.467-3.912 3.666-3.912z"/><path d="m271.364 28.826c-8.069 0-14.426 5.378-14.426 11.979 0 6.846 6.354 12.223 14.426 12.223 7.818 0 14.422-5.377 14.422-12.223-.004-6.6-6.603-11.979-14.422-11.979zm0 2.2c2.195 0 3.666 1.467 3.666 3.912v11.978c0 2.444-1.471 3.179-3.666 3.179-2.444 0-3.914-.734-3.914-3.179v-11.978c-.002-2.445 1.467-3.912 3.914-3.912z"/><path d="m243.247 19.047v11.979s-2.936-2.2-6.848-2.2c-6.111 0-11.244 5.378-11.244 11.246 0 6.112 5.135 12.224 11.244 12.224 3.912 0 6.848-1.467 6.848-1.467v.732h9.779v-32.514zm-3.668 13.446c2.199 0 3.668 1.712 3.668 3.912v9.045c0 2.201-1.469 2.934-3.668 2.934-2.443 0-3.912-.732-3.912-2.934v-9.045c0-2.2 1.469-3.912 3.912-3.912z"/><path d="m287.006 29.216c-2.774 0-5.036-2.258-5.036-5.035 0-2.959 2.213-5.28 5.036-5.28 2.729 0 5.036 2.417 5.036 5.28 0 2.681-2.35 5.035-5.036 5.035zm0-9.533c-2.427 0-4.253 1.934-4.253 4.5 0 2.344 1.908 4.254 4.253 4.254 2.229 0 4.254-2.028 4.254-4.254 0-2.399-1.984-4.5-4.254-4.5zm.884 6.647-.863-1.515h-1.096v1.321h-.779v-4.546h2.104c.979 0 1.488.813 1.488 1.613 0 .615-.303 1.238-.885 1.492l.711 1.248zm-1.959-2.294h1.321c.22 0 .396-.079.521-.235.119-.149.188-.368.188-.597 0-.311-.151-.832-.709-.832h-1.321z"/></g><path d="m51.827 99.231v-14.18c0-2.688-2.689-5.379-5.378-5.379h-20.535v19.56h6.357v-13.2c0-.979.732-1.957 1.711-1.957h9.777c.979 0 1.957.979 1.957 1.957v13.199z"/><path d="m45.216 99.729v-13.697c.002-.32-.173-.704-.466-.994-.289-.291-.671-.469-.991-.464h-9.778c-.616.002-1.21.704-1.21 1.458v13.696h-7.357v-20.558h21.036c3.011.039 5.84 2.868 5.877 5.881v14.181.497zm6.611-.498v-.5zm-8.068-15.657c1.301.037 2.42 1.156 2.457 2.458v12.699h5.111v-13.68c.004-1.175-.601-2.414-1.534-3.345-.931-.934-2.168-1.539-3.343-1.535h-20.035v18.559h5.357v-12.698c.004-1.206.869-2.429 2.209-2.458z" fill="#fff"/><path d="m221.469 99.231v-14.18c0-2.688-2.688-5.379-5.376-5.379h-20.535v19.56h6.354v-13.2c0-.979.736-1.957 1.713-1.957h9.779c.979 0 1.953.979 1.953 1.957v13.199z"/><path d="m214.856 99.73v-13.699c.002-.319-.174-.704-.464-.993-.289-.29-.67-.468-.989-.464h-9.779c-.616.002-1.212.706-1.214 1.457v13.699h-7.354v-20.56h21.038c3.008.037 5.836 2.867 5.875 5.88v14.18.5zm6.612-.5v-.499zm-8.065-15.655c1.302.037 2.415 1.156 2.452 2.456l-.002 12.7h5.114v-13.68c.004-1.176-.601-2.415-1.533-3.346-.931-.933-2.168-1.537-3.341-1.533l-20.037-.002v18.56h5.354v-12.699c.006-1.206.873-2.429 2.213-2.458z" fill="#fff"/><path d="m314.327 99.231v-14.18c0-2.688-2.688-5.379-5.379-5.379h-20.535v19.56h6.354v-13.2c0-.979.732-1.957 1.715-1.957h9.775c.979 0 1.955.979 1.955 1.957v13.199z"/><path d="m307.712 99.73v-13.699c.002-.32-.173-.703-.466-.993-.287-.291-.67-.467-.99-.463l-9.774-.002c-.623.002-1.215.705-1.218 1.458v13.699h-7.352v-20.558h21.036c3.013.037 5.84 2.866 5.879 5.878v14.18.5zm6.615-.5v-.5zm-8.071-15.655c1.302.036 2.419 1.155 2.454 2.456v12.699h5.115v-13.68c.005-1.176-.601-2.414-1.533-3.345-.931-.934-2.17-1.538-3.344-1.533h-20.036v18.558h5.354v-12.699c.004-1.205.87-2.429 2.215-2.458z" fill="#fff"/><path d="m258.892 99.231v-14.18c0-2.688-2.688-5.379-5.379-5.379h-27.625v19.56h6.357v-13.2c0-.979.73-1.957 1.709-1.957h3.668c.734 0 1.712.979 1.712 1.957v13.199h6.358v-13.199c0-.979.73-1.957 1.709-1.957h3.668c.732 0 1.711.979 1.711 1.957v13.199z"/><path d="m238.834 99.731v-13.7c.003-.319-.179-.715-.45-1.008-.265-.301-.617-.461-.763-.45h-3.668c-.615.002-1.208.704-1.21 1.458v13.698h-7.356v-20.557h28.126c3.014.037 5.84 2.867 5.88 5.879v14.18.499h-7.112v-13.699c.004-.319-.179-.715-.451-1.008-.264-.301-.617-.461-.76-.45h-3.67c-.614.002-1.207.704-1.209 1.458v13.7zm20.058-.501v-.499zm-7.823-15.655c1.128.07 2.148 1.16 2.209 2.456v12.7h5.112v-13.68c.004-1.177-.601-2.415-1.534-3.346-.931-.934-2.169-1.538-3.344-1.534l-27.125-.002v18.563h5.355v-12.7c.007-1.203.869-2.429 2.21-2.456h3.668c1.13.07 2.152 1.16 2.211 2.456v12.698h5.359v-12.699c.005-1.203.867-2.429 2.209-2.456z" fill="#fff"/><path d="m21.514 99.231h-16.135c-2.688 0-5.379-1.71-5.379-4.398v-15.4h21.513v4.646h-14.424c-.732 0-1.711.733-1.711 1.712s.979 1.712 1.711 1.712h13.446v3.911h-13.446c-.732 0-1.711.979-1.711 1.712 0 .979.979 1.955 1.711 1.955h14.424z"/><path d="m5.379 99.73c-2.868-.005-5.852-1.828-5.881-4.898v-15.9h22.515v5.646h-14.924c-.202-.006-.543.124-.795.359-.256.233-.417.535-.417.853 0 .316.161.62.417.853.252.236.593.364.795.359h13.945v4.911h-13.945c-.145-.013-.51.154-.776.434-.281.269-.448.634-.436.778-.004.32.177.715.45 1.006.265.299.618.463.762.448h14.922l.002 4.652.002.5h-16.636zm16.134-.5v-.5zm-21.013-4.398c.004 2.305 2.369 3.893 4.879 3.898h15.634v-3.151h-13.924c-1.127-.07-2.152-1.158-2.211-2.455.091-1.123 1.088-2.118 2.211-2.212h12.945v-2.911h-12.945c-1.024-.029-2.166-.882-2.211-2.212.045-1.33 1.187-2.183 2.211-2.212l13.922-.002v-3.645h-20.511z" fill="#fff"/><path d="m100.979 99.478h-16.136c-2.688 0-5.379-1.711-5.379-4.397v-15.404h21.515v4.645h-14.426c-.731 0-1.71.734-1.71 1.715s.979 1.711 1.71 1.711h13.446v3.91h-13.446c-.731 0-1.71.979-1.71 1.714 0 .979.979 1.954 1.71 1.954h14.426z"/><path d="m84.843 99.978c-2.868-.006-5.853-1.829-5.879-4.898v-15.905h22.514v5.646h-14.925c-.2-.006-.541.124-.793.359-.256.235-.419.537-.417.857-.002.315.159.617.417.851.25.233.59.363.793.357h13.945v4.912l-13.945-.002c-.145-.013-.508.155-.776.436-.279.269-.448.635-.434.779-.006.319.175.714.448 1.007.265.298.618.459.762.448h14.924v4.65.502h-16.634zm16.136-.502v-.499zm-21.016-4.397c.004 2.303 2.371 3.891 4.88 3.897h15.635v-3.153h-13.925c-1.127-.07-2.15-1.156-2.212-2.453.093-1.124 1.09-2.123 2.212-2.214h12.946v-2.91h-12.946c-1.022-.028-2.167-.88-2.212-2.209.045-1.335 1.188-2.188 2.212-2.216h13.925v-3.646h-20.515z" fill="#fff"/><path d="m284.907 99.231h-16.137c-2.688 0-5.381-1.711-5.381-4.398v-15.4h21.516v4.646h-14.424c-.732 0-1.715.733-1.715 1.712s.979 1.712 1.715 1.712h13.442v3.911h-13.442c-.732 0-1.715.979-1.715 1.712 0 .979.979 1.955 1.715 1.955h14.424v4.153h.002z"/><path d="m284.907 99.732h-.504v-.002h-15.633c-2.868-.006-5.854-1.828-5.881-4.898v-15.9h22.517v5.646h-14.924c-.202-.005-.545.125-.797.36-.259.233-.421.536-.419.853-.002.314.16.617.417.853.252.233.597.363.799.358h13.94v4.912l-13.94-.002c-.145-.013-.511.156-.78.436-.281.269-.448.634-.436.777-.004.319.177.713.45 1.007.265.299.619.461.766.448h14.924v4.653.5h-.499zm-21.018-4.9c.005 2.304 2.371 3.892 4.881 3.898h15.634v-3.152h-13.922c-1.13-.069-2.156-1.157-2.215-2.454.092-1.123 1.093-2.12 2.215-2.212l12.941-.002v-2.91h-12.941c-1.026-.027-2.171-.88-2.215-2.21.044-1.332 1.19-2.185 2.215-2.214h13.922v-3.646h-20.515z" fill="#fff"/><path d="m54.517 79.675v4.4h6.355c1.712 0 1.712 0 1.712 1.957v13.199h6.111v-13.199c0-1.957 0-1.957 1.956-1.957h6.111v-4.4z"/><path d="m62.084 99.73v-13.699c0-.55-.004-.938-.035-1.163-.033-.221-.056-.217-.056-.219 0-.002-.054-.031-.196-.048-.186-.026-.5-.028-.925-.026h-6.855v-4.9-.502h23.246v5.4l-6.612.002c-.729-.007-1.181.017-1.309.072-.081.058-.045-.063-.12.308-.025.227-.027.589-.027 1.076v13.699zm-7.068-16.157h5.856c.834.027 1.361-.082 1.873.417.409.546.312 1.065.339 2.041v12.697h5.111v-12.697c.027-.967-.079-1.519.39-2.065.547-.471 1.099-.365 2.065-.391h5.613v-3.4h-21.247zm-.5-3.398v-.5z" fill="#fff"/><path d="m132.197 79.675v4.4h6.355c1.71 0 1.71 0 1.71 1.957v13.199h6.112v-13.199c0-1.957 0-1.957 1.957-1.957h6.112v-4.4z"/><path d="m139.761 99.73v-13.699c0-.55-.002-.938-.033-1.163-.035-.221-.056-.217-.056-.219 0-.002-.054-.031-.196-.048-.186-.026-.498-.028-.925-.026h-6.856v-4.9-.502h23.246v5.402l-6.61-.002c-.731-.005-1.183.019-1.311.074-.081.058-.045-.063-.12.308-.024.227-.026.589-.026 1.076v13.699zm-7.064-16.157h5.854c.834.027 1.361-.082 1.873.417.409.546.312 1.065.336 2.041v12.697h5.113v-12.697c.027-.967-.079-1.519.39-2.065.549-.471 1.101-.365 2.067-.393h5.611v-3.398h-21.245v3.398zm-.5-3.398v-.5z" fill="#fff"/><path d="m317.909 79.675v4.4h6.354c1.713 0 1.713 0 1.713 1.957v13.199h6.11v-13.199c0-1.957 0-1.957 1.955-1.957h6.111v-4.4z"/><path d="m325.476 99.731v-13.699c0-.55-.002-.94-.033-1.165-.034-.221-.057-.216-.057-.219s-.053-.031-.195-.048c-.187-.025-.5-.027-.928-.025h-6.854v-4.9-.501h23.244v5.399h-6.611c-.73-.006-1.184.019-1.31.075-.082.057-.046-.064-.119.307-.025.229-.027.588-.027 1.077v13.699zm-7.069-16.157h5.855c.835.027 1.362-.084 1.876.416.409.545.311 1.067.336 2.042v12.698h5.112v-12.698c.025-.968-.08-1.52.391-2.067.548-.47 1.098-.363 2.064-.391h5.609v-3.399h-21.244v3.399zm-.499-3.399v-.5z" fill="#fff"/><path d="m105.366 79.675v19.559h6.356v-3.42c0-.979.733-1.959 1.711-1.959h8.068c.979 0 1.711.979 1.711 1.959v3.42h5.379v-5.379c0-.73-.732-1.709-.732-2.688 0-.73 1.711-2.441 1.711-4.396v-1.713c0-1.714-2.689-5.381-4.4-5.381zm8.067 4.4h8.068c.979 0 1.71.979 1.71 1.957v1.71c0 .979-.732 1.713-1.71 1.713h-8.068c-.978 0-1.711-.733-1.711-1.713v-1.71c.001-.976.733-1.957 1.711-1.957z"/><path d="m122.711 99.732v-3.919c-.002-.756-.595-1.458-1.21-1.46h-8.068c-.615.002-1.21.706-1.212 1.46v3.919h-7.355v-20.057-.501l20.305.002c1.2.043 2.286 1.069 3.233 2.24.923 1.197 1.644 2.546 1.665 3.641v1.714c-.002 1.126-.479 2.112-.919 2.901-.45.756-.842 1.464-.791 1.495-.035.758.68 1.669.731 2.687v5.879h-6.379zm-16.846-.999h5.357v-2.92c.006-1.206.869-2.431 2.211-2.46h8.068c1.34.029 2.206 1.254 2.21 2.46v2.918h4.379v-4.878c.052-.441-.698-1.489-.731-2.687.05-.7.514-1.214.919-1.984.415-.739.795-1.584.791-2.412v-1.714c.021-.619-.601-1.962-1.452-3.025-.824-1.092-1.937-1.899-2.449-1.854l-19.304-.002v18.558zm-.5-18.558v-.5zm8.068 9.78c-1.239-.004-2.209-.975-2.211-2.214v-1.71c.006-1.202.869-2.427 2.211-2.457v.499.502c-.615 0-1.21.706-1.212 1.456v1.71c.014.721.493 1.199 1.212 1.212h8.068c.717-.013 1.196-.491 1.21-1.212v-1.71c-.002-.754-.595-1.456-1.21-1.456h-8.068v-.502-.499h8.068c1.34.028 2.204 1.253 2.21 2.457v1.71c-.002 1.237-.973 2.21-2.21 2.214z" fill="#fff"/><path d="m161.594 79.675c-1.712 0-4.399 3.667-4.399 5.381v14.178h6.354v-5.379h11.489v5.379h6.355v-14.178c0-1.714-2.688-5.381-4.646-5.381zm3.667 4.4h8.066c.73 0 1.711.979 1.711 1.957v3.422h-11.489v-3.422c0-.976.734-1.957 1.712-1.957z"/><path d="m156.694 99.733v-14.677c.021-1.095.741-2.443 1.665-3.643.946-1.171 2.034-2.195 3.236-2.24v.501.5c-.512-.043-1.625.765-2.449 1.856-.849 1.062-1.472 2.403-1.45 3.025l-.002 13.675h5.354v-5.378h12.489l-.002 5.38h5.356v-13.676c.022-.622-.599-1.96-1.477-3.02-.859-1.088-2.001-1.896-2.668-1.862h-15.153v-.5-.499h15.153c1.29.033 2.47 1.057 3.444 2.232.958 1.201 1.681 2.554 1.701 3.648v14.676h-7.355v-5.379h-10.49v5.381zm6.354-9.779v-3.922c.006-1.204.872-2.429 2.214-2.459v.502.499c-.616.002-1.212.709-1.214 1.458v2.92h10.49v-2.92c.004-.32-.178-.715-.45-1.008-.267-.301-.619-.462-.76-.45h-8.065v-.499-.502l8.065.002c1.126.07 2.149 1.16 2.21 2.457v3.922z" fill="#fff"/><path d="m191.907 99.231v-19.558h-6.11v19.559h6.11z"/><path d="m185.294 99.73v-20.56h7.112v20.06.5zm6.612-.5v-.5zm-5.61-.5h5.108v-18.557h-5.108z" fill="#fff"/><path d="m250.86 126.021v-14.18c0-2.688-2.689-5.379-5.381-5.379h-27.623v19.559h6.354v-13.201c0-.979.732-1.957 1.71-1.957h3.667c.734 0 1.714.979 1.714 1.957v13.199h6.354v-13.199c0-.979.73-1.957 1.709-1.957h3.668c.732 0 1.715.979 1.715 1.957v13.199h6.111z"/><path d="m250.649 126.518h-6.402v-13.698c.004-.319-.179-.714-.451-1.009-.266-.299-.622-.461-.764-.449h-3.669c-.616 0-1.208.704-1.21 1.458v13.698h-7.354v-13.698c.005-.319-.176-.714-.448-1.009-.266-.299-.62-.461-.764-.449h-3.667c-.616 0-1.21.704-1.212 1.458v13.698h-7.353v-20.558l28.122.002c3.015.037 5.845 2.867 5.883 5.877v14.181 1.209zm.21-.498.354-.354zm-32.503-.5h5.353v-12.7c.006-1.206.87-2.429 2.211-2.458h3.667c1.129.07 2.15 1.162 2.213 2.458l-.002 12.698h5.356v-12.698c.004-1.204.868-2.429 2.209-2.458h3.669c1.127.072 2.153 1.16 2.213 2.458v12.698h5.114v-13.679c.004-1.173-.601-2.412-1.534-3.342-.931-.935-2.17-1.539-3.348-1.535h-27.121z" fill="#fff"/><path d="m213.479 126.021h-16.137c-2.688 0-5.377-1.713-5.377-4.397v-15.404h21.512v4.646h-14.422c-.732 0-1.713.732-1.713 1.711s.979 1.712 1.713 1.712h13.443v3.911h-13.443c-.732 0-1.713.979-1.713 1.713 0 .979.979 1.954 1.713 1.954h14.422z"/><path d="m197.344 126.519c-2.868-.004-5.854-1.829-5.878-4.896v-15.904h22.51v5.646h-14.921c-.201-.005-.543.126-.796.36-.257.234-.418.536-.418.852 0 .316.161.619.418.854.251.233.593.364.796.358h13.942v4.912l-13.942-.002c-.144-.013-.51.155-.777.437-.281.268-.449.632-.437.777-.005.318.178.713.451 1.005.264.3.617.462.763.449h14.921l.002 4.653.002.501zm16.135-.499v-.499zm-21.014-4.397c.004 2.3 2.369 3.891 4.879 3.897h15.635l-.002-3.155h-13.922c-1.129-.068-2.152-1.156-2.213-2.453.092-1.123 1.092-2.122 2.213-2.213l12.944-.002v-2.909h-12.944c-1.025-.028-2.169-.882-2.213-2.212.046-1.33 1.189-2.182 2.213-2.211h13.922v-3.646h-20.512z" fill="#fff"/><path d="m167.017 106.462v4.398h6.355c1.711 0 1.711 0 1.711 1.957v13.199h6.111v-13.199c0-1.957 0-1.957 1.959-1.957h6.109v-4.398z"/><path d="m174.583 126.516v-13.698c0-.551-.004-.94-.035-1.164-.033-.222-.057-.218-.057-.22s-.052-.031-.194-.048c-.187-.024-.499-.026-.926-.026h-6.855v-4.897-.502h23.245v5.399h-6.607c-.731-.006-1.185.017-1.312.074-.082.057-.047-.064-.12.307-.026.229-.028.587-.028 1.077v13.698zm-7.066-16.158 5.854.002c.835.025 1.361-.085 1.873.415.41.545.313 1.066.337 2.042v12.698h5.113v-12.698c.025-.967-.079-1.519.39-2.067.549-.47 1.1-.364 2.069-.39l5.608-.002v-3.397h-21.245v3.397zm-.5-3.397v-.499z" fill="#fff"/><path d="m94.611 106.565c-1.712 0-5.379 2.689-5.379 4.397v2.69c0 1.713 3.667 4.4 5.379 4.4h10.756c.978 0 1.956.979 1.956 1.711 0 .978-.979 1.954-1.956 1.954h-16.135v4.399h18.09c1.712 0 5.134-2.688 5.134-4.399v-2.688c0-1.957-3.422-4.646-5.134-4.646h-10.756c-.979 0-1.955-.733-1.955-1.713 0-.978.977-1.713 1.955-1.713h15.89v-4.397h-17.845z"/><path d="m88.732 126.618v-5.401h16.634c.319.005.702-.172.992-.464.292-.288.468-.671.464-.988.012-.145-.149-.497-.45-.762-.292-.273-.688-.454-1.007-.45h-10.756c-1.092-.021-2.44-.741-3.64-1.665-1.168-.947-2.194-2.033-2.238-3.234v-2.691c.043-1.199 1.069-2.285 2.238-3.233 1.022-.786 2.153-1.426 3.141-1.61v-.058h18.845v5.396l-16.39.002c-.75 0-1.455.595-1.455 1.212 0 .618.703 1.212 1.455 1.212h10.756c1.098.021 2.393.753 3.535 1.71 1.114.978 2.071 2.169 2.099 3.438v2.688c-.038 1.177-.995 2.278-2.105 3.226-1.138.924-2.432 1.651-3.528 1.674h-18.59zm1.001-1.001h17.589c.615.021 1.89-.597 2.89-1.443 1.027-.822 1.782-1.923 1.745-2.455v-2.688c.027-.689-.728-1.82-1.751-2.679-.999-.874-2.271-1.489-2.884-1.469h-10.757c-1.206-.006-2.426-.872-2.455-2.213.029-1.338 1.249-2.206 2.455-2.212l15.389-.002v-3.396h-16.843v.005h-.501c-.617-.021-1.959.601-3.022 1.45-1.092.826-1.9 1.938-1.856 2.446v2.691c-.043.51.765 1.624 1.856 2.449 1.063.849 2.405 1.471 3.022 1.45h10.757c1.297.062 2.387 1.083 2.457 2.212-.038 1.299-1.156 2.416-2.457 2.453h-15.634zm4.876-19.052v-.501z" fill="#fff"/><path d="m146.397 106.565c-1.713 0-5.38 2.689-5.38 4.397v2.69c0 1.713 3.667 4.4 5.38 4.4h10.756c.978 0 1.956.979 1.956 1.711 0 .978-.979 1.954-1.956 1.954h-16.136v4.399h18.091c1.712 0 5.134-2.688 5.134-4.399v-2.688c0-1.957-3.422-4.646-5.134-4.646h-10.757c-.978 0-1.955-.733-1.955-1.713 0-.978.978-1.713 1.955-1.713h15.891v-4.397h-17.845z"/><path d="m140.515 126.618v-5.401h16.638c.317.005.701-.172.991-.464.292-.288.468-.671.464-.988.012-.145-.149-.497-.447-.762-.294-.273-.69-.454-1.007-.45h-10.756c-1.094-.021-2.442-.741-3.642-1.665-1.168-.947-2.194-2.033-2.237-3.234l-.002-2.691c.046-1.199 1.071-2.285 2.242-3.233 1.021-.786 2.152-1.426 3.141-1.61v-.058h18.844v5.396l-16.392.002c-.75 0-1.454.597-1.457 1.212.002.618.705 1.212 1.457 1.212h10.757c1.098.021 2.395.753 3.534 1.71 1.115.978 2.074 2.169 2.101 3.438v2.688c-.037 1.177-.997 2.278-2.107 3.226-1.137.924-2.43 1.651-3.528 1.674h-18.594zm1.003-1.001h17.589c.615.021 1.889-.597 2.89-1.443 1.028-.822 1.782-1.923 1.745-2.455v-2.688c.027-.689-.727-1.82-1.75-2.679-.999-.874-2.271-1.489-2.884-1.469h-10.757c-1.206-.006-2.426-.872-2.455-2.213.029-1.34 1.251-2.206 2.455-2.212h15.391l-.002-3.398h-16.843v.003h-.5c-.62-.02-1.962.603-3.025 1.452-1.092.826-1.899 1.938-1.856 2.446v2.691c-.043.51.764 1.624 1.856 2.449 1.063.849 2.405 1.471 3.025 1.45h10.756c1.295.062 2.385 1.083 2.455 2.212-.037 1.299-1.156 2.416-2.455 2.453h-15.637zm4.879-19.052v-.501z" fill="#fff"/><path d="m114.412 106.565v8.804c0 1.71 2.688 4.399 4.4 4.399h4.398v6.354h6.357v-6.354h4.4c1.71 0 4.4-2.689 4.4-4.399v-8.804h-6.112v7.092c0 .732-.978 1.712-1.956 1.712h-7.822c-.979 0-1.956-.979-1.956-1.712v-7.092z"/><path d="m122.709 126.621v-6.354h-3.897c-1.112-.021-2.246-.771-3.196-1.705-.935-.951-1.685-2.084-1.705-3.195v-8.803-.499h7.11v7.591c-.012.144.149.497.448.763.294.271.688.453 1.009.449h7.821c.319.004.713-.178 1.007-.449.301-.266.462-.619.45-.763v-7.591h7.112v9.302c-.023 1.111-.772 2.244-1.705 3.195-.953.935-2.086 1.685-3.194 1.705h-3.901v6.354zm.999-7.354v6.354h5.357v-6.354h4.902c.599.022 1.666-.574 2.486-1.411.839-.82 1.434-1.887 1.413-2.488v-8.303h-5.113v6.592c-.07 1.129-1.16 2.15-2.455 2.211l-7.821.002c-1.297-.063-2.387-1.086-2.457-2.213v-6.592h-5.109v8.303c-.021.602.574 1.668 1.411 2.488.821.837 1.888 1.434 2.49 1.411zm-9.296-12.203v-.5z" fill="#fff"/></svg>