<svg height="47.963" viewBox="157.682 -16.521 110.5 47.963" width="110.5" xmlns="http://www.w3.org/2000/svg" xmlns:xlink="http://www.w3.org/1999/xlink"><linearGradient id="a" gradientUnits="userSpaceOnUse" x1="220.4409" x2="243.1284" y1="-5.7192" y2="21.6558"><stop offset="0" stop-color="#fff"/><stop offset=".1624" stop-color="#8a8a8a"/><stop offset=".2081" stop-color="#a0a0a0"/><stop offset=".3604" stop-color="#bfbfbf"/><stop offset=".4569" stop-color="#848484"/><stop offset=".6497" stop-color="#acacac"/><stop offset=".802" stop-color="#909090"/><stop offset=".8579" stop-color="#d0d0d0"/><stop offset="1" stop-color="#929292"/></linearGradient><path d="m179.621-16.521h66.623c12.066 0 21.939 10.791 21.939 23.981 0 13.191-9.873 23.982-21.939 23.982h-66.623c-12.066 0-21.938-10.791-21.938-23.982-.001-13.189 9.871-23.981 21.938-23.981z" fill="#514d49"/><path d="m181.076-13.271h63.711c11.541 0 20.982 9.441 20.982 20.981 0 11.541-9.441 20.982-20.982 20.982h-63.711c-11.541 0-20.981-9.441-20.981-20.982-.001-11.539 9.44-20.981 20.981-20.981z" fill="#6f685f"/><path d="m206.783 17.384c-1.651-1.479-2.403-3.939-2.403-7.279v-4.405c0-3.32.752-5.77 2.403-7.248 1.665-1.469 4.445-2.114 8.353-2.121h3.499c3.22.002 5.676.425 7.4 1.339 1.725.9 2.682 2.375 2.666 4.19v2.08h-9.223v-.5-.564c-.009-.441-.108-.533-.182-.573-.125-.079-.697-.187-1.556-.181h-1.956c-1.072-.013-1.782.121-1.889.206-.057.011-.217.221-.215.843v2.242c1.133-.464 2.449-.688 3.938-.688h2.889c2.956.004 5.177.489 6.665 1.568 1.488 1.08 2.229 2.797 2.219 4.941l.002 1.934v.002c.014 2.094-.975 3.78-2.818 4.809-1.836 1.039-4.476 1.521-7.941 1.523l-3.499.002c-3.907-.006-6.687-.655-8.352-2.12zm39.664 1.851v-4.049h-14.861l.047-6.602 12.057-11.984h11.979l-.002 12.797h3.504v5.289.5h-3.502v4.049zm-28.706-5.554c1.216.009 2.024-.094 2.212-.188.09-.037.206-.127.219-.649v-1.577c-.019-.471-.106-.528-.237-.594-.207-.096-1.004-.193-2.193-.187h-1.587c-1.196-.007-1.998.083-2.233.181-.131.059-.216.106-.239.598v1.577c.019.517.119.589.252.649.228.098 1.027.196 2.221.189h1.585zm23.284-4.284h5.422l-.002-5.457z"/><path d="m228.851 13.214c0 3.889-3.418 5.832-10.258 5.832h-3.5c-3.854 0-6.525-.666-8.018-1.992-1.494-1.33-2.238-3.633-2.238-6.906v-4.405c0-3.254.744-5.545 2.238-6.875 1.492-1.33 4.164-1.994 8.018-1.994h3.5c3.176 0 5.564.427 7.164 1.28 1.602.854 2.402 2.104 2.402 3.75v1.578h-8.223v-.565c0-.516-.148-.854-.447-1.013-.299-.158-.896-.239-1.791-.239h-1.955c-1.111 0-1.824.091-2.135.27-.314.178-.469.604-.469 1.279v3.033c1.191-.653 2.672-.979 4.438-.979h2.889c2.904 0 5.027.491 6.371 1.472 1.342.982 2.014 2.496 2.014 4.539v1.934zm29.775 1.515h-3.5v4.049h-8.221v-4.049h-14.857l.041-5.892 11.764-11.695h11.273v12.797h3.5zm-11.72-4.79v-7.17l-7.123 7.171h7.123zm-26.276 2.947v-1.576c0-.559-.184-.909-.551-1.058-.365-.147-1.16-.224-2.381-.224h-1.586c-1.223 0-2.023.069-2.402.21-.381.137-.57.493-.57 1.069v1.576c0 .598.189.969.57 1.115.379.148 1.18.225 2.402.225h1.586c1.248 0 2.049-.074 2.402-.225.353-.144.53-.517.53-1.112z" fill="url(#a)"/><path d="m195.475 7.601h.211l7.037 7.242h-15.359v-7.242z"/><path d="m201.543.079h1.195l-7.143 7.242h-8.234v-7.242z"/><path d="m183.162 23.737c-8.729-.017-16.485-6.963-16.489-16.318.008-9.095 7.656-16.398 16.403-16.404 1.657 0 2.845.182 4.487.617l.375.097v8.423.874l-.754-.444c-1.402-.819-2.658-1.21-4.196-1.214-4.415.008-7.702 3.605-7.71 7.879.01 4.09 3.386 7.785 7.798 7.793 1.479-.008 2.265-.217 4.138-1.143l.723-.363v9.4l-.367.099c-1.873.514-2.818.704-4.382.704-.009 0-.019 0-.026 0z"/><path d="m195.489 8.103h-7.612v6.242h13.68z" fill="#c60000"/><g fill="#0461a0"><path d="m201.557.579h-13.68v6.241h7.524z"/><path d="m187.45.151v-8.036c-1.625-.428-2.738-.6-4.358-.6-8.467 0-15.904 7.099-15.904 15.903 0 9.064 7.521 15.818 15.988 15.818 1.538 0 2.394-.172 4.274-.686v-8.207c-1.883.938-2.82 1.195-4.358 1.195-4.703 0-8.297-3.932-8.297-8.293 0-4.529 3.506-8.379 8.209-8.379 1.625.002 2.993.43 4.446 1.285z"/></g></svg>