<?xml version="1.0" encoding="UTF-8" standalone="no"?>
<svg
   xmlns:dc="http://purl.org/dc/elements/1.1/"
   xmlns:cc="http://creativecommons.org/ns#"
   xmlns:rdf="http://www.w3.org/1999/02/22-rdf-syntax-ns#"
   xmlns:svg="http://www.w3.org/2000/svg"
   xmlns="http://www.w3.org/2000/svg"
   xmlns:sodipodi="http://sodipodi.sourceforge.net/DTD/sodipodi-0.dtd"
   xmlns:inkscape="http://www.inkscape.org/namespaces/inkscape"
   version="1.1"
   x="0px"
   y="0px"
   width="512"
   height="108"
   viewBox="0 0 511.99999 108"
   enable-background="new 0 0 566.929 104.51"
   xml:space="preserve"
   id="svg1233"
   sodipodi:docname="system.svg"
   inkscape:version="1.0.2 (e86c8708, 2021-01-15)"><metadata
   id="metadata1239"><rdf:RDF><cc:Work
       rdf:about=""><dc:format>image/svg+xml</dc:format><dc:type
         rdf:resource="http://purl.org/dc/dcmitype/StillImage" /><dc:title></dc:title></cc:Work></rdf:RDF></metadata><defs
   id="defs1237" /><sodipodi:namedview
   pagecolor="#ffffff"
   bordercolor="#666666"
   borderopacity="1"
   objecttolerance="10"
   gridtolerance="10"
   guidetolerance="10"
   inkscape:pageopacity="0"
   inkscape:pageshadow="2"
   inkscape:window-width="1219"
   inkscape:window-height="728"
   id="namedview1235"
   showgrid="false"
   inkscape:zoom="1"
   inkscape:cx="283.46451"
   inkscape:cy="52.255001"
   inkscape:window-x="0"
   inkscape:window-y="23"
   inkscape:window-maximized="0"
   inkscape:current-layer="svg1233" />

<g
   id="g1256"
   transform="matrix(0.8748891,0,0,0.88029854,7.9999987,7.9999998)"><g
     id="Layer_2">
	<g
   id="g1207">
		<path
   d="m 566.929,84.51 c 0,11 -9,20 -20,20 H 20 c -11,0 -20,-9 -20,-20 V 20 C 0,9 9,0 20,0 h 526.929 c 11,0 20,9 20,20 z"
   id="path1205" />
	</g>
</g><g
     id="Layer_1">
	<g
   id="g1230">
		<polygon
   fill="#ff0000"
   points="384.13,86.539 432.921,86.539 451.475,76.296 432.612,68.958 "
   id="polygon1210" />
		<polygon
   fill="#ff0000"
   points="491.545,57.097 470.401,47.377 457.365,52.681 387.336,18.221 444.932,18.221 521.617,57.097 "
   id="polygon1212" />
		<polygon
   fill="#ffcc00"
   points="543.091,18.458 494.302,18.458 475.749,28.693 494.603,36.031 "
   id="polygon1214" />
		<polygon
   fill="#ffcc00"
   points="435.676,47.892 456.822,57.613 469.857,52.308 539.886,86.768 482.291,86.768 405.605,47.892 "
   id="polygon1216" />
		<rect
   x="23.837"
   y="17.749001"
   fill="#ffcc00"
   width="38.174999"
   height="46.650002"
   id="rect1218" />
		<rect
   x="23.837"
   y="70.110001"
   fill="#ffcc00"
   width="97.823997"
   height="14.281"
   id="rect1220" />
		<polygon
   fill="#ffcc00"
   points="131.21,17.749 162.227,43.926 139.807,60.375 85.87,17.749 "
   id="polygon1222" />
		<polygon
   fill="#ffcc00"
   points="178.927,84.392 178.927,62.967 248.125,17.749 214.718,17.749 145.526,62.967 143.136,62.967 143.136,84.392 "
   id="polygon1224" />
		<polygon
   fill="#ffcc00"
   points="291.074,48.686 291.074,84.392 252.899,84.392 252.899,24.885 "
   id="polygon1226" />
		<polygon
   fill="#ffcc00"
   points="376.972,84.392 376.972,17.742 358.361,17.742 358.361,64.613 288.69,17.749 257.667,17.749 355.498,84.392 "
   id="polygon1228" />
	</g>
</g></g>
</svg>
