<svg enable-background="new 0 0 566.929 104.51" height="108" viewBox="0 0 511.99999 108" width="512" xmlns="http://www.w3.org/2000/svg"><g transform="matrix(.8748891 0 0 .88029854 7.999999 8)"><path d="m566.929 84.51c0 11-9 20-20 20h-526.929c-11 0-20-9-20-20v-64.51c0-11 9-20 20-20h526.929c11 0 20 9 20 20z"/><path d="m384.13 86.539h48.791l18.554-10.243-18.863-7.338z" fill="#f00"/><path d="m491.545 57.097-21.144-9.72-13.036 5.304-70.029-34.46h57.596l76.685 38.876z" fill="#f00"/><g fill="#fc0"><path d="m543.091 18.458h-48.789l-18.553 10.235 18.854 7.338z"/><path d="m435.676 47.892 21.146 9.721 13.035-5.305 70.029 34.46h-57.595l-76.686-38.876z"/><path d="m23.837 17.749001h38.174999v46.650002h-38.174999z"/><path d="m23.837 70.110001h97.823997v14.281h-97.823997z"/><path d="m131.21 17.749 31.017 26.177-22.42 16.449-53.937-42.626z"/><path d="m178.927 84.392v-21.425l69.198-45.218h-33.407l-69.192 45.218h-2.39v21.425z"/><path d="m291.074 48.686v35.706h-38.175v-59.507z"/><path d="m376.972 84.392v-66.65h-18.611v46.871l-69.671-46.864h-31.023l97.831 66.643z"/></g></g></svg>