<?xml version="1.0" encoding="UTF-8" standalone="no"?>
<svg
   xmlns:dc="http://purl.org/dc/elements/1.1/"
   xmlns:cc="http://creativecommons.org/ns#"
   xmlns:rdf="http://www.w3.org/1999/02/22-rdf-syntax-ns#"
   xmlns:svg="http://www.w3.org/2000/svg"
   xmlns="http://www.w3.org/2000/svg"
   xmlns:sodipodi="http://sodipodi.sourceforge.net/DTD/sodipodi-0.dtd"
   xmlns:inkscape="http://www.inkscape.org/namespaces/inkscape"
   version="1.1"
   id="Layer_1"
   x="0px"
   y="0px"
   width="512"
   height="104"
   viewBox="-1 -1 511.99999 104"
   enable-background="new -1 -1 568.929 116.145"
   xml:space="preserve"
   sodipodi:docname="system.svg"
   inkscape:version="1.0.2 (e86c8708, 2021-01-15)"><metadata
   id="metadata2102"><rdf:RDF><cc:Work
       rdf:about=""><dc:format>image/svg+xml</dc:format><dc:type
         rdf:resource="http://purl.org/dc/dcmitype/StillImage" /><dc:title></dc:title></cc:Work></rdf:RDF></metadata><defs
   id="defs2100" /><sodipodi:namedview
   pagecolor="#ffffff"
   bordercolor="#666666"
   borderopacity="1"
   objecttolerance="10"
   gridtolerance="10"
   guidetolerance="10"
   inkscape:pageopacity="0"
   inkscape:pageshadow="2"
   inkscape:window-width="1123"
   inkscape:window-height="707"
   id="namedview2098"
   showgrid="false"
   inkscape:zoom="1"
   inkscape:cx="284.46451"
   inkscape:cy="58.072498"
   inkscape:window-x="0"
   inkscape:window-y="23"
   inkscape:window-maximized="0"
   inkscape:current-layer="Layer_1" />


<g
   id="g2109"
   transform="matrix(0.88554666,0,0,0.87686958,3.7110809,0.44715341)"><path
     fill="#363639"
     d="m 486.102,107.83 c -15.816,-0.003 -31.142,-2.53 -38.518,-4.056 v 0 c -3.794,-0.779 -7.376,-2.094 -10.218,-5.011 v 0 c -2.841,-2.914 -4.772,-7.224 -5.811,-13.587 v 0 c -1.063,-6.538 -1.686,-19.049 -1.69,-31.315 v 0 c 0.014,-11.655 0.549,-22.882 1.974,-28.656 v 0 c 0.739,-2.974 2.011,-5.713 4.156,-8.027 v 0 c 2.143,-2.316 5.095,-4.161 9.043,-5.58 v 0 c 7.906,-2.83 19.894,-4.116 38.806,-4.125 v 0 h 26.003 c 14.182,0.001 24.474,0.738 32.063,2.287 v 0 c 7.575,1.549 12.552,3.937 15.782,7.418 v 0 c 2.146,2.314 3.419,5.053 4.158,8.027 v 0 c 1.424,5.774 1.957,17.001 1.97,28.656 v 0 c -0.004,12.266 -0.628,24.779 -1.688,31.315 v 0 c -1.038,6.363 -2.97,10.673 -5.811,13.587 v 0 c -2.842,2.917 -6.422,4.231 -10.216,5.011 v 0 c -7.377,1.525 -22.701,4.053 -38.519,4.056 v 0 -1.881 -1.883 c 15.416,0.003 30.58,-2.49 37.754,-3.976 v 0 c 3.483,-0.725 6.174,-1.792 8.286,-3.957 v 0 c 2.113,-2.165 3.82,-5.632 4.791,-11.564 v 0 c 0.997,-6.081 1.643,-18.604 1.637,-30.708 v 0 c 0.011,-11.47 -0.597,-22.77 -1.856,-27.743 v 0 c -0.641,-2.546 -1.628,-4.604 -3.269,-6.383 v 0 c -1.645,-1.776 -4.006,-3.317 -7.555,-4.596 v 0 c -7.084,-2.564 -18.806,-3.913 -37.529,-3.903 v 0 h -26.003 c -14.046,-0.001 -24.148,0.744 -31.313,2.211 v 0 c -7.183,1.468 -11.321,3.631 -13.772,6.288 v 0 c -1.642,1.779 -2.627,3.837 -3.269,6.383 v 0 c -1.261,4.975 -1.872,16.273 -1.858,27.743 v 0 c -0.005,12.103 0.64,24.626 1.64,30.708 v 0 c 0.969,5.933 2.677,9.399 4.789,11.564 v 0 c 2.115,2.165 4.805,3.232 8.286,3.957 v 0 c 7.177,1.485 22.34,3.979 37.756,3.976 v 0 h 21.486 v 1.883 1.881 z"
     id="path2087" /><polygon
     fill="#ba2025"
     points="519.113,34.884 519.113,18.074 474.328,18.199 474.328,97.231 493.019,97.231 493.019,67.249 519.363,67.249 519.363,50.565 493.019,50.565 493.019,34.884 "
     id="polygon2089" /><g
     id="g2095">
	<g
   id="g2093">
		<path
   fill="#5a5a5a"
   d="M 123.563,84.678 V 21.46 H 105.499 V 49.301 H 83.679 V 21.46 H 64.862 V 94.462 H 83.679 V 66.614 h 22.573 v 27.849 h 32.365 c 7.858,-15.046 8.046,-15.61 15.054,-27.849 5.156,0.067 9.8,-0.053 14.293,0 v 27.849 h 18.817 V 21.46 h -28.602 c -12.261,20.353 -22.174,43.046 -34.616,63.218 z m 42.332,-45.592 h 2.258 v 9.778 h -6.022 c 1.34,-3.176 2.532,-5.764 3.764,-9.778 z M 3.902,53.818 3.714,58.214 3.902,62.85 c 3.297,23.747 26.623,39.41 53.433,30.107 v -22.58 c -3.779,2.853 -7.903,7.429 -15.807,7.526 -27.36,0.323 -23.619,-38.108 -0.752,-38.379 8.211,-0.105 11.343,2.792 16.559,8.272 V 24.471 C 31.864,13.474 6.748,30.206 3.902,53.818 Z m 233.301,5.268 C 226.696,45.297 219.297,34.504 208.609,21.46 H 192.803 V 94.462 H 211.62 V 57.581 c 11.027,10.793 17.553,26.096 28.594,36.881 h 15.807 V 21.46 h -18.817 v 37.626 z m 158.794,19.57 V 21.46 h -18.81 v 73.002 h 39.885 V 78.656 Z m -65.469,15.806 h 41.391 V 77.904 H 350.09 V 67.366 h 21.828 V 49.302 H 350.09 v -10.53 h 21.828 V 21.46 H 330.527 V 94.462 Z M 305.69,59.086 C 294.309,44.793 288.168,35.761 277.088,21.46 h -15.799 v 73.002 h 18.81 V 57.581 c 10.952,12.803 17.597,23.717 28.602,36.881 h 15.806 V 21.46 H 305.69 Z"
   id="path2091" />
	</g>
</g></g>
</svg>
